G04 #@! TF.GenerationSoftware,KiCad,Pcbnew,(6.0.0-rc1-dev-1027-g90233e5ec)*
G04 #@! TF.CreationDate,2018-11-05T19:20:42+01:00*
G04 #@! TF.ProjectId,eBoard_remote_reciever,65426F6172645F72656D6F74655F7265,rev?*
G04 #@! TF.SameCoordinates,Original*
G04 #@! TF.FileFunction,Soldermask,Top*
G04 #@! TF.FilePolarity,Negative*
%FSLAX46Y46*%
G04 Gerber Fmt 4.6, Leading zero omitted, Abs format (unit mm)*
G04 Created by KiCad (PCBNEW (6.0.0-rc1-dev-1027-g90233e5ec)) date 05.11.2018 19.20.42*
%MOMM*%
%LPD*%
G01*
G04 APERTURE LIST*
%ADD10C,0.100000*%
G04 APERTURE END LIST*
D10*
G36*
X157111000Y-150761000D02*
X155309000Y-150761000D01*
X155309000Y-148959000D01*
X157111000Y-148959000D01*
X157111000Y-150761000D01*
X157111000Y-150761000D01*
G37*
G36*
X165210443Y-148965519D02*
X165276627Y-148972037D01*
X165389853Y-149006384D01*
X165446467Y-149023557D01*
X165585087Y-149097652D01*
X165602991Y-149107222D01*
X165638729Y-149136552D01*
X165740186Y-149219814D01*
X165823448Y-149321271D01*
X165852778Y-149357009D01*
X165852779Y-149357011D01*
X165936443Y-149513533D01*
X165936443Y-149513534D01*
X165987963Y-149683373D01*
X166005359Y-149860000D01*
X165987963Y-150036627D01*
X165953616Y-150149853D01*
X165936443Y-150206467D01*
X165862348Y-150345087D01*
X165852778Y-150362991D01*
X165823448Y-150398729D01*
X165740186Y-150500186D01*
X165638729Y-150583448D01*
X165602991Y-150612778D01*
X165602989Y-150612779D01*
X165446467Y-150696443D01*
X165389853Y-150713616D01*
X165276627Y-150747963D01*
X165210443Y-150754481D01*
X165144260Y-150761000D01*
X165055740Y-150761000D01*
X164989557Y-150754481D01*
X164923373Y-150747963D01*
X164810147Y-150713616D01*
X164753533Y-150696443D01*
X164597011Y-150612779D01*
X164597009Y-150612778D01*
X164561271Y-150583448D01*
X164459814Y-150500186D01*
X164376552Y-150398729D01*
X164347222Y-150362991D01*
X164337652Y-150345087D01*
X164263557Y-150206467D01*
X164246384Y-150149853D01*
X164212037Y-150036627D01*
X164194641Y-149860000D01*
X164212037Y-149683373D01*
X164263557Y-149513534D01*
X164263557Y-149513533D01*
X164347221Y-149357011D01*
X164347222Y-149357009D01*
X164376552Y-149321271D01*
X164459814Y-149219814D01*
X164561271Y-149136552D01*
X164597009Y-149107222D01*
X164614913Y-149097652D01*
X164753533Y-149023557D01*
X164810147Y-149006384D01*
X164923373Y-148972037D01*
X164989557Y-148965519D01*
X165055740Y-148959000D01*
X165144260Y-148959000D01*
X165210443Y-148965519D01*
X165210443Y-148965519D01*
G37*
G36*
X153780443Y-148965519D02*
X153846627Y-148972037D01*
X153959853Y-149006384D01*
X154016467Y-149023557D01*
X154155087Y-149097652D01*
X154172991Y-149107222D01*
X154208729Y-149136552D01*
X154310186Y-149219814D01*
X154393448Y-149321271D01*
X154422778Y-149357009D01*
X154422779Y-149357011D01*
X154506443Y-149513533D01*
X154506443Y-149513534D01*
X154557963Y-149683373D01*
X154575359Y-149860000D01*
X154557963Y-150036627D01*
X154523616Y-150149853D01*
X154506443Y-150206467D01*
X154432348Y-150345087D01*
X154422778Y-150362991D01*
X154393448Y-150398729D01*
X154310186Y-150500186D01*
X154208729Y-150583448D01*
X154172991Y-150612778D01*
X154172989Y-150612779D01*
X154016467Y-150696443D01*
X153959853Y-150713616D01*
X153846627Y-150747963D01*
X153780443Y-150754481D01*
X153714260Y-150761000D01*
X153625740Y-150761000D01*
X153559557Y-150754481D01*
X153493373Y-150747963D01*
X153380147Y-150713616D01*
X153323533Y-150696443D01*
X153167011Y-150612779D01*
X153167009Y-150612778D01*
X153131271Y-150583448D01*
X153029814Y-150500186D01*
X152946552Y-150398729D01*
X152917222Y-150362991D01*
X152907652Y-150345087D01*
X152833557Y-150206467D01*
X152816384Y-150149853D01*
X152782037Y-150036627D01*
X152764641Y-149860000D01*
X152782037Y-149683373D01*
X152833557Y-149513534D01*
X152833557Y-149513533D01*
X152917221Y-149357011D01*
X152917222Y-149357009D01*
X152946552Y-149321271D01*
X153029814Y-149219814D01*
X153131271Y-149136552D01*
X153167009Y-149107222D01*
X153184913Y-149097652D01*
X153323533Y-149023557D01*
X153380147Y-149006384D01*
X153493373Y-148972037D01*
X153559557Y-148965519D01*
X153625740Y-148959000D01*
X153714260Y-148959000D01*
X153780443Y-148965519D01*
X153780443Y-148965519D01*
G37*
G36*
X151240443Y-148965519D02*
X151306627Y-148972037D01*
X151419853Y-149006384D01*
X151476467Y-149023557D01*
X151615087Y-149097652D01*
X151632991Y-149107222D01*
X151668729Y-149136552D01*
X151770186Y-149219814D01*
X151853448Y-149321271D01*
X151882778Y-149357009D01*
X151882779Y-149357011D01*
X151966443Y-149513533D01*
X151966443Y-149513534D01*
X152017963Y-149683373D01*
X152035359Y-149860000D01*
X152017963Y-150036627D01*
X151983616Y-150149853D01*
X151966443Y-150206467D01*
X151892348Y-150345087D01*
X151882778Y-150362991D01*
X151853448Y-150398729D01*
X151770186Y-150500186D01*
X151668729Y-150583448D01*
X151632991Y-150612778D01*
X151632989Y-150612779D01*
X151476467Y-150696443D01*
X151419853Y-150713616D01*
X151306627Y-150747963D01*
X151240443Y-150754481D01*
X151174260Y-150761000D01*
X151085740Y-150761000D01*
X151019557Y-150754481D01*
X150953373Y-150747963D01*
X150840147Y-150713616D01*
X150783533Y-150696443D01*
X150627011Y-150612779D01*
X150627009Y-150612778D01*
X150591271Y-150583448D01*
X150489814Y-150500186D01*
X150406552Y-150398729D01*
X150377222Y-150362991D01*
X150367652Y-150345087D01*
X150293557Y-150206467D01*
X150276384Y-150149853D01*
X150242037Y-150036627D01*
X150224641Y-149860000D01*
X150242037Y-149683373D01*
X150293557Y-149513534D01*
X150293557Y-149513533D01*
X150377221Y-149357011D01*
X150377222Y-149357009D01*
X150406552Y-149321271D01*
X150489814Y-149219814D01*
X150591271Y-149136552D01*
X150627009Y-149107222D01*
X150644913Y-149097652D01*
X150783533Y-149023557D01*
X150840147Y-149006384D01*
X150953373Y-148972037D01*
X151019557Y-148965519D01*
X151085740Y-148959000D01*
X151174260Y-148959000D01*
X151240443Y-148965519D01*
X151240443Y-148965519D01*
G37*
G36*
X167750443Y-148965519D02*
X167816627Y-148972037D01*
X167929853Y-149006384D01*
X167986467Y-149023557D01*
X168125087Y-149097652D01*
X168142991Y-149107222D01*
X168178729Y-149136552D01*
X168280186Y-149219814D01*
X168363448Y-149321271D01*
X168392778Y-149357009D01*
X168392779Y-149357011D01*
X168476443Y-149513533D01*
X168476443Y-149513534D01*
X168527963Y-149683373D01*
X168545359Y-149860000D01*
X168527963Y-150036627D01*
X168493616Y-150149853D01*
X168476443Y-150206467D01*
X168402348Y-150345087D01*
X168392778Y-150362991D01*
X168363448Y-150398729D01*
X168280186Y-150500186D01*
X168178729Y-150583448D01*
X168142991Y-150612778D01*
X168142989Y-150612779D01*
X167986467Y-150696443D01*
X167929853Y-150713616D01*
X167816627Y-150747963D01*
X167750443Y-150754481D01*
X167684260Y-150761000D01*
X167595740Y-150761000D01*
X167529557Y-150754481D01*
X167463373Y-150747963D01*
X167350147Y-150713616D01*
X167293533Y-150696443D01*
X167137011Y-150612779D01*
X167137009Y-150612778D01*
X167101271Y-150583448D01*
X166999814Y-150500186D01*
X166916552Y-150398729D01*
X166887222Y-150362991D01*
X166877652Y-150345087D01*
X166803557Y-150206467D01*
X166786384Y-150149853D01*
X166752037Y-150036627D01*
X166734641Y-149860000D01*
X166752037Y-149683373D01*
X166803557Y-149513534D01*
X166803557Y-149513533D01*
X166887221Y-149357011D01*
X166887222Y-149357009D01*
X166916552Y-149321271D01*
X166999814Y-149219814D01*
X167101271Y-149136552D01*
X167137009Y-149107222D01*
X167154913Y-149097652D01*
X167293533Y-149023557D01*
X167350147Y-149006384D01*
X167463373Y-148972037D01*
X167529557Y-148965519D01*
X167595740Y-148959000D01*
X167684260Y-148959000D01*
X167750443Y-148965519D01*
X167750443Y-148965519D01*
G37*
G36*
X148700443Y-148965519D02*
X148766627Y-148972037D01*
X148879853Y-149006384D01*
X148936467Y-149023557D01*
X149075087Y-149097652D01*
X149092991Y-149107222D01*
X149128729Y-149136552D01*
X149230186Y-149219814D01*
X149313448Y-149321271D01*
X149342778Y-149357009D01*
X149342779Y-149357011D01*
X149426443Y-149513533D01*
X149426443Y-149513534D01*
X149477963Y-149683373D01*
X149495359Y-149860000D01*
X149477963Y-150036627D01*
X149443616Y-150149853D01*
X149426443Y-150206467D01*
X149352348Y-150345087D01*
X149342778Y-150362991D01*
X149313448Y-150398729D01*
X149230186Y-150500186D01*
X149128729Y-150583448D01*
X149092991Y-150612778D01*
X149092989Y-150612779D01*
X148936467Y-150696443D01*
X148879853Y-150713616D01*
X148766627Y-150747963D01*
X148700443Y-150754481D01*
X148634260Y-150761000D01*
X148545740Y-150761000D01*
X148479557Y-150754481D01*
X148413373Y-150747963D01*
X148300147Y-150713616D01*
X148243533Y-150696443D01*
X148087011Y-150612779D01*
X148087009Y-150612778D01*
X148051271Y-150583448D01*
X147949814Y-150500186D01*
X147866552Y-150398729D01*
X147837222Y-150362991D01*
X147827652Y-150345087D01*
X147753557Y-150206467D01*
X147736384Y-150149853D01*
X147702037Y-150036627D01*
X147684641Y-149860000D01*
X147702037Y-149683373D01*
X147753557Y-149513534D01*
X147753557Y-149513533D01*
X147837221Y-149357011D01*
X147837222Y-149357009D01*
X147866552Y-149321271D01*
X147949814Y-149219814D01*
X148051271Y-149136552D01*
X148087009Y-149107222D01*
X148104913Y-149097652D01*
X148243533Y-149023557D01*
X148300147Y-149006384D01*
X148413373Y-148972037D01*
X148479557Y-148965519D01*
X148545740Y-148959000D01*
X148634260Y-148959000D01*
X148700443Y-148965519D01*
X148700443Y-148965519D01*
G37*
G36*
X146160443Y-148965519D02*
X146226627Y-148972037D01*
X146339853Y-149006384D01*
X146396467Y-149023557D01*
X146535087Y-149097652D01*
X146552991Y-149107222D01*
X146588729Y-149136552D01*
X146690186Y-149219814D01*
X146773448Y-149321271D01*
X146802778Y-149357009D01*
X146802779Y-149357011D01*
X146886443Y-149513533D01*
X146886443Y-149513534D01*
X146937963Y-149683373D01*
X146955359Y-149860000D01*
X146937963Y-150036627D01*
X146903616Y-150149853D01*
X146886443Y-150206467D01*
X146812348Y-150345087D01*
X146802778Y-150362991D01*
X146773448Y-150398729D01*
X146690186Y-150500186D01*
X146588729Y-150583448D01*
X146552991Y-150612778D01*
X146552989Y-150612779D01*
X146396467Y-150696443D01*
X146339853Y-150713616D01*
X146226627Y-150747963D01*
X146160443Y-150754481D01*
X146094260Y-150761000D01*
X146005740Y-150761000D01*
X145939557Y-150754481D01*
X145873373Y-150747963D01*
X145760147Y-150713616D01*
X145703533Y-150696443D01*
X145547011Y-150612779D01*
X145547009Y-150612778D01*
X145511271Y-150583448D01*
X145409814Y-150500186D01*
X145326552Y-150398729D01*
X145297222Y-150362991D01*
X145287652Y-150345087D01*
X145213557Y-150206467D01*
X145196384Y-150149853D01*
X145162037Y-150036627D01*
X145144641Y-149860000D01*
X145162037Y-149683373D01*
X145213557Y-149513534D01*
X145213557Y-149513533D01*
X145297221Y-149357011D01*
X145297222Y-149357009D01*
X145326552Y-149321271D01*
X145409814Y-149219814D01*
X145511271Y-149136552D01*
X145547009Y-149107222D01*
X145564913Y-149097652D01*
X145703533Y-149023557D01*
X145760147Y-149006384D01*
X145873373Y-148972037D01*
X145939557Y-148965519D01*
X146005740Y-148959000D01*
X146094260Y-148959000D01*
X146160443Y-148965519D01*
X146160443Y-148965519D01*
G37*
G36*
X143620443Y-148965519D02*
X143686627Y-148972037D01*
X143799853Y-149006384D01*
X143856467Y-149023557D01*
X143995087Y-149097652D01*
X144012991Y-149107222D01*
X144048729Y-149136552D01*
X144150186Y-149219814D01*
X144233448Y-149321271D01*
X144262778Y-149357009D01*
X144262779Y-149357011D01*
X144346443Y-149513533D01*
X144346443Y-149513534D01*
X144397963Y-149683373D01*
X144415359Y-149860000D01*
X144397963Y-150036627D01*
X144363616Y-150149853D01*
X144346443Y-150206467D01*
X144272348Y-150345087D01*
X144262778Y-150362991D01*
X144233448Y-150398729D01*
X144150186Y-150500186D01*
X144048729Y-150583448D01*
X144012991Y-150612778D01*
X144012989Y-150612779D01*
X143856467Y-150696443D01*
X143799853Y-150713616D01*
X143686627Y-150747963D01*
X143620443Y-150754481D01*
X143554260Y-150761000D01*
X143465740Y-150761000D01*
X143399557Y-150754481D01*
X143333373Y-150747963D01*
X143220147Y-150713616D01*
X143163533Y-150696443D01*
X143007011Y-150612779D01*
X143007009Y-150612778D01*
X142971271Y-150583448D01*
X142869814Y-150500186D01*
X142786552Y-150398729D01*
X142757222Y-150362991D01*
X142747652Y-150345087D01*
X142673557Y-150206467D01*
X142656384Y-150149853D01*
X142622037Y-150036627D01*
X142604641Y-149860000D01*
X142622037Y-149683373D01*
X142673557Y-149513534D01*
X142673557Y-149513533D01*
X142757221Y-149357011D01*
X142757222Y-149357009D01*
X142786552Y-149321271D01*
X142869814Y-149219814D01*
X142971271Y-149136552D01*
X143007009Y-149107222D01*
X143024913Y-149097652D01*
X143163533Y-149023557D01*
X143220147Y-149006384D01*
X143333373Y-148972037D01*
X143399557Y-148965519D01*
X143465740Y-148959000D01*
X143554260Y-148959000D01*
X143620443Y-148965519D01*
X143620443Y-148965519D01*
G37*
G36*
X141080443Y-148965519D02*
X141146627Y-148972037D01*
X141259853Y-149006384D01*
X141316467Y-149023557D01*
X141455087Y-149097652D01*
X141472991Y-149107222D01*
X141508729Y-149136552D01*
X141610186Y-149219814D01*
X141693448Y-149321271D01*
X141722778Y-149357009D01*
X141722779Y-149357011D01*
X141806443Y-149513533D01*
X141806443Y-149513534D01*
X141857963Y-149683373D01*
X141875359Y-149860000D01*
X141857963Y-150036627D01*
X141823616Y-150149853D01*
X141806443Y-150206467D01*
X141732348Y-150345087D01*
X141722778Y-150362991D01*
X141693448Y-150398729D01*
X141610186Y-150500186D01*
X141508729Y-150583448D01*
X141472991Y-150612778D01*
X141472989Y-150612779D01*
X141316467Y-150696443D01*
X141259853Y-150713616D01*
X141146627Y-150747963D01*
X141080443Y-150754481D01*
X141014260Y-150761000D01*
X140925740Y-150761000D01*
X140859557Y-150754481D01*
X140793373Y-150747963D01*
X140680147Y-150713616D01*
X140623533Y-150696443D01*
X140467011Y-150612779D01*
X140467009Y-150612778D01*
X140431271Y-150583448D01*
X140329814Y-150500186D01*
X140246552Y-150398729D01*
X140217222Y-150362991D01*
X140207652Y-150345087D01*
X140133557Y-150206467D01*
X140116384Y-150149853D01*
X140082037Y-150036627D01*
X140064641Y-149860000D01*
X140082037Y-149683373D01*
X140133557Y-149513534D01*
X140133557Y-149513533D01*
X140217221Y-149357011D01*
X140217222Y-149357009D01*
X140246552Y-149321271D01*
X140329814Y-149219814D01*
X140431271Y-149136552D01*
X140467009Y-149107222D01*
X140484913Y-149097652D01*
X140623533Y-149023557D01*
X140680147Y-149006384D01*
X140793373Y-148972037D01*
X140859557Y-148965519D01*
X140925740Y-148959000D01*
X141014260Y-148959000D01*
X141080443Y-148965519D01*
X141080443Y-148965519D01*
G37*
G36*
X138540443Y-148965519D02*
X138606627Y-148972037D01*
X138719853Y-149006384D01*
X138776467Y-149023557D01*
X138915087Y-149097652D01*
X138932991Y-149107222D01*
X138968729Y-149136552D01*
X139070186Y-149219814D01*
X139153448Y-149321271D01*
X139182778Y-149357009D01*
X139182779Y-149357011D01*
X139266443Y-149513533D01*
X139266443Y-149513534D01*
X139317963Y-149683373D01*
X139335359Y-149860000D01*
X139317963Y-150036627D01*
X139283616Y-150149853D01*
X139266443Y-150206467D01*
X139192348Y-150345087D01*
X139182778Y-150362991D01*
X139153448Y-150398729D01*
X139070186Y-150500186D01*
X138968729Y-150583448D01*
X138932991Y-150612778D01*
X138932989Y-150612779D01*
X138776467Y-150696443D01*
X138719853Y-150713616D01*
X138606627Y-150747963D01*
X138540443Y-150754481D01*
X138474260Y-150761000D01*
X138385740Y-150761000D01*
X138319557Y-150754481D01*
X138253373Y-150747963D01*
X138140147Y-150713616D01*
X138083533Y-150696443D01*
X137927011Y-150612779D01*
X137927009Y-150612778D01*
X137891271Y-150583448D01*
X137789814Y-150500186D01*
X137706552Y-150398729D01*
X137677222Y-150362991D01*
X137667652Y-150345087D01*
X137593557Y-150206467D01*
X137576384Y-150149853D01*
X137542037Y-150036627D01*
X137524641Y-149860000D01*
X137542037Y-149683373D01*
X137593557Y-149513534D01*
X137593557Y-149513533D01*
X137677221Y-149357011D01*
X137677222Y-149357009D01*
X137706552Y-149321271D01*
X137789814Y-149219814D01*
X137891271Y-149136552D01*
X137927009Y-149107222D01*
X137944913Y-149097652D01*
X138083533Y-149023557D01*
X138140147Y-149006384D01*
X138253373Y-148972037D01*
X138319557Y-148965519D01*
X138385740Y-148959000D01*
X138474260Y-148959000D01*
X138540443Y-148965519D01*
X138540443Y-148965519D01*
G37*
G36*
X136000443Y-148965519D02*
X136066627Y-148972037D01*
X136179853Y-149006384D01*
X136236467Y-149023557D01*
X136375087Y-149097652D01*
X136392991Y-149107222D01*
X136428729Y-149136552D01*
X136530186Y-149219814D01*
X136613448Y-149321271D01*
X136642778Y-149357009D01*
X136642779Y-149357011D01*
X136726443Y-149513533D01*
X136726443Y-149513534D01*
X136777963Y-149683373D01*
X136795359Y-149860000D01*
X136777963Y-150036627D01*
X136743616Y-150149853D01*
X136726443Y-150206467D01*
X136652348Y-150345087D01*
X136642778Y-150362991D01*
X136613448Y-150398729D01*
X136530186Y-150500186D01*
X136428729Y-150583448D01*
X136392991Y-150612778D01*
X136392989Y-150612779D01*
X136236467Y-150696443D01*
X136179853Y-150713616D01*
X136066627Y-150747963D01*
X136000443Y-150754481D01*
X135934260Y-150761000D01*
X135845740Y-150761000D01*
X135779557Y-150754481D01*
X135713373Y-150747963D01*
X135600147Y-150713616D01*
X135543533Y-150696443D01*
X135387011Y-150612779D01*
X135387009Y-150612778D01*
X135351271Y-150583448D01*
X135249814Y-150500186D01*
X135166552Y-150398729D01*
X135137222Y-150362991D01*
X135127652Y-150345087D01*
X135053557Y-150206467D01*
X135036384Y-150149853D01*
X135002037Y-150036627D01*
X134984641Y-149860000D01*
X135002037Y-149683373D01*
X135053557Y-149513534D01*
X135053557Y-149513533D01*
X135137221Y-149357011D01*
X135137222Y-149357009D01*
X135166552Y-149321271D01*
X135249814Y-149219814D01*
X135351271Y-149136552D01*
X135387009Y-149107222D01*
X135404913Y-149097652D01*
X135543533Y-149023557D01*
X135600147Y-149006384D01*
X135713373Y-148972037D01*
X135779557Y-148965519D01*
X135845740Y-148959000D01*
X135934260Y-148959000D01*
X136000443Y-148965519D01*
X136000443Y-148965519D01*
G37*
G36*
X163461000Y-150761000D02*
X161659000Y-150761000D01*
X161659000Y-148959000D01*
X163461000Y-148959000D01*
X163461000Y-150761000D01*
X163461000Y-150761000D01*
G37*
G36*
X172561203Y-146582999D02*
X172627387Y-146589517D01*
X172740613Y-146623864D01*
X172797227Y-146641037D01*
X172935847Y-146715132D01*
X172953751Y-146724702D01*
X172989489Y-146754032D01*
X173090946Y-146837294D01*
X173145648Y-146903950D01*
X173203538Y-146974489D01*
X173203539Y-146974491D01*
X173287203Y-147131013D01*
X173304376Y-147187627D01*
X173338723Y-147300853D01*
X173356119Y-147477480D01*
X173338723Y-147654107D01*
X173304376Y-147767333D01*
X173287203Y-147823947D01*
X173213108Y-147962567D01*
X173203538Y-147980471D01*
X173174208Y-148016209D01*
X173090946Y-148117666D01*
X172989489Y-148200928D01*
X172953751Y-148230258D01*
X172953749Y-148230259D01*
X172797227Y-148313923D01*
X172740613Y-148331096D01*
X172627387Y-148365443D01*
X172561203Y-148371961D01*
X172495020Y-148378480D01*
X172406500Y-148378480D01*
X172340317Y-148371961D01*
X172274133Y-148365443D01*
X172160907Y-148331096D01*
X172104293Y-148313923D01*
X171947771Y-148230259D01*
X171947769Y-148230258D01*
X171912031Y-148200928D01*
X171810574Y-148117666D01*
X171727312Y-148016209D01*
X171697982Y-147980471D01*
X171688412Y-147962567D01*
X171614317Y-147823947D01*
X171597144Y-147767333D01*
X171562797Y-147654107D01*
X171545401Y-147477480D01*
X171562797Y-147300853D01*
X171597144Y-147187627D01*
X171614317Y-147131013D01*
X171697981Y-146974491D01*
X171697982Y-146974489D01*
X171755872Y-146903950D01*
X171810574Y-146837294D01*
X171912031Y-146754032D01*
X171947769Y-146724702D01*
X171965673Y-146715132D01*
X172104293Y-146641037D01*
X172160907Y-146623864D01*
X172274133Y-146589517D01*
X172340317Y-146582999D01*
X172406500Y-146576480D01*
X172495020Y-146576480D01*
X172561203Y-146582999D01*
X172561203Y-146582999D01*
G37*
G36*
X170249711Y-146175285D02*
X170283689Y-146185593D01*
X170315007Y-146202333D01*
X170342459Y-146224861D01*
X170364987Y-146252313D01*
X170381727Y-146283631D01*
X170392035Y-146317609D01*
X170396120Y-146359090D01*
X170396120Y-146960310D01*
X170392035Y-147001791D01*
X170381727Y-147035769D01*
X170364987Y-147067087D01*
X170342459Y-147094539D01*
X170315007Y-147117067D01*
X170283689Y-147133807D01*
X170249711Y-147144115D01*
X170208230Y-147148200D01*
X169532010Y-147148200D01*
X169490529Y-147144115D01*
X169456551Y-147133807D01*
X169425233Y-147117067D01*
X169397781Y-147094539D01*
X169375253Y-147067087D01*
X169358513Y-147035769D01*
X169348205Y-147001791D01*
X169344120Y-146960310D01*
X169344120Y-146359090D01*
X169348205Y-146317609D01*
X169358513Y-146283631D01*
X169375253Y-146252313D01*
X169397781Y-146224861D01*
X169425233Y-146202333D01*
X169456551Y-146185593D01*
X169490529Y-146175285D01*
X169532010Y-146171200D01*
X170208230Y-146171200D01*
X170249711Y-146175285D01*
X170249711Y-146175285D01*
G37*
G36*
X172561203Y-144042999D02*
X172627387Y-144049517D01*
X172740613Y-144083864D01*
X172797227Y-144101037D01*
X172935847Y-144175132D01*
X172953751Y-144184702D01*
X172989489Y-144214032D01*
X173090946Y-144297294D01*
X173174208Y-144398751D01*
X173203538Y-144434489D01*
X173203539Y-144434491D01*
X173287203Y-144591013D01*
X173290200Y-144600893D01*
X173338723Y-144760853D01*
X173356119Y-144937480D01*
X173338723Y-145114107D01*
X173304376Y-145227333D01*
X173287203Y-145283947D01*
X173213187Y-145422420D01*
X173203538Y-145440471D01*
X173183696Y-145464648D01*
X173090946Y-145577666D01*
X172989489Y-145660928D01*
X172953751Y-145690258D01*
X172953749Y-145690259D01*
X172797227Y-145773923D01*
X172740613Y-145791096D01*
X172627387Y-145825443D01*
X172561202Y-145831962D01*
X172495020Y-145838480D01*
X172406500Y-145838480D01*
X172340318Y-145831962D01*
X172274133Y-145825443D01*
X172160907Y-145791096D01*
X172104293Y-145773923D01*
X171947771Y-145690259D01*
X171947769Y-145690258D01*
X171912031Y-145660928D01*
X171810574Y-145577666D01*
X171717824Y-145464648D01*
X171697982Y-145440471D01*
X171688333Y-145422420D01*
X171614317Y-145283947D01*
X171597144Y-145227333D01*
X171562797Y-145114107D01*
X171545401Y-144937480D01*
X171562797Y-144760853D01*
X171611320Y-144600893D01*
X171614317Y-144591013D01*
X171697981Y-144434491D01*
X171697982Y-144434489D01*
X171727312Y-144398751D01*
X171810574Y-144297294D01*
X171912031Y-144214032D01*
X171947769Y-144184702D01*
X171965673Y-144175132D01*
X172104293Y-144101037D01*
X172160907Y-144083864D01*
X172274133Y-144049517D01*
X172340317Y-144042999D01*
X172406500Y-144036480D01*
X172495020Y-144036480D01*
X172561203Y-144042999D01*
X172561203Y-144042999D01*
G37*
G36*
X170249711Y-144600285D02*
X170283689Y-144610593D01*
X170315007Y-144627333D01*
X170342459Y-144649861D01*
X170364987Y-144677313D01*
X170381727Y-144708631D01*
X170392035Y-144742609D01*
X170396120Y-144784090D01*
X170396120Y-145385310D01*
X170392035Y-145426791D01*
X170381727Y-145460769D01*
X170364987Y-145492087D01*
X170342459Y-145519539D01*
X170315007Y-145542067D01*
X170283689Y-145558807D01*
X170249711Y-145569115D01*
X170208230Y-145573200D01*
X169532010Y-145573200D01*
X169490529Y-145569115D01*
X169456551Y-145558807D01*
X169425233Y-145542067D01*
X169397781Y-145519539D01*
X169375253Y-145492087D01*
X169358513Y-145460769D01*
X169348205Y-145426791D01*
X169344120Y-145385310D01*
X169344120Y-144784090D01*
X169348205Y-144742609D01*
X169358513Y-144708631D01*
X169375253Y-144677313D01*
X169397781Y-144649861D01*
X169425233Y-144627333D01*
X169456551Y-144610593D01*
X169490529Y-144600285D01*
X169532010Y-144596200D01*
X170208230Y-144596200D01*
X170249711Y-144600285D01*
X170249711Y-144600285D01*
G37*
G36*
X154184920Y-144964720D02*
X152382920Y-144964720D01*
X152382920Y-143162720D01*
X154184920Y-143162720D01*
X154184920Y-144964720D01*
X154184920Y-144964720D01*
G37*
G36*
X158035560Y-144919000D02*
X156233560Y-144919000D01*
X156233560Y-143117000D01*
X158035560Y-143117000D01*
X158035560Y-144919000D01*
X158035560Y-144919000D01*
G37*
G36*
X173351760Y-143298480D02*
X171549760Y-143298480D01*
X171549760Y-141496480D01*
X173351760Y-141496480D01*
X173351760Y-143298480D01*
X173351760Y-143298480D01*
G37*
G36*
X138401680Y-143165220D02*
X137300080Y-143165220D01*
X137300080Y-141988620D01*
X138401680Y-141988620D01*
X138401680Y-143165220D01*
X138401680Y-143165220D01*
G37*
G36*
X135861680Y-143165220D02*
X134760080Y-143165220D01*
X134760080Y-141988620D01*
X135861680Y-141988620D01*
X135861680Y-143165220D01*
X135861680Y-143165220D01*
G37*
G36*
X153394362Y-140629238D02*
X153460547Y-140635757D01*
X153573773Y-140670104D01*
X153630387Y-140687277D01*
X153701374Y-140725221D01*
X153786911Y-140770942D01*
X153822649Y-140800272D01*
X153924106Y-140883534D01*
X153999176Y-140975009D01*
X154036698Y-141020729D01*
X154036699Y-141020731D01*
X154120363Y-141177253D01*
X154120363Y-141177254D01*
X154171883Y-141347093D01*
X154189279Y-141523720D01*
X154171883Y-141700347D01*
X154137536Y-141813573D01*
X154120363Y-141870187D01*
X154061137Y-141980989D01*
X154036698Y-142026711D01*
X154007368Y-142062449D01*
X153924106Y-142163906D01*
X153822649Y-142247168D01*
X153786911Y-142276498D01*
X153786909Y-142276499D01*
X153630387Y-142360163D01*
X153573773Y-142377336D01*
X153460547Y-142411683D01*
X153394362Y-142418202D01*
X153328180Y-142424720D01*
X153239660Y-142424720D01*
X153173478Y-142418202D01*
X153107293Y-142411683D01*
X152994067Y-142377336D01*
X152937453Y-142360163D01*
X152780931Y-142276499D01*
X152780929Y-142276498D01*
X152745191Y-142247168D01*
X152643734Y-142163906D01*
X152560472Y-142062449D01*
X152531142Y-142026711D01*
X152506703Y-141980989D01*
X152447477Y-141870187D01*
X152430304Y-141813573D01*
X152395957Y-141700347D01*
X152378561Y-141523720D01*
X152395957Y-141347093D01*
X152447477Y-141177254D01*
X152447477Y-141177253D01*
X152531141Y-141020731D01*
X152531142Y-141020729D01*
X152568664Y-140975009D01*
X152643734Y-140883534D01*
X152745191Y-140800272D01*
X152780929Y-140770942D01*
X152866466Y-140725221D01*
X152937453Y-140687277D01*
X152994067Y-140670104D01*
X153107293Y-140635757D01*
X153173478Y-140629238D01*
X153239660Y-140622720D01*
X153328180Y-140622720D01*
X153394362Y-140629238D01*
X153394362Y-140629238D01*
G37*
G36*
X157245003Y-140583519D02*
X157311187Y-140590037D01*
X157418929Y-140622720D01*
X157481027Y-140641557D01*
X157619647Y-140715652D01*
X157637551Y-140725222D01*
X157673289Y-140754552D01*
X157774746Y-140837814D01*
X157858008Y-140939271D01*
X157887338Y-140975009D01*
X157887339Y-140975011D01*
X157971003Y-141131533D01*
X157971003Y-141131534D01*
X158022523Y-141301373D01*
X158039919Y-141478000D01*
X158022523Y-141654627D01*
X158008654Y-141700347D01*
X157971003Y-141824467D01*
X157896908Y-141963087D01*
X157887338Y-141980991D01*
X157858008Y-142016729D01*
X157774746Y-142118186D01*
X157673289Y-142201448D01*
X157637551Y-142230778D01*
X157637549Y-142230779D01*
X157481027Y-142314443D01*
X157424413Y-142331616D01*
X157311187Y-142365963D01*
X157245002Y-142372482D01*
X157178820Y-142379000D01*
X157090300Y-142379000D01*
X157024118Y-142372482D01*
X156957933Y-142365963D01*
X156844707Y-142331616D01*
X156788093Y-142314443D01*
X156631571Y-142230779D01*
X156631569Y-142230778D01*
X156595831Y-142201448D01*
X156494374Y-142118186D01*
X156411112Y-142016729D01*
X156381782Y-141980991D01*
X156372212Y-141963087D01*
X156298117Y-141824467D01*
X156260466Y-141700347D01*
X156246597Y-141654627D01*
X156229201Y-141478000D01*
X156246597Y-141301373D01*
X156298117Y-141131534D01*
X156298117Y-141131533D01*
X156381781Y-140975011D01*
X156381782Y-140975009D01*
X156411112Y-140939271D01*
X156494374Y-140837814D01*
X156595831Y-140754552D01*
X156631569Y-140725222D01*
X156649473Y-140715652D01*
X156788093Y-140641557D01*
X156850191Y-140622720D01*
X156957933Y-140590037D01*
X157024117Y-140583519D01*
X157090300Y-140577000D01*
X157178820Y-140577000D01*
X157245003Y-140583519D01*
X157245003Y-140583519D01*
G37*
G36*
X135861680Y-141465220D02*
X134760080Y-141465220D01*
X134760080Y-140288620D01*
X135861680Y-140288620D01*
X135861680Y-141465220D01*
X135861680Y-141465220D01*
G37*
G36*
X138401680Y-141465220D02*
X137300080Y-141465220D01*
X137300080Y-140288620D01*
X138401680Y-140288620D01*
X138401680Y-141465220D01*
X138401680Y-141465220D01*
G37*
G36*
X153394363Y-138089239D02*
X153460547Y-138095757D01*
X153573773Y-138130104D01*
X153630387Y-138147277D01*
X153701374Y-138185221D01*
X153786911Y-138230942D01*
X153822649Y-138260272D01*
X153924106Y-138343534D01*
X153999176Y-138435009D01*
X154036698Y-138480729D01*
X154036699Y-138480731D01*
X154120363Y-138637253D01*
X154120363Y-138637254D01*
X154171883Y-138807093D01*
X154189279Y-138983720D01*
X154171883Y-139160347D01*
X154137536Y-139273573D01*
X154120363Y-139330187D01*
X154061137Y-139440989D01*
X154036698Y-139486711D01*
X154007368Y-139522449D01*
X153924106Y-139623906D01*
X153822649Y-139707168D01*
X153786911Y-139736498D01*
X153786909Y-139736499D01*
X153630387Y-139820163D01*
X153573773Y-139837336D01*
X153460547Y-139871683D01*
X153394362Y-139878202D01*
X153328180Y-139884720D01*
X153239660Y-139884720D01*
X153173478Y-139878202D01*
X153107293Y-139871683D01*
X152994067Y-139837336D01*
X152937453Y-139820163D01*
X152780931Y-139736499D01*
X152780929Y-139736498D01*
X152745191Y-139707168D01*
X152643734Y-139623906D01*
X152560472Y-139522449D01*
X152531142Y-139486711D01*
X152506703Y-139440989D01*
X152447477Y-139330187D01*
X152430304Y-139273573D01*
X152395957Y-139160347D01*
X152378561Y-138983720D01*
X152395957Y-138807093D01*
X152447477Y-138637254D01*
X152447477Y-138637253D01*
X152531141Y-138480731D01*
X152531142Y-138480729D01*
X152568664Y-138435009D01*
X152643734Y-138343534D01*
X152745191Y-138260272D01*
X152780929Y-138230942D01*
X152866466Y-138185221D01*
X152937453Y-138147277D01*
X152994067Y-138130104D01*
X153107293Y-138095757D01*
X153173477Y-138089239D01*
X153239660Y-138082720D01*
X153328180Y-138082720D01*
X153394363Y-138089239D01*
X153394363Y-138089239D01*
G37*
G36*
X157245002Y-138043518D02*
X157311187Y-138050037D01*
X157418929Y-138082720D01*
X157481027Y-138101557D01*
X157619647Y-138175652D01*
X157637551Y-138185222D01*
X157673289Y-138214552D01*
X157774746Y-138297814D01*
X157858008Y-138399271D01*
X157887338Y-138435009D01*
X157887339Y-138435011D01*
X157971003Y-138591533D01*
X157971003Y-138591534D01*
X158022523Y-138761373D01*
X158039919Y-138938000D01*
X158022523Y-139114627D01*
X158008654Y-139160347D01*
X157971003Y-139284467D01*
X157896908Y-139423087D01*
X157887338Y-139440991D01*
X157858008Y-139476729D01*
X157774746Y-139578186D01*
X157673289Y-139661448D01*
X157637551Y-139690778D01*
X157637549Y-139690779D01*
X157481027Y-139774443D01*
X157424413Y-139791616D01*
X157311187Y-139825963D01*
X157245003Y-139832481D01*
X157178820Y-139839000D01*
X157090300Y-139839000D01*
X157024117Y-139832481D01*
X156957933Y-139825963D01*
X156844707Y-139791616D01*
X156788093Y-139774443D01*
X156631571Y-139690779D01*
X156631569Y-139690778D01*
X156595831Y-139661448D01*
X156494374Y-139578186D01*
X156411112Y-139476729D01*
X156381782Y-139440991D01*
X156372212Y-139423087D01*
X156298117Y-139284467D01*
X156260466Y-139160347D01*
X156246597Y-139114627D01*
X156229201Y-138938000D01*
X156246597Y-138761373D01*
X156298117Y-138591534D01*
X156298117Y-138591533D01*
X156381781Y-138435011D01*
X156381782Y-138435009D01*
X156411112Y-138399271D01*
X156494374Y-138297814D01*
X156595831Y-138214552D01*
X156631569Y-138185222D01*
X156649473Y-138175652D01*
X156788093Y-138101557D01*
X156850191Y-138082720D01*
X156957933Y-138050037D01*
X157024118Y-138043518D01*
X157090300Y-138037000D01*
X157178820Y-138037000D01*
X157245002Y-138043518D01*
X157245002Y-138043518D01*
G37*
G36*
X135981680Y-139679720D02*
X134780080Y-139679720D01*
X134780080Y-137678120D01*
X135981680Y-137678120D01*
X135981680Y-139679720D01*
X135981680Y-139679720D01*
G37*
G36*
X138381680Y-139679720D02*
X137180080Y-139679720D01*
X137180080Y-137678120D01*
X138381680Y-137678120D01*
X138381680Y-139679720D01*
X138381680Y-139679720D01*
G37*
G36*
X169390760Y-138623320D02*
X167789160Y-138623320D01*
X167789160Y-137281720D01*
X169390760Y-137281720D01*
X169390760Y-138623320D01*
X169390760Y-138623320D01*
G37*
G36*
X134298120Y-137617480D02*
X132696520Y-137617480D01*
X132696520Y-136275880D01*
X134298120Y-136275880D01*
X134298120Y-137617480D01*
X134298120Y-137617480D01*
G37*
G36*
X144190800Y-136770800D02*
X135209200Y-136770800D01*
X135209200Y-135069200D01*
X144190800Y-135069200D01*
X144190800Y-136770800D01*
X144190800Y-136770800D01*
G37*
G36*
X169390760Y-136723320D02*
X167789160Y-136723320D01*
X167789160Y-135381720D01*
X169390760Y-135381720D01*
X169390760Y-136723320D01*
X169390760Y-136723320D01*
G37*
G36*
X132639500Y-134250880D02*
X132641902Y-134275266D01*
X132649015Y-134298715D01*
X132660566Y-134320326D01*
X132676112Y-134339268D01*
X132695054Y-134354814D01*
X132716665Y-134366365D01*
X132740114Y-134373478D01*
X132764500Y-134375880D01*
X134298120Y-134375880D01*
X134298120Y-135717480D01*
X132696520Y-135717480D01*
X132696520Y-134435400D01*
X132694118Y-134411014D01*
X132687005Y-134387565D01*
X132675454Y-134365954D01*
X132659908Y-134347012D01*
X132640966Y-134331466D01*
X132619355Y-134319915D01*
X132595906Y-134312802D01*
X132571520Y-134310400D01*
X131037900Y-134310400D01*
X131037900Y-132968800D01*
X132639500Y-132968800D01*
X132639500Y-134250880D01*
X132639500Y-134250880D01*
G37*
G36*
X161336280Y-134928880D02*
X160034680Y-134928880D01*
X160034680Y-133627280D01*
X161336280Y-133627280D01*
X161336280Y-134928880D01*
X161336280Y-134928880D01*
G37*
G36*
X157546600Y-134796800D02*
X156245000Y-134796800D01*
X156245000Y-133495200D01*
X157546600Y-133495200D01*
X157546600Y-134796800D01*
X157546600Y-134796800D01*
G37*
G36*
X145150800Y-134760800D02*
X143449200Y-134760800D01*
X143449200Y-126845800D01*
X143446798Y-126821414D01*
X143439685Y-126797965D01*
X143428134Y-126776354D01*
X143412588Y-126757412D01*
X143393646Y-126741866D01*
X143372035Y-126730315D01*
X143348586Y-126723202D01*
X143324200Y-126720800D01*
X141949200Y-126720800D01*
X141949200Y-126119200D01*
X143324200Y-126119200D01*
X143348586Y-126116798D01*
X143372035Y-126109685D01*
X143393646Y-126098134D01*
X143412588Y-126082588D01*
X143428134Y-126063646D01*
X143439685Y-126042035D01*
X143446798Y-126018586D01*
X143449200Y-125994200D01*
X143449200Y-125445800D01*
X143446798Y-125421414D01*
X143439685Y-125397965D01*
X143428134Y-125376354D01*
X143412588Y-125357412D01*
X143393646Y-125341866D01*
X143372035Y-125330315D01*
X143348586Y-125323202D01*
X143324200Y-125320800D01*
X141949200Y-125320800D01*
X141949200Y-124719200D01*
X143324200Y-124719200D01*
X143348586Y-124716798D01*
X143372035Y-124709685D01*
X143393646Y-124698134D01*
X143412588Y-124682588D01*
X143428134Y-124663646D01*
X143439685Y-124642035D01*
X143446798Y-124618586D01*
X143449200Y-124594200D01*
X143449200Y-123969200D01*
X145150800Y-123969200D01*
X145150800Y-134760800D01*
X145150800Y-134760800D01*
G37*
G36*
X174205520Y-134656220D02*
X173103920Y-134656220D01*
X173103920Y-133479620D01*
X174205520Y-133479620D01*
X174205520Y-134656220D01*
X174205520Y-134656220D01*
G37*
G36*
X167189201Y-129630425D02*
X167195257Y-129632262D01*
X167206706Y-129638382D01*
X167216067Y-129644638D01*
X167238706Y-129654017D01*
X167262739Y-129658799D01*
X167287243Y-129658801D01*
X167311277Y-129654022D01*
X167333917Y-129644646D01*
X167343284Y-129638388D01*
X167354743Y-129632262D01*
X167360799Y-129630425D01*
X167373240Y-129629200D01*
X167676760Y-129629200D01*
X167689201Y-129630425D01*
X167695257Y-129632262D01*
X167706706Y-129638382D01*
X167716067Y-129644638D01*
X167738706Y-129654017D01*
X167762739Y-129658799D01*
X167787243Y-129658801D01*
X167811277Y-129654022D01*
X167833917Y-129644646D01*
X167843284Y-129638388D01*
X167854743Y-129632262D01*
X167860799Y-129630425D01*
X167873240Y-129629200D01*
X168176760Y-129629200D01*
X168189201Y-129630425D01*
X168195257Y-129632262D01*
X168206706Y-129638382D01*
X168216067Y-129644638D01*
X168238706Y-129654017D01*
X168262739Y-129658799D01*
X168287243Y-129658801D01*
X168311277Y-129654022D01*
X168333917Y-129644646D01*
X168343284Y-129638388D01*
X168354743Y-129632262D01*
X168360799Y-129630425D01*
X168373240Y-129629200D01*
X168676760Y-129629200D01*
X168689201Y-129630425D01*
X168695257Y-129632262D01*
X168706706Y-129638382D01*
X168716067Y-129644638D01*
X168738706Y-129654017D01*
X168762739Y-129658799D01*
X168787243Y-129658801D01*
X168811277Y-129654022D01*
X168833917Y-129644646D01*
X168843284Y-129638388D01*
X168854743Y-129632262D01*
X168860799Y-129630425D01*
X168873240Y-129629200D01*
X169176760Y-129629200D01*
X169189201Y-129630425D01*
X169195257Y-129632262D01*
X169206706Y-129638382D01*
X169216067Y-129644638D01*
X169238706Y-129654017D01*
X169262739Y-129658799D01*
X169287243Y-129658801D01*
X169311277Y-129654022D01*
X169333917Y-129644646D01*
X169343284Y-129638388D01*
X169354743Y-129632262D01*
X169360799Y-129630425D01*
X169373240Y-129629200D01*
X169676760Y-129629200D01*
X169689201Y-129630425D01*
X169695257Y-129632262D01*
X169700843Y-129635248D01*
X169705736Y-129639264D01*
X169709752Y-129644157D01*
X169712738Y-129649743D01*
X169714575Y-129655799D01*
X169715800Y-129668240D01*
X169715800Y-130491759D01*
X169714621Y-130503728D01*
X169714621Y-130528232D01*
X169714966Y-130529964D01*
X169713245Y-130529622D01*
X169688717Y-130529622D01*
X169686881Y-130529803D01*
X169662848Y-130534586D01*
X169640210Y-130543965D01*
X169619837Y-130557581D01*
X169602511Y-130574910D01*
X169588899Y-130595286D01*
X169579524Y-130617925D01*
X169574746Y-130641959D01*
X169574748Y-130666464D01*
X169579531Y-130690497D01*
X169588910Y-130713135D01*
X169596167Y-130723994D01*
X169596866Y-130725301D01*
X169597808Y-130726449D01*
X169602526Y-130733508D01*
X169608521Y-130739502D01*
X169612412Y-130744243D01*
X169617162Y-130748141D01*
X169619855Y-130750834D01*
X169623015Y-130752945D01*
X169631354Y-130759789D01*
X169652965Y-130771340D01*
X169676414Y-130778453D01*
X169700800Y-130780855D01*
X169725186Y-130778453D01*
X169748635Y-130771340D01*
X169770246Y-130759789D01*
X169789188Y-130744243D01*
X169804734Y-130725301D01*
X169816285Y-130703690D01*
X169825197Y-130668119D01*
X169825378Y-130666283D01*
X169825380Y-130641778D01*
X169825033Y-130640034D01*
X169826766Y-130640379D01*
X169851272Y-130640379D01*
X169863241Y-130639200D01*
X170686760Y-130639200D01*
X170699201Y-130640425D01*
X170705257Y-130642262D01*
X170710843Y-130645248D01*
X170715736Y-130649264D01*
X170719752Y-130654157D01*
X170722738Y-130659743D01*
X170724575Y-130665799D01*
X170725800Y-130678240D01*
X170725800Y-130981760D01*
X170724575Y-130994201D01*
X170722738Y-131000257D01*
X170716618Y-131011706D01*
X170710362Y-131021067D01*
X170700983Y-131043706D01*
X170696201Y-131067739D01*
X170696199Y-131092243D01*
X170700978Y-131116277D01*
X170710354Y-131138917D01*
X170716612Y-131148284D01*
X170722738Y-131159743D01*
X170724575Y-131165799D01*
X170725800Y-131178240D01*
X170725800Y-131481760D01*
X170724575Y-131494201D01*
X170722738Y-131500257D01*
X170716618Y-131511706D01*
X170710362Y-131521067D01*
X170700983Y-131543706D01*
X170696201Y-131567739D01*
X170696199Y-131592243D01*
X170700978Y-131616277D01*
X170710354Y-131638917D01*
X170716612Y-131648284D01*
X170722738Y-131659743D01*
X170724575Y-131665799D01*
X170725800Y-131678240D01*
X170725800Y-131981760D01*
X170724575Y-131994201D01*
X170722738Y-132000257D01*
X170716618Y-132011706D01*
X170710362Y-132021067D01*
X170700983Y-132043706D01*
X170696201Y-132067739D01*
X170696199Y-132092243D01*
X170700978Y-132116277D01*
X170710354Y-132138917D01*
X170716612Y-132148284D01*
X170722738Y-132159743D01*
X170724575Y-132165799D01*
X170725800Y-132178240D01*
X170725800Y-132481760D01*
X170724575Y-132494201D01*
X170722738Y-132500257D01*
X170716618Y-132511706D01*
X170710362Y-132521067D01*
X170700983Y-132543706D01*
X170696201Y-132567739D01*
X170696199Y-132592243D01*
X170700978Y-132616277D01*
X170710354Y-132638917D01*
X170716612Y-132648284D01*
X170722738Y-132659743D01*
X170724575Y-132665799D01*
X170725800Y-132678240D01*
X170725800Y-132981760D01*
X170724575Y-132994201D01*
X170722738Y-133000257D01*
X170716618Y-133011706D01*
X170710362Y-133021067D01*
X170700983Y-133043706D01*
X170696201Y-133067739D01*
X170696199Y-133092243D01*
X170700978Y-133116277D01*
X170710354Y-133138917D01*
X170716612Y-133148284D01*
X170722738Y-133159743D01*
X170724575Y-133165799D01*
X170725800Y-133178240D01*
X170725800Y-133481760D01*
X170724575Y-133494201D01*
X170722738Y-133500257D01*
X170719752Y-133505843D01*
X170715736Y-133510736D01*
X170710843Y-133514752D01*
X170705257Y-133517738D01*
X170699201Y-133519575D01*
X170686760Y-133520800D01*
X169863241Y-133520800D01*
X169851272Y-133519621D01*
X169826768Y-133519621D01*
X169825036Y-133519966D01*
X169825378Y-133518245D01*
X169825378Y-133493717D01*
X169825197Y-133491881D01*
X169820414Y-133467848D01*
X169811035Y-133445210D01*
X169797419Y-133424837D01*
X169780090Y-133407511D01*
X169759714Y-133393899D01*
X169737075Y-133384524D01*
X169713041Y-133379746D01*
X169688536Y-133379748D01*
X169664503Y-133384531D01*
X169641865Y-133393910D01*
X169631006Y-133401167D01*
X169629699Y-133401866D01*
X169628551Y-133402808D01*
X169621492Y-133407526D01*
X169615498Y-133413521D01*
X169610757Y-133417412D01*
X169606859Y-133422162D01*
X169604166Y-133424855D01*
X169602055Y-133428015D01*
X169595211Y-133436354D01*
X169583660Y-133457965D01*
X169576547Y-133481414D01*
X169574145Y-133505800D01*
X169576547Y-133530186D01*
X169583660Y-133553635D01*
X169595211Y-133575246D01*
X169610757Y-133594188D01*
X169629699Y-133609734D01*
X169651310Y-133621285D01*
X169686881Y-133630197D01*
X169688717Y-133630378D01*
X169713222Y-133630380D01*
X169714966Y-133630033D01*
X169714621Y-133631766D01*
X169714621Y-133656272D01*
X169715800Y-133668241D01*
X169715800Y-134491760D01*
X169714575Y-134504201D01*
X169712738Y-134510257D01*
X169709752Y-134515843D01*
X169705736Y-134520736D01*
X169700843Y-134524752D01*
X169695257Y-134527738D01*
X169689201Y-134529575D01*
X169676760Y-134530800D01*
X169373240Y-134530800D01*
X169360799Y-134529575D01*
X169354743Y-134527738D01*
X169343294Y-134521618D01*
X169333933Y-134515362D01*
X169311294Y-134505983D01*
X169287261Y-134501201D01*
X169262757Y-134501199D01*
X169238723Y-134505978D01*
X169216083Y-134515354D01*
X169206716Y-134521612D01*
X169195257Y-134527738D01*
X169189201Y-134529575D01*
X169176760Y-134530800D01*
X168873240Y-134530800D01*
X168860799Y-134529575D01*
X168854743Y-134527738D01*
X168843294Y-134521618D01*
X168833933Y-134515362D01*
X168811294Y-134505983D01*
X168787261Y-134501201D01*
X168762757Y-134501199D01*
X168738723Y-134505978D01*
X168716083Y-134515354D01*
X168706716Y-134521612D01*
X168695257Y-134527738D01*
X168689201Y-134529575D01*
X168676760Y-134530800D01*
X168373240Y-134530800D01*
X168360799Y-134529575D01*
X168354743Y-134527738D01*
X168343294Y-134521618D01*
X168333933Y-134515362D01*
X168311294Y-134505983D01*
X168287261Y-134501201D01*
X168262757Y-134501199D01*
X168238723Y-134505978D01*
X168216083Y-134515354D01*
X168206716Y-134521612D01*
X168195257Y-134527738D01*
X168189201Y-134529575D01*
X168176760Y-134530800D01*
X167873240Y-134530800D01*
X167860799Y-134529575D01*
X167854743Y-134527738D01*
X167843294Y-134521618D01*
X167833933Y-134515362D01*
X167811294Y-134505983D01*
X167787261Y-134501201D01*
X167762757Y-134501199D01*
X167738723Y-134505978D01*
X167716083Y-134515354D01*
X167706716Y-134521612D01*
X167695257Y-134527738D01*
X167689201Y-134529575D01*
X167676760Y-134530800D01*
X167373240Y-134530800D01*
X167360799Y-134529575D01*
X167354743Y-134527738D01*
X167343294Y-134521618D01*
X167333933Y-134515362D01*
X167311294Y-134505983D01*
X167287261Y-134501201D01*
X167262757Y-134501199D01*
X167238723Y-134505978D01*
X167216083Y-134515354D01*
X167206716Y-134521612D01*
X167195257Y-134527738D01*
X167189201Y-134529575D01*
X167176760Y-134530800D01*
X166873240Y-134530800D01*
X166860799Y-134529575D01*
X166854743Y-134527738D01*
X166849157Y-134524752D01*
X166844264Y-134520736D01*
X166840248Y-134515843D01*
X166837262Y-134510257D01*
X166835425Y-134504201D01*
X166834200Y-134491760D01*
X166834200Y-133668241D01*
X166835379Y-133656272D01*
X166835379Y-133631768D01*
X166835034Y-133630036D01*
X166836755Y-133630378D01*
X166861283Y-133630378D01*
X166863119Y-133630197D01*
X166887152Y-133625414D01*
X166909790Y-133616035D01*
X166930163Y-133602419D01*
X166947489Y-133585090D01*
X166961101Y-133564714D01*
X166970476Y-133542075D01*
X166975254Y-133518041D01*
X166975254Y-133505800D01*
X167074145Y-133505800D01*
X167076547Y-133530186D01*
X167083660Y-133553635D01*
X167095211Y-133575246D01*
X167110757Y-133594188D01*
X167129699Y-133609734D01*
X167151310Y-133621285D01*
X167174759Y-133628398D01*
X167186893Y-133630198D01*
X167189201Y-133630425D01*
X167195257Y-133632262D01*
X167206706Y-133638382D01*
X167216067Y-133644638D01*
X167238706Y-133654017D01*
X167262739Y-133658799D01*
X167287243Y-133658801D01*
X167311277Y-133654022D01*
X167333917Y-133644646D01*
X167343284Y-133638388D01*
X167354743Y-133632262D01*
X167360799Y-133630425D01*
X167363107Y-133630198D01*
X167387140Y-133625418D01*
X167409779Y-133616040D01*
X167430154Y-133602426D01*
X167447481Y-133585099D01*
X167461095Y-133564725D01*
X167470472Y-133542086D01*
X167475253Y-133518052D01*
X167475253Y-133505800D01*
X167574145Y-133505800D01*
X167576547Y-133530186D01*
X167583660Y-133553635D01*
X167595211Y-133575246D01*
X167610757Y-133594188D01*
X167629699Y-133609734D01*
X167651310Y-133621285D01*
X167674759Y-133628398D01*
X167686893Y-133630198D01*
X167689201Y-133630425D01*
X167695257Y-133632262D01*
X167706706Y-133638382D01*
X167716067Y-133644638D01*
X167738706Y-133654017D01*
X167762739Y-133658799D01*
X167787243Y-133658801D01*
X167811277Y-133654022D01*
X167833917Y-133644646D01*
X167843284Y-133638388D01*
X167854743Y-133632262D01*
X167860799Y-133630425D01*
X167863107Y-133630198D01*
X167887140Y-133625418D01*
X167909779Y-133616040D01*
X167930154Y-133602426D01*
X167947481Y-133585099D01*
X167961095Y-133564725D01*
X167970472Y-133542086D01*
X167975253Y-133518052D01*
X167975253Y-133505800D01*
X168074145Y-133505800D01*
X168076547Y-133530186D01*
X168083660Y-133553635D01*
X168095211Y-133575246D01*
X168110757Y-133594188D01*
X168129699Y-133609734D01*
X168151310Y-133621285D01*
X168174759Y-133628398D01*
X168186893Y-133630198D01*
X168189201Y-133630425D01*
X168195257Y-133632262D01*
X168206706Y-133638382D01*
X168216067Y-133644638D01*
X168238706Y-133654017D01*
X168262739Y-133658799D01*
X168287243Y-133658801D01*
X168311277Y-133654022D01*
X168333917Y-133644646D01*
X168343284Y-133638388D01*
X168354743Y-133632262D01*
X168360799Y-133630425D01*
X168363107Y-133630198D01*
X168387140Y-133625418D01*
X168409779Y-133616040D01*
X168430154Y-133602426D01*
X168447481Y-133585099D01*
X168461095Y-133564725D01*
X168470472Y-133542086D01*
X168475253Y-133518052D01*
X168475253Y-133505800D01*
X168574145Y-133505800D01*
X168576547Y-133530186D01*
X168583660Y-133553635D01*
X168595211Y-133575246D01*
X168610757Y-133594188D01*
X168629699Y-133609734D01*
X168651310Y-133621285D01*
X168674759Y-133628398D01*
X168686893Y-133630198D01*
X168689201Y-133630425D01*
X168695257Y-133632262D01*
X168706706Y-133638382D01*
X168716067Y-133644638D01*
X168738706Y-133654017D01*
X168762739Y-133658799D01*
X168787243Y-133658801D01*
X168811277Y-133654022D01*
X168833917Y-133644646D01*
X168843284Y-133638388D01*
X168854743Y-133632262D01*
X168860799Y-133630425D01*
X168863107Y-133630198D01*
X168887140Y-133625418D01*
X168909779Y-133616040D01*
X168930154Y-133602426D01*
X168947481Y-133585099D01*
X168961095Y-133564725D01*
X168970472Y-133542086D01*
X168975253Y-133518052D01*
X168975253Y-133505800D01*
X169074145Y-133505800D01*
X169076547Y-133530186D01*
X169083660Y-133553635D01*
X169095211Y-133575246D01*
X169110757Y-133594188D01*
X169129699Y-133609734D01*
X169151310Y-133621285D01*
X169174759Y-133628398D01*
X169186893Y-133630198D01*
X169189201Y-133630425D01*
X169195257Y-133632262D01*
X169206706Y-133638382D01*
X169216067Y-133644638D01*
X169238706Y-133654017D01*
X169262739Y-133658799D01*
X169287243Y-133658801D01*
X169311277Y-133654022D01*
X169333917Y-133644646D01*
X169343284Y-133638388D01*
X169354743Y-133632262D01*
X169360799Y-133630425D01*
X169363107Y-133630198D01*
X169387140Y-133625418D01*
X169409779Y-133616040D01*
X169430154Y-133602426D01*
X169447481Y-133585099D01*
X169461095Y-133564725D01*
X169470472Y-133542086D01*
X169475253Y-133518052D01*
X169475253Y-133493548D01*
X169470473Y-133469515D01*
X169461095Y-133446876D01*
X169447481Y-133426501D01*
X169430154Y-133409174D01*
X169409780Y-133395560D01*
X169387141Y-133386183D01*
X169363107Y-133381402D01*
X169350855Y-133380800D01*
X169199145Y-133380800D01*
X169174759Y-133383202D01*
X169151310Y-133390315D01*
X169129699Y-133401866D01*
X169110757Y-133417412D01*
X169095211Y-133436354D01*
X169083660Y-133457965D01*
X169076547Y-133481414D01*
X169074145Y-133505800D01*
X168975253Y-133505800D01*
X168975253Y-133493548D01*
X168970473Y-133469515D01*
X168961095Y-133446876D01*
X168947481Y-133426501D01*
X168930154Y-133409174D01*
X168909780Y-133395560D01*
X168887141Y-133386183D01*
X168863107Y-133381402D01*
X168850855Y-133380800D01*
X168699145Y-133380800D01*
X168674759Y-133383202D01*
X168651310Y-133390315D01*
X168629699Y-133401866D01*
X168610757Y-133417412D01*
X168595211Y-133436354D01*
X168583660Y-133457965D01*
X168576547Y-133481414D01*
X168574145Y-133505800D01*
X168475253Y-133505800D01*
X168475253Y-133493548D01*
X168470473Y-133469515D01*
X168461095Y-133446876D01*
X168447481Y-133426501D01*
X168430154Y-133409174D01*
X168409780Y-133395560D01*
X168387141Y-133386183D01*
X168363107Y-133381402D01*
X168350855Y-133380800D01*
X168199145Y-133380800D01*
X168174759Y-133383202D01*
X168151310Y-133390315D01*
X168129699Y-133401866D01*
X168110757Y-133417412D01*
X168095211Y-133436354D01*
X168083660Y-133457965D01*
X168076547Y-133481414D01*
X168074145Y-133505800D01*
X167975253Y-133505800D01*
X167975253Y-133493548D01*
X167970473Y-133469515D01*
X167961095Y-133446876D01*
X167947481Y-133426501D01*
X167930154Y-133409174D01*
X167909780Y-133395560D01*
X167887141Y-133386183D01*
X167863107Y-133381402D01*
X167850855Y-133380800D01*
X167699145Y-133380800D01*
X167674759Y-133383202D01*
X167651310Y-133390315D01*
X167629699Y-133401866D01*
X167610757Y-133417412D01*
X167595211Y-133436354D01*
X167583660Y-133457965D01*
X167576547Y-133481414D01*
X167574145Y-133505800D01*
X167475253Y-133505800D01*
X167475253Y-133493548D01*
X167470473Y-133469515D01*
X167461095Y-133446876D01*
X167447481Y-133426501D01*
X167430154Y-133409174D01*
X167409780Y-133395560D01*
X167387141Y-133386183D01*
X167363107Y-133381402D01*
X167350855Y-133380800D01*
X167199145Y-133380800D01*
X167174759Y-133383202D01*
X167151310Y-133390315D01*
X167129699Y-133401866D01*
X167110757Y-133417412D01*
X167095211Y-133436354D01*
X167083660Y-133457965D01*
X167076547Y-133481414D01*
X167074145Y-133505800D01*
X166975254Y-133505800D01*
X166975252Y-133493536D01*
X166970469Y-133469503D01*
X166961090Y-133446865D01*
X166953833Y-133436006D01*
X166953134Y-133434699D01*
X166952192Y-133433551D01*
X166947474Y-133426492D01*
X166941479Y-133420498D01*
X166937588Y-133415757D01*
X166932838Y-133411859D01*
X166930145Y-133409166D01*
X166926985Y-133407055D01*
X166918646Y-133400211D01*
X166897035Y-133388660D01*
X166873586Y-133381547D01*
X166849200Y-133379145D01*
X166824814Y-133381547D01*
X166801365Y-133388660D01*
X166779754Y-133400211D01*
X166760812Y-133415757D01*
X166745266Y-133434699D01*
X166733715Y-133456310D01*
X166724803Y-133491881D01*
X166724622Y-133493717D01*
X166724620Y-133518222D01*
X166724967Y-133519966D01*
X166723234Y-133519621D01*
X166698728Y-133519621D01*
X166686759Y-133520800D01*
X165863240Y-133520800D01*
X165850799Y-133519575D01*
X165844743Y-133517738D01*
X165839157Y-133514752D01*
X165834264Y-133510736D01*
X165830248Y-133505843D01*
X165827262Y-133500257D01*
X165825425Y-133494201D01*
X165824200Y-133481760D01*
X165824200Y-133178240D01*
X165825425Y-133165799D01*
X165827262Y-133159743D01*
X165833382Y-133148294D01*
X165839638Y-133138933D01*
X165849017Y-133116294D01*
X165853799Y-133092261D01*
X165853799Y-133092243D01*
X166696199Y-133092243D01*
X166700978Y-133116277D01*
X166710354Y-133138917D01*
X166716612Y-133148284D01*
X166722738Y-133159743D01*
X166724575Y-133165799D01*
X166724802Y-133168107D01*
X166729582Y-133192140D01*
X166738960Y-133214779D01*
X166752574Y-133235154D01*
X166769901Y-133252481D01*
X166790275Y-133266095D01*
X166812914Y-133275472D01*
X166836948Y-133280253D01*
X166861452Y-133280253D01*
X166885485Y-133275473D01*
X166908124Y-133266095D01*
X166928499Y-133252481D01*
X166945826Y-133235154D01*
X166959440Y-133214780D01*
X166968817Y-133192141D01*
X166973598Y-133168107D01*
X166974200Y-133155855D01*
X166974200Y-133004145D01*
X169575800Y-133004145D01*
X169575800Y-133155855D01*
X169578202Y-133180241D01*
X169585315Y-133203690D01*
X169596866Y-133225301D01*
X169612412Y-133244243D01*
X169631354Y-133259789D01*
X169652965Y-133271340D01*
X169676414Y-133278453D01*
X169700800Y-133280855D01*
X169725186Y-133278453D01*
X169748635Y-133271340D01*
X169770246Y-133259789D01*
X169789188Y-133244243D01*
X169804734Y-133225301D01*
X169816285Y-133203690D01*
X169823398Y-133180241D01*
X169825198Y-133168107D01*
X169825425Y-133165799D01*
X169827262Y-133159743D01*
X169833382Y-133148294D01*
X169839638Y-133138933D01*
X169849017Y-133116294D01*
X169853799Y-133092261D01*
X169853801Y-133067757D01*
X169849022Y-133043723D01*
X169839646Y-133021083D01*
X169833388Y-133011716D01*
X169827262Y-133000257D01*
X169825425Y-132994201D01*
X169825198Y-132991893D01*
X169820418Y-132967860D01*
X169811040Y-132945221D01*
X169797426Y-132924846D01*
X169780099Y-132907519D01*
X169759725Y-132893905D01*
X169737086Y-132884528D01*
X169713052Y-132879747D01*
X169688548Y-132879747D01*
X169664515Y-132884527D01*
X169641876Y-132893905D01*
X169621501Y-132907519D01*
X169604174Y-132924846D01*
X169590560Y-132945220D01*
X169581183Y-132967859D01*
X169576402Y-132991893D01*
X169575800Y-133004145D01*
X166974200Y-133004145D01*
X166971798Y-132979759D01*
X166964685Y-132956310D01*
X166953134Y-132934699D01*
X166937588Y-132915757D01*
X166918646Y-132900211D01*
X166897035Y-132888660D01*
X166873586Y-132881547D01*
X166849200Y-132879145D01*
X166824814Y-132881547D01*
X166801365Y-132888660D01*
X166779754Y-132900211D01*
X166760812Y-132915757D01*
X166745266Y-132934699D01*
X166733715Y-132956310D01*
X166726602Y-132979759D01*
X166724802Y-132991893D01*
X166724575Y-132994201D01*
X166722738Y-133000257D01*
X166716618Y-133011706D01*
X166710362Y-133021067D01*
X166700983Y-133043706D01*
X166696201Y-133067739D01*
X166696199Y-133092243D01*
X165853799Y-133092243D01*
X165853801Y-133067757D01*
X165849022Y-133043723D01*
X165839646Y-133021083D01*
X165833388Y-133011716D01*
X165827262Y-133000257D01*
X165825425Y-132994201D01*
X165824200Y-132981760D01*
X165824200Y-132678240D01*
X165825425Y-132665799D01*
X165827262Y-132659743D01*
X165833382Y-132648294D01*
X165839638Y-132638933D01*
X165849017Y-132616294D01*
X165853799Y-132592261D01*
X165853799Y-132592243D01*
X166696199Y-132592243D01*
X166700978Y-132616277D01*
X166710354Y-132638917D01*
X166716612Y-132648284D01*
X166722738Y-132659743D01*
X166724575Y-132665799D01*
X166724802Y-132668107D01*
X166729582Y-132692140D01*
X166738960Y-132714779D01*
X166752574Y-132735154D01*
X166769901Y-132752481D01*
X166790275Y-132766095D01*
X166812914Y-132775472D01*
X166836948Y-132780253D01*
X166861452Y-132780253D01*
X166885485Y-132775473D01*
X166908124Y-132766095D01*
X166928499Y-132752481D01*
X166945826Y-132735154D01*
X166959440Y-132714780D01*
X166968817Y-132692141D01*
X166973598Y-132668107D01*
X166974200Y-132655855D01*
X166974200Y-132504145D01*
X169575800Y-132504145D01*
X169575800Y-132655855D01*
X169578202Y-132680241D01*
X169585315Y-132703690D01*
X169596866Y-132725301D01*
X169612412Y-132744243D01*
X169631354Y-132759789D01*
X169652965Y-132771340D01*
X169676414Y-132778453D01*
X169700800Y-132780855D01*
X169725186Y-132778453D01*
X169748635Y-132771340D01*
X169770246Y-132759789D01*
X169789188Y-132744243D01*
X169804734Y-132725301D01*
X169816285Y-132703690D01*
X169823398Y-132680241D01*
X169825198Y-132668107D01*
X169825425Y-132665799D01*
X169827262Y-132659743D01*
X169833382Y-132648294D01*
X169839638Y-132638933D01*
X169849017Y-132616294D01*
X169853799Y-132592261D01*
X169853801Y-132567757D01*
X169849022Y-132543723D01*
X169839646Y-132521083D01*
X169833388Y-132511716D01*
X169827262Y-132500257D01*
X169825425Y-132494201D01*
X169825198Y-132491893D01*
X169820418Y-132467860D01*
X169811040Y-132445221D01*
X169797426Y-132424846D01*
X169780099Y-132407519D01*
X169759725Y-132393905D01*
X169737086Y-132384528D01*
X169713052Y-132379747D01*
X169688548Y-132379747D01*
X169664515Y-132384527D01*
X169641876Y-132393905D01*
X169621501Y-132407519D01*
X169604174Y-132424846D01*
X169590560Y-132445220D01*
X169581183Y-132467859D01*
X169576402Y-132491893D01*
X169575800Y-132504145D01*
X166974200Y-132504145D01*
X166971798Y-132479759D01*
X166964685Y-132456310D01*
X166953134Y-132434699D01*
X166937588Y-132415757D01*
X166918646Y-132400211D01*
X166897035Y-132388660D01*
X166873586Y-132381547D01*
X166849200Y-132379145D01*
X166824814Y-132381547D01*
X166801365Y-132388660D01*
X166779754Y-132400211D01*
X166760812Y-132415757D01*
X166745266Y-132434699D01*
X166733715Y-132456310D01*
X166726602Y-132479759D01*
X166724802Y-132491893D01*
X166724575Y-132494201D01*
X166722738Y-132500257D01*
X166716618Y-132511706D01*
X166710362Y-132521067D01*
X166700983Y-132543706D01*
X166696201Y-132567739D01*
X166696199Y-132592243D01*
X165853799Y-132592243D01*
X165853801Y-132567757D01*
X165849022Y-132543723D01*
X165839646Y-132521083D01*
X165833388Y-132511716D01*
X165827262Y-132500257D01*
X165825425Y-132494201D01*
X165824200Y-132481760D01*
X165824200Y-132178240D01*
X165825425Y-132165799D01*
X165827262Y-132159743D01*
X165833382Y-132148294D01*
X165839638Y-132138933D01*
X165849017Y-132116294D01*
X165853799Y-132092261D01*
X165853799Y-132092243D01*
X166696199Y-132092243D01*
X166700978Y-132116277D01*
X166710354Y-132138917D01*
X166716612Y-132148284D01*
X166722738Y-132159743D01*
X166724575Y-132165799D01*
X166724802Y-132168107D01*
X166729582Y-132192140D01*
X166738960Y-132214779D01*
X166752574Y-132235154D01*
X166769901Y-132252481D01*
X166790275Y-132266095D01*
X166812914Y-132275472D01*
X166836948Y-132280253D01*
X166861452Y-132280253D01*
X166885485Y-132275473D01*
X166908124Y-132266095D01*
X166928499Y-132252481D01*
X166945826Y-132235154D01*
X166959440Y-132214780D01*
X166968817Y-132192141D01*
X166973598Y-132168107D01*
X166974200Y-132155855D01*
X166974200Y-132004145D01*
X169575800Y-132004145D01*
X169575800Y-132155855D01*
X169578202Y-132180241D01*
X169585315Y-132203690D01*
X169596866Y-132225301D01*
X169612412Y-132244243D01*
X169631354Y-132259789D01*
X169652965Y-132271340D01*
X169676414Y-132278453D01*
X169700800Y-132280855D01*
X169725186Y-132278453D01*
X169748635Y-132271340D01*
X169770246Y-132259789D01*
X169789188Y-132244243D01*
X169804734Y-132225301D01*
X169816285Y-132203690D01*
X169823398Y-132180241D01*
X169825198Y-132168107D01*
X169825425Y-132165799D01*
X169827262Y-132159743D01*
X169833382Y-132148294D01*
X169839638Y-132138933D01*
X169849017Y-132116294D01*
X169853799Y-132092261D01*
X169853801Y-132067757D01*
X169849022Y-132043723D01*
X169839646Y-132021083D01*
X169833388Y-132011716D01*
X169827262Y-132000257D01*
X169825425Y-131994201D01*
X169825198Y-131991893D01*
X169820418Y-131967860D01*
X169811040Y-131945221D01*
X169797426Y-131924846D01*
X169780099Y-131907519D01*
X169759725Y-131893905D01*
X169737086Y-131884528D01*
X169713052Y-131879747D01*
X169688548Y-131879747D01*
X169664515Y-131884527D01*
X169641876Y-131893905D01*
X169621501Y-131907519D01*
X169604174Y-131924846D01*
X169590560Y-131945220D01*
X169581183Y-131967859D01*
X169576402Y-131991893D01*
X169575800Y-132004145D01*
X166974200Y-132004145D01*
X166971798Y-131979759D01*
X166964685Y-131956310D01*
X166953134Y-131934699D01*
X166937588Y-131915757D01*
X166918646Y-131900211D01*
X166897035Y-131888660D01*
X166873586Y-131881547D01*
X166849200Y-131879145D01*
X166824814Y-131881547D01*
X166801365Y-131888660D01*
X166779754Y-131900211D01*
X166760812Y-131915757D01*
X166745266Y-131934699D01*
X166733715Y-131956310D01*
X166726602Y-131979759D01*
X166724802Y-131991893D01*
X166724575Y-131994201D01*
X166722738Y-132000257D01*
X166716618Y-132011706D01*
X166710362Y-132021067D01*
X166700983Y-132043706D01*
X166696201Y-132067739D01*
X166696199Y-132092243D01*
X165853799Y-132092243D01*
X165853801Y-132067757D01*
X165849022Y-132043723D01*
X165839646Y-132021083D01*
X165833388Y-132011716D01*
X165827262Y-132000257D01*
X165825425Y-131994201D01*
X165824200Y-131981760D01*
X165824200Y-131678240D01*
X165825425Y-131665799D01*
X165827262Y-131659743D01*
X165833382Y-131648294D01*
X165839638Y-131638933D01*
X165849017Y-131616294D01*
X165853799Y-131592261D01*
X165853799Y-131592243D01*
X166696199Y-131592243D01*
X166700978Y-131616277D01*
X166710354Y-131638917D01*
X166716612Y-131648284D01*
X166722738Y-131659743D01*
X166724575Y-131665799D01*
X166724802Y-131668107D01*
X166729582Y-131692140D01*
X166738960Y-131714779D01*
X166752574Y-131735154D01*
X166769901Y-131752481D01*
X166790275Y-131766095D01*
X166812914Y-131775472D01*
X166836948Y-131780253D01*
X166861452Y-131780253D01*
X166885485Y-131775473D01*
X166908124Y-131766095D01*
X166928499Y-131752481D01*
X166945826Y-131735154D01*
X166959440Y-131714780D01*
X166968817Y-131692141D01*
X166973598Y-131668107D01*
X166974200Y-131655855D01*
X166974200Y-131504145D01*
X169575800Y-131504145D01*
X169575800Y-131655855D01*
X169578202Y-131680241D01*
X169585315Y-131703690D01*
X169596866Y-131725301D01*
X169612412Y-131744243D01*
X169631354Y-131759789D01*
X169652965Y-131771340D01*
X169676414Y-131778453D01*
X169700800Y-131780855D01*
X169725186Y-131778453D01*
X169748635Y-131771340D01*
X169770246Y-131759789D01*
X169789188Y-131744243D01*
X169804734Y-131725301D01*
X169816285Y-131703690D01*
X169823398Y-131680241D01*
X169825198Y-131668107D01*
X169825425Y-131665799D01*
X169827262Y-131659743D01*
X169833382Y-131648294D01*
X169839638Y-131638933D01*
X169849017Y-131616294D01*
X169853799Y-131592261D01*
X169853801Y-131567757D01*
X169849022Y-131543723D01*
X169839646Y-131521083D01*
X169833388Y-131511716D01*
X169827262Y-131500257D01*
X169825425Y-131494201D01*
X169825198Y-131491893D01*
X169820418Y-131467860D01*
X169811040Y-131445221D01*
X169797426Y-131424846D01*
X169780099Y-131407519D01*
X169759725Y-131393905D01*
X169737086Y-131384528D01*
X169713052Y-131379747D01*
X169688548Y-131379747D01*
X169664515Y-131384527D01*
X169641876Y-131393905D01*
X169621501Y-131407519D01*
X169604174Y-131424846D01*
X169590560Y-131445220D01*
X169581183Y-131467859D01*
X169576402Y-131491893D01*
X169575800Y-131504145D01*
X166974200Y-131504145D01*
X166971798Y-131479759D01*
X166964685Y-131456310D01*
X166953134Y-131434699D01*
X166937588Y-131415757D01*
X166918646Y-131400211D01*
X166897035Y-131388660D01*
X166873586Y-131381547D01*
X166849200Y-131379145D01*
X166824814Y-131381547D01*
X166801365Y-131388660D01*
X166779754Y-131400211D01*
X166760812Y-131415757D01*
X166745266Y-131434699D01*
X166733715Y-131456310D01*
X166726602Y-131479759D01*
X166724802Y-131491893D01*
X166724575Y-131494201D01*
X166722738Y-131500257D01*
X166716618Y-131511706D01*
X166710362Y-131521067D01*
X166700983Y-131543706D01*
X166696201Y-131567739D01*
X166696199Y-131592243D01*
X165853799Y-131592243D01*
X165853801Y-131567757D01*
X165849022Y-131543723D01*
X165839646Y-131521083D01*
X165833388Y-131511716D01*
X165827262Y-131500257D01*
X165825425Y-131494201D01*
X165824200Y-131481760D01*
X165824200Y-131178240D01*
X165825425Y-131165799D01*
X165827262Y-131159743D01*
X165833382Y-131148294D01*
X165839638Y-131138933D01*
X165849017Y-131116294D01*
X165853799Y-131092261D01*
X165853799Y-131092243D01*
X166696199Y-131092243D01*
X166700978Y-131116277D01*
X166710354Y-131138917D01*
X166716612Y-131148284D01*
X166722738Y-131159743D01*
X166724575Y-131165799D01*
X166724802Y-131168107D01*
X166729582Y-131192140D01*
X166738960Y-131214779D01*
X166752574Y-131235154D01*
X166769901Y-131252481D01*
X166790275Y-131266095D01*
X166812914Y-131275472D01*
X166836948Y-131280253D01*
X166861452Y-131280253D01*
X166885485Y-131275473D01*
X166908124Y-131266095D01*
X166928499Y-131252481D01*
X166945826Y-131235154D01*
X166959440Y-131214780D01*
X166968817Y-131192141D01*
X166973598Y-131168107D01*
X166974200Y-131155855D01*
X166974200Y-131004145D01*
X169575800Y-131004145D01*
X169575800Y-131155855D01*
X169578202Y-131180241D01*
X169585315Y-131203690D01*
X169596866Y-131225301D01*
X169612412Y-131244243D01*
X169631354Y-131259789D01*
X169652965Y-131271340D01*
X169676414Y-131278453D01*
X169700800Y-131280855D01*
X169725186Y-131278453D01*
X169748635Y-131271340D01*
X169770246Y-131259789D01*
X169789188Y-131244243D01*
X169804734Y-131225301D01*
X169816285Y-131203690D01*
X169823398Y-131180241D01*
X169825198Y-131168107D01*
X169825425Y-131165799D01*
X169827262Y-131159743D01*
X169833382Y-131148294D01*
X169839638Y-131138933D01*
X169849017Y-131116294D01*
X169853799Y-131092261D01*
X169853801Y-131067757D01*
X169849022Y-131043723D01*
X169839646Y-131021083D01*
X169833388Y-131011716D01*
X169827262Y-131000257D01*
X169825425Y-130994201D01*
X169825198Y-130991893D01*
X169820418Y-130967860D01*
X169811040Y-130945221D01*
X169797426Y-130924846D01*
X169780099Y-130907519D01*
X169759725Y-130893905D01*
X169737086Y-130884528D01*
X169713052Y-130879747D01*
X169688548Y-130879747D01*
X169664515Y-130884527D01*
X169641876Y-130893905D01*
X169621501Y-130907519D01*
X169604174Y-130924846D01*
X169590560Y-130945220D01*
X169581183Y-130967859D01*
X169576402Y-130991893D01*
X169575800Y-131004145D01*
X166974200Y-131004145D01*
X166971798Y-130979759D01*
X166964685Y-130956310D01*
X166953134Y-130934699D01*
X166937588Y-130915757D01*
X166918646Y-130900211D01*
X166897035Y-130888660D01*
X166873586Y-130881547D01*
X166849200Y-130879145D01*
X166824814Y-130881547D01*
X166801365Y-130888660D01*
X166779754Y-130900211D01*
X166760812Y-130915757D01*
X166745266Y-130934699D01*
X166733715Y-130956310D01*
X166726602Y-130979759D01*
X166724802Y-130991893D01*
X166724575Y-130994201D01*
X166722738Y-131000257D01*
X166716618Y-131011706D01*
X166710362Y-131021067D01*
X166700983Y-131043706D01*
X166696201Y-131067739D01*
X166696199Y-131092243D01*
X165853799Y-131092243D01*
X165853801Y-131067757D01*
X165849022Y-131043723D01*
X165839646Y-131021083D01*
X165833388Y-131011716D01*
X165827262Y-131000257D01*
X165825425Y-130994201D01*
X165824200Y-130981760D01*
X165824200Y-130678240D01*
X165825425Y-130665799D01*
X165827262Y-130659743D01*
X165830248Y-130654157D01*
X165834264Y-130649264D01*
X165839157Y-130645248D01*
X165844743Y-130642262D01*
X165850799Y-130640425D01*
X165863240Y-130639200D01*
X166686759Y-130639200D01*
X166698728Y-130640379D01*
X166723232Y-130640379D01*
X166724964Y-130640034D01*
X166724622Y-130641755D01*
X166724622Y-130666283D01*
X166724803Y-130668119D01*
X166729586Y-130692152D01*
X166738965Y-130714790D01*
X166752581Y-130735163D01*
X166769910Y-130752489D01*
X166790286Y-130766101D01*
X166812925Y-130775476D01*
X166836959Y-130780254D01*
X166861464Y-130780252D01*
X166885497Y-130775469D01*
X166908135Y-130766090D01*
X166918994Y-130758833D01*
X166920301Y-130758134D01*
X166921449Y-130757192D01*
X166928508Y-130752474D01*
X166934502Y-130746479D01*
X166939243Y-130742588D01*
X166943141Y-130737838D01*
X166945834Y-130735145D01*
X166947945Y-130731985D01*
X166954789Y-130723646D01*
X166966340Y-130702035D01*
X166973453Y-130678586D01*
X166975855Y-130654200D01*
X166974649Y-130641948D01*
X167074747Y-130641948D01*
X167074747Y-130666452D01*
X167079527Y-130690485D01*
X167088905Y-130713124D01*
X167102519Y-130733499D01*
X167119846Y-130750826D01*
X167140220Y-130764440D01*
X167162859Y-130773817D01*
X167186893Y-130778598D01*
X167199145Y-130779200D01*
X167350855Y-130779200D01*
X167375241Y-130776798D01*
X167398690Y-130769685D01*
X167420301Y-130758134D01*
X167439243Y-130742588D01*
X167454789Y-130723646D01*
X167466340Y-130702035D01*
X167473453Y-130678586D01*
X167475855Y-130654200D01*
X167474649Y-130641948D01*
X167574747Y-130641948D01*
X167574747Y-130666452D01*
X167579527Y-130690485D01*
X167588905Y-130713124D01*
X167602519Y-130733499D01*
X167619846Y-130750826D01*
X167640220Y-130764440D01*
X167662859Y-130773817D01*
X167686893Y-130778598D01*
X167699145Y-130779200D01*
X167850855Y-130779200D01*
X167875241Y-130776798D01*
X167898690Y-130769685D01*
X167920301Y-130758134D01*
X167939243Y-130742588D01*
X167954789Y-130723646D01*
X167966340Y-130702035D01*
X167973453Y-130678586D01*
X167975855Y-130654200D01*
X167974649Y-130641948D01*
X168074747Y-130641948D01*
X168074747Y-130666452D01*
X168079527Y-130690485D01*
X168088905Y-130713124D01*
X168102519Y-130733499D01*
X168119846Y-130750826D01*
X168140220Y-130764440D01*
X168162859Y-130773817D01*
X168186893Y-130778598D01*
X168199145Y-130779200D01*
X168350855Y-130779200D01*
X168375241Y-130776798D01*
X168398690Y-130769685D01*
X168420301Y-130758134D01*
X168439243Y-130742588D01*
X168454789Y-130723646D01*
X168466340Y-130702035D01*
X168473453Y-130678586D01*
X168475855Y-130654200D01*
X168474649Y-130641948D01*
X168574747Y-130641948D01*
X168574747Y-130666452D01*
X168579527Y-130690485D01*
X168588905Y-130713124D01*
X168602519Y-130733499D01*
X168619846Y-130750826D01*
X168640220Y-130764440D01*
X168662859Y-130773817D01*
X168686893Y-130778598D01*
X168699145Y-130779200D01*
X168850855Y-130779200D01*
X168875241Y-130776798D01*
X168898690Y-130769685D01*
X168920301Y-130758134D01*
X168939243Y-130742588D01*
X168954789Y-130723646D01*
X168966340Y-130702035D01*
X168973453Y-130678586D01*
X168975855Y-130654200D01*
X168974649Y-130641948D01*
X169074747Y-130641948D01*
X169074747Y-130666452D01*
X169079527Y-130690485D01*
X169088905Y-130713124D01*
X169102519Y-130733499D01*
X169119846Y-130750826D01*
X169140220Y-130764440D01*
X169162859Y-130773817D01*
X169186893Y-130778598D01*
X169199145Y-130779200D01*
X169350855Y-130779200D01*
X169375241Y-130776798D01*
X169398690Y-130769685D01*
X169420301Y-130758134D01*
X169439243Y-130742588D01*
X169454789Y-130723646D01*
X169466340Y-130702035D01*
X169473453Y-130678586D01*
X169475855Y-130654200D01*
X169473453Y-130629814D01*
X169466340Y-130606365D01*
X169454789Y-130584754D01*
X169439243Y-130565812D01*
X169420301Y-130550266D01*
X169398690Y-130538715D01*
X169375241Y-130531602D01*
X169363107Y-130529802D01*
X169360799Y-130529575D01*
X169354743Y-130527738D01*
X169343294Y-130521618D01*
X169333933Y-130515362D01*
X169311294Y-130505983D01*
X169287261Y-130501201D01*
X169262757Y-130501199D01*
X169238723Y-130505978D01*
X169216083Y-130515354D01*
X169206716Y-130521612D01*
X169195257Y-130527738D01*
X169189201Y-130529575D01*
X169186893Y-130529802D01*
X169162860Y-130534582D01*
X169140221Y-130543960D01*
X169119846Y-130557574D01*
X169102519Y-130574901D01*
X169088905Y-130595275D01*
X169079528Y-130617914D01*
X169074747Y-130641948D01*
X168974649Y-130641948D01*
X168973453Y-130629814D01*
X168966340Y-130606365D01*
X168954789Y-130584754D01*
X168939243Y-130565812D01*
X168920301Y-130550266D01*
X168898690Y-130538715D01*
X168875241Y-130531602D01*
X168863107Y-130529802D01*
X168860799Y-130529575D01*
X168854743Y-130527738D01*
X168843294Y-130521618D01*
X168833933Y-130515362D01*
X168811294Y-130505983D01*
X168787261Y-130501201D01*
X168762757Y-130501199D01*
X168738723Y-130505978D01*
X168716083Y-130515354D01*
X168706716Y-130521612D01*
X168695257Y-130527738D01*
X168689201Y-130529575D01*
X168686893Y-130529802D01*
X168662860Y-130534582D01*
X168640221Y-130543960D01*
X168619846Y-130557574D01*
X168602519Y-130574901D01*
X168588905Y-130595275D01*
X168579528Y-130617914D01*
X168574747Y-130641948D01*
X168474649Y-130641948D01*
X168473453Y-130629814D01*
X168466340Y-130606365D01*
X168454789Y-130584754D01*
X168439243Y-130565812D01*
X168420301Y-130550266D01*
X168398690Y-130538715D01*
X168375241Y-130531602D01*
X168363107Y-130529802D01*
X168360799Y-130529575D01*
X168354743Y-130527738D01*
X168343294Y-130521618D01*
X168333933Y-130515362D01*
X168311294Y-130505983D01*
X168287261Y-130501201D01*
X168262757Y-130501199D01*
X168238723Y-130505978D01*
X168216083Y-130515354D01*
X168206716Y-130521612D01*
X168195257Y-130527738D01*
X168189201Y-130529575D01*
X168186893Y-130529802D01*
X168162860Y-130534582D01*
X168140221Y-130543960D01*
X168119846Y-130557574D01*
X168102519Y-130574901D01*
X168088905Y-130595275D01*
X168079528Y-130617914D01*
X168074747Y-130641948D01*
X167974649Y-130641948D01*
X167973453Y-130629814D01*
X167966340Y-130606365D01*
X167954789Y-130584754D01*
X167939243Y-130565812D01*
X167920301Y-130550266D01*
X167898690Y-130538715D01*
X167875241Y-130531602D01*
X167863107Y-130529802D01*
X167860799Y-130529575D01*
X167854743Y-130527738D01*
X167843294Y-130521618D01*
X167833933Y-130515362D01*
X167811294Y-130505983D01*
X167787261Y-130501201D01*
X167762757Y-130501199D01*
X167738723Y-130505978D01*
X167716083Y-130515354D01*
X167706716Y-130521612D01*
X167695257Y-130527738D01*
X167689201Y-130529575D01*
X167686893Y-130529802D01*
X167662860Y-130534582D01*
X167640221Y-130543960D01*
X167619846Y-130557574D01*
X167602519Y-130574901D01*
X167588905Y-130595275D01*
X167579528Y-130617914D01*
X167574747Y-130641948D01*
X167474649Y-130641948D01*
X167473453Y-130629814D01*
X167466340Y-130606365D01*
X167454789Y-130584754D01*
X167439243Y-130565812D01*
X167420301Y-130550266D01*
X167398690Y-130538715D01*
X167375241Y-130531602D01*
X167363107Y-130529802D01*
X167360799Y-130529575D01*
X167354743Y-130527738D01*
X167343294Y-130521618D01*
X167333933Y-130515362D01*
X167311294Y-130505983D01*
X167287261Y-130501201D01*
X167262757Y-130501199D01*
X167238723Y-130505978D01*
X167216083Y-130515354D01*
X167206716Y-130521612D01*
X167195257Y-130527738D01*
X167189201Y-130529575D01*
X167186893Y-130529802D01*
X167162860Y-130534582D01*
X167140221Y-130543960D01*
X167119846Y-130557574D01*
X167102519Y-130574901D01*
X167088905Y-130595275D01*
X167079528Y-130617914D01*
X167074747Y-130641948D01*
X166974649Y-130641948D01*
X166973453Y-130629814D01*
X166966340Y-130606365D01*
X166954789Y-130584754D01*
X166939243Y-130565812D01*
X166920301Y-130550266D01*
X166898690Y-130538715D01*
X166863119Y-130529803D01*
X166861283Y-130529622D01*
X166836778Y-130529620D01*
X166835034Y-130529967D01*
X166835379Y-130528234D01*
X166835379Y-130503728D01*
X166834200Y-130491759D01*
X166834200Y-129668240D01*
X166835425Y-129655799D01*
X166837262Y-129649743D01*
X166840248Y-129644157D01*
X166844264Y-129639264D01*
X166849157Y-129635248D01*
X166854743Y-129632262D01*
X166860799Y-129630425D01*
X166873240Y-129629200D01*
X167176760Y-129629200D01*
X167189201Y-129630425D01*
X167189201Y-129630425D01*
G37*
G36*
X159417640Y-134371740D02*
X158316040Y-134371740D01*
X158316040Y-133195140D01*
X159417640Y-133195140D01*
X159417640Y-134371740D01*
X159417640Y-134371740D01*
G37*
G36*
X155917520Y-134300620D02*
X154815920Y-134300620D01*
X154815920Y-133124020D01*
X155917520Y-133124020D01*
X155917520Y-134300620D01*
X155917520Y-134300620D01*
G37*
G36*
X130487040Y-134183780D02*
X129385440Y-134183780D01*
X129385440Y-133007180D01*
X130487040Y-133007180D01*
X130487040Y-134183780D01*
X130487040Y-134183780D01*
G37*
G36*
X135950800Y-134060800D02*
X134249200Y-134060800D01*
X134249200Y-127179200D01*
X135950800Y-127179200D01*
X135950800Y-134060800D01*
X135950800Y-134060800D01*
G37*
G36*
X148136563Y-131322679D02*
X148202747Y-131329197D01*
X148315973Y-131363544D01*
X148372587Y-131380717D01*
X148491002Y-131444012D01*
X148529111Y-131464382D01*
X148550286Y-131481760D01*
X148666306Y-131576974D01*
X148740304Y-131667142D01*
X148778898Y-131714169D01*
X148778899Y-131714171D01*
X148862563Y-131870693D01*
X148868013Y-131888660D01*
X148914083Y-132040533D01*
X148931479Y-132217160D01*
X148914083Y-132393787D01*
X148891613Y-132467860D01*
X148862563Y-132563627D01*
X148801300Y-132678240D01*
X148778898Y-132720151D01*
X148774671Y-132725301D01*
X148666306Y-132857346D01*
X148572050Y-132934699D01*
X148529111Y-132969938D01*
X148529109Y-132969939D01*
X148372587Y-133053603D01*
X148315973Y-133070776D01*
X148202747Y-133105123D01*
X148136562Y-133111642D01*
X148070380Y-133118160D01*
X147981860Y-133118160D01*
X147915678Y-133111642D01*
X147849493Y-133105123D01*
X147736267Y-133070776D01*
X147679653Y-133053603D01*
X147523131Y-132969939D01*
X147523129Y-132969938D01*
X147480190Y-132934699D01*
X147385934Y-132857346D01*
X147277569Y-132725301D01*
X147273342Y-132720151D01*
X147250940Y-132678240D01*
X147189677Y-132563627D01*
X147160627Y-132467860D01*
X147138157Y-132393787D01*
X147120761Y-132217160D01*
X147138157Y-132040533D01*
X147184227Y-131888660D01*
X147189677Y-131870693D01*
X147273341Y-131714171D01*
X147273342Y-131714169D01*
X147311936Y-131667142D01*
X147385934Y-131576974D01*
X147501954Y-131481760D01*
X147523129Y-131464382D01*
X147561238Y-131444012D01*
X147679653Y-131380717D01*
X147736267Y-131363544D01*
X147849493Y-131329197D01*
X147915677Y-131322679D01*
X147981860Y-131316160D01*
X148070380Y-131316160D01*
X148136563Y-131322679D01*
X148136563Y-131322679D01*
G37*
G36*
X174205520Y-132956220D02*
X173103920Y-132956220D01*
X173103920Y-131779620D01*
X174205520Y-131779620D01*
X174205520Y-132956220D01*
X174205520Y-132956220D01*
G37*
G36*
X161336280Y-132828880D02*
X160034680Y-132828880D01*
X160034680Y-131527280D01*
X161336280Y-131527280D01*
X161336280Y-132828880D01*
X161336280Y-132828880D01*
G37*
G36*
X157546600Y-132696800D02*
X156245000Y-132696800D01*
X156245000Y-131395200D01*
X157546600Y-131395200D01*
X157546600Y-132696800D01*
X157546600Y-132696800D01*
G37*
G36*
X159417640Y-132671740D02*
X158316040Y-132671740D01*
X158316040Y-131495140D01*
X159417640Y-131495140D01*
X159417640Y-132671740D01*
X159417640Y-132671740D01*
G37*
G36*
X155917520Y-132600620D02*
X154815920Y-132600620D01*
X154815920Y-131424020D01*
X155917520Y-131424020D01*
X155917520Y-132600620D01*
X155917520Y-132600620D01*
G37*
G36*
X130487040Y-132483780D02*
X129385440Y-132483780D01*
X129385440Y-131307180D01*
X130487040Y-131307180D01*
X130487040Y-132483780D01*
X130487040Y-132483780D01*
G37*
G36*
X132639500Y-132410400D02*
X131037900Y-132410400D01*
X131037900Y-131068800D01*
X132639500Y-131068800D01*
X132639500Y-132410400D01*
X132639500Y-132410400D01*
G37*
G36*
X148136562Y-128782678D02*
X148202747Y-128789197D01*
X148315973Y-128823544D01*
X148372587Y-128840717D01*
X148488248Y-128902540D01*
X148529111Y-128924382D01*
X148564849Y-128953712D01*
X148666306Y-129036974D01*
X148749568Y-129138431D01*
X148778898Y-129174169D01*
X148778899Y-129174171D01*
X148862563Y-129330693D01*
X148862563Y-129330694D01*
X148914083Y-129500533D01*
X148931479Y-129677160D01*
X148914083Y-129853787D01*
X148879736Y-129967013D01*
X148862563Y-130023627D01*
X148832890Y-130079140D01*
X148778898Y-130180151D01*
X148749568Y-130215889D01*
X148666306Y-130317346D01*
X148564849Y-130400608D01*
X148529111Y-130429938D01*
X148529109Y-130429939D01*
X148372587Y-130513603D01*
X148339835Y-130523538D01*
X148202747Y-130565123D01*
X148136563Y-130571641D01*
X148070380Y-130578160D01*
X147981860Y-130578160D01*
X147915677Y-130571641D01*
X147849493Y-130565123D01*
X147712405Y-130523538D01*
X147679653Y-130513603D01*
X147523131Y-130429939D01*
X147523129Y-130429938D01*
X147487391Y-130400608D01*
X147385934Y-130317346D01*
X147302672Y-130215889D01*
X147273342Y-130180151D01*
X147219350Y-130079140D01*
X147189677Y-130023627D01*
X147172504Y-129967013D01*
X147138157Y-129853787D01*
X147120761Y-129677160D01*
X147138157Y-129500533D01*
X147189677Y-129330694D01*
X147189677Y-129330693D01*
X147273341Y-129174171D01*
X147273342Y-129174169D01*
X147302672Y-129138431D01*
X147385934Y-129036974D01*
X147487391Y-128953712D01*
X147523129Y-128924382D01*
X147563992Y-128902540D01*
X147679653Y-128840717D01*
X147736267Y-128823544D01*
X147849493Y-128789197D01*
X147915678Y-128782678D01*
X147981860Y-128776160D01*
X148070380Y-128776160D01*
X148136562Y-128782678D01*
X148136562Y-128782678D01*
G37*
G36*
X166417880Y-130079140D02*
X165316280Y-130079140D01*
X165316280Y-128902540D01*
X166417880Y-128902540D01*
X166417880Y-130079140D01*
X166417880Y-130079140D01*
G37*
G36*
X166417880Y-128379140D02*
X165316280Y-128379140D01*
X165316280Y-127202540D01*
X166417880Y-127202540D01*
X166417880Y-128379140D01*
X166417880Y-128379140D01*
G37*
G36*
X148136563Y-126242679D02*
X148202747Y-126249197D01*
X148315973Y-126283544D01*
X148372587Y-126300717D01*
X148484993Y-126360800D01*
X148529111Y-126384382D01*
X148564849Y-126413712D01*
X148666306Y-126496974D01*
X148739416Y-126586060D01*
X148778898Y-126634169D01*
X148778899Y-126634171D01*
X148862563Y-126790693D01*
X148862563Y-126790694D01*
X148914083Y-126960533D01*
X148931479Y-127137160D01*
X148914083Y-127313787D01*
X148879736Y-127427013D01*
X148862563Y-127483627D01*
X148841004Y-127523960D01*
X148778898Y-127640151D01*
X148749568Y-127675889D01*
X148666306Y-127777346D01*
X148564849Y-127860608D01*
X148529111Y-127889938D01*
X148529109Y-127889939D01*
X148372587Y-127973603D01*
X148315973Y-127990776D01*
X148202747Y-128025123D01*
X148136563Y-128031641D01*
X148070380Y-128038160D01*
X147981860Y-128038160D01*
X147915677Y-128031641D01*
X147849493Y-128025123D01*
X147736267Y-127990776D01*
X147679653Y-127973603D01*
X147523131Y-127889939D01*
X147523129Y-127889938D01*
X147487391Y-127860608D01*
X147385934Y-127777346D01*
X147302672Y-127675889D01*
X147273342Y-127640151D01*
X147211236Y-127523960D01*
X147189677Y-127483627D01*
X147172504Y-127427013D01*
X147138157Y-127313787D01*
X147120761Y-127137160D01*
X147138157Y-126960533D01*
X147189677Y-126790694D01*
X147189677Y-126790693D01*
X147273341Y-126634171D01*
X147273342Y-126634169D01*
X147312824Y-126586060D01*
X147385934Y-126496974D01*
X147487391Y-126413712D01*
X147523129Y-126384382D01*
X147567247Y-126360800D01*
X147679653Y-126300717D01*
X147736267Y-126283544D01*
X147849493Y-126249197D01*
X147915677Y-126242679D01*
X147981860Y-126236160D01*
X148070380Y-126236160D01*
X148136563Y-126242679D01*
X148136563Y-126242679D01*
G37*
G36*
X162222880Y-127894360D02*
X160621280Y-127894360D01*
X160621280Y-126552760D01*
X162222880Y-126552760D01*
X162222880Y-127894360D01*
X162222880Y-127894360D01*
G37*
G36*
X155740800Y-127782600D02*
X154139200Y-127782600D01*
X154139200Y-126441000D01*
X155740800Y-126441000D01*
X155740800Y-127782600D01*
X155740800Y-127782600D01*
G37*
G36*
X163735640Y-127762660D02*
X162634040Y-127762660D01*
X162634040Y-126586060D01*
X163735640Y-126586060D01*
X163735640Y-127762660D01*
X163735640Y-127762660D01*
G37*
G36*
X157516500Y-127523960D02*
X156214900Y-127523960D01*
X156214900Y-126872360D01*
X157516500Y-126872360D01*
X157516500Y-127523960D01*
X157516500Y-127523960D01*
G37*
G36*
X160116700Y-127523960D02*
X158815100Y-127523960D01*
X158815100Y-126872360D01*
X160116700Y-126872360D01*
X160116700Y-127523960D01*
X160116700Y-127523960D01*
G37*
G36*
X160116700Y-126573960D02*
X158815100Y-126573960D01*
X158815100Y-125922360D01*
X160116700Y-125922360D01*
X160116700Y-126573960D01*
X160116700Y-126573960D01*
G37*
G36*
X163735640Y-126062660D02*
X162634040Y-126062660D01*
X162634040Y-124886060D01*
X163735640Y-124886060D01*
X163735640Y-126062660D01*
X163735640Y-126062660D01*
G37*
G36*
X162222880Y-125994360D02*
X160621280Y-125994360D01*
X160621280Y-124652760D01*
X162222880Y-124652760D01*
X162222880Y-125994360D01*
X162222880Y-125994360D01*
G37*
G36*
X155740800Y-125882600D02*
X154139200Y-125882600D01*
X154139200Y-124541000D01*
X155740800Y-124541000D01*
X155740800Y-125882600D01*
X155740800Y-125882600D01*
G37*
G36*
X170642000Y-125833760D02*
X169440400Y-125833760D01*
X169440400Y-124732160D01*
X170642000Y-124732160D01*
X170642000Y-125833760D01*
X170642000Y-125833760D01*
G37*
G36*
X172342000Y-125833760D02*
X171140400Y-125833760D01*
X171140400Y-124732160D01*
X172342000Y-124732160D01*
X172342000Y-125833760D01*
X172342000Y-125833760D01*
G37*
G36*
X160116700Y-125623960D02*
X158815100Y-125623960D01*
X158815100Y-124972360D01*
X160116700Y-124972360D01*
X160116700Y-125623960D01*
X160116700Y-125623960D01*
G37*
G36*
X157516500Y-125623960D02*
X156214900Y-125623960D01*
X156214900Y-124972360D01*
X157516500Y-124972360D01*
X157516500Y-125623960D01*
X157516500Y-125623960D01*
G37*
G36*
X148136563Y-123702679D02*
X148202747Y-123709197D01*
X148315973Y-123743544D01*
X148372587Y-123760717D01*
X148511207Y-123834812D01*
X148529111Y-123844382D01*
X148564849Y-123873712D01*
X148666306Y-123956974D01*
X148749568Y-124058431D01*
X148778898Y-124094169D01*
X148778899Y-124094171D01*
X148862563Y-124250693D01*
X148862563Y-124250694D01*
X148914083Y-124420533D01*
X148931479Y-124597160D01*
X148914083Y-124773787D01*
X148880025Y-124886060D01*
X148862563Y-124943627D01*
X148790097Y-125079200D01*
X148778898Y-125100151D01*
X148749568Y-125135889D01*
X148666306Y-125237346D01*
X148564849Y-125320608D01*
X148529111Y-125349938D01*
X148529109Y-125349939D01*
X148372587Y-125433603D01*
X148332378Y-125445800D01*
X148202747Y-125485123D01*
X148136562Y-125491642D01*
X148070380Y-125498160D01*
X147981860Y-125498160D01*
X147915678Y-125491642D01*
X147849493Y-125485123D01*
X147719862Y-125445800D01*
X147679653Y-125433603D01*
X147523131Y-125349939D01*
X147523129Y-125349938D01*
X147487391Y-125320608D01*
X147385934Y-125237346D01*
X147302672Y-125135889D01*
X147273342Y-125100151D01*
X147262143Y-125079200D01*
X147189677Y-124943627D01*
X147172215Y-124886060D01*
X147138157Y-124773787D01*
X147120761Y-124597160D01*
X147138157Y-124420533D01*
X147189677Y-124250694D01*
X147189677Y-124250693D01*
X147273341Y-124094171D01*
X147273342Y-124094169D01*
X147302672Y-124058431D01*
X147385934Y-123956974D01*
X147487391Y-123873712D01*
X147523129Y-123844382D01*
X147541033Y-123834812D01*
X147679653Y-123760717D01*
X147736267Y-123743544D01*
X147849493Y-123709197D01*
X147915677Y-123702679D01*
X147981860Y-123696160D01*
X148070380Y-123696160D01*
X148136563Y-123702679D01*
X148136563Y-123702679D01*
G37*
G36*
X135950800Y-124970800D02*
X134249200Y-124970800D01*
X134249200Y-123969200D01*
X135950800Y-123969200D01*
X135950800Y-124970800D01*
X135950800Y-124970800D01*
G37*
G36*
X169190800Y-124510800D02*
X166089200Y-124510800D01*
X166089200Y-123009200D01*
X169190800Y-123009200D01*
X169190800Y-124510800D01*
X169190800Y-124510800D01*
G37*
G36*
X148927120Y-122958160D02*
X147125120Y-122958160D01*
X147125120Y-121156160D01*
X148927120Y-121156160D01*
X148927120Y-122958160D01*
X148927120Y-122958160D01*
G37*
G36*
X164840800Y-121910800D02*
X162439200Y-121910800D01*
X162439200Y-119909200D01*
X164840800Y-119909200D01*
X164840800Y-121910800D01*
X164840800Y-121910800D01*
G37*
G36*
X172840800Y-121910800D02*
X170439200Y-121910800D01*
X170439200Y-119909200D01*
X172840800Y-119909200D01*
X172840800Y-121910800D01*
X172840800Y-121910800D01*
G37*
G36*
X169940800Y-121910800D02*
X167839200Y-121910800D01*
X167839200Y-119909200D01*
X169940800Y-119909200D01*
X169940800Y-121910800D01*
X169940800Y-121910800D01*
G37*
G36*
X167440800Y-121910800D02*
X165339200Y-121910800D01*
X165339200Y-119909200D01*
X167440800Y-119909200D01*
X167440800Y-121910800D01*
X167440800Y-121910800D01*
G37*
M02*
