G04 #@! TF.GenerationSoftware,KiCad,Pcbnew,(6.0.0-rc1-dev-1027-g90233e5ec)*
G04 #@! TF.CreationDate,2018-11-05T19:06:39+01:00*
G04 #@! TF.ProjectId,eBoard_remote_control,65426F6172645F72656D6F74655F636F,rev?*
G04 #@! TF.SameCoordinates,Original*
G04 #@! TF.FileFunction,Profile,NP*
%FSLAX46Y46*%
G04 Gerber Fmt 4.6, Leading zero omitted, Abs format (unit mm)*
G04 Created by KiCad (PCBNEW (6.0.0-rc1-dev-1027-g90233e5ec)) date 11/05/18 19:06:39*
%MOMM*%
%LPD*%
G01*
G04 APERTURE LIST*
%ADD10C,0.050000*%
G04 APERTURE END LIST*
D10*
X207604360Y-157815280D02*
X209397600Y-157734000D01*
X187020200Y-157810200D02*
X207604360Y-157815280D01*
X204195680Y-57937400D02*
X197220840Y-57866280D01*
X180416200Y-81737200D02*
X177469800Y-83616800D01*
X183248300Y-70980300D02*
X183388000Y-76123800D01*
X197220840Y-57866280D02*
X183248300Y-70980300D01*
X194431673Y-139877800D02*
G75*
G03X194431673Y-139877800I-1554233J0D01*
G01*
X207687933Y-148475700D02*
G75*
G03X207687933Y-148475700I-1554233J0D01*
G01*
X208194428Y-70612000D02*
G75*
G03X208194428Y-70612000I-1552728J0D01*
G01*
X199998214Y-78831440D02*
G75*
G03X199998214Y-78831440I-1568334J0D01*
G01*
X204343000Y-61899800D02*
X204195680Y-57937400D01*
X179349400Y-153822400D02*
X179146200Y-153974800D01*
X180111400Y-153441400D02*
X179349400Y-153822400D01*
X180746400Y-153212800D02*
X180111400Y-153441400D01*
X181762400Y-153035000D02*
X180746400Y-153212800D01*
X182880000Y-153085800D02*
X181762400Y-153035000D01*
X183769000Y-153339800D02*
X182880000Y-153085800D01*
X184785000Y-153822400D02*
X183769000Y-153339800D01*
X185267600Y-154203400D02*
X184785000Y-153822400D01*
X185928000Y-154838400D02*
X185267600Y-154203400D01*
X186512200Y-155752800D02*
X185928000Y-154838400D01*
X186893200Y-156641800D02*
X186512200Y-155752800D01*
X187020200Y-157810200D02*
X186893200Y-156641800D01*
X183464200Y-77292200D02*
X183388000Y-76123800D01*
X183362600Y-78206600D02*
X183464200Y-77292200D01*
X183159400Y-78968600D02*
X183362600Y-78206600D01*
X182803800Y-79552800D02*
X183159400Y-78968600D01*
X182295800Y-80416400D02*
X182803800Y-79552800D01*
X181381400Y-81178400D02*
X182295800Y-80416400D01*
X180416200Y-81737200D02*
X181381400Y-81178400D01*
X177444400Y-88138000D02*
X177469800Y-83616800D01*
X177774600Y-153746200D02*
X179146200Y-153974800D01*
X177469800Y-150672800D02*
X177774600Y-153746200D01*
X177444400Y-88138000D02*
X177469800Y-150672800D01*
X211480400Y-68097400D02*
X204343000Y-61899800D01*
X211455000Y-151942800D02*
X211480400Y-68097400D01*
X211328000Y-153060400D02*
X211455000Y-151942800D01*
X210769200Y-155117800D02*
X211328000Y-153060400D01*
X209956400Y-156845000D02*
X210769200Y-155117800D01*
X209397600Y-157734000D02*
X209956400Y-156845000D01*
M02*
