G04 #@! TF.GenerationSoftware,KiCad,Pcbnew,(6.0.0-rc1-dev-1027-g90233e5ec)*
G04 #@! TF.CreationDate,2018-11-05T19:06:39+01:00*
G04 #@! TF.ProjectId,eBoard_remote_control,65426F6172645F72656D6F74655F636F,rev?*
G04 #@! TF.SameCoordinates,Original*
G04 #@! TF.FileFunction,Paste,Top*
G04 #@! TF.FilePolarity,Positive*
%FSLAX46Y46*%
G04 Gerber Fmt 4.6, Leading zero omitted, Abs format (unit mm)*
G04 Created by KiCad (PCBNEW (6.0.0-rc1-dev-1027-g90233e5ec)) date 11/05/18 19:06:39*
%MOMM*%
%LPD*%
G01*
G04 APERTURE LIST*
%ADD10C,0.100000*%
%ADD11R,1.900000X2.000000*%
%ADD12R,1.900000X2.300000*%
%ADD13R,1.400000X0.400000*%
%ADD14R,1.200000X0.500000*%
%ADD15R,1.600000X0.900000*%
%ADD16R,1.600000X0.480000*%
%ADD17R,0.480000X1.600000*%
%ADD18R,1.600000X3.400000*%
%ADD19R,1.000000X4.600000*%
%ADD20R,1.000000X1.075000*%
%ADD21R,1.100000X1.900000*%
%ADD22R,1.000000X1.400000*%
%ADD23R,1.000000X1.100000*%
%ADD24R,1.500000X1.240000*%
%ADD25R,1.200000X0.550000*%
%ADD26R,1.200000X1.200000*%
%ADD27R,1.075000X1.000000*%
%ADD28C,0.280000*%
%ADD29R,1.240000X1.500000*%
G04 APERTURE END LIST*
D10*
G04 #@! TO.C,U4*
G36*
X185303663Y-143362618D02*
X185303663Y-143962618D01*
X185903663Y-143962618D01*
X185903663Y-143362618D01*
X185303663Y-143362618D01*
G37*
G36*
X187103663Y-143362618D02*
X187103663Y-143962618D01*
X187703663Y-143962618D01*
X187703663Y-143362618D01*
X187103663Y-143362618D01*
G37*
G36*
X186203663Y-144262618D02*
X186203663Y-144862618D01*
X186803663Y-144862618D01*
X186803663Y-144262618D01*
X186203663Y-144262618D01*
G37*
G36*
X185303663Y-144262618D02*
X185303663Y-144862618D01*
X185903663Y-144862618D01*
X185903663Y-144262618D01*
X185303663Y-144262618D01*
G37*
G36*
X187103663Y-144262618D02*
X187103663Y-144862618D01*
X187703663Y-144862618D01*
X187703663Y-144262618D01*
X187103663Y-144262618D01*
G37*
G36*
X187103663Y-142462618D02*
X187103663Y-143062618D01*
X187703663Y-143062618D01*
X187703663Y-142462618D01*
X187103663Y-142462618D01*
G37*
G36*
X186203663Y-142462618D02*
X186203663Y-143062618D01*
X186803663Y-143062618D01*
X186803663Y-142462618D01*
X186203663Y-142462618D01*
G37*
G36*
X186203663Y-143362618D02*
X186203663Y-143962618D01*
X186803663Y-143962618D01*
X186803663Y-143362618D01*
X186203663Y-143362618D01*
G37*
G36*
X185303663Y-142462618D02*
X185303663Y-143062618D01*
X185903663Y-143062618D01*
X185903663Y-142462618D01*
X185303663Y-142462618D01*
G37*
G04 #@! TD*
D11*
G04 #@! TO.C,P1*
X178959863Y-142418018D03*
X178959863Y-139918018D03*
D12*
X178959863Y-145168018D03*
X178959863Y-137168018D03*
D13*
X181809863Y-139868018D03*
X181809863Y-140518018D03*
X181809863Y-141818018D03*
X181809863Y-142468018D03*
X181809863Y-141168018D03*
G04 #@! TD*
D14*
G04 #@! TO.C,U1*
X204192263Y-120673756D03*
X204192263Y-119273756D03*
D15*
X205892263Y-118723756D03*
D16*
X205892263Y-119623756D03*
X205892263Y-120323756D03*
X205892263Y-121023756D03*
X205892263Y-121723756D03*
X205892263Y-122423756D03*
X205892263Y-123123756D03*
X205892263Y-123823756D03*
X205892263Y-124523756D03*
X205892263Y-125223756D03*
X205892263Y-125923756D03*
X205892263Y-126623756D03*
X205892263Y-127323756D03*
X205892263Y-128023756D03*
X205892263Y-128723756D03*
D17*
X205492263Y-130173756D03*
X204792263Y-130173756D03*
X204092263Y-130173756D03*
X203392263Y-130173756D03*
X202692263Y-130173756D03*
X201992263Y-130173756D03*
X201292263Y-130173756D03*
X200592263Y-130173756D03*
X199892263Y-130173756D03*
X199192263Y-130173756D03*
X198492263Y-130173756D03*
X197792263Y-130173756D03*
X197092263Y-130173756D03*
D16*
X196692263Y-128023756D03*
X196692263Y-127323756D03*
X196692263Y-126623756D03*
X196692263Y-125923756D03*
X196692263Y-125223756D03*
X196692263Y-124523756D03*
X196692263Y-123823756D03*
X196692263Y-123123756D03*
X196692263Y-122423756D03*
X196692263Y-121723756D03*
D15*
X196692263Y-118723756D03*
G04 #@! TD*
D18*
G04 #@! TO.C,X2*
X186737200Y-107745400D03*
X179937200Y-107745400D03*
D19*
X184337200Y-112945400D03*
X182337200Y-112945400D03*
G04 #@! TD*
D20*
G04 #@! TO.C,R8*
X185750200Y-131367160D03*
X185750200Y-133067160D03*
G04 #@! TD*
D21*
G04 #@! TO.C,X4*
X199344537Y-133935476D03*
X196944537Y-133935476D03*
G04 #@! TD*
D20*
G04 #@! TO.C,C10*
X184852663Y-138291418D03*
X184852663Y-139991418D03*
G04 #@! TD*
G04 #@! TO.C,R9*
X204101700Y-133287400D03*
X204101700Y-134987400D03*
G04 #@! TD*
D22*
G04 #@! TO.C,U5*
X189067400Y-69045000D03*
X190967400Y-69045000D03*
X190017400Y-66845000D03*
G04 #@! TD*
G04 #@! TO.C,U7*
X198353640Y-61836480D03*
X200253640Y-61836480D03*
X199303640Y-59636480D03*
G04 #@! TD*
G04 #@! TO.C,U6*
X194467440Y-66853160D03*
X196367440Y-66853160D03*
X195417440Y-64653160D03*
G04 #@! TD*
D23*
G04 #@! TO.C,C21*
X198814290Y-66121196D03*
X198814290Y-64421196D03*
G04 #@! TD*
G04 #@! TO.C,C20*
X194045145Y-72439695D03*
X194045145Y-70739695D03*
G04 #@! TD*
D20*
G04 #@! TO.C,C1*
X196899937Y-137909676D03*
X196899937Y-136209676D03*
G04 #@! TD*
G04 #@! TO.C,C2*
X199338337Y-137884276D03*
X199338337Y-136184276D03*
G04 #@! TD*
D24*
G04 #@! TO.C,C3*
X194873880Y-130850680D03*
X194873880Y-128950680D03*
G04 #@! TD*
G04 #@! TO.C,L2*
X192990244Y-127925610D03*
X192990244Y-126025610D03*
G04 #@! TD*
D20*
G04 #@! TO.C,C4*
X191414400Y-127824600D03*
X191414400Y-126124600D03*
G04 #@! TD*
D25*
G04 #@! TO.C,U3*
X184317177Y-131229116D03*
X184317177Y-133129116D03*
X181716977Y-133129116D03*
X181716977Y-132179116D03*
X181716977Y-131229116D03*
G04 #@! TD*
D26*
G04 #@! TO.C,CHG1*
X187335077Y-133089416D03*
X187335077Y-130989416D03*
G04 #@! TD*
D20*
G04 #@! TO.C,R3*
X189062277Y-132787816D03*
X189062277Y-131087816D03*
G04 #@! TD*
D24*
G04 #@! TO.C,C5*
X179887880Y-131312880D03*
X179887880Y-133212880D03*
G04 #@! TD*
D27*
G04 #@! TO.C,R4*
X193154444Y-121184410D03*
X191454444Y-121184410D03*
G04 #@! TD*
G04 #@! TO.C,R6*
X191518844Y-122810010D03*
X193218844Y-122810010D03*
G04 #@! TD*
D24*
G04 #@! TO.C,C6*
X180553360Y-126156760D03*
X180553360Y-124256760D03*
G04 #@! TD*
G04 #@! TO.C,C8*
X186805735Y-127017768D03*
X186805735Y-125117768D03*
G04 #@! TD*
D25*
G04 #@! TO.C,U2*
X184956235Y-124939968D03*
X184956235Y-126839968D03*
X182356035Y-126839968D03*
X182356035Y-125889968D03*
X182356035Y-124939968D03*
G04 #@! TD*
D27*
G04 #@! TO.C,R5*
X180419640Y-127975360D03*
X182119640Y-127975360D03*
G04 #@! TD*
D10*
G04 #@! TO.C,U4*
G36*
X188840524Y-142272955D02*
X188847319Y-142273963D01*
X188853983Y-142275632D01*
X188860451Y-142277946D01*
X188866661Y-142280884D01*
X188872553Y-142284415D01*
X188878071Y-142288507D01*
X188883160Y-142293121D01*
X188887774Y-142298210D01*
X188891866Y-142303728D01*
X188895397Y-142309620D01*
X188898335Y-142315830D01*
X188900649Y-142322298D01*
X188902318Y-142328962D01*
X188903326Y-142335757D01*
X188903663Y-142342618D01*
X188903663Y-142482618D01*
X188903326Y-142489479D01*
X188902318Y-142496274D01*
X188900649Y-142502938D01*
X188898335Y-142509406D01*
X188895397Y-142515616D01*
X188891866Y-142521508D01*
X188887774Y-142527026D01*
X188883160Y-142532115D01*
X188878071Y-142536729D01*
X188872553Y-142540821D01*
X188866661Y-142544352D01*
X188860451Y-142547290D01*
X188853983Y-142549604D01*
X188847319Y-142551273D01*
X188840524Y-142552281D01*
X188833663Y-142552618D01*
X188173663Y-142552618D01*
X188166802Y-142552281D01*
X188160007Y-142551273D01*
X188153343Y-142549604D01*
X188146875Y-142547290D01*
X188140665Y-142544352D01*
X188134773Y-142540821D01*
X188129255Y-142536729D01*
X188124166Y-142532115D01*
X188119552Y-142527026D01*
X188115460Y-142521508D01*
X188111929Y-142515616D01*
X188108991Y-142509406D01*
X188106677Y-142502938D01*
X188105008Y-142496274D01*
X188104000Y-142489479D01*
X188103663Y-142482618D01*
X188103663Y-142342618D01*
X188104000Y-142335757D01*
X188105008Y-142328962D01*
X188106677Y-142322298D01*
X188108991Y-142315830D01*
X188111929Y-142309620D01*
X188115460Y-142303728D01*
X188119552Y-142298210D01*
X188124166Y-142293121D01*
X188129255Y-142288507D01*
X188134773Y-142284415D01*
X188140665Y-142280884D01*
X188146875Y-142277946D01*
X188153343Y-142275632D01*
X188160007Y-142273963D01*
X188166802Y-142272955D01*
X188173663Y-142272618D01*
X188833663Y-142272618D01*
X188840524Y-142272955D01*
X188840524Y-142272955D01*
G37*
D28*
X188503663Y-142412618D03*
D10*
G36*
X188840524Y-142772955D02*
X188847319Y-142773963D01*
X188853983Y-142775632D01*
X188860451Y-142777946D01*
X188866661Y-142780884D01*
X188872553Y-142784415D01*
X188878071Y-142788507D01*
X188883160Y-142793121D01*
X188887774Y-142798210D01*
X188891866Y-142803728D01*
X188895397Y-142809620D01*
X188898335Y-142815830D01*
X188900649Y-142822298D01*
X188902318Y-142828962D01*
X188903326Y-142835757D01*
X188903663Y-142842618D01*
X188903663Y-142982618D01*
X188903326Y-142989479D01*
X188902318Y-142996274D01*
X188900649Y-143002938D01*
X188898335Y-143009406D01*
X188895397Y-143015616D01*
X188891866Y-143021508D01*
X188887774Y-143027026D01*
X188883160Y-143032115D01*
X188878071Y-143036729D01*
X188872553Y-143040821D01*
X188866661Y-143044352D01*
X188860451Y-143047290D01*
X188853983Y-143049604D01*
X188847319Y-143051273D01*
X188840524Y-143052281D01*
X188833663Y-143052618D01*
X188173663Y-143052618D01*
X188166802Y-143052281D01*
X188160007Y-143051273D01*
X188153343Y-143049604D01*
X188146875Y-143047290D01*
X188140665Y-143044352D01*
X188134773Y-143040821D01*
X188129255Y-143036729D01*
X188124166Y-143032115D01*
X188119552Y-143027026D01*
X188115460Y-143021508D01*
X188111929Y-143015616D01*
X188108991Y-143009406D01*
X188106677Y-143002938D01*
X188105008Y-142996274D01*
X188104000Y-142989479D01*
X188103663Y-142982618D01*
X188103663Y-142842618D01*
X188104000Y-142835757D01*
X188105008Y-142828962D01*
X188106677Y-142822298D01*
X188108991Y-142815830D01*
X188111929Y-142809620D01*
X188115460Y-142803728D01*
X188119552Y-142798210D01*
X188124166Y-142793121D01*
X188129255Y-142788507D01*
X188134773Y-142784415D01*
X188140665Y-142780884D01*
X188146875Y-142777946D01*
X188153343Y-142775632D01*
X188160007Y-142773963D01*
X188166802Y-142772955D01*
X188173663Y-142772618D01*
X188833663Y-142772618D01*
X188840524Y-142772955D01*
X188840524Y-142772955D01*
G37*
D28*
X188503663Y-142912618D03*
D10*
G36*
X188840524Y-143272955D02*
X188847319Y-143273963D01*
X188853983Y-143275632D01*
X188860451Y-143277946D01*
X188866661Y-143280884D01*
X188872553Y-143284415D01*
X188878071Y-143288507D01*
X188883160Y-143293121D01*
X188887774Y-143298210D01*
X188891866Y-143303728D01*
X188895397Y-143309620D01*
X188898335Y-143315830D01*
X188900649Y-143322298D01*
X188902318Y-143328962D01*
X188903326Y-143335757D01*
X188903663Y-143342618D01*
X188903663Y-143482618D01*
X188903326Y-143489479D01*
X188902318Y-143496274D01*
X188900649Y-143502938D01*
X188898335Y-143509406D01*
X188895397Y-143515616D01*
X188891866Y-143521508D01*
X188887774Y-143527026D01*
X188883160Y-143532115D01*
X188878071Y-143536729D01*
X188872553Y-143540821D01*
X188866661Y-143544352D01*
X188860451Y-143547290D01*
X188853983Y-143549604D01*
X188847319Y-143551273D01*
X188840524Y-143552281D01*
X188833663Y-143552618D01*
X188173663Y-143552618D01*
X188166802Y-143552281D01*
X188160007Y-143551273D01*
X188153343Y-143549604D01*
X188146875Y-143547290D01*
X188140665Y-143544352D01*
X188134773Y-143540821D01*
X188129255Y-143536729D01*
X188124166Y-143532115D01*
X188119552Y-143527026D01*
X188115460Y-143521508D01*
X188111929Y-143515616D01*
X188108991Y-143509406D01*
X188106677Y-143502938D01*
X188105008Y-143496274D01*
X188104000Y-143489479D01*
X188103663Y-143482618D01*
X188103663Y-143342618D01*
X188104000Y-143335757D01*
X188105008Y-143328962D01*
X188106677Y-143322298D01*
X188108991Y-143315830D01*
X188111929Y-143309620D01*
X188115460Y-143303728D01*
X188119552Y-143298210D01*
X188124166Y-143293121D01*
X188129255Y-143288507D01*
X188134773Y-143284415D01*
X188140665Y-143280884D01*
X188146875Y-143277946D01*
X188153343Y-143275632D01*
X188160007Y-143273963D01*
X188166802Y-143272955D01*
X188173663Y-143272618D01*
X188833663Y-143272618D01*
X188840524Y-143272955D01*
X188840524Y-143272955D01*
G37*
D28*
X188503663Y-143412618D03*
D10*
G36*
X188840524Y-143772955D02*
X188847319Y-143773963D01*
X188853983Y-143775632D01*
X188860451Y-143777946D01*
X188866661Y-143780884D01*
X188872553Y-143784415D01*
X188878071Y-143788507D01*
X188883160Y-143793121D01*
X188887774Y-143798210D01*
X188891866Y-143803728D01*
X188895397Y-143809620D01*
X188898335Y-143815830D01*
X188900649Y-143822298D01*
X188902318Y-143828962D01*
X188903326Y-143835757D01*
X188903663Y-143842618D01*
X188903663Y-143982618D01*
X188903326Y-143989479D01*
X188902318Y-143996274D01*
X188900649Y-144002938D01*
X188898335Y-144009406D01*
X188895397Y-144015616D01*
X188891866Y-144021508D01*
X188887774Y-144027026D01*
X188883160Y-144032115D01*
X188878071Y-144036729D01*
X188872553Y-144040821D01*
X188866661Y-144044352D01*
X188860451Y-144047290D01*
X188853983Y-144049604D01*
X188847319Y-144051273D01*
X188840524Y-144052281D01*
X188833663Y-144052618D01*
X188173663Y-144052618D01*
X188166802Y-144052281D01*
X188160007Y-144051273D01*
X188153343Y-144049604D01*
X188146875Y-144047290D01*
X188140665Y-144044352D01*
X188134773Y-144040821D01*
X188129255Y-144036729D01*
X188124166Y-144032115D01*
X188119552Y-144027026D01*
X188115460Y-144021508D01*
X188111929Y-144015616D01*
X188108991Y-144009406D01*
X188106677Y-144002938D01*
X188105008Y-143996274D01*
X188104000Y-143989479D01*
X188103663Y-143982618D01*
X188103663Y-143842618D01*
X188104000Y-143835757D01*
X188105008Y-143828962D01*
X188106677Y-143822298D01*
X188108991Y-143815830D01*
X188111929Y-143809620D01*
X188115460Y-143803728D01*
X188119552Y-143798210D01*
X188124166Y-143793121D01*
X188129255Y-143788507D01*
X188134773Y-143784415D01*
X188140665Y-143780884D01*
X188146875Y-143777946D01*
X188153343Y-143775632D01*
X188160007Y-143773963D01*
X188166802Y-143772955D01*
X188173663Y-143772618D01*
X188833663Y-143772618D01*
X188840524Y-143772955D01*
X188840524Y-143772955D01*
G37*
D28*
X188503663Y-143912618D03*
D10*
G36*
X188840524Y-144272955D02*
X188847319Y-144273963D01*
X188853983Y-144275632D01*
X188860451Y-144277946D01*
X188866661Y-144280884D01*
X188872553Y-144284415D01*
X188878071Y-144288507D01*
X188883160Y-144293121D01*
X188887774Y-144298210D01*
X188891866Y-144303728D01*
X188895397Y-144309620D01*
X188898335Y-144315830D01*
X188900649Y-144322298D01*
X188902318Y-144328962D01*
X188903326Y-144335757D01*
X188903663Y-144342618D01*
X188903663Y-144482618D01*
X188903326Y-144489479D01*
X188902318Y-144496274D01*
X188900649Y-144502938D01*
X188898335Y-144509406D01*
X188895397Y-144515616D01*
X188891866Y-144521508D01*
X188887774Y-144527026D01*
X188883160Y-144532115D01*
X188878071Y-144536729D01*
X188872553Y-144540821D01*
X188866661Y-144544352D01*
X188860451Y-144547290D01*
X188853983Y-144549604D01*
X188847319Y-144551273D01*
X188840524Y-144552281D01*
X188833663Y-144552618D01*
X188173663Y-144552618D01*
X188166802Y-144552281D01*
X188160007Y-144551273D01*
X188153343Y-144549604D01*
X188146875Y-144547290D01*
X188140665Y-144544352D01*
X188134773Y-144540821D01*
X188129255Y-144536729D01*
X188124166Y-144532115D01*
X188119552Y-144527026D01*
X188115460Y-144521508D01*
X188111929Y-144515616D01*
X188108991Y-144509406D01*
X188106677Y-144502938D01*
X188105008Y-144496274D01*
X188104000Y-144489479D01*
X188103663Y-144482618D01*
X188103663Y-144342618D01*
X188104000Y-144335757D01*
X188105008Y-144328962D01*
X188106677Y-144322298D01*
X188108991Y-144315830D01*
X188111929Y-144309620D01*
X188115460Y-144303728D01*
X188119552Y-144298210D01*
X188124166Y-144293121D01*
X188129255Y-144288507D01*
X188134773Y-144284415D01*
X188140665Y-144280884D01*
X188146875Y-144277946D01*
X188153343Y-144275632D01*
X188160007Y-144273963D01*
X188166802Y-144272955D01*
X188173663Y-144272618D01*
X188833663Y-144272618D01*
X188840524Y-144272955D01*
X188840524Y-144272955D01*
G37*
D28*
X188503663Y-144412618D03*
D10*
G36*
X188840524Y-144772955D02*
X188847319Y-144773963D01*
X188853983Y-144775632D01*
X188860451Y-144777946D01*
X188866661Y-144780884D01*
X188872553Y-144784415D01*
X188878071Y-144788507D01*
X188883160Y-144793121D01*
X188887774Y-144798210D01*
X188891866Y-144803728D01*
X188895397Y-144809620D01*
X188898335Y-144815830D01*
X188900649Y-144822298D01*
X188902318Y-144828962D01*
X188903326Y-144835757D01*
X188903663Y-144842618D01*
X188903663Y-144982618D01*
X188903326Y-144989479D01*
X188902318Y-144996274D01*
X188900649Y-145002938D01*
X188898335Y-145009406D01*
X188895397Y-145015616D01*
X188891866Y-145021508D01*
X188887774Y-145027026D01*
X188883160Y-145032115D01*
X188878071Y-145036729D01*
X188872553Y-145040821D01*
X188866661Y-145044352D01*
X188860451Y-145047290D01*
X188853983Y-145049604D01*
X188847319Y-145051273D01*
X188840524Y-145052281D01*
X188833663Y-145052618D01*
X188173663Y-145052618D01*
X188166802Y-145052281D01*
X188160007Y-145051273D01*
X188153343Y-145049604D01*
X188146875Y-145047290D01*
X188140665Y-145044352D01*
X188134773Y-145040821D01*
X188129255Y-145036729D01*
X188124166Y-145032115D01*
X188119552Y-145027026D01*
X188115460Y-145021508D01*
X188111929Y-145015616D01*
X188108991Y-145009406D01*
X188106677Y-145002938D01*
X188105008Y-144996274D01*
X188104000Y-144989479D01*
X188103663Y-144982618D01*
X188103663Y-144842618D01*
X188104000Y-144835757D01*
X188105008Y-144828962D01*
X188106677Y-144822298D01*
X188108991Y-144815830D01*
X188111929Y-144809620D01*
X188115460Y-144803728D01*
X188119552Y-144798210D01*
X188124166Y-144793121D01*
X188129255Y-144788507D01*
X188134773Y-144784415D01*
X188140665Y-144780884D01*
X188146875Y-144777946D01*
X188153343Y-144775632D01*
X188160007Y-144773963D01*
X188166802Y-144772955D01*
X188173663Y-144772618D01*
X188833663Y-144772618D01*
X188840524Y-144772955D01*
X188840524Y-144772955D01*
G37*
D28*
X188503663Y-144912618D03*
D10*
G36*
X187830524Y-145262955D02*
X187837319Y-145263963D01*
X187843983Y-145265632D01*
X187850451Y-145267946D01*
X187856661Y-145270884D01*
X187862553Y-145274415D01*
X187868071Y-145278507D01*
X187873160Y-145283121D01*
X187877774Y-145288210D01*
X187881866Y-145293728D01*
X187885397Y-145299620D01*
X187888335Y-145305830D01*
X187890649Y-145312298D01*
X187892318Y-145318962D01*
X187893326Y-145325757D01*
X187893663Y-145332618D01*
X187893663Y-145992618D01*
X187893326Y-145999479D01*
X187892318Y-146006274D01*
X187890649Y-146012938D01*
X187888335Y-146019406D01*
X187885397Y-146025616D01*
X187881866Y-146031508D01*
X187877774Y-146037026D01*
X187873160Y-146042115D01*
X187868071Y-146046729D01*
X187862553Y-146050821D01*
X187856661Y-146054352D01*
X187850451Y-146057290D01*
X187843983Y-146059604D01*
X187837319Y-146061273D01*
X187830524Y-146062281D01*
X187823663Y-146062618D01*
X187683663Y-146062618D01*
X187676802Y-146062281D01*
X187670007Y-146061273D01*
X187663343Y-146059604D01*
X187656875Y-146057290D01*
X187650665Y-146054352D01*
X187644773Y-146050821D01*
X187639255Y-146046729D01*
X187634166Y-146042115D01*
X187629552Y-146037026D01*
X187625460Y-146031508D01*
X187621929Y-146025616D01*
X187618991Y-146019406D01*
X187616677Y-146012938D01*
X187615008Y-146006274D01*
X187614000Y-145999479D01*
X187613663Y-145992618D01*
X187613663Y-145332618D01*
X187614000Y-145325757D01*
X187615008Y-145318962D01*
X187616677Y-145312298D01*
X187618991Y-145305830D01*
X187621929Y-145299620D01*
X187625460Y-145293728D01*
X187629552Y-145288210D01*
X187634166Y-145283121D01*
X187639255Y-145278507D01*
X187644773Y-145274415D01*
X187650665Y-145270884D01*
X187656875Y-145267946D01*
X187663343Y-145265632D01*
X187670007Y-145263963D01*
X187676802Y-145262955D01*
X187683663Y-145262618D01*
X187823663Y-145262618D01*
X187830524Y-145262955D01*
X187830524Y-145262955D01*
G37*
D28*
X187753663Y-145662618D03*
D10*
G36*
X187330524Y-145262955D02*
X187337319Y-145263963D01*
X187343983Y-145265632D01*
X187350451Y-145267946D01*
X187356661Y-145270884D01*
X187362553Y-145274415D01*
X187368071Y-145278507D01*
X187373160Y-145283121D01*
X187377774Y-145288210D01*
X187381866Y-145293728D01*
X187385397Y-145299620D01*
X187388335Y-145305830D01*
X187390649Y-145312298D01*
X187392318Y-145318962D01*
X187393326Y-145325757D01*
X187393663Y-145332618D01*
X187393663Y-145992618D01*
X187393326Y-145999479D01*
X187392318Y-146006274D01*
X187390649Y-146012938D01*
X187388335Y-146019406D01*
X187385397Y-146025616D01*
X187381866Y-146031508D01*
X187377774Y-146037026D01*
X187373160Y-146042115D01*
X187368071Y-146046729D01*
X187362553Y-146050821D01*
X187356661Y-146054352D01*
X187350451Y-146057290D01*
X187343983Y-146059604D01*
X187337319Y-146061273D01*
X187330524Y-146062281D01*
X187323663Y-146062618D01*
X187183663Y-146062618D01*
X187176802Y-146062281D01*
X187170007Y-146061273D01*
X187163343Y-146059604D01*
X187156875Y-146057290D01*
X187150665Y-146054352D01*
X187144773Y-146050821D01*
X187139255Y-146046729D01*
X187134166Y-146042115D01*
X187129552Y-146037026D01*
X187125460Y-146031508D01*
X187121929Y-146025616D01*
X187118991Y-146019406D01*
X187116677Y-146012938D01*
X187115008Y-146006274D01*
X187114000Y-145999479D01*
X187113663Y-145992618D01*
X187113663Y-145332618D01*
X187114000Y-145325757D01*
X187115008Y-145318962D01*
X187116677Y-145312298D01*
X187118991Y-145305830D01*
X187121929Y-145299620D01*
X187125460Y-145293728D01*
X187129552Y-145288210D01*
X187134166Y-145283121D01*
X187139255Y-145278507D01*
X187144773Y-145274415D01*
X187150665Y-145270884D01*
X187156875Y-145267946D01*
X187163343Y-145265632D01*
X187170007Y-145263963D01*
X187176802Y-145262955D01*
X187183663Y-145262618D01*
X187323663Y-145262618D01*
X187330524Y-145262955D01*
X187330524Y-145262955D01*
G37*
D28*
X187253663Y-145662618D03*
D10*
G36*
X186830524Y-145262955D02*
X186837319Y-145263963D01*
X186843983Y-145265632D01*
X186850451Y-145267946D01*
X186856661Y-145270884D01*
X186862553Y-145274415D01*
X186868071Y-145278507D01*
X186873160Y-145283121D01*
X186877774Y-145288210D01*
X186881866Y-145293728D01*
X186885397Y-145299620D01*
X186888335Y-145305830D01*
X186890649Y-145312298D01*
X186892318Y-145318962D01*
X186893326Y-145325757D01*
X186893663Y-145332618D01*
X186893663Y-145992618D01*
X186893326Y-145999479D01*
X186892318Y-146006274D01*
X186890649Y-146012938D01*
X186888335Y-146019406D01*
X186885397Y-146025616D01*
X186881866Y-146031508D01*
X186877774Y-146037026D01*
X186873160Y-146042115D01*
X186868071Y-146046729D01*
X186862553Y-146050821D01*
X186856661Y-146054352D01*
X186850451Y-146057290D01*
X186843983Y-146059604D01*
X186837319Y-146061273D01*
X186830524Y-146062281D01*
X186823663Y-146062618D01*
X186683663Y-146062618D01*
X186676802Y-146062281D01*
X186670007Y-146061273D01*
X186663343Y-146059604D01*
X186656875Y-146057290D01*
X186650665Y-146054352D01*
X186644773Y-146050821D01*
X186639255Y-146046729D01*
X186634166Y-146042115D01*
X186629552Y-146037026D01*
X186625460Y-146031508D01*
X186621929Y-146025616D01*
X186618991Y-146019406D01*
X186616677Y-146012938D01*
X186615008Y-146006274D01*
X186614000Y-145999479D01*
X186613663Y-145992618D01*
X186613663Y-145332618D01*
X186614000Y-145325757D01*
X186615008Y-145318962D01*
X186616677Y-145312298D01*
X186618991Y-145305830D01*
X186621929Y-145299620D01*
X186625460Y-145293728D01*
X186629552Y-145288210D01*
X186634166Y-145283121D01*
X186639255Y-145278507D01*
X186644773Y-145274415D01*
X186650665Y-145270884D01*
X186656875Y-145267946D01*
X186663343Y-145265632D01*
X186670007Y-145263963D01*
X186676802Y-145262955D01*
X186683663Y-145262618D01*
X186823663Y-145262618D01*
X186830524Y-145262955D01*
X186830524Y-145262955D01*
G37*
D28*
X186753663Y-145662618D03*
D10*
G36*
X186330524Y-145262955D02*
X186337319Y-145263963D01*
X186343983Y-145265632D01*
X186350451Y-145267946D01*
X186356661Y-145270884D01*
X186362553Y-145274415D01*
X186368071Y-145278507D01*
X186373160Y-145283121D01*
X186377774Y-145288210D01*
X186381866Y-145293728D01*
X186385397Y-145299620D01*
X186388335Y-145305830D01*
X186390649Y-145312298D01*
X186392318Y-145318962D01*
X186393326Y-145325757D01*
X186393663Y-145332618D01*
X186393663Y-145992618D01*
X186393326Y-145999479D01*
X186392318Y-146006274D01*
X186390649Y-146012938D01*
X186388335Y-146019406D01*
X186385397Y-146025616D01*
X186381866Y-146031508D01*
X186377774Y-146037026D01*
X186373160Y-146042115D01*
X186368071Y-146046729D01*
X186362553Y-146050821D01*
X186356661Y-146054352D01*
X186350451Y-146057290D01*
X186343983Y-146059604D01*
X186337319Y-146061273D01*
X186330524Y-146062281D01*
X186323663Y-146062618D01*
X186183663Y-146062618D01*
X186176802Y-146062281D01*
X186170007Y-146061273D01*
X186163343Y-146059604D01*
X186156875Y-146057290D01*
X186150665Y-146054352D01*
X186144773Y-146050821D01*
X186139255Y-146046729D01*
X186134166Y-146042115D01*
X186129552Y-146037026D01*
X186125460Y-146031508D01*
X186121929Y-146025616D01*
X186118991Y-146019406D01*
X186116677Y-146012938D01*
X186115008Y-146006274D01*
X186114000Y-145999479D01*
X186113663Y-145992618D01*
X186113663Y-145332618D01*
X186114000Y-145325757D01*
X186115008Y-145318962D01*
X186116677Y-145312298D01*
X186118991Y-145305830D01*
X186121929Y-145299620D01*
X186125460Y-145293728D01*
X186129552Y-145288210D01*
X186134166Y-145283121D01*
X186139255Y-145278507D01*
X186144773Y-145274415D01*
X186150665Y-145270884D01*
X186156875Y-145267946D01*
X186163343Y-145265632D01*
X186170007Y-145263963D01*
X186176802Y-145262955D01*
X186183663Y-145262618D01*
X186323663Y-145262618D01*
X186330524Y-145262955D01*
X186330524Y-145262955D01*
G37*
D28*
X186253663Y-145662618D03*
D10*
G36*
X185830524Y-145262955D02*
X185837319Y-145263963D01*
X185843983Y-145265632D01*
X185850451Y-145267946D01*
X185856661Y-145270884D01*
X185862553Y-145274415D01*
X185868071Y-145278507D01*
X185873160Y-145283121D01*
X185877774Y-145288210D01*
X185881866Y-145293728D01*
X185885397Y-145299620D01*
X185888335Y-145305830D01*
X185890649Y-145312298D01*
X185892318Y-145318962D01*
X185893326Y-145325757D01*
X185893663Y-145332618D01*
X185893663Y-145992618D01*
X185893326Y-145999479D01*
X185892318Y-146006274D01*
X185890649Y-146012938D01*
X185888335Y-146019406D01*
X185885397Y-146025616D01*
X185881866Y-146031508D01*
X185877774Y-146037026D01*
X185873160Y-146042115D01*
X185868071Y-146046729D01*
X185862553Y-146050821D01*
X185856661Y-146054352D01*
X185850451Y-146057290D01*
X185843983Y-146059604D01*
X185837319Y-146061273D01*
X185830524Y-146062281D01*
X185823663Y-146062618D01*
X185683663Y-146062618D01*
X185676802Y-146062281D01*
X185670007Y-146061273D01*
X185663343Y-146059604D01*
X185656875Y-146057290D01*
X185650665Y-146054352D01*
X185644773Y-146050821D01*
X185639255Y-146046729D01*
X185634166Y-146042115D01*
X185629552Y-146037026D01*
X185625460Y-146031508D01*
X185621929Y-146025616D01*
X185618991Y-146019406D01*
X185616677Y-146012938D01*
X185615008Y-146006274D01*
X185614000Y-145999479D01*
X185613663Y-145992618D01*
X185613663Y-145332618D01*
X185614000Y-145325757D01*
X185615008Y-145318962D01*
X185616677Y-145312298D01*
X185618991Y-145305830D01*
X185621929Y-145299620D01*
X185625460Y-145293728D01*
X185629552Y-145288210D01*
X185634166Y-145283121D01*
X185639255Y-145278507D01*
X185644773Y-145274415D01*
X185650665Y-145270884D01*
X185656875Y-145267946D01*
X185663343Y-145265632D01*
X185670007Y-145263963D01*
X185676802Y-145262955D01*
X185683663Y-145262618D01*
X185823663Y-145262618D01*
X185830524Y-145262955D01*
X185830524Y-145262955D01*
G37*
D28*
X185753663Y-145662618D03*
D10*
G36*
X185330524Y-145262955D02*
X185337319Y-145263963D01*
X185343983Y-145265632D01*
X185350451Y-145267946D01*
X185356661Y-145270884D01*
X185362553Y-145274415D01*
X185368071Y-145278507D01*
X185373160Y-145283121D01*
X185377774Y-145288210D01*
X185381866Y-145293728D01*
X185385397Y-145299620D01*
X185388335Y-145305830D01*
X185390649Y-145312298D01*
X185392318Y-145318962D01*
X185393326Y-145325757D01*
X185393663Y-145332618D01*
X185393663Y-145992618D01*
X185393326Y-145999479D01*
X185392318Y-146006274D01*
X185390649Y-146012938D01*
X185388335Y-146019406D01*
X185385397Y-146025616D01*
X185381866Y-146031508D01*
X185377774Y-146037026D01*
X185373160Y-146042115D01*
X185368071Y-146046729D01*
X185362553Y-146050821D01*
X185356661Y-146054352D01*
X185350451Y-146057290D01*
X185343983Y-146059604D01*
X185337319Y-146061273D01*
X185330524Y-146062281D01*
X185323663Y-146062618D01*
X185183663Y-146062618D01*
X185176802Y-146062281D01*
X185170007Y-146061273D01*
X185163343Y-146059604D01*
X185156875Y-146057290D01*
X185150665Y-146054352D01*
X185144773Y-146050821D01*
X185139255Y-146046729D01*
X185134166Y-146042115D01*
X185129552Y-146037026D01*
X185125460Y-146031508D01*
X185121929Y-146025616D01*
X185118991Y-146019406D01*
X185116677Y-146012938D01*
X185115008Y-146006274D01*
X185114000Y-145999479D01*
X185113663Y-145992618D01*
X185113663Y-145332618D01*
X185114000Y-145325757D01*
X185115008Y-145318962D01*
X185116677Y-145312298D01*
X185118991Y-145305830D01*
X185121929Y-145299620D01*
X185125460Y-145293728D01*
X185129552Y-145288210D01*
X185134166Y-145283121D01*
X185139255Y-145278507D01*
X185144773Y-145274415D01*
X185150665Y-145270884D01*
X185156875Y-145267946D01*
X185163343Y-145265632D01*
X185170007Y-145263963D01*
X185176802Y-145262955D01*
X185183663Y-145262618D01*
X185323663Y-145262618D01*
X185330524Y-145262955D01*
X185330524Y-145262955D01*
G37*
D28*
X185253663Y-145662618D03*
D10*
G36*
X184840524Y-144772955D02*
X184847319Y-144773963D01*
X184853983Y-144775632D01*
X184860451Y-144777946D01*
X184866661Y-144780884D01*
X184872553Y-144784415D01*
X184878071Y-144788507D01*
X184883160Y-144793121D01*
X184887774Y-144798210D01*
X184891866Y-144803728D01*
X184895397Y-144809620D01*
X184898335Y-144815830D01*
X184900649Y-144822298D01*
X184902318Y-144828962D01*
X184903326Y-144835757D01*
X184903663Y-144842618D01*
X184903663Y-144982618D01*
X184903326Y-144989479D01*
X184902318Y-144996274D01*
X184900649Y-145002938D01*
X184898335Y-145009406D01*
X184895397Y-145015616D01*
X184891866Y-145021508D01*
X184887774Y-145027026D01*
X184883160Y-145032115D01*
X184878071Y-145036729D01*
X184872553Y-145040821D01*
X184866661Y-145044352D01*
X184860451Y-145047290D01*
X184853983Y-145049604D01*
X184847319Y-145051273D01*
X184840524Y-145052281D01*
X184833663Y-145052618D01*
X184173663Y-145052618D01*
X184166802Y-145052281D01*
X184160007Y-145051273D01*
X184153343Y-145049604D01*
X184146875Y-145047290D01*
X184140665Y-145044352D01*
X184134773Y-145040821D01*
X184129255Y-145036729D01*
X184124166Y-145032115D01*
X184119552Y-145027026D01*
X184115460Y-145021508D01*
X184111929Y-145015616D01*
X184108991Y-145009406D01*
X184106677Y-145002938D01*
X184105008Y-144996274D01*
X184104000Y-144989479D01*
X184103663Y-144982618D01*
X184103663Y-144842618D01*
X184104000Y-144835757D01*
X184105008Y-144828962D01*
X184106677Y-144822298D01*
X184108991Y-144815830D01*
X184111929Y-144809620D01*
X184115460Y-144803728D01*
X184119552Y-144798210D01*
X184124166Y-144793121D01*
X184129255Y-144788507D01*
X184134773Y-144784415D01*
X184140665Y-144780884D01*
X184146875Y-144777946D01*
X184153343Y-144775632D01*
X184160007Y-144773963D01*
X184166802Y-144772955D01*
X184173663Y-144772618D01*
X184833663Y-144772618D01*
X184840524Y-144772955D01*
X184840524Y-144772955D01*
G37*
D28*
X184503663Y-144912618D03*
D10*
G36*
X184840524Y-144272955D02*
X184847319Y-144273963D01*
X184853983Y-144275632D01*
X184860451Y-144277946D01*
X184866661Y-144280884D01*
X184872553Y-144284415D01*
X184878071Y-144288507D01*
X184883160Y-144293121D01*
X184887774Y-144298210D01*
X184891866Y-144303728D01*
X184895397Y-144309620D01*
X184898335Y-144315830D01*
X184900649Y-144322298D01*
X184902318Y-144328962D01*
X184903326Y-144335757D01*
X184903663Y-144342618D01*
X184903663Y-144482618D01*
X184903326Y-144489479D01*
X184902318Y-144496274D01*
X184900649Y-144502938D01*
X184898335Y-144509406D01*
X184895397Y-144515616D01*
X184891866Y-144521508D01*
X184887774Y-144527026D01*
X184883160Y-144532115D01*
X184878071Y-144536729D01*
X184872553Y-144540821D01*
X184866661Y-144544352D01*
X184860451Y-144547290D01*
X184853983Y-144549604D01*
X184847319Y-144551273D01*
X184840524Y-144552281D01*
X184833663Y-144552618D01*
X184173663Y-144552618D01*
X184166802Y-144552281D01*
X184160007Y-144551273D01*
X184153343Y-144549604D01*
X184146875Y-144547290D01*
X184140665Y-144544352D01*
X184134773Y-144540821D01*
X184129255Y-144536729D01*
X184124166Y-144532115D01*
X184119552Y-144527026D01*
X184115460Y-144521508D01*
X184111929Y-144515616D01*
X184108991Y-144509406D01*
X184106677Y-144502938D01*
X184105008Y-144496274D01*
X184104000Y-144489479D01*
X184103663Y-144482618D01*
X184103663Y-144342618D01*
X184104000Y-144335757D01*
X184105008Y-144328962D01*
X184106677Y-144322298D01*
X184108991Y-144315830D01*
X184111929Y-144309620D01*
X184115460Y-144303728D01*
X184119552Y-144298210D01*
X184124166Y-144293121D01*
X184129255Y-144288507D01*
X184134773Y-144284415D01*
X184140665Y-144280884D01*
X184146875Y-144277946D01*
X184153343Y-144275632D01*
X184160007Y-144273963D01*
X184166802Y-144272955D01*
X184173663Y-144272618D01*
X184833663Y-144272618D01*
X184840524Y-144272955D01*
X184840524Y-144272955D01*
G37*
D28*
X184503663Y-144412618D03*
D10*
G36*
X184840524Y-143772955D02*
X184847319Y-143773963D01*
X184853983Y-143775632D01*
X184860451Y-143777946D01*
X184866661Y-143780884D01*
X184872553Y-143784415D01*
X184878071Y-143788507D01*
X184883160Y-143793121D01*
X184887774Y-143798210D01*
X184891866Y-143803728D01*
X184895397Y-143809620D01*
X184898335Y-143815830D01*
X184900649Y-143822298D01*
X184902318Y-143828962D01*
X184903326Y-143835757D01*
X184903663Y-143842618D01*
X184903663Y-143982618D01*
X184903326Y-143989479D01*
X184902318Y-143996274D01*
X184900649Y-144002938D01*
X184898335Y-144009406D01*
X184895397Y-144015616D01*
X184891866Y-144021508D01*
X184887774Y-144027026D01*
X184883160Y-144032115D01*
X184878071Y-144036729D01*
X184872553Y-144040821D01*
X184866661Y-144044352D01*
X184860451Y-144047290D01*
X184853983Y-144049604D01*
X184847319Y-144051273D01*
X184840524Y-144052281D01*
X184833663Y-144052618D01*
X184173663Y-144052618D01*
X184166802Y-144052281D01*
X184160007Y-144051273D01*
X184153343Y-144049604D01*
X184146875Y-144047290D01*
X184140665Y-144044352D01*
X184134773Y-144040821D01*
X184129255Y-144036729D01*
X184124166Y-144032115D01*
X184119552Y-144027026D01*
X184115460Y-144021508D01*
X184111929Y-144015616D01*
X184108991Y-144009406D01*
X184106677Y-144002938D01*
X184105008Y-143996274D01*
X184104000Y-143989479D01*
X184103663Y-143982618D01*
X184103663Y-143842618D01*
X184104000Y-143835757D01*
X184105008Y-143828962D01*
X184106677Y-143822298D01*
X184108991Y-143815830D01*
X184111929Y-143809620D01*
X184115460Y-143803728D01*
X184119552Y-143798210D01*
X184124166Y-143793121D01*
X184129255Y-143788507D01*
X184134773Y-143784415D01*
X184140665Y-143780884D01*
X184146875Y-143777946D01*
X184153343Y-143775632D01*
X184160007Y-143773963D01*
X184166802Y-143772955D01*
X184173663Y-143772618D01*
X184833663Y-143772618D01*
X184840524Y-143772955D01*
X184840524Y-143772955D01*
G37*
D28*
X184503663Y-143912618D03*
D10*
G36*
X184840524Y-143272955D02*
X184847319Y-143273963D01*
X184853983Y-143275632D01*
X184860451Y-143277946D01*
X184866661Y-143280884D01*
X184872553Y-143284415D01*
X184878071Y-143288507D01*
X184883160Y-143293121D01*
X184887774Y-143298210D01*
X184891866Y-143303728D01*
X184895397Y-143309620D01*
X184898335Y-143315830D01*
X184900649Y-143322298D01*
X184902318Y-143328962D01*
X184903326Y-143335757D01*
X184903663Y-143342618D01*
X184903663Y-143482618D01*
X184903326Y-143489479D01*
X184902318Y-143496274D01*
X184900649Y-143502938D01*
X184898335Y-143509406D01*
X184895397Y-143515616D01*
X184891866Y-143521508D01*
X184887774Y-143527026D01*
X184883160Y-143532115D01*
X184878071Y-143536729D01*
X184872553Y-143540821D01*
X184866661Y-143544352D01*
X184860451Y-143547290D01*
X184853983Y-143549604D01*
X184847319Y-143551273D01*
X184840524Y-143552281D01*
X184833663Y-143552618D01*
X184173663Y-143552618D01*
X184166802Y-143552281D01*
X184160007Y-143551273D01*
X184153343Y-143549604D01*
X184146875Y-143547290D01*
X184140665Y-143544352D01*
X184134773Y-143540821D01*
X184129255Y-143536729D01*
X184124166Y-143532115D01*
X184119552Y-143527026D01*
X184115460Y-143521508D01*
X184111929Y-143515616D01*
X184108991Y-143509406D01*
X184106677Y-143502938D01*
X184105008Y-143496274D01*
X184104000Y-143489479D01*
X184103663Y-143482618D01*
X184103663Y-143342618D01*
X184104000Y-143335757D01*
X184105008Y-143328962D01*
X184106677Y-143322298D01*
X184108991Y-143315830D01*
X184111929Y-143309620D01*
X184115460Y-143303728D01*
X184119552Y-143298210D01*
X184124166Y-143293121D01*
X184129255Y-143288507D01*
X184134773Y-143284415D01*
X184140665Y-143280884D01*
X184146875Y-143277946D01*
X184153343Y-143275632D01*
X184160007Y-143273963D01*
X184166802Y-143272955D01*
X184173663Y-143272618D01*
X184833663Y-143272618D01*
X184840524Y-143272955D01*
X184840524Y-143272955D01*
G37*
D28*
X184503663Y-143412618D03*
D10*
G36*
X184840524Y-142772955D02*
X184847319Y-142773963D01*
X184853983Y-142775632D01*
X184860451Y-142777946D01*
X184866661Y-142780884D01*
X184872553Y-142784415D01*
X184878071Y-142788507D01*
X184883160Y-142793121D01*
X184887774Y-142798210D01*
X184891866Y-142803728D01*
X184895397Y-142809620D01*
X184898335Y-142815830D01*
X184900649Y-142822298D01*
X184902318Y-142828962D01*
X184903326Y-142835757D01*
X184903663Y-142842618D01*
X184903663Y-142982618D01*
X184903326Y-142989479D01*
X184902318Y-142996274D01*
X184900649Y-143002938D01*
X184898335Y-143009406D01*
X184895397Y-143015616D01*
X184891866Y-143021508D01*
X184887774Y-143027026D01*
X184883160Y-143032115D01*
X184878071Y-143036729D01*
X184872553Y-143040821D01*
X184866661Y-143044352D01*
X184860451Y-143047290D01*
X184853983Y-143049604D01*
X184847319Y-143051273D01*
X184840524Y-143052281D01*
X184833663Y-143052618D01*
X184173663Y-143052618D01*
X184166802Y-143052281D01*
X184160007Y-143051273D01*
X184153343Y-143049604D01*
X184146875Y-143047290D01*
X184140665Y-143044352D01*
X184134773Y-143040821D01*
X184129255Y-143036729D01*
X184124166Y-143032115D01*
X184119552Y-143027026D01*
X184115460Y-143021508D01*
X184111929Y-143015616D01*
X184108991Y-143009406D01*
X184106677Y-143002938D01*
X184105008Y-142996274D01*
X184104000Y-142989479D01*
X184103663Y-142982618D01*
X184103663Y-142842618D01*
X184104000Y-142835757D01*
X184105008Y-142828962D01*
X184106677Y-142822298D01*
X184108991Y-142815830D01*
X184111929Y-142809620D01*
X184115460Y-142803728D01*
X184119552Y-142798210D01*
X184124166Y-142793121D01*
X184129255Y-142788507D01*
X184134773Y-142784415D01*
X184140665Y-142780884D01*
X184146875Y-142777946D01*
X184153343Y-142775632D01*
X184160007Y-142773963D01*
X184166802Y-142772955D01*
X184173663Y-142772618D01*
X184833663Y-142772618D01*
X184840524Y-142772955D01*
X184840524Y-142772955D01*
G37*
D28*
X184503663Y-142912618D03*
D10*
G36*
X184840524Y-142272955D02*
X184847319Y-142273963D01*
X184853983Y-142275632D01*
X184860451Y-142277946D01*
X184866661Y-142280884D01*
X184872553Y-142284415D01*
X184878071Y-142288507D01*
X184883160Y-142293121D01*
X184887774Y-142298210D01*
X184891866Y-142303728D01*
X184895397Y-142309620D01*
X184898335Y-142315830D01*
X184900649Y-142322298D01*
X184902318Y-142328962D01*
X184903326Y-142335757D01*
X184903663Y-142342618D01*
X184903663Y-142482618D01*
X184903326Y-142489479D01*
X184902318Y-142496274D01*
X184900649Y-142502938D01*
X184898335Y-142509406D01*
X184895397Y-142515616D01*
X184891866Y-142521508D01*
X184887774Y-142527026D01*
X184883160Y-142532115D01*
X184878071Y-142536729D01*
X184872553Y-142540821D01*
X184866661Y-142544352D01*
X184860451Y-142547290D01*
X184853983Y-142549604D01*
X184847319Y-142551273D01*
X184840524Y-142552281D01*
X184833663Y-142552618D01*
X184173663Y-142552618D01*
X184166802Y-142552281D01*
X184160007Y-142551273D01*
X184153343Y-142549604D01*
X184146875Y-142547290D01*
X184140665Y-142544352D01*
X184134773Y-142540821D01*
X184129255Y-142536729D01*
X184124166Y-142532115D01*
X184119552Y-142527026D01*
X184115460Y-142521508D01*
X184111929Y-142515616D01*
X184108991Y-142509406D01*
X184106677Y-142502938D01*
X184105008Y-142496274D01*
X184104000Y-142489479D01*
X184103663Y-142482618D01*
X184103663Y-142342618D01*
X184104000Y-142335757D01*
X184105008Y-142328962D01*
X184106677Y-142322298D01*
X184108991Y-142315830D01*
X184111929Y-142309620D01*
X184115460Y-142303728D01*
X184119552Y-142298210D01*
X184124166Y-142293121D01*
X184129255Y-142288507D01*
X184134773Y-142284415D01*
X184140665Y-142280884D01*
X184146875Y-142277946D01*
X184153343Y-142275632D01*
X184160007Y-142273963D01*
X184166802Y-142272955D01*
X184173663Y-142272618D01*
X184833663Y-142272618D01*
X184840524Y-142272955D01*
X184840524Y-142272955D01*
G37*
D28*
X184503663Y-142412618D03*
D10*
G36*
X185330524Y-141262955D02*
X185337319Y-141263963D01*
X185343983Y-141265632D01*
X185350451Y-141267946D01*
X185356661Y-141270884D01*
X185362553Y-141274415D01*
X185368071Y-141278507D01*
X185373160Y-141283121D01*
X185377774Y-141288210D01*
X185381866Y-141293728D01*
X185385397Y-141299620D01*
X185388335Y-141305830D01*
X185390649Y-141312298D01*
X185392318Y-141318962D01*
X185393326Y-141325757D01*
X185393663Y-141332618D01*
X185393663Y-141992618D01*
X185393326Y-141999479D01*
X185392318Y-142006274D01*
X185390649Y-142012938D01*
X185388335Y-142019406D01*
X185385397Y-142025616D01*
X185381866Y-142031508D01*
X185377774Y-142037026D01*
X185373160Y-142042115D01*
X185368071Y-142046729D01*
X185362553Y-142050821D01*
X185356661Y-142054352D01*
X185350451Y-142057290D01*
X185343983Y-142059604D01*
X185337319Y-142061273D01*
X185330524Y-142062281D01*
X185323663Y-142062618D01*
X185183663Y-142062618D01*
X185176802Y-142062281D01*
X185170007Y-142061273D01*
X185163343Y-142059604D01*
X185156875Y-142057290D01*
X185150665Y-142054352D01*
X185144773Y-142050821D01*
X185139255Y-142046729D01*
X185134166Y-142042115D01*
X185129552Y-142037026D01*
X185125460Y-142031508D01*
X185121929Y-142025616D01*
X185118991Y-142019406D01*
X185116677Y-142012938D01*
X185115008Y-142006274D01*
X185114000Y-141999479D01*
X185113663Y-141992618D01*
X185113663Y-141332618D01*
X185114000Y-141325757D01*
X185115008Y-141318962D01*
X185116677Y-141312298D01*
X185118991Y-141305830D01*
X185121929Y-141299620D01*
X185125460Y-141293728D01*
X185129552Y-141288210D01*
X185134166Y-141283121D01*
X185139255Y-141278507D01*
X185144773Y-141274415D01*
X185150665Y-141270884D01*
X185156875Y-141267946D01*
X185163343Y-141265632D01*
X185170007Y-141263963D01*
X185176802Y-141262955D01*
X185183663Y-141262618D01*
X185323663Y-141262618D01*
X185330524Y-141262955D01*
X185330524Y-141262955D01*
G37*
D28*
X185253663Y-141662618D03*
D10*
G36*
X185830524Y-141262955D02*
X185837319Y-141263963D01*
X185843983Y-141265632D01*
X185850451Y-141267946D01*
X185856661Y-141270884D01*
X185862553Y-141274415D01*
X185868071Y-141278507D01*
X185873160Y-141283121D01*
X185877774Y-141288210D01*
X185881866Y-141293728D01*
X185885397Y-141299620D01*
X185888335Y-141305830D01*
X185890649Y-141312298D01*
X185892318Y-141318962D01*
X185893326Y-141325757D01*
X185893663Y-141332618D01*
X185893663Y-141992618D01*
X185893326Y-141999479D01*
X185892318Y-142006274D01*
X185890649Y-142012938D01*
X185888335Y-142019406D01*
X185885397Y-142025616D01*
X185881866Y-142031508D01*
X185877774Y-142037026D01*
X185873160Y-142042115D01*
X185868071Y-142046729D01*
X185862553Y-142050821D01*
X185856661Y-142054352D01*
X185850451Y-142057290D01*
X185843983Y-142059604D01*
X185837319Y-142061273D01*
X185830524Y-142062281D01*
X185823663Y-142062618D01*
X185683663Y-142062618D01*
X185676802Y-142062281D01*
X185670007Y-142061273D01*
X185663343Y-142059604D01*
X185656875Y-142057290D01*
X185650665Y-142054352D01*
X185644773Y-142050821D01*
X185639255Y-142046729D01*
X185634166Y-142042115D01*
X185629552Y-142037026D01*
X185625460Y-142031508D01*
X185621929Y-142025616D01*
X185618991Y-142019406D01*
X185616677Y-142012938D01*
X185615008Y-142006274D01*
X185614000Y-141999479D01*
X185613663Y-141992618D01*
X185613663Y-141332618D01*
X185614000Y-141325757D01*
X185615008Y-141318962D01*
X185616677Y-141312298D01*
X185618991Y-141305830D01*
X185621929Y-141299620D01*
X185625460Y-141293728D01*
X185629552Y-141288210D01*
X185634166Y-141283121D01*
X185639255Y-141278507D01*
X185644773Y-141274415D01*
X185650665Y-141270884D01*
X185656875Y-141267946D01*
X185663343Y-141265632D01*
X185670007Y-141263963D01*
X185676802Y-141262955D01*
X185683663Y-141262618D01*
X185823663Y-141262618D01*
X185830524Y-141262955D01*
X185830524Y-141262955D01*
G37*
D28*
X185753663Y-141662618D03*
D10*
G36*
X186330524Y-141262955D02*
X186337319Y-141263963D01*
X186343983Y-141265632D01*
X186350451Y-141267946D01*
X186356661Y-141270884D01*
X186362553Y-141274415D01*
X186368071Y-141278507D01*
X186373160Y-141283121D01*
X186377774Y-141288210D01*
X186381866Y-141293728D01*
X186385397Y-141299620D01*
X186388335Y-141305830D01*
X186390649Y-141312298D01*
X186392318Y-141318962D01*
X186393326Y-141325757D01*
X186393663Y-141332618D01*
X186393663Y-141992618D01*
X186393326Y-141999479D01*
X186392318Y-142006274D01*
X186390649Y-142012938D01*
X186388335Y-142019406D01*
X186385397Y-142025616D01*
X186381866Y-142031508D01*
X186377774Y-142037026D01*
X186373160Y-142042115D01*
X186368071Y-142046729D01*
X186362553Y-142050821D01*
X186356661Y-142054352D01*
X186350451Y-142057290D01*
X186343983Y-142059604D01*
X186337319Y-142061273D01*
X186330524Y-142062281D01*
X186323663Y-142062618D01*
X186183663Y-142062618D01*
X186176802Y-142062281D01*
X186170007Y-142061273D01*
X186163343Y-142059604D01*
X186156875Y-142057290D01*
X186150665Y-142054352D01*
X186144773Y-142050821D01*
X186139255Y-142046729D01*
X186134166Y-142042115D01*
X186129552Y-142037026D01*
X186125460Y-142031508D01*
X186121929Y-142025616D01*
X186118991Y-142019406D01*
X186116677Y-142012938D01*
X186115008Y-142006274D01*
X186114000Y-141999479D01*
X186113663Y-141992618D01*
X186113663Y-141332618D01*
X186114000Y-141325757D01*
X186115008Y-141318962D01*
X186116677Y-141312298D01*
X186118991Y-141305830D01*
X186121929Y-141299620D01*
X186125460Y-141293728D01*
X186129552Y-141288210D01*
X186134166Y-141283121D01*
X186139255Y-141278507D01*
X186144773Y-141274415D01*
X186150665Y-141270884D01*
X186156875Y-141267946D01*
X186163343Y-141265632D01*
X186170007Y-141263963D01*
X186176802Y-141262955D01*
X186183663Y-141262618D01*
X186323663Y-141262618D01*
X186330524Y-141262955D01*
X186330524Y-141262955D01*
G37*
D28*
X186253663Y-141662618D03*
D10*
G36*
X186830524Y-141262955D02*
X186837319Y-141263963D01*
X186843983Y-141265632D01*
X186850451Y-141267946D01*
X186856661Y-141270884D01*
X186862553Y-141274415D01*
X186868071Y-141278507D01*
X186873160Y-141283121D01*
X186877774Y-141288210D01*
X186881866Y-141293728D01*
X186885397Y-141299620D01*
X186888335Y-141305830D01*
X186890649Y-141312298D01*
X186892318Y-141318962D01*
X186893326Y-141325757D01*
X186893663Y-141332618D01*
X186893663Y-141992618D01*
X186893326Y-141999479D01*
X186892318Y-142006274D01*
X186890649Y-142012938D01*
X186888335Y-142019406D01*
X186885397Y-142025616D01*
X186881866Y-142031508D01*
X186877774Y-142037026D01*
X186873160Y-142042115D01*
X186868071Y-142046729D01*
X186862553Y-142050821D01*
X186856661Y-142054352D01*
X186850451Y-142057290D01*
X186843983Y-142059604D01*
X186837319Y-142061273D01*
X186830524Y-142062281D01*
X186823663Y-142062618D01*
X186683663Y-142062618D01*
X186676802Y-142062281D01*
X186670007Y-142061273D01*
X186663343Y-142059604D01*
X186656875Y-142057290D01*
X186650665Y-142054352D01*
X186644773Y-142050821D01*
X186639255Y-142046729D01*
X186634166Y-142042115D01*
X186629552Y-142037026D01*
X186625460Y-142031508D01*
X186621929Y-142025616D01*
X186618991Y-142019406D01*
X186616677Y-142012938D01*
X186615008Y-142006274D01*
X186614000Y-141999479D01*
X186613663Y-141992618D01*
X186613663Y-141332618D01*
X186614000Y-141325757D01*
X186615008Y-141318962D01*
X186616677Y-141312298D01*
X186618991Y-141305830D01*
X186621929Y-141299620D01*
X186625460Y-141293728D01*
X186629552Y-141288210D01*
X186634166Y-141283121D01*
X186639255Y-141278507D01*
X186644773Y-141274415D01*
X186650665Y-141270884D01*
X186656875Y-141267946D01*
X186663343Y-141265632D01*
X186670007Y-141263963D01*
X186676802Y-141262955D01*
X186683663Y-141262618D01*
X186823663Y-141262618D01*
X186830524Y-141262955D01*
X186830524Y-141262955D01*
G37*
D28*
X186753663Y-141662618D03*
D10*
G36*
X187330524Y-141262955D02*
X187337319Y-141263963D01*
X187343983Y-141265632D01*
X187350451Y-141267946D01*
X187356661Y-141270884D01*
X187362553Y-141274415D01*
X187368071Y-141278507D01*
X187373160Y-141283121D01*
X187377774Y-141288210D01*
X187381866Y-141293728D01*
X187385397Y-141299620D01*
X187388335Y-141305830D01*
X187390649Y-141312298D01*
X187392318Y-141318962D01*
X187393326Y-141325757D01*
X187393663Y-141332618D01*
X187393663Y-141992618D01*
X187393326Y-141999479D01*
X187392318Y-142006274D01*
X187390649Y-142012938D01*
X187388335Y-142019406D01*
X187385397Y-142025616D01*
X187381866Y-142031508D01*
X187377774Y-142037026D01*
X187373160Y-142042115D01*
X187368071Y-142046729D01*
X187362553Y-142050821D01*
X187356661Y-142054352D01*
X187350451Y-142057290D01*
X187343983Y-142059604D01*
X187337319Y-142061273D01*
X187330524Y-142062281D01*
X187323663Y-142062618D01*
X187183663Y-142062618D01*
X187176802Y-142062281D01*
X187170007Y-142061273D01*
X187163343Y-142059604D01*
X187156875Y-142057290D01*
X187150665Y-142054352D01*
X187144773Y-142050821D01*
X187139255Y-142046729D01*
X187134166Y-142042115D01*
X187129552Y-142037026D01*
X187125460Y-142031508D01*
X187121929Y-142025616D01*
X187118991Y-142019406D01*
X187116677Y-142012938D01*
X187115008Y-142006274D01*
X187114000Y-141999479D01*
X187113663Y-141992618D01*
X187113663Y-141332618D01*
X187114000Y-141325757D01*
X187115008Y-141318962D01*
X187116677Y-141312298D01*
X187118991Y-141305830D01*
X187121929Y-141299620D01*
X187125460Y-141293728D01*
X187129552Y-141288210D01*
X187134166Y-141283121D01*
X187139255Y-141278507D01*
X187144773Y-141274415D01*
X187150665Y-141270884D01*
X187156875Y-141267946D01*
X187163343Y-141265632D01*
X187170007Y-141263963D01*
X187176802Y-141262955D01*
X187183663Y-141262618D01*
X187323663Y-141262618D01*
X187330524Y-141262955D01*
X187330524Y-141262955D01*
G37*
D28*
X187253663Y-141662618D03*
D10*
G36*
X187830524Y-141262955D02*
X187837319Y-141263963D01*
X187843983Y-141265632D01*
X187850451Y-141267946D01*
X187856661Y-141270884D01*
X187862553Y-141274415D01*
X187868071Y-141278507D01*
X187873160Y-141283121D01*
X187877774Y-141288210D01*
X187881866Y-141293728D01*
X187885397Y-141299620D01*
X187888335Y-141305830D01*
X187890649Y-141312298D01*
X187892318Y-141318962D01*
X187893326Y-141325757D01*
X187893663Y-141332618D01*
X187893663Y-141992618D01*
X187893326Y-141999479D01*
X187892318Y-142006274D01*
X187890649Y-142012938D01*
X187888335Y-142019406D01*
X187885397Y-142025616D01*
X187881866Y-142031508D01*
X187877774Y-142037026D01*
X187873160Y-142042115D01*
X187868071Y-142046729D01*
X187862553Y-142050821D01*
X187856661Y-142054352D01*
X187850451Y-142057290D01*
X187843983Y-142059604D01*
X187837319Y-142061273D01*
X187830524Y-142062281D01*
X187823663Y-142062618D01*
X187683663Y-142062618D01*
X187676802Y-142062281D01*
X187670007Y-142061273D01*
X187663343Y-142059604D01*
X187656875Y-142057290D01*
X187650665Y-142054352D01*
X187644773Y-142050821D01*
X187639255Y-142046729D01*
X187634166Y-142042115D01*
X187629552Y-142037026D01*
X187625460Y-142031508D01*
X187621929Y-142025616D01*
X187618991Y-142019406D01*
X187616677Y-142012938D01*
X187615008Y-142006274D01*
X187614000Y-141999479D01*
X187613663Y-141992618D01*
X187613663Y-141332618D01*
X187614000Y-141325757D01*
X187615008Y-141318962D01*
X187616677Y-141312298D01*
X187618991Y-141305830D01*
X187621929Y-141299620D01*
X187625460Y-141293728D01*
X187629552Y-141288210D01*
X187634166Y-141283121D01*
X187639255Y-141278507D01*
X187644773Y-141274415D01*
X187650665Y-141270884D01*
X187656875Y-141267946D01*
X187663343Y-141265632D01*
X187670007Y-141263963D01*
X187676802Y-141262955D01*
X187683663Y-141262618D01*
X187823663Y-141262618D01*
X187830524Y-141262955D01*
X187830524Y-141262955D01*
G37*
D28*
X187753663Y-141662618D03*
G04 #@! TD*
D27*
G04 #@! TO.C,C12*
X191505244Y-124410210D03*
X193205244Y-124410210D03*
G04 #@! TD*
D29*
G04 #@! TO.C,C7*
X185248863Y-147548818D03*
X187148863Y-147548818D03*
G04 #@! TD*
D23*
G04 #@! TO.C,C14*
X200482200Y-66089000D03*
X200482200Y-64389000D03*
G04 #@! TD*
D20*
G04 #@! TO.C,R10*
X193862960Y-91819360D03*
X193862960Y-93519360D03*
G04 #@! TD*
D23*
G04 #@! TO.C,C16*
X192506600Y-72452600D03*
X192506600Y-70752600D03*
G04 #@! TD*
G04 #@! TO.C,C17*
X183083200Y-145360760D03*
X183083200Y-143660760D03*
G04 #@! TD*
M02*
