M48
;DRILL file {KiCad (6.0.0-rc1-dev-1027-g90233e5ec)} date 11/05/18 19:06:36
;FORMAT={-:-/ absolute / inch / decimal}
FMAT,2
INCH
T1C0.0157
T2C0.0236
T3C0.0315
T4C0.0394
%
G90
G05
M72
T1
X7.0204Y-5.3186
X7.0852Y-5.1006
X7.086Y-4.5136
X7.087Y-4.769
X7.101Y-4.6314
X7.1067Y-5.425
X7.1148Y-5.6806
X7.1186Y-5.4668
X7.122Y-4.426
X7.122Y-4.4765
X7.1276Y-5.1238
X7.128Y-4.524
X7.131Y-5.3336
X7.1317Y-5.723
X7.1736Y-4.628
X7.2035Y-5.092
X7.2035Y-5.3355
X7.2074Y-5.202
X7.2086Y-5.769
X7.2128Y-5.511
X7.2134Y-5.0319
X7.2194Y-5.6022
X7.22Y-5.4516
X7.2326Y-4.9603
X7.2392Y-4.3074
X7.2408Y-4.5852
X7.2462Y-5.8078
X7.2562Y-5.5591
X7.2826Y-3.6144
X7.318Y-5.1452
X7.32Y-5.409
X7.3207Y-5.677
X7.3218Y-5.5243
X7.3247Y-5.633
X7.3252Y-4.3454
X7.3334Y-4.6924
X7.338Y-3.577
X7.345Y-3.6492
X7.3544Y-5.0536
X7.3613Y-5.5072
X7.3647Y-5.677
X7.3657Y-5.637
X7.3736Y-2.7756
X7.397Y-5.5315
X7.415Y-3.5824
X7.4156Y-3.6508
X7.4278Y-4.386
X7.4335Y-5.2805
X7.4566Y-5.7694
X7.4598Y-5.4782
X7.4798Y-5.622
X7.485Y-2.799
X7.4938Y-4.8392
X7.4974Y-4.901
X7.4986Y-4.4416
X7.508Y-3.6508
X7.5112Y-3.5856
X7.5344Y-5.704
X7.578Y-3.6524
X7.5796Y-3.5816
X7.5872Y-2.6232
X7.5962Y-2.911
X7.5986Y-4.486
X7.6052Y-5.3214
X7.6292Y-3.7668
X7.6572Y-4.5612
X7.6626Y-5.235
X7.6714Y-5.196
X7.6748Y-4.6024
X7.676Y-3.425
X7.687Y-4.6528
X7.7046Y-5.2274
X7.7176Y-5.1886
X7.7304Y-2.6988
X7.7356Y-2.469
X7.7496Y-5.4718
X7.756Y-5.0752
X7.7572Y-5.1864
X7.7632Y-4.7278
X7.787Y-5.5355
X7.7976Y-4.7548
X7.8334Y-4.9698
X7.838Y-5.0672
X7.8452Y-5.4668
X7.8456Y-5.212
X7.8524Y-4.8914
X7.868Y-2.828
X7.8716Y-4.8082
X7.8971Y-5.2198
X7.9Y-2.6578
X7.9202Y-4.9652
X7.9226Y-5.1898
X7.9236Y-5.3924
X7.9368Y-2.4402
X7.9394Y-4.8372
X7.9534Y-5.3492
X7.9586Y-5.0498
X7.963Y-4.8974
X7.981Y-5.1888
X8.036Y-4.948
X8.04Y-5.0224
X8.0476Y-5.3754
X8.0556Y-5.447
X8.0596Y-5.4992
X8.0598Y-4.8426
X8.106Y-5.1915
X8.106Y-5.1915
X8.106Y-5.1915
X8.1216Y-5.1124
X8.1338Y-5.1528
X8.1549Y-4.6798
X8.1612Y-5.1078
X8.171Y-5.1498
X8.1742Y-4.7138
X8.2992Y-4.665
T2
X7.087Y-4.717
X7.187Y-4.717
X7.287Y-4.717
X7.387Y-4.717
T3
X7.715Y-3.489
X7.715Y-3.689
X7.715Y-3.889
T4
X8.237Y-4.695
X8.237Y-4.795
X8.237Y-4.895
X8.237Y-4.995
X8.237Y-5.095
X7.481Y-5.961
X7.666Y-5.961
X7.851Y-5.961
T0
M30
