G04 #@! TF.GenerationSoftware,KiCad,Pcbnew,(6.0.0-rc1-dev-1027-g90233e5ec)*
G04 #@! TF.CreationDate,2019-01-09T23:19:54+01:00*
G04 #@! TF.ProjectId,eBoard_remote_control,65426F6172645F72656D6F74655F636F,rev?*
G04 #@! TF.SameCoordinates,Original*
G04 #@! TF.FileFunction,Soldermask,Bot*
G04 #@! TF.FilePolarity,Negative*
%FSLAX46Y46*%
G04 Gerber Fmt 4.6, Leading zero omitted, Abs format (unit mm)*
G04 Created by KiCad (PCBNEW (6.0.0-rc1-dev-1027-g90233e5ec)) date 09.01.2019 23.19.54*
%MOMM*%
%LPD*%
G01*
G04 APERTURE LIST*
%ADD10C,0.100000*%
G04 APERTURE END LIST*
D10*
G36*
X190174168Y-153367445D02*
X190325874Y-153413464D01*
X190465686Y-153488196D01*
X190588233Y-153588767D01*
X190688804Y-153711314D01*
X190763536Y-153851126D01*
X190809555Y-154002832D01*
X190821200Y-154121064D01*
X190821200Y-155708136D01*
X190809555Y-155826368D01*
X190763536Y-155978074D01*
X190688804Y-156117886D01*
X190588233Y-156240433D01*
X190465685Y-156341004D01*
X190325873Y-156415736D01*
X190174167Y-156461755D01*
X190016400Y-156477294D01*
X189858632Y-156461755D01*
X189706926Y-156415736D01*
X189567114Y-156341004D01*
X189444567Y-156240433D01*
X189343996Y-156117885D01*
X189269264Y-155978073D01*
X189223245Y-155826367D01*
X189211600Y-155708135D01*
X189211601Y-154121064D01*
X189223246Y-154002832D01*
X189269265Y-153851126D01*
X189343997Y-153711314D01*
X189444568Y-153588767D01*
X189567115Y-153488196D01*
X189706927Y-153413464D01*
X189858633Y-153367445D01*
X190016400Y-153351906D01*
X190174168Y-153367445D01*
X190174168Y-153367445D01*
G37*
G36*
X199574168Y-153367445D02*
X199725874Y-153413464D01*
X199865686Y-153488196D01*
X199988233Y-153588767D01*
X200088804Y-153711314D01*
X200163536Y-153851126D01*
X200209555Y-154002832D01*
X200221200Y-154121064D01*
X200221200Y-155708136D01*
X200209555Y-155826368D01*
X200163536Y-155978074D01*
X200088804Y-156117886D01*
X199988233Y-156240433D01*
X199865685Y-156341004D01*
X199725873Y-156415736D01*
X199574167Y-156461755D01*
X199416400Y-156477294D01*
X199258632Y-156461755D01*
X199106926Y-156415736D01*
X198967114Y-156341004D01*
X198844567Y-156240433D01*
X198743996Y-156117885D01*
X198669264Y-155978073D01*
X198623245Y-155826367D01*
X198611600Y-155708135D01*
X198611601Y-154121064D01*
X198623246Y-154002832D01*
X198669265Y-153851126D01*
X198743997Y-153711314D01*
X198844568Y-153588767D01*
X198967115Y-153488196D01*
X199106927Y-153413464D01*
X199258633Y-153367445D01*
X199416400Y-153351906D01*
X199574168Y-153367445D01*
X199574168Y-153367445D01*
G37*
G36*
X194874168Y-153367445D02*
X195025874Y-153413464D01*
X195165686Y-153488196D01*
X195288233Y-153588767D01*
X195388804Y-153711314D01*
X195463536Y-153851126D01*
X195509555Y-154002832D01*
X195521200Y-154121064D01*
X195521200Y-155708136D01*
X195509555Y-155826368D01*
X195463536Y-155978074D01*
X195388804Y-156117886D01*
X195288233Y-156240433D01*
X195165685Y-156341004D01*
X195025873Y-156415736D01*
X194874167Y-156461755D01*
X194716400Y-156477294D01*
X194558632Y-156461755D01*
X194406926Y-156415736D01*
X194267114Y-156341004D01*
X194144567Y-156240433D01*
X194043996Y-156117885D01*
X193969264Y-155978073D01*
X193923245Y-155826367D01*
X193911600Y-155708135D01*
X193911601Y-154121064D01*
X193923246Y-154002832D01*
X193969265Y-153851126D01*
X194043997Y-153711314D01*
X194144568Y-153588767D01*
X194267115Y-153488196D01*
X194406927Y-153413464D01*
X194558633Y-153367445D01*
X194716400Y-153351906D01*
X194874168Y-153367445D01*
X194874168Y-153367445D01*
G37*
G36*
X180925840Y-120682120D02*
X179124240Y-120682120D01*
X179124240Y-118880520D01*
X180925840Y-118880520D01*
X180925840Y-120682120D01*
X180925840Y-120682120D01*
G37*
G36*
X182697269Y-118889174D02*
X182827794Y-118915137D01*
X182991729Y-118983041D01*
X183139267Y-119081623D01*
X183264737Y-119207093D01*
X183363319Y-119354631D01*
X183431223Y-119518566D01*
X183465840Y-119692599D01*
X183465840Y-119870041D01*
X183431223Y-120044074D01*
X183363319Y-120208009D01*
X183264737Y-120355547D01*
X183139267Y-120481017D01*
X182991729Y-120579599D01*
X182827794Y-120647503D01*
X182697269Y-120673466D01*
X182653762Y-120682120D01*
X182476318Y-120682120D01*
X182432811Y-120673466D01*
X182302286Y-120647503D01*
X182138351Y-120579599D01*
X181990813Y-120481017D01*
X181865343Y-120355547D01*
X181766761Y-120208009D01*
X181698857Y-120044074D01*
X181664240Y-119870041D01*
X181664240Y-119692599D01*
X181698857Y-119518566D01*
X181766761Y-119354631D01*
X181865343Y-119207093D01*
X181990813Y-119081623D01*
X182138351Y-118983041D01*
X182302286Y-118915137D01*
X182432811Y-118889174D01*
X182476318Y-118880520D01*
X182653762Y-118880520D01*
X182697269Y-118889174D01*
X182697269Y-118889174D01*
G37*
G36*
X185237269Y-118889174D02*
X185367794Y-118915137D01*
X185531729Y-118983041D01*
X185679267Y-119081623D01*
X185804737Y-119207093D01*
X185903319Y-119354631D01*
X185971223Y-119518566D01*
X186005840Y-119692599D01*
X186005840Y-119870041D01*
X185971223Y-120044074D01*
X185903319Y-120208009D01*
X185804737Y-120355547D01*
X185679267Y-120481017D01*
X185531729Y-120579599D01*
X185367794Y-120647503D01*
X185237269Y-120673466D01*
X185193762Y-120682120D01*
X185016318Y-120682120D01*
X184972811Y-120673466D01*
X184842286Y-120647503D01*
X184678351Y-120579599D01*
X184530813Y-120481017D01*
X184405343Y-120355547D01*
X184306761Y-120208009D01*
X184238857Y-120044074D01*
X184204240Y-119870041D01*
X184204240Y-119692599D01*
X184238857Y-119518566D01*
X184306761Y-119354631D01*
X184405343Y-119207093D01*
X184530813Y-119081623D01*
X184678351Y-118983041D01*
X184842286Y-118915137D01*
X184972811Y-118889174D01*
X185016318Y-118880520D01*
X185193762Y-118880520D01*
X185237269Y-118889174D01*
X185237269Y-118889174D01*
G37*
G36*
X187777269Y-118889174D02*
X187907794Y-118915137D01*
X188071729Y-118983041D01*
X188219267Y-119081623D01*
X188344737Y-119207093D01*
X188443319Y-119354631D01*
X188511223Y-119518566D01*
X188545840Y-119692599D01*
X188545840Y-119870041D01*
X188511223Y-120044074D01*
X188443319Y-120208009D01*
X188344737Y-120355547D01*
X188219267Y-120481017D01*
X188071729Y-120579599D01*
X187907794Y-120647503D01*
X187777269Y-120673466D01*
X187733762Y-120682120D01*
X187556318Y-120682120D01*
X187512811Y-120673466D01*
X187382286Y-120647503D01*
X187218351Y-120579599D01*
X187070813Y-120481017D01*
X186945343Y-120355547D01*
X186846761Y-120208009D01*
X186778857Y-120044074D01*
X186744240Y-119870041D01*
X186744240Y-119692599D01*
X186778857Y-119518566D01*
X186846761Y-119354631D01*
X186945343Y-119207093D01*
X187070813Y-119081623D01*
X187218351Y-118983041D01*
X187382286Y-118915137D01*
X187512811Y-118889174D01*
X187556318Y-118880520D01*
X187733762Y-118880520D01*
X187777269Y-118889174D01*
X187777269Y-118889174D01*
G37*
G36*
X197329296Y-98109679D02*
X197398325Y-98116478D01*
X197486895Y-98143345D01*
X197531181Y-98156779D01*
X197653619Y-98222224D01*
X197760940Y-98310300D01*
X197849016Y-98417621D01*
X197914461Y-98540059D01*
X197914461Y-98540060D01*
X197954762Y-98672915D01*
X197968370Y-98811080D01*
X197954762Y-98949245D01*
X197927895Y-99037815D01*
X197914461Y-99082101D01*
X197849016Y-99204539D01*
X197760940Y-99311860D01*
X197653619Y-99399936D01*
X197531181Y-99465381D01*
X197486895Y-99478815D01*
X197398325Y-99505682D01*
X197329296Y-99512481D01*
X197294783Y-99515880D01*
X195917537Y-99515880D01*
X195883024Y-99512481D01*
X195813995Y-99505682D01*
X195725425Y-99478815D01*
X195681139Y-99465381D01*
X195558701Y-99399936D01*
X195451380Y-99311860D01*
X195363304Y-99204539D01*
X195297859Y-99082101D01*
X195284425Y-99037815D01*
X195257558Y-98949245D01*
X195243950Y-98811080D01*
X195257558Y-98672915D01*
X195297859Y-98540060D01*
X195297859Y-98540059D01*
X195363304Y-98417621D01*
X195451380Y-98310300D01*
X195558701Y-98222224D01*
X195681139Y-98156779D01*
X195725425Y-98143345D01*
X195813995Y-98116478D01*
X195883024Y-98109679D01*
X195917537Y-98106280D01*
X197294783Y-98106280D01*
X197329296Y-98109679D01*
X197329296Y-98109679D01*
G37*
G36*
X197329296Y-93029679D02*
X197398325Y-93036478D01*
X197486895Y-93063345D01*
X197531181Y-93076779D01*
X197653619Y-93142224D01*
X197760940Y-93230300D01*
X197849016Y-93337621D01*
X197914461Y-93460059D01*
X197914461Y-93460060D01*
X197954762Y-93592915D01*
X197968370Y-93731080D01*
X197954762Y-93869245D01*
X197927895Y-93957815D01*
X197914461Y-94002101D01*
X197849016Y-94124539D01*
X197760940Y-94231860D01*
X197653619Y-94319936D01*
X197531181Y-94385381D01*
X197486895Y-94398815D01*
X197398325Y-94425682D01*
X197329296Y-94432481D01*
X197294783Y-94435880D01*
X195917537Y-94435880D01*
X195883024Y-94432481D01*
X195813995Y-94425682D01*
X195725425Y-94398815D01*
X195681139Y-94385381D01*
X195558701Y-94319936D01*
X195451380Y-94231860D01*
X195363304Y-94124539D01*
X195297859Y-94002101D01*
X195284425Y-93957815D01*
X195257558Y-93869245D01*
X195243950Y-93731080D01*
X195257558Y-93592915D01*
X195297859Y-93460060D01*
X195297859Y-93460059D01*
X195363304Y-93337621D01*
X195451380Y-93230300D01*
X195558701Y-93142224D01*
X195681139Y-93076779D01*
X195725425Y-93063345D01*
X195813995Y-93036478D01*
X195883024Y-93029679D01*
X195917537Y-93026280D01*
X197294783Y-93026280D01*
X197329296Y-93029679D01*
X197329296Y-93029679D01*
G37*
G36*
X197329296Y-87949679D02*
X197398325Y-87956478D01*
X197486895Y-87983345D01*
X197531181Y-87996779D01*
X197653619Y-88062224D01*
X197760940Y-88150300D01*
X197849016Y-88257621D01*
X197914461Y-88380059D01*
X197914461Y-88380060D01*
X197954762Y-88512915D01*
X197968370Y-88651080D01*
X197954762Y-88789245D01*
X197927895Y-88877815D01*
X197914461Y-88922101D01*
X197849016Y-89044539D01*
X197760940Y-89151860D01*
X197653619Y-89239936D01*
X197531181Y-89305381D01*
X197486895Y-89318815D01*
X197398325Y-89345682D01*
X197329296Y-89352481D01*
X197294783Y-89355880D01*
X195917537Y-89355880D01*
X195883024Y-89352481D01*
X195813995Y-89345682D01*
X195725425Y-89318815D01*
X195681139Y-89305381D01*
X195558701Y-89239936D01*
X195451380Y-89151860D01*
X195363304Y-89044539D01*
X195297859Y-88922101D01*
X195284425Y-88877815D01*
X195257558Y-88789245D01*
X195243950Y-88651080D01*
X195257558Y-88512915D01*
X195297859Y-88380060D01*
X195297859Y-88380059D01*
X195363304Y-88257621D01*
X195451380Y-88150300D01*
X195558701Y-88062224D01*
X195681139Y-87996779D01*
X195725425Y-87983345D01*
X195813995Y-87956478D01*
X195883024Y-87949679D01*
X195917537Y-87946280D01*
X197294783Y-87946280D01*
X197329296Y-87949679D01*
X197329296Y-87949679D01*
G37*
M02*
