M48
;DRILL file {KiCad (6.0.0-rc1-dev-1027-g90233e5ec)} date 05.11.2018 19.20.45
;FORMAT={-:-/ absolute / inch / decimal}
FMAT,2
INCH
T1C0.0157
T2C0.0394
%
G90
G05
M72
T1
X5.113Y-5.3136
X5.1412Y-5.4944
X5.2526Y-5.4464
X5.2596Y-4.921
X5.268Y-4.9622
X5.3164Y-5.404
X5.3172Y-5.67
X5.3182Y-4.9546
X5.3468Y-5.2972
X5.357Y-4.9486
X5.3936Y-5.2996
X5.4034Y-5.034
X5.4186Y-5.187
X5.4272Y-5.665
X5.4756Y-5.7922
X5.4892Y-5.1322
X5.5144Y-5.25
X5.521Y-5.55
X5.5652Y-5.055
X5.575Y-5.152
X5.577Y-5.4516
X5.655Y-5.4176
X5.6556Y-5.5384
X5.6994Y-5.337
X5.7032Y-5.4466
X5.7098Y-5.3878
X5.743Y-4.9042
X5.7566Y-4.8624
X5.8252Y-5.433
X5.8694Y-5.3752
X5.8844Y-5.4802
X5.8902Y-4.814
X5.9018Y-5.7626
X5.9324Y-5.4464
X5.9442Y-5.8306
X6.0Y-5.823
X6.0252Y-5.2248
X6.0528Y-5.1036
X6.095Y-4.866
X6.1022Y-5.0878
X6.165Y-5.0804
X6.22Y-5.3418
X6.29Y-4.8926
X6.331Y-5.4668
X6.3546Y-4.8842
X6.3612Y-5.3786
X6.366Y-4.7676
X6.375Y-5.5106
X6.3792Y-5.3316
X6.38Y-5.4232
X6.3804Y-5.156
X6.3848Y-5.0666
X6.42Y-4.8418
X6.4228Y-4.8912
X6.4586Y-5.6036
X6.4616Y-5.1214
X6.4664Y-5.0584
X6.4796Y-5.0082
X6.4994Y-5.2126
X6.4995Y-5.1711
X6.528Y-5.5096
X6.532Y-5.3406
X6.5386Y-5.4208
X6.5416Y-4.823
X6.55Y-4.98
X6.57Y-4.94
X6.58Y-5.07
X6.59Y-5.02
X6.6068Y-5.1874
X6.6072Y-5.2266
X6.6138Y-5.7944
X6.63Y-4.96
X6.6374Y-5.5096
X6.6545Y-5.1705
X6.655Y-5.2262
X6.67Y-5.01
X6.68Y-5.06
X6.6802Y-5.9036
X6.7128Y-4.979
X6.7496Y-5.3702
X6.7606Y-5.4378
X6.809Y-5.5298
T2
X6.1864Y-5.47
X6.1864Y-5.57
X6.1864Y-5.67
X6.4Y-5.9
X6.5Y-5.9
X6.6Y-5.9
X6.7894Y-5.6062
X6.7894Y-5.7062
X6.7894Y-5.8062
X5.35Y-5.9
X5.45Y-5.9
X5.55Y-5.9
X5.65Y-5.9
X5.75Y-5.9
X5.85Y-5.9
X5.95Y-5.9
X6.05Y-5.9
X6.15Y-5.9
X6.0348Y-5.4718
X6.0348Y-5.5718
X6.0348Y-5.6718
X5.8278Y-4.8054
X5.8278Y-4.9054
X5.8278Y-5.0054
X5.8278Y-5.1054
X5.8278Y-5.2054
T0
M30
