G04 #@! TF.GenerationSoftware,KiCad,Pcbnew,(6.0.0-rc1-dev-1027-g90233e5ec)*
G04 #@! TF.CreationDate,2018-11-05T19:20:42+01:00*
G04 #@! TF.ProjectId,eBoard_remote_reciever,65426F6172645F72656D6F74655F7265,rev?*
G04 #@! TF.SameCoordinates,Original*
G04 #@! TF.FileFunction,Paste,Top*
G04 #@! TF.FilePolarity,Positive*
%FSLAX46Y46*%
G04 Gerber Fmt 4.6, Leading zero omitted, Abs format (unit mm)*
G04 Created by KiCad (PCBNEW (6.0.0-rc1-dev-1027-g90233e5ec)) date 05.11.2018 19.20.42*
%MOMM*%
%LPD*%
G01*
G04 APERTURE LIST*
%ADD10C,0.100000*%
%ADD11C,0.875000*%
%ADD12R,1.500000X1.240000*%
%ADD13R,1.200000X0.500000*%
%ADD14R,1.600000X0.900000*%
%ADD15R,1.600000X0.480000*%
%ADD16R,0.480000X1.600000*%
%ADD17R,1.000000X1.075000*%
%ADD18R,1.200000X1.200000*%
%ADD19R,1.200000X0.550000*%
%ADD20C,0.280000*%
%ADD21R,1.100000X1.900000*%
%ADD22R,2.000000X1.900000*%
%ADD23R,2.300000X1.900000*%
%ADD24R,0.400000X1.400000*%
%ADD25R,1.100000X1.000000*%
G04 APERTURE END LIST*
D10*
G04 #@! TO.C,U4*
G36*
X167075000Y-131780000D02*
X167075000Y-132380000D01*
X167675000Y-132380000D01*
X167675000Y-131780000D01*
X167075000Y-131780000D01*
G37*
G36*
X168875000Y-131780000D02*
X168875000Y-132380000D01*
X169475000Y-132380000D01*
X169475000Y-131780000D01*
X168875000Y-131780000D01*
G37*
G36*
X167975000Y-132680000D02*
X167975000Y-133280000D01*
X168575000Y-133280000D01*
X168575000Y-132680000D01*
X167975000Y-132680000D01*
G37*
G36*
X167075000Y-132680000D02*
X167075000Y-133280000D01*
X167675000Y-133280000D01*
X167675000Y-132680000D01*
X167075000Y-132680000D01*
G37*
G36*
X168875000Y-132680000D02*
X168875000Y-133280000D01*
X169475000Y-133280000D01*
X169475000Y-132680000D01*
X168875000Y-132680000D01*
G37*
G36*
X168875000Y-130880000D02*
X168875000Y-131480000D01*
X169475000Y-131480000D01*
X169475000Y-130880000D01*
X168875000Y-130880000D01*
G37*
G36*
X167975000Y-130880000D02*
X167975000Y-131480000D01*
X168575000Y-131480000D01*
X168575000Y-130880000D01*
X167975000Y-130880000D01*
G37*
G36*
X167975000Y-131780000D02*
X167975000Y-132380000D01*
X168575000Y-132380000D01*
X168575000Y-131780000D01*
X167975000Y-131780000D01*
G37*
G36*
X167075000Y-130880000D02*
X167075000Y-131480000D01*
X167675000Y-131480000D01*
X167675000Y-130880000D01*
X167075000Y-130880000D01*
G37*
G04 #@! TD*
G04 #@! TO.C,R10*
G36*
X170147811Y-146223253D02*
X170169046Y-146226403D01*
X170189870Y-146231619D01*
X170210082Y-146238851D01*
X170229488Y-146248030D01*
X170247901Y-146259066D01*
X170265144Y-146271854D01*
X170281050Y-146286270D01*
X170295466Y-146302176D01*
X170308254Y-146319419D01*
X170319290Y-146337832D01*
X170328469Y-146357238D01*
X170335701Y-146377450D01*
X170340917Y-146398274D01*
X170344067Y-146419509D01*
X170345120Y-146440950D01*
X170345120Y-146878450D01*
X170344067Y-146899891D01*
X170340917Y-146921126D01*
X170335701Y-146941950D01*
X170328469Y-146962162D01*
X170319290Y-146981568D01*
X170308254Y-146999981D01*
X170295466Y-147017224D01*
X170281050Y-147033130D01*
X170265144Y-147047546D01*
X170247901Y-147060334D01*
X170229488Y-147071370D01*
X170210082Y-147080549D01*
X170189870Y-147087781D01*
X170169046Y-147092997D01*
X170147811Y-147096147D01*
X170126370Y-147097200D01*
X169613870Y-147097200D01*
X169592429Y-147096147D01*
X169571194Y-147092997D01*
X169550370Y-147087781D01*
X169530158Y-147080549D01*
X169510752Y-147071370D01*
X169492339Y-147060334D01*
X169475096Y-147047546D01*
X169459190Y-147033130D01*
X169444774Y-147017224D01*
X169431986Y-146999981D01*
X169420950Y-146981568D01*
X169411771Y-146962162D01*
X169404539Y-146941950D01*
X169399323Y-146921126D01*
X169396173Y-146899891D01*
X169395120Y-146878450D01*
X169395120Y-146440950D01*
X169396173Y-146419509D01*
X169399323Y-146398274D01*
X169404539Y-146377450D01*
X169411771Y-146357238D01*
X169420950Y-146337832D01*
X169431986Y-146319419D01*
X169444774Y-146302176D01*
X169459190Y-146286270D01*
X169475096Y-146271854D01*
X169492339Y-146259066D01*
X169510752Y-146248030D01*
X169530158Y-146238851D01*
X169550370Y-146231619D01*
X169571194Y-146226403D01*
X169592429Y-146223253D01*
X169613870Y-146222200D01*
X170126370Y-146222200D01*
X170147811Y-146223253D01*
X170147811Y-146223253D01*
G37*
D11*
X169870120Y-146659700D03*
D10*
G36*
X170147811Y-144648253D02*
X170169046Y-144651403D01*
X170189870Y-144656619D01*
X170210082Y-144663851D01*
X170229488Y-144673030D01*
X170247901Y-144684066D01*
X170265144Y-144696854D01*
X170281050Y-144711270D01*
X170295466Y-144727176D01*
X170308254Y-144744419D01*
X170319290Y-144762832D01*
X170328469Y-144782238D01*
X170335701Y-144802450D01*
X170340917Y-144823274D01*
X170344067Y-144844509D01*
X170345120Y-144865950D01*
X170345120Y-145303450D01*
X170344067Y-145324891D01*
X170340917Y-145346126D01*
X170335701Y-145366950D01*
X170328469Y-145387162D01*
X170319290Y-145406568D01*
X170308254Y-145424981D01*
X170295466Y-145442224D01*
X170281050Y-145458130D01*
X170265144Y-145472546D01*
X170247901Y-145485334D01*
X170229488Y-145496370D01*
X170210082Y-145505549D01*
X170189870Y-145512781D01*
X170169046Y-145517997D01*
X170147811Y-145521147D01*
X170126370Y-145522200D01*
X169613870Y-145522200D01*
X169592429Y-145521147D01*
X169571194Y-145517997D01*
X169550370Y-145512781D01*
X169530158Y-145505549D01*
X169510752Y-145496370D01*
X169492339Y-145485334D01*
X169475096Y-145472546D01*
X169459190Y-145458130D01*
X169444774Y-145442224D01*
X169431986Y-145424981D01*
X169420950Y-145406568D01*
X169411771Y-145387162D01*
X169404539Y-145366950D01*
X169399323Y-145346126D01*
X169396173Y-145324891D01*
X169395120Y-145303450D01*
X169395120Y-144865950D01*
X169396173Y-144844509D01*
X169399323Y-144823274D01*
X169404539Y-144802450D01*
X169411771Y-144782238D01*
X169420950Y-144762832D01*
X169431986Y-144744419D01*
X169444774Y-144727176D01*
X169459190Y-144711270D01*
X169475096Y-144696854D01*
X169492339Y-144684066D01*
X169510752Y-144673030D01*
X169530158Y-144663851D01*
X169550370Y-144656619D01*
X169571194Y-144651403D01*
X169592429Y-144648253D01*
X169613870Y-144647200D01*
X170126370Y-144647200D01*
X170147811Y-144648253D01*
X170147811Y-144648253D01*
G37*
D11*
X169870120Y-145084700D03*
G04 #@! TD*
D12*
G04 #@! TO.C,C6*
X161422080Y-125323560D03*
X161422080Y-127223560D03*
G04 #@! TD*
D13*
G04 #@! TO.C,U1*
X142600000Y-126420000D03*
X142600000Y-125020000D03*
D14*
X144300000Y-124470000D03*
D15*
X144300000Y-125370000D03*
X144300000Y-126070000D03*
X144300000Y-126770000D03*
X144300000Y-127470000D03*
X144300000Y-128170000D03*
X144300000Y-128870000D03*
X144300000Y-129570000D03*
X144300000Y-130270000D03*
X144300000Y-130970000D03*
X144300000Y-131670000D03*
X144300000Y-132370000D03*
X144300000Y-133070000D03*
X144300000Y-133770000D03*
X144300000Y-134470000D03*
D16*
X143900000Y-135920000D03*
X143200000Y-135920000D03*
X142500000Y-135920000D03*
X141800000Y-135920000D03*
X141100000Y-135920000D03*
X140400000Y-135920000D03*
X139700000Y-135920000D03*
X139000000Y-135920000D03*
X138300000Y-135920000D03*
X137600000Y-135920000D03*
X136900000Y-135920000D03*
X136200000Y-135920000D03*
X135500000Y-135920000D03*
D15*
X135100000Y-133770000D03*
X135100000Y-133070000D03*
X135100000Y-132370000D03*
X135100000Y-131670000D03*
X135100000Y-130970000D03*
X135100000Y-130270000D03*
X135100000Y-129570000D03*
X135100000Y-128870000D03*
X135100000Y-128170000D03*
X135100000Y-127470000D03*
D14*
X135100000Y-124470000D03*
G04 #@! TD*
D12*
G04 #@! TO.C,C3*
X133497320Y-136946680D03*
X133497320Y-135046680D03*
G04 #@! TD*
D17*
G04 #@! TO.C,C1*
X135310880Y-142576920D03*
X135310880Y-140876920D03*
G04 #@! TD*
G04 #@! TO.C,C2*
X137850880Y-142576920D03*
X137850880Y-140876920D03*
G04 #@! TD*
D18*
G04 #@! TO.C,D1*
X156895800Y-134146000D03*
X156895800Y-132046000D03*
G04 #@! TD*
G04 #@! TO.C,D2*
X160685480Y-134278080D03*
X160685480Y-132178080D03*
G04 #@! TD*
D17*
G04 #@! TO.C,R1*
X155366720Y-132012320D03*
X155366720Y-133712320D03*
G04 #@! TD*
G04 #@! TO.C,R2*
X158866840Y-132083440D03*
X158866840Y-133783440D03*
G04 #@! TD*
D12*
G04 #@! TO.C,L2*
X131838700Y-133639600D03*
X131838700Y-131739600D03*
G04 #@! TD*
D17*
G04 #@! TO.C,C4*
X129936240Y-133595480D03*
X129936240Y-131895480D03*
G04 #@! TD*
D12*
G04 #@! TO.C,C8*
X154940000Y-125211800D03*
X154940000Y-127111800D03*
G04 #@! TD*
D19*
G04 #@! TO.C,U2*
X156865700Y-127198160D03*
X156865700Y-125298160D03*
X159465900Y-125298160D03*
X159465900Y-126248160D03*
X159465900Y-127198160D03*
G04 #@! TD*
D17*
G04 #@! TO.C,R5*
X163184840Y-127174360D03*
X163184840Y-125474360D03*
G04 #@! TD*
D10*
G04 #@! TO.C,U4*
G36*
X170611861Y-130690337D02*
X170618656Y-130691345D01*
X170625320Y-130693014D01*
X170631788Y-130695328D01*
X170637998Y-130698266D01*
X170643890Y-130701797D01*
X170649408Y-130705889D01*
X170654497Y-130710503D01*
X170659111Y-130715592D01*
X170663203Y-130721110D01*
X170666734Y-130727002D01*
X170669672Y-130733212D01*
X170671986Y-130739680D01*
X170673655Y-130746344D01*
X170674663Y-130753139D01*
X170675000Y-130760000D01*
X170675000Y-130900000D01*
X170674663Y-130906861D01*
X170673655Y-130913656D01*
X170671986Y-130920320D01*
X170669672Y-130926788D01*
X170666734Y-130932998D01*
X170663203Y-130938890D01*
X170659111Y-130944408D01*
X170654497Y-130949497D01*
X170649408Y-130954111D01*
X170643890Y-130958203D01*
X170637998Y-130961734D01*
X170631788Y-130964672D01*
X170625320Y-130966986D01*
X170618656Y-130968655D01*
X170611861Y-130969663D01*
X170605000Y-130970000D01*
X169945000Y-130970000D01*
X169938139Y-130969663D01*
X169931344Y-130968655D01*
X169924680Y-130966986D01*
X169918212Y-130964672D01*
X169912002Y-130961734D01*
X169906110Y-130958203D01*
X169900592Y-130954111D01*
X169895503Y-130949497D01*
X169890889Y-130944408D01*
X169886797Y-130938890D01*
X169883266Y-130932998D01*
X169880328Y-130926788D01*
X169878014Y-130920320D01*
X169876345Y-130913656D01*
X169875337Y-130906861D01*
X169875000Y-130900000D01*
X169875000Y-130760000D01*
X169875337Y-130753139D01*
X169876345Y-130746344D01*
X169878014Y-130739680D01*
X169880328Y-130733212D01*
X169883266Y-130727002D01*
X169886797Y-130721110D01*
X169890889Y-130715592D01*
X169895503Y-130710503D01*
X169900592Y-130705889D01*
X169906110Y-130701797D01*
X169912002Y-130698266D01*
X169918212Y-130695328D01*
X169924680Y-130693014D01*
X169931344Y-130691345D01*
X169938139Y-130690337D01*
X169945000Y-130690000D01*
X170605000Y-130690000D01*
X170611861Y-130690337D01*
X170611861Y-130690337D01*
G37*
D20*
X170275000Y-130830000D03*
D10*
G36*
X170611861Y-131190337D02*
X170618656Y-131191345D01*
X170625320Y-131193014D01*
X170631788Y-131195328D01*
X170637998Y-131198266D01*
X170643890Y-131201797D01*
X170649408Y-131205889D01*
X170654497Y-131210503D01*
X170659111Y-131215592D01*
X170663203Y-131221110D01*
X170666734Y-131227002D01*
X170669672Y-131233212D01*
X170671986Y-131239680D01*
X170673655Y-131246344D01*
X170674663Y-131253139D01*
X170675000Y-131260000D01*
X170675000Y-131400000D01*
X170674663Y-131406861D01*
X170673655Y-131413656D01*
X170671986Y-131420320D01*
X170669672Y-131426788D01*
X170666734Y-131432998D01*
X170663203Y-131438890D01*
X170659111Y-131444408D01*
X170654497Y-131449497D01*
X170649408Y-131454111D01*
X170643890Y-131458203D01*
X170637998Y-131461734D01*
X170631788Y-131464672D01*
X170625320Y-131466986D01*
X170618656Y-131468655D01*
X170611861Y-131469663D01*
X170605000Y-131470000D01*
X169945000Y-131470000D01*
X169938139Y-131469663D01*
X169931344Y-131468655D01*
X169924680Y-131466986D01*
X169918212Y-131464672D01*
X169912002Y-131461734D01*
X169906110Y-131458203D01*
X169900592Y-131454111D01*
X169895503Y-131449497D01*
X169890889Y-131444408D01*
X169886797Y-131438890D01*
X169883266Y-131432998D01*
X169880328Y-131426788D01*
X169878014Y-131420320D01*
X169876345Y-131413656D01*
X169875337Y-131406861D01*
X169875000Y-131400000D01*
X169875000Y-131260000D01*
X169875337Y-131253139D01*
X169876345Y-131246344D01*
X169878014Y-131239680D01*
X169880328Y-131233212D01*
X169883266Y-131227002D01*
X169886797Y-131221110D01*
X169890889Y-131215592D01*
X169895503Y-131210503D01*
X169900592Y-131205889D01*
X169906110Y-131201797D01*
X169912002Y-131198266D01*
X169918212Y-131195328D01*
X169924680Y-131193014D01*
X169931344Y-131191345D01*
X169938139Y-131190337D01*
X169945000Y-131190000D01*
X170605000Y-131190000D01*
X170611861Y-131190337D01*
X170611861Y-131190337D01*
G37*
D20*
X170275000Y-131330000D03*
D10*
G36*
X170611861Y-131690337D02*
X170618656Y-131691345D01*
X170625320Y-131693014D01*
X170631788Y-131695328D01*
X170637998Y-131698266D01*
X170643890Y-131701797D01*
X170649408Y-131705889D01*
X170654497Y-131710503D01*
X170659111Y-131715592D01*
X170663203Y-131721110D01*
X170666734Y-131727002D01*
X170669672Y-131733212D01*
X170671986Y-131739680D01*
X170673655Y-131746344D01*
X170674663Y-131753139D01*
X170675000Y-131760000D01*
X170675000Y-131900000D01*
X170674663Y-131906861D01*
X170673655Y-131913656D01*
X170671986Y-131920320D01*
X170669672Y-131926788D01*
X170666734Y-131932998D01*
X170663203Y-131938890D01*
X170659111Y-131944408D01*
X170654497Y-131949497D01*
X170649408Y-131954111D01*
X170643890Y-131958203D01*
X170637998Y-131961734D01*
X170631788Y-131964672D01*
X170625320Y-131966986D01*
X170618656Y-131968655D01*
X170611861Y-131969663D01*
X170605000Y-131970000D01*
X169945000Y-131970000D01*
X169938139Y-131969663D01*
X169931344Y-131968655D01*
X169924680Y-131966986D01*
X169918212Y-131964672D01*
X169912002Y-131961734D01*
X169906110Y-131958203D01*
X169900592Y-131954111D01*
X169895503Y-131949497D01*
X169890889Y-131944408D01*
X169886797Y-131938890D01*
X169883266Y-131932998D01*
X169880328Y-131926788D01*
X169878014Y-131920320D01*
X169876345Y-131913656D01*
X169875337Y-131906861D01*
X169875000Y-131900000D01*
X169875000Y-131760000D01*
X169875337Y-131753139D01*
X169876345Y-131746344D01*
X169878014Y-131739680D01*
X169880328Y-131733212D01*
X169883266Y-131727002D01*
X169886797Y-131721110D01*
X169890889Y-131715592D01*
X169895503Y-131710503D01*
X169900592Y-131705889D01*
X169906110Y-131701797D01*
X169912002Y-131698266D01*
X169918212Y-131695328D01*
X169924680Y-131693014D01*
X169931344Y-131691345D01*
X169938139Y-131690337D01*
X169945000Y-131690000D01*
X170605000Y-131690000D01*
X170611861Y-131690337D01*
X170611861Y-131690337D01*
G37*
D20*
X170275000Y-131830000D03*
D10*
G36*
X170611861Y-132190337D02*
X170618656Y-132191345D01*
X170625320Y-132193014D01*
X170631788Y-132195328D01*
X170637998Y-132198266D01*
X170643890Y-132201797D01*
X170649408Y-132205889D01*
X170654497Y-132210503D01*
X170659111Y-132215592D01*
X170663203Y-132221110D01*
X170666734Y-132227002D01*
X170669672Y-132233212D01*
X170671986Y-132239680D01*
X170673655Y-132246344D01*
X170674663Y-132253139D01*
X170675000Y-132260000D01*
X170675000Y-132400000D01*
X170674663Y-132406861D01*
X170673655Y-132413656D01*
X170671986Y-132420320D01*
X170669672Y-132426788D01*
X170666734Y-132432998D01*
X170663203Y-132438890D01*
X170659111Y-132444408D01*
X170654497Y-132449497D01*
X170649408Y-132454111D01*
X170643890Y-132458203D01*
X170637998Y-132461734D01*
X170631788Y-132464672D01*
X170625320Y-132466986D01*
X170618656Y-132468655D01*
X170611861Y-132469663D01*
X170605000Y-132470000D01*
X169945000Y-132470000D01*
X169938139Y-132469663D01*
X169931344Y-132468655D01*
X169924680Y-132466986D01*
X169918212Y-132464672D01*
X169912002Y-132461734D01*
X169906110Y-132458203D01*
X169900592Y-132454111D01*
X169895503Y-132449497D01*
X169890889Y-132444408D01*
X169886797Y-132438890D01*
X169883266Y-132432998D01*
X169880328Y-132426788D01*
X169878014Y-132420320D01*
X169876345Y-132413656D01*
X169875337Y-132406861D01*
X169875000Y-132400000D01*
X169875000Y-132260000D01*
X169875337Y-132253139D01*
X169876345Y-132246344D01*
X169878014Y-132239680D01*
X169880328Y-132233212D01*
X169883266Y-132227002D01*
X169886797Y-132221110D01*
X169890889Y-132215592D01*
X169895503Y-132210503D01*
X169900592Y-132205889D01*
X169906110Y-132201797D01*
X169912002Y-132198266D01*
X169918212Y-132195328D01*
X169924680Y-132193014D01*
X169931344Y-132191345D01*
X169938139Y-132190337D01*
X169945000Y-132190000D01*
X170605000Y-132190000D01*
X170611861Y-132190337D01*
X170611861Y-132190337D01*
G37*
D20*
X170275000Y-132330000D03*
D10*
G36*
X170611861Y-132690337D02*
X170618656Y-132691345D01*
X170625320Y-132693014D01*
X170631788Y-132695328D01*
X170637998Y-132698266D01*
X170643890Y-132701797D01*
X170649408Y-132705889D01*
X170654497Y-132710503D01*
X170659111Y-132715592D01*
X170663203Y-132721110D01*
X170666734Y-132727002D01*
X170669672Y-132733212D01*
X170671986Y-132739680D01*
X170673655Y-132746344D01*
X170674663Y-132753139D01*
X170675000Y-132760000D01*
X170675000Y-132900000D01*
X170674663Y-132906861D01*
X170673655Y-132913656D01*
X170671986Y-132920320D01*
X170669672Y-132926788D01*
X170666734Y-132932998D01*
X170663203Y-132938890D01*
X170659111Y-132944408D01*
X170654497Y-132949497D01*
X170649408Y-132954111D01*
X170643890Y-132958203D01*
X170637998Y-132961734D01*
X170631788Y-132964672D01*
X170625320Y-132966986D01*
X170618656Y-132968655D01*
X170611861Y-132969663D01*
X170605000Y-132970000D01*
X169945000Y-132970000D01*
X169938139Y-132969663D01*
X169931344Y-132968655D01*
X169924680Y-132966986D01*
X169918212Y-132964672D01*
X169912002Y-132961734D01*
X169906110Y-132958203D01*
X169900592Y-132954111D01*
X169895503Y-132949497D01*
X169890889Y-132944408D01*
X169886797Y-132938890D01*
X169883266Y-132932998D01*
X169880328Y-132926788D01*
X169878014Y-132920320D01*
X169876345Y-132913656D01*
X169875337Y-132906861D01*
X169875000Y-132900000D01*
X169875000Y-132760000D01*
X169875337Y-132753139D01*
X169876345Y-132746344D01*
X169878014Y-132739680D01*
X169880328Y-132733212D01*
X169883266Y-132727002D01*
X169886797Y-132721110D01*
X169890889Y-132715592D01*
X169895503Y-132710503D01*
X169900592Y-132705889D01*
X169906110Y-132701797D01*
X169912002Y-132698266D01*
X169918212Y-132695328D01*
X169924680Y-132693014D01*
X169931344Y-132691345D01*
X169938139Y-132690337D01*
X169945000Y-132690000D01*
X170605000Y-132690000D01*
X170611861Y-132690337D01*
X170611861Y-132690337D01*
G37*
D20*
X170275000Y-132830000D03*
D10*
G36*
X170611861Y-133190337D02*
X170618656Y-133191345D01*
X170625320Y-133193014D01*
X170631788Y-133195328D01*
X170637998Y-133198266D01*
X170643890Y-133201797D01*
X170649408Y-133205889D01*
X170654497Y-133210503D01*
X170659111Y-133215592D01*
X170663203Y-133221110D01*
X170666734Y-133227002D01*
X170669672Y-133233212D01*
X170671986Y-133239680D01*
X170673655Y-133246344D01*
X170674663Y-133253139D01*
X170675000Y-133260000D01*
X170675000Y-133400000D01*
X170674663Y-133406861D01*
X170673655Y-133413656D01*
X170671986Y-133420320D01*
X170669672Y-133426788D01*
X170666734Y-133432998D01*
X170663203Y-133438890D01*
X170659111Y-133444408D01*
X170654497Y-133449497D01*
X170649408Y-133454111D01*
X170643890Y-133458203D01*
X170637998Y-133461734D01*
X170631788Y-133464672D01*
X170625320Y-133466986D01*
X170618656Y-133468655D01*
X170611861Y-133469663D01*
X170605000Y-133470000D01*
X169945000Y-133470000D01*
X169938139Y-133469663D01*
X169931344Y-133468655D01*
X169924680Y-133466986D01*
X169918212Y-133464672D01*
X169912002Y-133461734D01*
X169906110Y-133458203D01*
X169900592Y-133454111D01*
X169895503Y-133449497D01*
X169890889Y-133444408D01*
X169886797Y-133438890D01*
X169883266Y-133432998D01*
X169880328Y-133426788D01*
X169878014Y-133420320D01*
X169876345Y-133413656D01*
X169875337Y-133406861D01*
X169875000Y-133400000D01*
X169875000Y-133260000D01*
X169875337Y-133253139D01*
X169876345Y-133246344D01*
X169878014Y-133239680D01*
X169880328Y-133233212D01*
X169883266Y-133227002D01*
X169886797Y-133221110D01*
X169890889Y-133215592D01*
X169895503Y-133210503D01*
X169900592Y-133205889D01*
X169906110Y-133201797D01*
X169912002Y-133198266D01*
X169918212Y-133195328D01*
X169924680Y-133193014D01*
X169931344Y-133191345D01*
X169938139Y-133190337D01*
X169945000Y-133190000D01*
X170605000Y-133190000D01*
X170611861Y-133190337D01*
X170611861Y-133190337D01*
G37*
D20*
X170275000Y-133330000D03*
D10*
G36*
X169601861Y-133680337D02*
X169608656Y-133681345D01*
X169615320Y-133683014D01*
X169621788Y-133685328D01*
X169627998Y-133688266D01*
X169633890Y-133691797D01*
X169639408Y-133695889D01*
X169644497Y-133700503D01*
X169649111Y-133705592D01*
X169653203Y-133711110D01*
X169656734Y-133717002D01*
X169659672Y-133723212D01*
X169661986Y-133729680D01*
X169663655Y-133736344D01*
X169664663Y-133743139D01*
X169665000Y-133750000D01*
X169665000Y-134410000D01*
X169664663Y-134416861D01*
X169663655Y-134423656D01*
X169661986Y-134430320D01*
X169659672Y-134436788D01*
X169656734Y-134442998D01*
X169653203Y-134448890D01*
X169649111Y-134454408D01*
X169644497Y-134459497D01*
X169639408Y-134464111D01*
X169633890Y-134468203D01*
X169627998Y-134471734D01*
X169621788Y-134474672D01*
X169615320Y-134476986D01*
X169608656Y-134478655D01*
X169601861Y-134479663D01*
X169595000Y-134480000D01*
X169455000Y-134480000D01*
X169448139Y-134479663D01*
X169441344Y-134478655D01*
X169434680Y-134476986D01*
X169428212Y-134474672D01*
X169422002Y-134471734D01*
X169416110Y-134468203D01*
X169410592Y-134464111D01*
X169405503Y-134459497D01*
X169400889Y-134454408D01*
X169396797Y-134448890D01*
X169393266Y-134442998D01*
X169390328Y-134436788D01*
X169388014Y-134430320D01*
X169386345Y-134423656D01*
X169385337Y-134416861D01*
X169385000Y-134410000D01*
X169385000Y-133750000D01*
X169385337Y-133743139D01*
X169386345Y-133736344D01*
X169388014Y-133729680D01*
X169390328Y-133723212D01*
X169393266Y-133717002D01*
X169396797Y-133711110D01*
X169400889Y-133705592D01*
X169405503Y-133700503D01*
X169410592Y-133695889D01*
X169416110Y-133691797D01*
X169422002Y-133688266D01*
X169428212Y-133685328D01*
X169434680Y-133683014D01*
X169441344Y-133681345D01*
X169448139Y-133680337D01*
X169455000Y-133680000D01*
X169595000Y-133680000D01*
X169601861Y-133680337D01*
X169601861Y-133680337D01*
G37*
D20*
X169525000Y-134080000D03*
D10*
G36*
X169101861Y-133680337D02*
X169108656Y-133681345D01*
X169115320Y-133683014D01*
X169121788Y-133685328D01*
X169127998Y-133688266D01*
X169133890Y-133691797D01*
X169139408Y-133695889D01*
X169144497Y-133700503D01*
X169149111Y-133705592D01*
X169153203Y-133711110D01*
X169156734Y-133717002D01*
X169159672Y-133723212D01*
X169161986Y-133729680D01*
X169163655Y-133736344D01*
X169164663Y-133743139D01*
X169165000Y-133750000D01*
X169165000Y-134410000D01*
X169164663Y-134416861D01*
X169163655Y-134423656D01*
X169161986Y-134430320D01*
X169159672Y-134436788D01*
X169156734Y-134442998D01*
X169153203Y-134448890D01*
X169149111Y-134454408D01*
X169144497Y-134459497D01*
X169139408Y-134464111D01*
X169133890Y-134468203D01*
X169127998Y-134471734D01*
X169121788Y-134474672D01*
X169115320Y-134476986D01*
X169108656Y-134478655D01*
X169101861Y-134479663D01*
X169095000Y-134480000D01*
X168955000Y-134480000D01*
X168948139Y-134479663D01*
X168941344Y-134478655D01*
X168934680Y-134476986D01*
X168928212Y-134474672D01*
X168922002Y-134471734D01*
X168916110Y-134468203D01*
X168910592Y-134464111D01*
X168905503Y-134459497D01*
X168900889Y-134454408D01*
X168896797Y-134448890D01*
X168893266Y-134442998D01*
X168890328Y-134436788D01*
X168888014Y-134430320D01*
X168886345Y-134423656D01*
X168885337Y-134416861D01*
X168885000Y-134410000D01*
X168885000Y-133750000D01*
X168885337Y-133743139D01*
X168886345Y-133736344D01*
X168888014Y-133729680D01*
X168890328Y-133723212D01*
X168893266Y-133717002D01*
X168896797Y-133711110D01*
X168900889Y-133705592D01*
X168905503Y-133700503D01*
X168910592Y-133695889D01*
X168916110Y-133691797D01*
X168922002Y-133688266D01*
X168928212Y-133685328D01*
X168934680Y-133683014D01*
X168941344Y-133681345D01*
X168948139Y-133680337D01*
X168955000Y-133680000D01*
X169095000Y-133680000D01*
X169101861Y-133680337D01*
X169101861Y-133680337D01*
G37*
D20*
X169025000Y-134080000D03*
D10*
G36*
X168601861Y-133680337D02*
X168608656Y-133681345D01*
X168615320Y-133683014D01*
X168621788Y-133685328D01*
X168627998Y-133688266D01*
X168633890Y-133691797D01*
X168639408Y-133695889D01*
X168644497Y-133700503D01*
X168649111Y-133705592D01*
X168653203Y-133711110D01*
X168656734Y-133717002D01*
X168659672Y-133723212D01*
X168661986Y-133729680D01*
X168663655Y-133736344D01*
X168664663Y-133743139D01*
X168665000Y-133750000D01*
X168665000Y-134410000D01*
X168664663Y-134416861D01*
X168663655Y-134423656D01*
X168661986Y-134430320D01*
X168659672Y-134436788D01*
X168656734Y-134442998D01*
X168653203Y-134448890D01*
X168649111Y-134454408D01*
X168644497Y-134459497D01*
X168639408Y-134464111D01*
X168633890Y-134468203D01*
X168627998Y-134471734D01*
X168621788Y-134474672D01*
X168615320Y-134476986D01*
X168608656Y-134478655D01*
X168601861Y-134479663D01*
X168595000Y-134480000D01*
X168455000Y-134480000D01*
X168448139Y-134479663D01*
X168441344Y-134478655D01*
X168434680Y-134476986D01*
X168428212Y-134474672D01*
X168422002Y-134471734D01*
X168416110Y-134468203D01*
X168410592Y-134464111D01*
X168405503Y-134459497D01*
X168400889Y-134454408D01*
X168396797Y-134448890D01*
X168393266Y-134442998D01*
X168390328Y-134436788D01*
X168388014Y-134430320D01*
X168386345Y-134423656D01*
X168385337Y-134416861D01*
X168385000Y-134410000D01*
X168385000Y-133750000D01*
X168385337Y-133743139D01*
X168386345Y-133736344D01*
X168388014Y-133729680D01*
X168390328Y-133723212D01*
X168393266Y-133717002D01*
X168396797Y-133711110D01*
X168400889Y-133705592D01*
X168405503Y-133700503D01*
X168410592Y-133695889D01*
X168416110Y-133691797D01*
X168422002Y-133688266D01*
X168428212Y-133685328D01*
X168434680Y-133683014D01*
X168441344Y-133681345D01*
X168448139Y-133680337D01*
X168455000Y-133680000D01*
X168595000Y-133680000D01*
X168601861Y-133680337D01*
X168601861Y-133680337D01*
G37*
D20*
X168525000Y-134080000D03*
D10*
G36*
X168101861Y-133680337D02*
X168108656Y-133681345D01*
X168115320Y-133683014D01*
X168121788Y-133685328D01*
X168127998Y-133688266D01*
X168133890Y-133691797D01*
X168139408Y-133695889D01*
X168144497Y-133700503D01*
X168149111Y-133705592D01*
X168153203Y-133711110D01*
X168156734Y-133717002D01*
X168159672Y-133723212D01*
X168161986Y-133729680D01*
X168163655Y-133736344D01*
X168164663Y-133743139D01*
X168165000Y-133750000D01*
X168165000Y-134410000D01*
X168164663Y-134416861D01*
X168163655Y-134423656D01*
X168161986Y-134430320D01*
X168159672Y-134436788D01*
X168156734Y-134442998D01*
X168153203Y-134448890D01*
X168149111Y-134454408D01*
X168144497Y-134459497D01*
X168139408Y-134464111D01*
X168133890Y-134468203D01*
X168127998Y-134471734D01*
X168121788Y-134474672D01*
X168115320Y-134476986D01*
X168108656Y-134478655D01*
X168101861Y-134479663D01*
X168095000Y-134480000D01*
X167955000Y-134480000D01*
X167948139Y-134479663D01*
X167941344Y-134478655D01*
X167934680Y-134476986D01*
X167928212Y-134474672D01*
X167922002Y-134471734D01*
X167916110Y-134468203D01*
X167910592Y-134464111D01*
X167905503Y-134459497D01*
X167900889Y-134454408D01*
X167896797Y-134448890D01*
X167893266Y-134442998D01*
X167890328Y-134436788D01*
X167888014Y-134430320D01*
X167886345Y-134423656D01*
X167885337Y-134416861D01*
X167885000Y-134410000D01*
X167885000Y-133750000D01*
X167885337Y-133743139D01*
X167886345Y-133736344D01*
X167888014Y-133729680D01*
X167890328Y-133723212D01*
X167893266Y-133717002D01*
X167896797Y-133711110D01*
X167900889Y-133705592D01*
X167905503Y-133700503D01*
X167910592Y-133695889D01*
X167916110Y-133691797D01*
X167922002Y-133688266D01*
X167928212Y-133685328D01*
X167934680Y-133683014D01*
X167941344Y-133681345D01*
X167948139Y-133680337D01*
X167955000Y-133680000D01*
X168095000Y-133680000D01*
X168101861Y-133680337D01*
X168101861Y-133680337D01*
G37*
D20*
X168025000Y-134080000D03*
D10*
G36*
X167601861Y-133680337D02*
X167608656Y-133681345D01*
X167615320Y-133683014D01*
X167621788Y-133685328D01*
X167627998Y-133688266D01*
X167633890Y-133691797D01*
X167639408Y-133695889D01*
X167644497Y-133700503D01*
X167649111Y-133705592D01*
X167653203Y-133711110D01*
X167656734Y-133717002D01*
X167659672Y-133723212D01*
X167661986Y-133729680D01*
X167663655Y-133736344D01*
X167664663Y-133743139D01*
X167665000Y-133750000D01*
X167665000Y-134410000D01*
X167664663Y-134416861D01*
X167663655Y-134423656D01*
X167661986Y-134430320D01*
X167659672Y-134436788D01*
X167656734Y-134442998D01*
X167653203Y-134448890D01*
X167649111Y-134454408D01*
X167644497Y-134459497D01*
X167639408Y-134464111D01*
X167633890Y-134468203D01*
X167627998Y-134471734D01*
X167621788Y-134474672D01*
X167615320Y-134476986D01*
X167608656Y-134478655D01*
X167601861Y-134479663D01*
X167595000Y-134480000D01*
X167455000Y-134480000D01*
X167448139Y-134479663D01*
X167441344Y-134478655D01*
X167434680Y-134476986D01*
X167428212Y-134474672D01*
X167422002Y-134471734D01*
X167416110Y-134468203D01*
X167410592Y-134464111D01*
X167405503Y-134459497D01*
X167400889Y-134454408D01*
X167396797Y-134448890D01*
X167393266Y-134442998D01*
X167390328Y-134436788D01*
X167388014Y-134430320D01*
X167386345Y-134423656D01*
X167385337Y-134416861D01*
X167385000Y-134410000D01*
X167385000Y-133750000D01*
X167385337Y-133743139D01*
X167386345Y-133736344D01*
X167388014Y-133729680D01*
X167390328Y-133723212D01*
X167393266Y-133717002D01*
X167396797Y-133711110D01*
X167400889Y-133705592D01*
X167405503Y-133700503D01*
X167410592Y-133695889D01*
X167416110Y-133691797D01*
X167422002Y-133688266D01*
X167428212Y-133685328D01*
X167434680Y-133683014D01*
X167441344Y-133681345D01*
X167448139Y-133680337D01*
X167455000Y-133680000D01*
X167595000Y-133680000D01*
X167601861Y-133680337D01*
X167601861Y-133680337D01*
G37*
D20*
X167525000Y-134080000D03*
D10*
G36*
X167101861Y-133680337D02*
X167108656Y-133681345D01*
X167115320Y-133683014D01*
X167121788Y-133685328D01*
X167127998Y-133688266D01*
X167133890Y-133691797D01*
X167139408Y-133695889D01*
X167144497Y-133700503D01*
X167149111Y-133705592D01*
X167153203Y-133711110D01*
X167156734Y-133717002D01*
X167159672Y-133723212D01*
X167161986Y-133729680D01*
X167163655Y-133736344D01*
X167164663Y-133743139D01*
X167165000Y-133750000D01*
X167165000Y-134410000D01*
X167164663Y-134416861D01*
X167163655Y-134423656D01*
X167161986Y-134430320D01*
X167159672Y-134436788D01*
X167156734Y-134442998D01*
X167153203Y-134448890D01*
X167149111Y-134454408D01*
X167144497Y-134459497D01*
X167139408Y-134464111D01*
X167133890Y-134468203D01*
X167127998Y-134471734D01*
X167121788Y-134474672D01*
X167115320Y-134476986D01*
X167108656Y-134478655D01*
X167101861Y-134479663D01*
X167095000Y-134480000D01*
X166955000Y-134480000D01*
X166948139Y-134479663D01*
X166941344Y-134478655D01*
X166934680Y-134476986D01*
X166928212Y-134474672D01*
X166922002Y-134471734D01*
X166916110Y-134468203D01*
X166910592Y-134464111D01*
X166905503Y-134459497D01*
X166900889Y-134454408D01*
X166896797Y-134448890D01*
X166893266Y-134442998D01*
X166890328Y-134436788D01*
X166888014Y-134430320D01*
X166886345Y-134423656D01*
X166885337Y-134416861D01*
X166885000Y-134410000D01*
X166885000Y-133750000D01*
X166885337Y-133743139D01*
X166886345Y-133736344D01*
X166888014Y-133729680D01*
X166890328Y-133723212D01*
X166893266Y-133717002D01*
X166896797Y-133711110D01*
X166900889Y-133705592D01*
X166905503Y-133700503D01*
X166910592Y-133695889D01*
X166916110Y-133691797D01*
X166922002Y-133688266D01*
X166928212Y-133685328D01*
X166934680Y-133683014D01*
X166941344Y-133681345D01*
X166948139Y-133680337D01*
X166955000Y-133680000D01*
X167095000Y-133680000D01*
X167101861Y-133680337D01*
X167101861Y-133680337D01*
G37*
D20*
X167025000Y-134080000D03*
D10*
G36*
X166611861Y-133190337D02*
X166618656Y-133191345D01*
X166625320Y-133193014D01*
X166631788Y-133195328D01*
X166637998Y-133198266D01*
X166643890Y-133201797D01*
X166649408Y-133205889D01*
X166654497Y-133210503D01*
X166659111Y-133215592D01*
X166663203Y-133221110D01*
X166666734Y-133227002D01*
X166669672Y-133233212D01*
X166671986Y-133239680D01*
X166673655Y-133246344D01*
X166674663Y-133253139D01*
X166675000Y-133260000D01*
X166675000Y-133400000D01*
X166674663Y-133406861D01*
X166673655Y-133413656D01*
X166671986Y-133420320D01*
X166669672Y-133426788D01*
X166666734Y-133432998D01*
X166663203Y-133438890D01*
X166659111Y-133444408D01*
X166654497Y-133449497D01*
X166649408Y-133454111D01*
X166643890Y-133458203D01*
X166637998Y-133461734D01*
X166631788Y-133464672D01*
X166625320Y-133466986D01*
X166618656Y-133468655D01*
X166611861Y-133469663D01*
X166605000Y-133470000D01*
X165945000Y-133470000D01*
X165938139Y-133469663D01*
X165931344Y-133468655D01*
X165924680Y-133466986D01*
X165918212Y-133464672D01*
X165912002Y-133461734D01*
X165906110Y-133458203D01*
X165900592Y-133454111D01*
X165895503Y-133449497D01*
X165890889Y-133444408D01*
X165886797Y-133438890D01*
X165883266Y-133432998D01*
X165880328Y-133426788D01*
X165878014Y-133420320D01*
X165876345Y-133413656D01*
X165875337Y-133406861D01*
X165875000Y-133400000D01*
X165875000Y-133260000D01*
X165875337Y-133253139D01*
X165876345Y-133246344D01*
X165878014Y-133239680D01*
X165880328Y-133233212D01*
X165883266Y-133227002D01*
X165886797Y-133221110D01*
X165890889Y-133215592D01*
X165895503Y-133210503D01*
X165900592Y-133205889D01*
X165906110Y-133201797D01*
X165912002Y-133198266D01*
X165918212Y-133195328D01*
X165924680Y-133193014D01*
X165931344Y-133191345D01*
X165938139Y-133190337D01*
X165945000Y-133190000D01*
X166605000Y-133190000D01*
X166611861Y-133190337D01*
X166611861Y-133190337D01*
G37*
D20*
X166275000Y-133330000D03*
D10*
G36*
X166611861Y-132690337D02*
X166618656Y-132691345D01*
X166625320Y-132693014D01*
X166631788Y-132695328D01*
X166637998Y-132698266D01*
X166643890Y-132701797D01*
X166649408Y-132705889D01*
X166654497Y-132710503D01*
X166659111Y-132715592D01*
X166663203Y-132721110D01*
X166666734Y-132727002D01*
X166669672Y-132733212D01*
X166671986Y-132739680D01*
X166673655Y-132746344D01*
X166674663Y-132753139D01*
X166675000Y-132760000D01*
X166675000Y-132900000D01*
X166674663Y-132906861D01*
X166673655Y-132913656D01*
X166671986Y-132920320D01*
X166669672Y-132926788D01*
X166666734Y-132932998D01*
X166663203Y-132938890D01*
X166659111Y-132944408D01*
X166654497Y-132949497D01*
X166649408Y-132954111D01*
X166643890Y-132958203D01*
X166637998Y-132961734D01*
X166631788Y-132964672D01*
X166625320Y-132966986D01*
X166618656Y-132968655D01*
X166611861Y-132969663D01*
X166605000Y-132970000D01*
X165945000Y-132970000D01*
X165938139Y-132969663D01*
X165931344Y-132968655D01*
X165924680Y-132966986D01*
X165918212Y-132964672D01*
X165912002Y-132961734D01*
X165906110Y-132958203D01*
X165900592Y-132954111D01*
X165895503Y-132949497D01*
X165890889Y-132944408D01*
X165886797Y-132938890D01*
X165883266Y-132932998D01*
X165880328Y-132926788D01*
X165878014Y-132920320D01*
X165876345Y-132913656D01*
X165875337Y-132906861D01*
X165875000Y-132900000D01*
X165875000Y-132760000D01*
X165875337Y-132753139D01*
X165876345Y-132746344D01*
X165878014Y-132739680D01*
X165880328Y-132733212D01*
X165883266Y-132727002D01*
X165886797Y-132721110D01*
X165890889Y-132715592D01*
X165895503Y-132710503D01*
X165900592Y-132705889D01*
X165906110Y-132701797D01*
X165912002Y-132698266D01*
X165918212Y-132695328D01*
X165924680Y-132693014D01*
X165931344Y-132691345D01*
X165938139Y-132690337D01*
X165945000Y-132690000D01*
X166605000Y-132690000D01*
X166611861Y-132690337D01*
X166611861Y-132690337D01*
G37*
D20*
X166275000Y-132830000D03*
D10*
G36*
X166611861Y-132190337D02*
X166618656Y-132191345D01*
X166625320Y-132193014D01*
X166631788Y-132195328D01*
X166637998Y-132198266D01*
X166643890Y-132201797D01*
X166649408Y-132205889D01*
X166654497Y-132210503D01*
X166659111Y-132215592D01*
X166663203Y-132221110D01*
X166666734Y-132227002D01*
X166669672Y-132233212D01*
X166671986Y-132239680D01*
X166673655Y-132246344D01*
X166674663Y-132253139D01*
X166675000Y-132260000D01*
X166675000Y-132400000D01*
X166674663Y-132406861D01*
X166673655Y-132413656D01*
X166671986Y-132420320D01*
X166669672Y-132426788D01*
X166666734Y-132432998D01*
X166663203Y-132438890D01*
X166659111Y-132444408D01*
X166654497Y-132449497D01*
X166649408Y-132454111D01*
X166643890Y-132458203D01*
X166637998Y-132461734D01*
X166631788Y-132464672D01*
X166625320Y-132466986D01*
X166618656Y-132468655D01*
X166611861Y-132469663D01*
X166605000Y-132470000D01*
X165945000Y-132470000D01*
X165938139Y-132469663D01*
X165931344Y-132468655D01*
X165924680Y-132466986D01*
X165918212Y-132464672D01*
X165912002Y-132461734D01*
X165906110Y-132458203D01*
X165900592Y-132454111D01*
X165895503Y-132449497D01*
X165890889Y-132444408D01*
X165886797Y-132438890D01*
X165883266Y-132432998D01*
X165880328Y-132426788D01*
X165878014Y-132420320D01*
X165876345Y-132413656D01*
X165875337Y-132406861D01*
X165875000Y-132400000D01*
X165875000Y-132260000D01*
X165875337Y-132253139D01*
X165876345Y-132246344D01*
X165878014Y-132239680D01*
X165880328Y-132233212D01*
X165883266Y-132227002D01*
X165886797Y-132221110D01*
X165890889Y-132215592D01*
X165895503Y-132210503D01*
X165900592Y-132205889D01*
X165906110Y-132201797D01*
X165912002Y-132198266D01*
X165918212Y-132195328D01*
X165924680Y-132193014D01*
X165931344Y-132191345D01*
X165938139Y-132190337D01*
X165945000Y-132190000D01*
X166605000Y-132190000D01*
X166611861Y-132190337D01*
X166611861Y-132190337D01*
G37*
D20*
X166275000Y-132330000D03*
D10*
G36*
X166611861Y-131690337D02*
X166618656Y-131691345D01*
X166625320Y-131693014D01*
X166631788Y-131695328D01*
X166637998Y-131698266D01*
X166643890Y-131701797D01*
X166649408Y-131705889D01*
X166654497Y-131710503D01*
X166659111Y-131715592D01*
X166663203Y-131721110D01*
X166666734Y-131727002D01*
X166669672Y-131733212D01*
X166671986Y-131739680D01*
X166673655Y-131746344D01*
X166674663Y-131753139D01*
X166675000Y-131760000D01*
X166675000Y-131900000D01*
X166674663Y-131906861D01*
X166673655Y-131913656D01*
X166671986Y-131920320D01*
X166669672Y-131926788D01*
X166666734Y-131932998D01*
X166663203Y-131938890D01*
X166659111Y-131944408D01*
X166654497Y-131949497D01*
X166649408Y-131954111D01*
X166643890Y-131958203D01*
X166637998Y-131961734D01*
X166631788Y-131964672D01*
X166625320Y-131966986D01*
X166618656Y-131968655D01*
X166611861Y-131969663D01*
X166605000Y-131970000D01*
X165945000Y-131970000D01*
X165938139Y-131969663D01*
X165931344Y-131968655D01*
X165924680Y-131966986D01*
X165918212Y-131964672D01*
X165912002Y-131961734D01*
X165906110Y-131958203D01*
X165900592Y-131954111D01*
X165895503Y-131949497D01*
X165890889Y-131944408D01*
X165886797Y-131938890D01*
X165883266Y-131932998D01*
X165880328Y-131926788D01*
X165878014Y-131920320D01*
X165876345Y-131913656D01*
X165875337Y-131906861D01*
X165875000Y-131900000D01*
X165875000Y-131760000D01*
X165875337Y-131753139D01*
X165876345Y-131746344D01*
X165878014Y-131739680D01*
X165880328Y-131733212D01*
X165883266Y-131727002D01*
X165886797Y-131721110D01*
X165890889Y-131715592D01*
X165895503Y-131710503D01*
X165900592Y-131705889D01*
X165906110Y-131701797D01*
X165912002Y-131698266D01*
X165918212Y-131695328D01*
X165924680Y-131693014D01*
X165931344Y-131691345D01*
X165938139Y-131690337D01*
X165945000Y-131690000D01*
X166605000Y-131690000D01*
X166611861Y-131690337D01*
X166611861Y-131690337D01*
G37*
D20*
X166275000Y-131830000D03*
D10*
G36*
X166611861Y-131190337D02*
X166618656Y-131191345D01*
X166625320Y-131193014D01*
X166631788Y-131195328D01*
X166637998Y-131198266D01*
X166643890Y-131201797D01*
X166649408Y-131205889D01*
X166654497Y-131210503D01*
X166659111Y-131215592D01*
X166663203Y-131221110D01*
X166666734Y-131227002D01*
X166669672Y-131233212D01*
X166671986Y-131239680D01*
X166673655Y-131246344D01*
X166674663Y-131253139D01*
X166675000Y-131260000D01*
X166675000Y-131400000D01*
X166674663Y-131406861D01*
X166673655Y-131413656D01*
X166671986Y-131420320D01*
X166669672Y-131426788D01*
X166666734Y-131432998D01*
X166663203Y-131438890D01*
X166659111Y-131444408D01*
X166654497Y-131449497D01*
X166649408Y-131454111D01*
X166643890Y-131458203D01*
X166637998Y-131461734D01*
X166631788Y-131464672D01*
X166625320Y-131466986D01*
X166618656Y-131468655D01*
X166611861Y-131469663D01*
X166605000Y-131470000D01*
X165945000Y-131470000D01*
X165938139Y-131469663D01*
X165931344Y-131468655D01*
X165924680Y-131466986D01*
X165918212Y-131464672D01*
X165912002Y-131461734D01*
X165906110Y-131458203D01*
X165900592Y-131454111D01*
X165895503Y-131449497D01*
X165890889Y-131444408D01*
X165886797Y-131438890D01*
X165883266Y-131432998D01*
X165880328Y-131426788D01*
X165878014Y-131420320D01*
X165876345Y-131413656D01*
X165875337Y-131406861D01*
X165875000Y-131400000D01*
X165875000Y-131260000D01*
X165875337Y-131253139D01*
X165876345Y-131246344D01*
X165878014Y-131239680D01*
X165880328Y-131233212D01*
X165883266Y-131227002D01*
X165886797Y-131221110D01*
X165890889Y-131215592D01*
X165895503Y-131210503D01*
X165900592Y-131205889D01*
X165906110Y-131201797D01*
X165912002Y-131198266D01*
X165918212Y-131195328D01*
X165924680Y-131193014D01*
X165931344Y-131191345D01*
X165938139Y-131190337D01*
X165945000Y-131190000D01*
X166605000Y-131190000D01*
X166611861Y-131190337D01*
X166611861Y-131190337D01*
G37*
D20*
X166275000Y-131330000D03*
D10*
G36*
X166611861Y-130690337D02*
X166618656Y-130691345D01*
X166625320Y-130693014D01*
X166631788Y-130695328D01*
X166637998Y-130698266D01*
X166643890Y-130701797D01*
X166649408Y-130705889D01*
X166654497Y-130710503D01*
X166659111Y-130715592D01*
X166663203Y-130721110D01*
X166666734Y-130727002D01*
X166669672Y-130733212D01*
X166671986Y-130739680D01*
X166673655Y-130746344D01*
X166674663Y-130753139D01*
X166675000Y-130760000D01*
X166675000Y-130900000D01*
X166674663Y-130906861D01*
X166673655Y-130913656D01*
X166671986Y-130920320D01*
X166669672Y-130926788D01*
X166666734Y-130932998D01*
X166663203Y-130938890D01*
X166659111Y-130944408D01*
X166654497Y-130949497D01*
X166649408Y-130954111D01*
X166643890Y-130958203D01*
X166637998Y-130961734D01*
X166631788Y-130964672D01*
X166625320Y-130966986D01*
X166618656Y-130968655D01*
X166611861Y-130969663D01*
X166605000Y-130970000D01*
X165945000Y-130970000D01*
X165938139Y-130969663D01*
X165931344Y-130968655D01*
X165924680Y-130966986D01*
X165918212Y-130964672D01*
X165912002Y-130961734D01*
X165906110Y-130958203D01*
X165900592Y-130954111D01*
X165895503Y-130949497D01*
X165890889Y-130944408D01*
X165886797Y-130938890D01*
X165883266Y-130932998D01*
X165880328Y-130926788D01*
X165878014Y-130920320D01*
X165876345Y-130913656D01*
X165875337Y-130906861D01*
X165875000Y-130900000D01*
X165875000Y-130760000D01*
X165875337Y-130753139D01*
X165876345Y-130746344D01*
X165878014Y-130739680D01*
X165880328Y-130733212D01*
X165883266Y-130727002D01*
X165886797Y-130721110D01*
X165890889Y-130715592D01*
X165895503Y-130710503D01*
X165900592Y-130705889D01*
X165906110Y-130701797D01*
X165912002Y-130698266D01*
X165918212Y-130695328D01*
X165924680Y-130693014D01*
X165931344Y-130691345D01*
X165938139Y-130690337D01*
X165945000Y-130690000D01*
X166605000Y-130690000D01*
X166611861Y-130690337D01*
X166611861Y-130690337D01*
G37*
D20*
X166275000Y-130830000D03*
D10*
G36*
X167101861Y-129680337D02*
X167108656Y-129681345D01*
X167115320Y-129683014D01*
X167121788Y-129685328D01*
X167127998Y-129688266D01*
X167133890Y-129691797D01*
X167139408Y-129695889D01*
X167144497Y-129700503D01*
X167149111Y-129705592D01*
X167153203Y-129711110D01*
X167156734Y-129717002D01*
X167159672Y-129723212D01*
X167161986Y-129729680D01*
X167163655Y-129736344D01*
X167164663Y-129743139D01*
X167165000Y-129750000D01*
X167165000Y-130410000D01*
X167164663Y-130416861D01*
X167163655Y-130423656D01*
X167161986Y-130430320D01*
X167159672Y-130436788D01*
X167156734Y-130442998D01*
X167153203Y-130448890D01*
X167149111Y-130454408D01*
X167144497Y-130459497D01*
X167139408Y-130464111D01*
X167133890Y-130468203D01*
X167127998Y-130471734D01*
X167121788Y-130474672D01*
X167115320Y-130476986D01*
X167108656Y-130478655D01*
X167101861Y-130479663D01*
X167095000Y-130480000D01*
X166955000Y-130480000D01*
X166948139Y-130479663D01*
X166941344Y-130478655D01*
X166934680Y-130476986D01*
X166928212Y-130474672D01*
X166922002Y-130471734D01*
X166916110Y-130468203D01*
X166910592Y-130464111D01*
X166905503Y-130459497D01*
X166900889Y-130454408D01*
X166896797Y-130448890D01*
X166893266Y-130442998D01*
X166890328Y-130436788D01*
X166888014Y-130430320D01*
X166886345Y-130423656D01*
X166885337Y-130416861D01*
X166885000Y-130410000D01*
X166885000Y-129750000D01*
X166885337Y-129743139D01*
X166886345Y-129736344D01*
X166888014Y-129729680D01*
X166890328Y-129723212D01*
X166893266Y-129717002D01*
X166896797Y-129711110D01*
X166900889Y-129705592D01*
X166905503Y-129700503D01*
X166910592Y-129695889D01*
X166916110Y-129691797D01*
X166922002Y-129688266D01*
X166928212Y-129685328D01*
X166934680Y-129683014D01*
X166941344Y-129681345D01*
X166948139Y-129680337D01*
X166955000Y-129680000D01*
X167095000Y-129680000D01*
X167101861Y-129680337D01*
X167101861Y-129680337D01*
G37*
D20*
X167025000Y-130080000D03*
D10*
G36*
X167601861Y-129680337D02*
X167608656Y-129681345D01*
X167615320Y-129683014D01*
X167621788Y-129685328D01*
X167627998Y-129688266D01*
X167633890Y-129691797D01*
X167639408Y-129695889D01*
X167644497Y-129700503D01*
X167649111Y-129705592D01*
X167653203Y-129711110D01*
X167656734Y-129717002D01*
X167659672Y-129723212D01*
X167661986Y-129729680D01*
X167663655Y-129736344D01*
X167664663Y-129743139D01*
X167665000Y-129750000D01*
X167665000Y-130410000D01*
X167664663Y-130416861D01*
X167663655Y-130423656D01*
X167661986Y-130430320D01*
X167659672Y-130436788D01*
X167656734Y-130442998D01*
X167653203Y-130448890D01*
X167649111Y-130454408D01*
X167644497Y-130459497D01*
X167639408Y-130464111D01*
X167633890Y-130468203D01*
X167627998Y-130471734D01*
X167621788Y-130474672D01*
X167615320Y-130476986D01*
X167608656Y-130478655D01*
X167601861Y-130479663D01*
X167595000Y-130480000D01*
X167455000Y-130480000D01*
X167448139Y-130479663D01*
X167441344Y-130478655D01*
X167434680Y-130476986D01*
X167428212Y-130474672D01*
X167422002Y-130471734D01*
X167416110Y-130468203D01*
X167410592Y-130464111D01*
X167405503Y-130459497D01*
X167400889Y-130454408D01*
X167396797Y-130448890D01*
X167393266Y-130442998D01*
X167390328Y-130436788D01*
X167388014Y-130430320D01*
X167386345Y-130423656D01*
X167385337Y-130416861D01*
X167385000Y-130410000D01*
X167385000Y-129750000D01*
X167385337Y-129743139D01*
X167386345Y-129736344D01*
X167388014Y-129729680D01*
X167390328Y-129723212D01*
X167393266Y-129717002D01*
X167396797Y-129711110D01*
X167400889Y-129705592D01*
X167405503Y-129700503D01*
X167410592Y-129695889D01*
X167416110Y-129691797D01*
X167422002Y-129688266D01*
X167428212Y-129685328D01*
X167434680Y-129683014D01*
X167441344Y-129681345D01*
X167448139Y-129680337D01*
X167455000Y-129680000D01*
X167595000Y-129680000D01*
X167601861Y-129680337D01*
X167601861Y-129680337D01*
G37*
D20*
X167525000Y-130080000D03*
D10*
G36*
X168101861Y-129680337D02*
X168108656Y-129681345D01*
X168115320Y-129683014D01*
X168121788Y-129685328D01*
X168127998Y-129688266D01*
X168133890Y-129691797D01*
X168139408Y-129695889D01*
X168144497Y-129700503D01*
X168149111Y-129705592D01*
X168153203Y-129711110D01*
X168156734Y-129717002D01*
X168159672Y-129723212D01*
X168161986Y-129729680D01*
X168163655Y-129736344D01*
X168164663Y-129743139D01*
X168165000Y-129750000D01*
X168165000Y-130410000D01*
X168164663Y-130416861D01*
X168163655Y-130423656D01*
X168161986Y-130430320D01*
X168159672Y-130436788D01*
X168156734Y-130442998D01*
X168153203Y-130448890D01*
X168149111Y-130454408D01*
X168144497Y-130459497D01*
X168139408Y-130464111D01*
X168133890Y-130468203D01*
X168127998Y-130471734D01*
X168121788Y-130474672D01*
X168115320Y-130476986D01*
X168108656Y-130478655D01*
X168101861Y-130479663D01*
X168095000Y-130480000D01*
X167955000Y-130480000D01*
X167948139Y-130479663D01*
X167941344Y-130478655D01*
X167934680Y-130476986D01*
X167928212Y-130474672D01*
X167922002Y-130471734D01*
X167916110Y-130468203D01*
X167910592Y-130464111D01*
X167905503Y-130459497D01*
X167900889Y-130454408D01*
X167896797Y-130448890D01*
X167893266Y-130442998D01*
X167890328Y-130436788D01*
X167888014Y-130430320D01*
X167886345Y-130423656D01*
X167885337Y-130416861D01*
X167885000Y-130410000D01*
X167885000Y-129750000D01*
X167885337Y-129743139D01*
X167886345Y-129736344D01*
X167888014Y-129729680D01*
X167890328Y-129723212D01*
X167893266Y-129717002D01*
X167896797Y-129711110D01*
X167900889Y-129705592D01*
X167905503Y-129700503D01*
X167910592Y-129695889D01*
X167916110Y-129691797D01*
X167922002Y-129688266D01*
X167928212Y-129685328D01*
X167934680Y-129683014D01*
X167941344Y-129681345D01*
X167948139Y-129680337D01*
X167955000Y-129680000D01*
X168095000Y-129680000D01*
X168101861Y-129680337D01*
X168101861Y-129680337D01*
G37*
D20*
X168025000Y-130080000D03*
D10*
G36*
X168601861Y-129680337D02*
X168608656Y-129681345D01*
X168615320Y-129683014D01*
X168621788Y-129685328D01*
X168627998Y-129688266D01*
X168633890Y-129691797D01*
X168639408Y-129695889D01*
X168644497Y-129700503D01*
X168649111Y-129705592D01*
X168653203Y-129711110D01*
X168656734Y-129717002D01*
X168659672Y-129723212D01*
X168661986Y-129729680D01*
X168663655Y-129736344D01*
X168664663Y-129743139D01*
X168665000Y-129750000D01*
X168665000Y-130410000D01*
X168664663Y-130416861D01*
X168663655Y-130423656D01*
X168661986Y-130430320D01*
X168659672Y-130436788D01*
X168656734Y-130442998D01*
X168653203Y-130448890D01*
X168649111Y-130454408D01*
X168644497Y-130459497D01*
X168639408Y-130464111D01*
X168633890Y-130468203D01*
X168627998Y-130471734D01*
X168621788Y-130474672D01*
X168615320Y-130476986D01*
X168608656Y-130478655D01*
X168601861Y-130479663D01*
X168595000Y-130480000D01*
X168455000Y-130480000D01*
X168448139Y-130479663D01*
X168441344Y-130478655D01*
X168434680Y-130476986D01*
X168428212Y-130474672D01*
X168422002Y-130471734D01*
X168416110Y-130468203D01*
X168410592Y-130464111D01*
X168405503Y-130459497D01*
X168400889Y-130454408D01*
X168396797Y-130448890D01*
X168393266Y-130442998D01*
X168390328Y-130436788D01*
X168388014Y-130430320D01*
X168386345Y-130423656D01*
X168385337Y-130416861D01*
X168385000Y-130410000D01*
X168385000Y-129750000D01*
X168385337Y-129743139D01*
X168386345Y-129736344D01*
X168388014Y-129729680D01*
X168390328Y-129723212D01*
X168393266Y-129717002D01*
X168396797Y-129711110D01*
X168400889Y-129705592D01*
X168405503Y-129700503D01*
X168410592Y-129695889D01*
X168416110Y-129691797D01*
X168422002Y-129688266D01*
X168428212Y-129685328D01*
X168434680Y-129683014D01*
X168441344Y-129681345D01*
X168448139Y-129680337D01*
X168455000Y-129680000D01*
X168595000Y-129680000D01*
X168601861Y-129680337D01*
X168601861Y-129680337D01*
G37*
D20*
X168525000Y-130080000D03*
D10*
G36*
X169101861Y-129680337D02*
X169108656Y-129681345D01*
X169115320Y-129683014D01*
X169121788Y-129685328D01*
X169127998Y-129688266D01*
X169133890Y-129691797D01*
X169139408Y-129695889D01*
X169144497Y-129700503D01*
X169149111Y-129705592D01*
X169153203Y-129711110D01*
X169156734Y-129717002D01*
X169159672Y-129723212D01*
X169161986Y-129729680D01*
X169163655Y-129736344D01*
X169164663Y-129743139D01*
X169165000Y-129750000D01*
X169165000Y-130410000D01*
X169164663Y-130416861D01*
X169163655Y-130423656D01*
X169161986Y-130430320D01*
X169159672Y-130436788D01*
X169156734Y-130442998D01*
X169153203Y-130448890D01*
X169149111Y-130454408D01*
X169144497Y-130459497D01*
X169139408Y-130464111D01*
X169133890Y-130468203D01*
X169127998Y-130471734D01*
X169121788Y-130474672D01*
X169115320Y-130476986D01*
X169108656Y-130478655D01*
X169101861Y-130479663D01*
X169095000Y-130480000D01*
X168955000Y-130480000D01*
X168948139Y-130479663D01*
X168941344Y-130478655D01*
X168934680Y-130476986D01*
X168928212Y-130474672D01*
X168922002Y-130471734D01*
X168916110Y-130468203D01*
X168910592Y-130464111D01*
X168905503Y-130459497D01*
X168900889Y-130454408D01*
X168896797Y-130448890D01*
X168893266Y-130442998D01*
X168890328Y-130436788D01*
X168888014Y-130430320D01*
X168886345Y-130423656D01*
X168885337Y-130416861D01*
X168885000Y-130410000D01*
X168885000Y-129750000D01*
X168885337Y-129743139D01*
X168886345Y-129736344D01*
X168888014Y-129729680D01*
X168890328Y-129723212D01*
X168893266Y-129717002D01*
X168896797Y-129711110D01*
X168900889Y-129705592D01*
X168905503Y-129700503D01*
X168910592Y-129695889D01*
X168916110Y-129691797D01*
X168922002Y-129688266D01*
X168928212Y-129685328D01*
X168934680Y-129683014D01*
X168941344Y-129681345D01*
X168948139Y-129680337D01*
X168955000Y-129680000D01*
X169095000Y-129680000D01*
X169101861Y-129680337D01*
X169101861Y-129680337D01*
G37*
D20*
X169025000Y-130080000D03*
D10*
G36*
X169601861Y-129680337D02*
X169608656Y-129681345D01*
X169615320Y-129683014D01*
X169621788Y-129685328D01*
X169627998Y-129688266D01*
X169633890Y-129691797D01*
X169639408Y-129695889D01*
X169644497Y-129700503D01*
X169649111Y-129705592D01*
X169653203Y-129711110D01*
X169656734Y-129717002D01*
X169659672Y-129723212D01*
X169661986Y-129729680D01*
X169663655Y-129736344D01*
X169664663Y-129743139D01*
X169665000Y-129750000D01*
X169665000Y-130410000D01*
X169664663Y-130416861D01*
X169663655Y-130423656D01*
X169661986Y-130430320D01*
X169659672Y-130436788D01*
X169656734Y-130442998D01*
X169653203Y-130448890D01*
X169649111Y-130454408D01*
X169644497Y-130459497D01*
X169639408Y-130464111D01*
X169633890Y-130468203D01*
X169627998Y-130471734D01*
X169621788Y-130474672D01*
X169615320Y-130476986D01*
X169608656Y-130478655D01*
X169601861Y-130479663D01*
X169595000Y-130480000D01*
X169455000Y-130480000D01*
X169448139Y-130479663D01*
X169441344Y-130478655D01*
X169434680Y-130476986D01*
X169428212Y-130474672D01*
X169422002Y-130471734D01*
X169416110Y-130468203D01*
X169410592Y-130464111D01*
X169405503Y-130459497D01*
X169400889Y-130454408D01*
X169396797Y-130448890D01*
X169393266Y-130442998D01*
X169390328Y-130436788D01*
X169388014Y-130430320D01*
X169386345Y-130423656D01*
X169385337Y-130416861D01*
X169385000Y-130410000D01*
X169385000Y-129750000D01*
X169385337Y-129743139D01*
X169386345Y-129736344D01*
X169388014Y-129729680D01*
X169390328Y-129723212D01*
X169393266Y-129717002D01*
X169396797Y-129711110D01*
X169400889Y-129705592D01*
X169405503Y-129700503D01*
X169410592Y-129695889D01*
X169416110Y-129691797D01*
X169422002Y-129688266D01*
X169428212Y-129685328D01*
X169434680Y-129683014D01*
X169441344Y-129681345D01*
X169448139Y-129680337D01*
X169455000Y-129680000D01*
X169595000Y-129680000D01*
X169601861Y-129680337D01*
X169601861Y-129680337D01*
G37*
D20*
X169525000Y-130080000D03*
G04 #@! TD*
D17*
G04 #@! TO.C,C10*
X165867080Y-127790840D03*
X165867080Y-129490840D03*
G04 #@! TD*
G04 #@! TO.C,R9*
X173654720Y-134067920D03*
X173654720Y-132367920D03*
G04 #@! TD*
D21*
G04 #@! TO.C,X4*
X137780880Y-138678920D03*
X135380880Y-138678920D03*
G04 #@! TD*
D12*
G04 #@! TO.C,C7*
X168589960Y-137952520D03*
X168589960Y-136052520D03*
G04 #@! TD*
D22*
G04 #@! TO.C,P1*
X166390000Y-120910000D03*
X168890000Y-120910000D03*
D23*
X163640000Y-120910000D03*
X171640000Y-120910000D03*
D24*
X168940000Y-123760000D03*
X168290000Y-123760000D03*
X166990000Y-123760000D03*
X166340000Y-123760000D03*
X167640000Y-123760000D03*
G04 #@! TD*
D25*
G04 #@! TO.C,C17*
X171741200Y-125282960D03*
X170041200Y-125282960D03*
G04 #@! TD*
M02*
