G04 #@! TF.GenerationSoftware,KiCad,Pcbnew,(6.0.0-rc1-dev-1027-g90233e5ec)*
G04 #@! TF.CreationDate,2018-11-05T19:20:42+01:00*
G04 #@! TF.ProjectId,eBoard_remote_reciever,65426F6172645F72656D6F74655F7265,rev?*
G04 #@! TF.SameCoordinates,Original*
G04 #@! TF.FileFunction,Legend,Top*
G04 #@! TF.FilePolarity,Positive*
%FSLAX46Y46*%
G04 Gerber Fmt 4.6, Leading zero omitted, Abs format (unit mm)*
G04 Created by KiCad (PCBNEW (6.0.0-rc1-dev-1027-g90233e5ec)) date 05.11.2018 19.20.42*
%MOMM*%
%LPD*%
G01*
G04 APERTURE LIST*
%ADD10C,0.150000*%
%ADD11C,0.120000*%
%ADD12C,0.304800*%
%ADD13C,0.127000*%
%ADD14C,0.100000*%
%ADD15C,0.203200*%
%ADD16C,0.138988*%
%ADD17C,0.217170*%
%ADD18C,0.077216*%
%ADD19C,0.076000*%
G04 APERTURE END LIST*
D10*
X140219561Y-145781020D02*
X140219561Y-144781020D01*
X140552895Y-145495306D01*
X140886228Y-144781020D01*
X140886228Y-145781020D01*
X141505276Y-145781020D02*
X141410038Y-145733401D01*
X141362419Y-145685782D01*
X141314800Y-145590544D01*
X141314800Y-145304830D01*
X141362419Y-145209592D01*
X141410038Y-145161973D01*
X141505276Y-145114354D01*
X141648133Y-145114354D01*
X141743371Y-145161973D01*
X141790990Y-145209592D01*
X141838609Y-145304830D01*
X141838609Y-145590544D01*
X141790990Y-145685782D01*
X141743371Y-145733401D01*
X141648133Y-145781020D01*
X141505276Y-145781020D01*
X142695752Y-145114354D02*
X142695752Y-145781020D01*
X142267180Y-145114354D02*
X142267180Y-145638163D01*
X142314800Y-145733401D01*
X142410038Y-145781020D01*
X142552895Y-145781020D01*
X142648133Y-145733401D01*
X142695752Y-145685782D01*
X143171942Y-145114354D02*
X143171942Y-145781020D01*
X143171942Y-145209592D02*
X143219561Y-145161973D01*
X143314800Y-145114354D01*
X143457657Y-145114354D01*
X143552895Y-145161973D01*
X143600514Y-145257211D01*
X143600514Y-145781020D01*
X143933847Y-145114354D02*
X144314800Y-145114354D01*
X144076704Y-144781020D02*
X144076704Y-145638163D01*
X144124323Y-145733401D01*
X144219561Y-145781020D01*
X144314800Y-145781020D01*
X145076704Y-145781020D02*
X145076704Y-145257211D01*
X145029085Y-145161973D01*
X144933847Y-145114354D01*
X144743371Y-145114354D01*
X144648133Y-145161973D01*
X145076704Y-145733401D02*
X144981466Y-145781020D01*
X144743371Y-145781020D01*
X144648133Y-145733401D01*
X144600514Y-145638163D01*
X144600514Y-145542925D01*
X144648133Y-145447687D01*
X144743371Y-145400068D01*
X144981466Y-145400068D01*
X145076704Y-145352449D01*
X145552895Y-145781020D02*
X145552895Y-145114354D01*
X145552895Y-144781020D02*
X145505276Y-144828640D01*
X145552895Y-144876259D01*
X145600514Y-144828640D01*
X145552895Y-144781020D01*
X145552895Y-144876259D01*
X146029085Y-145114354D02*
X146029085Y-145781020D01*
X146029085Y-145209592D02*
X146076704Y-145161973D01*
X146171942Y-145114354D01*
X146314800Y-145114354D01*
X146410038Y-145161973D01*
X146457657Y-145257211D01*
X146457657Y-145781020D01*
X146838609Y-144781020D02*
X147505276Y-145781020D01*
X147505276Y-144781020D02*
X146838609Y-145781020D01*
D11*
G04 #@! TO.C,R10*
X169360120Y-145709421D02*
X169360120Y-146034979D01*
X170380120Y-145709421D02*
X170380120Y-146034979D01*
D12*
G04 #@! TO.C,C6*
X160914080Y-126273560D02*
X161930080Y-126273560D01*
D13*
G04 #@! TO.C,U1*
X144800000Y-136370000D02*
X144800000Y-134970000D01*
X144400000Y-136370000D02*
X144800000Y-136370000D01*
X134600000Y-136370000D02*
X134600000Y-134270000D01*
X135000000Y-136370000D02*
X134600000Y-136370000D01*
X134600000Y-125270000D02*
X134600000Y-126770000D01*
X144800000Y-120170000D02*
X144800000Y-123670000D01*
X134600000Y-120170000D02*
X144800000Y-120170000D01*
X134600000Y-123670000D02*
X134600000Y-120170000D01*
D12*
G04 #@! TO.C,C3*
X134005320Y-135996680D02*
X132989320Y-135996680D01*
D11*
G04 #@! TO.C,J2*
X172450760Y-141067480D02*
X173780760Y-141067480D01*
X173780760Y-141067480D02*
X173780760Y-142397480D01*
X173780760Y-143667480D02*
X173780760Y-148807480D01*
X171120760Y-148807480D02*
X173780760Y-148807480D01*
X171120760Y-143667480D02*
X171120760Y-148807480D01*
X171120760Y-143667480D02*
X173780760Y-143667480D01*
G04 #@! TO.C,J105*
X154613920Y-145393720D02*
X153283920Y-145393720D01*
X154613920Y-144063720D02*
X154613920Y-145393720D01*
X154613920Y-142793720D02*
X151953920Y-142793720D01*
X151953920Y-142793720D02*
X151953920Y-137653720D01*
X154613920Y-142793720D02*
X154613920Y-137653720D01*
X154613920Y-137653720D02*
X151953920Y-137653720D01*
G04 #@! TO.C,J104*
X158464560Y-145348000D02*
X157134560Y-145348000D01*
X158464560Y-144018000D02*
X158464560Y-145348000D01*
X158464560Y-142748000D02*
X155804560Y-142748000D01*
X155804560Y-142748000D02*
X155804560Y-137608000D01*
X158464560Y-142748000D02*
X158464560Y-137608000D01*
X158464560Y-137608000D02*
X155804560Y-137608000D01*
G04 #@! TO.C,J103*
X161230000Y-151190000D02*
X161230000Y-149860000D01*
X162560000Y-151190000D02*
X161230000Y-151190000D01*
X163830000Y-151190000D02*
X163830000Y-148530000D01*
X163830000Y-148530000D02*
X168970000Y-148530000D01*
X163830000Y-151190000D02*
X168970000Y-151190000D01*
X168970000Y-151190000D02*
X168970000Y-148530000D01*
G04 #@! TO.C,J102*
X157540000Y-148530000D02*
X157540000Y-149860000D01*
X156210000Y-148530000D02*
X157540000Y-148530000D01*
X154940000Y-148530000D02*
X154940000Y-151190000D01*
X154940000Y-151190000D02*
X134560000Y-151190000D01*
X154940000Y-148530000D02*
X134560000Y-148530000D01*
X134560000Y-148530000D02*
X134560000Y-151190000D01*
G04 #@! TO.C,J101*
X146696120Y-120727160D02*
X148026120Y-120727160D01*
X146696120Y-122057160D02*
X146696120Y-120727160D01*
X146696120Y-123327160D02*
X149356120Y-123327160D01*
X149356120Y-123327160D02*
X149356120Y-133547160D01*
X146696120Y-123327160D02*
X146696120Y-133547160D01*
X146696120Y-133547160D02*
X149356120Y-133547160D01*
D12*
G04 #@! TO.C,C1*
X135710880Y-141726920D02*
X134910880Y-141726920D01*
G04 #@! TO.C,C2*
X138250880Y-141726920D02*
X137450880Y-141726920D01*
D14*
G04 #@! TO.C,D1*
G36*
X156895800Y-132842000D02*
X156514800Y-133350000D01*
X157276800Y-133350000D01*
X156895800Y-132842000D01*
G37*
G36*
X156451300Y-132955500D02*
X157340300Y-132955500D01*
X157340300Y-132765000D01*
X156451300Y-132765000D01*
X156451300Y-132955500D01*
G37*
G04 #@! TO.C,D2*
G36*
X160685480Y-132974080D02*
X160304480Y-133482080D01*
X161066480Y-133482080D01*
X160685480Y-132974080D01*
G37*
G36*
X160240980Y-133087580D02*
X161129980Y-133087580D01*
X161129980Y-132897080D01*
X160240980Y-132897080D01*
X160240980Y-133087580D01*
G37*
D12*
G04 #@! TO.C,R1*
X154966720Y-132862320D02*
X155766720Y-132862320D01*
G04 #@! TO.C,R2*
X158466840Y-132933440D02*
X159266840Y-132933440D01*
G04 #@! TO.C,L2*
X132346700Y-132689600D02*
X131330700Y-132689600D01*
G04 #@! TO.C,C4*
X130336240Y-132745480D02*
X129536240Y-132745480D01*
G04 #@! TO.C,C8*
X154432000Y-126161800D02*
X155448000Y-126161800D01*
D15*
G04 #@! TO.C,U2*
X157115800Y-126648160D02*
X157115800Y-125848160D01*
X157365800Y-124598160D02*
X158965800Y-124598160D01*
X157365800Y-127898160D02*
X158965800Y-127898160D01*
D12*
G04 #@! TO.C,R5*
X163584840Y-126324360D02*
X162784840Y-126324360D01*
D15*
G04 #@! TO.C,U4*
X170484800Y-129997200D02*
G75*
G03X170484800Y-129997200I-127000J0D01*
G01*
X170275000Y-130430000D02*
X169925000Y-130080000D01*
X170275000Y-134080000D02*
X170275000Y-133730000D01*
X169925000Y-134080000D02*
X170275000Y-134080000D01*
X166275000Y-130080000D02*
X166625000Y-130080000D01*
X166275000Y-130430000D02*
X166275000Y-130080000D01*
X166625000Y-134080000D02*
X166275000Y-134080000D01*
X166275000Y-133730000D02*
X166275000Y-134080000D01*
D12*
G04 #@! TO.C,C10*
X165467080Y-128640840D02*
X166267080Y-128640840D01*
G04 #@! TO.C,R9*
X174054720Y-133217920D02*
X173254720Y-133217920D01*
D13*
G04 #@! TO.C,X4*
X137680879Y-139078919D02*
G75*
G03X137880880Y-138778920I-49899J249933D01*
G01*
X137880880Y-138478920D02*
X137880880Y-138778920D01*
X137880881Y-138478921D02*
G75*
G03X137580880Y-138278920I-250001J-50000D01*
G01*
X135580880Y-138278920D02*
X137580880Y-138278920D01*
X135580881Y-138278921D02*
G75*
G03X135280880Y-138578920I-1J-300000D01*
G01*
X135280880Y-138778920D02*
X135280880Y-138578920D01*
X135280880Y-138778920D02*
G75*
G03X135580880Y-139078920I300100J100D01*
G01*
X137680880Y-139078920D02*
X135580880Y-139078920D01*
X134980880Y-139062720D02*
X134980880Y-138261720D01*
X134980880Y-139062720D02*
G75*
G03X135297080Y-139378920I316200J0D01*
G01*
X137957280Y-139378920D02*
X135297080Y-139378920D01*
X137957280Y-139378920D02*
G75*
G03X138180880Y-139155320I0J223600D01*
G01*
X138180880Y-138261720D02*
X138180880Y-139155320D01*
X138180880Y-138261720D02*
G75*
G03X137898080Y-137978920I-282800J0D01*
G01*
X135263680Y-137978920D02*
X137898080Y-137978920D01*
X135263680Y-137978920D02*
G75*
G03X134980880Y-138261720I0J-282800D01*
G01*
D12*
G04 #@! TO.C,C7*
X169097960Y-137002520D02*
X168081960Y-137002520D01*
D10*
G04 #@! TO.C,P1*
X163890000Y-119460000D02*
X171390000Y-119460000D01*
X171390000Y-122060000D02*
X171390000Y-124060000D01*
X171390000Y-119460000D02*
X171390000Y-119760000D01*
X171390000Y-118860000D02*
X171390000Y-119460000D01*
X163890000Y-118860000D02*
X171390000Y-118860000D01*
X163890000Y-119460000D02*
X163890000Y-118860000D01*
X163890000Y-119760000D02*
X163890000Y-119460000D01*
X163890000Y-124060000D02*
X163890000Y-122060000D01*
X165940000Y-124060000D02*
X163890000Y-124060000D01*
X171390000Y-124060000D02*
X169340000Y-124060000D01*
G04 #@! TO.C,R10*
X170335200Y-149829757D02*
X169859010Y-150163090D01*
X170335200Y-150401185D02*
X169335200Y-150401185D01*
X169335200Y-150020233D01*
X169382820Y-149924995D01*
X169430439Y-149877376D01*
X169525677Y-149829757D01*
X169668534Y-149829757D01*
X169763772Y-149877376D01*
X169811391Y-149924995D01*
X169859010Y-150020233D01*
X169859010Y-150401185D01*
X170335200Y-148877376D02*
X170335200Y-149448804D01*
X170335200Y-149163090D02*
X169335200Y-149163090D01*
X169478058Y-149258328D01*
X169573296Y-149353566D01*
X169620915Y-149448804D01*
X169335200Y-148258328D02*
X169335200Y-148163090D01*
X169382820Y-148067852D01*
X169430439Y-148020233D01*
X169525677Y-147972614D01*
X169716153Y-147924995D01*
X169954248Y-147924995D01*
X170144724Y-147972614D01*
X170239962Y-148020233D01*
X170287581Y-148067852D01*
X170335200Y-148163090D01*
X170335200Y-148258328D01*
X170287581Y-148353566D01*
X170239962Y-148401185D01*
X170144724Y-148448804D01*
X169954248Y-148496423D01*
X169716153Y-148496423D01*
X169525677Y-148448804D01*
X169430439Y-148401185D01*
X169382820Y-148353566D01*
X169335200Y-148258328D01*
G04 #@! TO.C,C6*
D16*
X159863971Y-127381855D02*
X159900740Y-127418625D01*
X159937510Y-127528933D01*
X159937510Y-127602473D01*
X159900740Y-127712781D01*
X159827201Y-127786320D01*
X159753662Y-127823090D01*
X159606584Y-127859859D01*
X159496276Y-127859859D01*
X159349198Y-127823090D01*
X159275659Y-127786320D01*
X159202120Y-127712781D01*
X159165350Y-127602473D01*
X159165350Y-127528933D01*
X159202120Y-127418625D01*
X159238889Y-127381855D01*
X159165350Y-126720004D02*
X159165350Y-126867082D01*
X159202120Y-126940621D01*
X159238889Y-126977391D01*
X159349198Y-127050930D01*
X159496276Y-127087699D01*
X159790432Y-127087699D01*
X159863971Y-127050930D01*
X159900740Y-127014160D01*
X159937510Y-126940621D01*
X159937510Y-126793543D01*
X159900740Y-126720004D01*
X159863971Y-126683234D01*
X159790432Y-126646465D01*
X159606584Y-126646465D01*
X159533045Y-126683234D01*
X159496276Y-126720004D01*
X159459506Y-126793543D01*
X159459506Y-126940621D01*
X159496276Y-127014160D01*
X159533045Y-127050930D01*
X159606584Y-127087699D01*
G04 #@! TO.C,U1*
D17*
X135262422Y-118678047D02*
X135262422Y-119654738D01*
X135319874Y-119769642D01*
X135377327Y-119827095D01*
X135492231Y-119884547D01*
X135722041Y-119884547D01*
X135836946Y-119827095D01*
X135894398Y-119769642D01*
X135951850Y-119654738D01*
X135951850Y-118678047D01*
X137158350Y-119884547D02*
X136468922Y-119884547D01*
X136813636Y-119884547D02*
X136813636Y-118678047D01*
X136698731Y-118850404D01*
X136583827Y-118965309D01*
X136468922Y-119022761D01*
G04 #@! TO.C,C3*
D16*
X134088051Y-139131030D02*
X134124820Y-139167800D01*
X134161590Y-139278108D01*
X134161590Y-139351647D01*
X134124820Y-139461956D01*
X134051281Y-139535495D01*
X133977742Y-139572265D01*
X133830664Y-139609034D01*
X133720356Y-139609034D01*
X133573278Y-139572265D01*
X133499739Y-139535495D01*
X133426200Y-139461956D01*
X133389430Y-139351647D01*
X133389430Y-139278108D01*
X133426200Y-139167800D01*
X133462969Y-139131030D01*
X133389430Y-138873644D02*
X133389430Y-138395640D01*
X133683586Y-138653026D01*
X133683586Y-138542718D01*
X133720356Y-138469179D01*
X133757125Y-138432409D01*
X133830664Y-138395640D01*
X134014512Y-138395640D01*
X134088051Y-138432409D01*
X134124820Y-138469179D01*
X134161590Y-138542718D01*
X134161590Y-138763335D01*
X134124820Y-138836874D01*
X134088051Y-138873644D01*
G04 #@! TO.C,J2*
D10*
X171304626Y-149546060D02*
X171304626Y-150260346D01*
X171257007Y-150403203D01*
X171161769Y-150498441D01*
X171018912Y-150546060D01*
X170923674Y-150546060D01*
X171733198Y-149641299D02*
X171780817Y-149593680D01*
X171876055Y-149546060D01*
X172114150Y-149546060D01*
X172209388Y-149593680D01*
X172257007Y-149641299D01*
X172304626Y-149736537D01*
X172304626Y-149831775D01*
X172257007Y-149974632D01*
X171685579Y-150546060D01*
X172304626Y-150546060D01*
G04 #@! TO.C,J105*
X151998205Y-145846100D02*
X151998205Y-146560386D01*
X151950586Y-146703243D01*
X151855348Y-146798481D01*
X151712491Y-146846100D01*
X151617253Y-146846100D01*
X152998205Y-146846100D02*
X152426777Y-146846100D01*
X152712491Y-146846100D02*
X152712491Y-145846100D01*
X152617253Y-145988958D01*
X152522015Y-146084196D01*
X152426777Y-146131815D01*
X153617253Y-145846100D02*
X153712491Y-145846100D01*
X153807729Y-145893720D01*
X153855348Y-145941339D01*
X153902967Y-146036577D01*
X153950586Y-146227053D01*
X153950586Y-146465148D01*
X153902967Y-146655624D01*
X153855348Y-146750862D01*
X153807729Y-146798481D01*
X153712491Y-146846100D01*
X153617253Y-146846100D01*
X153522015Y-146798481D01*
X153474396Y-146750862D01*
X153426777Y-146655624D01*
X153379158Y-146465148D01*
X153379158Y-146227053D01*
X153426777Y-146036577D01*
X153474396Y-145941339D01*
X153522015Y-145893720D01*
X153617253Y-145846100D01*
X154855348Y-145846100D02*
X154379158Y-145846100D01*
X154331539Y-146322291D01*
X154379158Y-146274672D01*
X154474396Y-146227053D01*
X154712491Y-146227053D01*
X154807729Y-146274672D01*
X154855348Y-146322291D01*
X154902967Y-146417529D01*
X154902967Y-146655624D01*
X154855348Y-146750862D01*
X154807729Y-146798481D01*
X154712491Y-146846100D01*
X154474396Y-146846100D01*
X154379158Y-146798481D01*
X154331539Y-146750862D01*
G04 #@! TO.C,J104*
X155848845Y-145800380D02*
X155848845Y-146514666D01*
X155801226Y-146657523D01*
X155705988Y-146752761D01*
X155563131Y-146800380D01*
X155467893Y-146800380D01*
X156848845Y-146800380D02*
X156277417Y-146800380D01*
X156563131Y-146800380D02*
X156563131Y-145800380D01*
X156467893Y-145943238D01*
X156372655Y-146038476D01*
X156277417Y-146086095D01*
X157467893Y-145800380D02*
X157563131Y-145800380D01*
X157658369Y-145848000D01*
X157705988Y-145895619D01*
X157753607Y-145990857D01*
X157801226Y-146181333D01*
X157801226Y-146419428D01*
X157753607Y-146609904D01*
X157705988Y-146705142D01*
X157658369Y-146752761D01*
X157563131Y-146800380D01*
X157467893Y-146800380D01*
X157372655Y-146752761D01*
X157325036Y-146705142D01*
X157277417Y-146609904D01*
X157229798Y-146419428D01*
X157229798Y-146181333D01*
X157277417Y-145990857D01*
X157325036Y-145895619D01*
X157372655Y-145848000D01*
X157467893Y-145800380D01*
X158658369Y-146133714D02*
X158658369Y-146800380D01*
X158420274Y-145752761D02*
X158182179Y-146467047D01*
X158801226Y-146467047D01*
G04 #@! TO.C,J103*
X159682380Y-151145714D02*
X160396666Y-151145714D01*
X160539523Y-151193333D01*
X160634761Y-151288571D01*
X160682380Y-151431428D01*
X160682380Y-151526666D01*
X160682380Y-150145714D02*
X160682380Y-150717142D01*
X160682380Y-150431428D02*
X159682380Y-150431428D01*
X159825238Y-150526666D01*
X159920476Y-150621904D01*
X159968095Y-150717142D01*
X159682380Y-149526666D02*
X159682380Y-149431428D01*
X159730000Y-149336190D01*
X159777619Y-149288571D01*
X159872857Y-149240952D01*
X160063333Y-149193333D01*
X160301428Y-149193333D01*
X160491904Y-149240952D01*
X160587142Y-149288571D01*
X160634761Y-149336190D01*
X160682380Y-149431428D01*
X160682380Y-149526666D01*
X160634761Y-149621904D01*
X160587142Y-149669523D01*
X160491904Y-149717142D01*
X160301428Y-149764761D01*
X160063333Y-149764761D01*
X159872857Y-149717142D01*
X159777619Y-149669523D01*
X159730000Y-149621904D01*
X159682380Y-149526666D01*
X159682380Y-148860000D02*
X159682380Y-148240952D01*
X160063333Y-148574285D01*
X160063333Y-148431428D01*
X160110952Y-148336190D01*
X160158571Y-148288571D01*
X160253809Y-148240952D01*
X160491904Y-148240952D01*
X160587142Y-148288571D01*
X160634761Y-148336190D01*
X160682380Y-148431428D01*
X160682380Y-148717142D01*
X160634761Y-148812380D01*
X160587142Y-148860000D01*
G04 #@! TO.C,J102*
X157992380Y-151145714D02*
X158706666Y-151145714D01*
X158849523Y-151193333D01*
X158944761Y-151288571D01*
X158992380Y-151431428D01*
X158992380Y-151526666D01*
X158992380Y-150145714D02*
X158992380Y-150717142D01*
X158992380Y-150431428D02*
X157992380Y-150431428D01*
X158135238Y-150526666D01*
X158230476Y-150621904D01*
X158278095Y-150717142D01*
X157992380Y-149526666D02*
X157992380Y-149431428D01*
X158040000Y-149336190D01*
X158087619Y-149288571D01*
X158182857Y-149240952D01*
X158373333Y-149193333D01*
X158611428Y-149193333D01*
X158801904Y-149240952D01*
X158897142Y-149288571D01*
X158944761Y-149336190D01*
X158992380Y-149431428D01*
X158992380Y-149526666D01*
X158944761Y-149621904D01*
X158897142Y-149669523D01*
X158801904Y-149717142D01*
X158611428Y-149764761D01*
X158373333Y-149764761D01*
X158182857Y-149717142D01*
X158087619Y-149669523D01*
X158040000Y-149621904D01*
X157992380Y-149526666D01*
X158087619Y-148812380D02*
X158040000Y-148764761D01*
X157992380Y-148669523D01*
X157992380Y-148431428D01*
X158040000Y-148336190D01*
X158087619Y-148288571D01*
X158182857Y-148240952D01*
X158278095Y-148240952D01*
X158420952Y-148288571D01*
X158992380Y-148860000D01*
X158992380Y-148240952D01*
G04 #@! TO.C,J101*
X146740405Y-119179540D02*
X146740405Y-119893826D01*
X146692786Y-120036683D01*
X146597548Y-120131921D01*
X146454691Y-120179540D01*
X146359453Y-120179540D01*
X147740405Y-120179540D02*
X147168977Y-120179540D01*
X147454691Y-120179540D02*
X147454691Y-119179540D01*
X147359453Y-119322398D01*
X147264215Y-119417636D01*
X147168977Y-119465255D01*
X148359453Y-119179540D02*
X148454691Y-119179540D01*
X148549929Y-119227160D01*
X148597548Y-119274779D01*
X148645167Y-119370017D01*
X148692786Y-119560493D01*
X148692786Y-119798588D01*
X148645167Y-119989064D01*
X148597548Y-120084302D01*
X148549929Y-120131921D01*
X148454691Y-120179540D01*
X148359453Y-120179540D01*
X148264215Y-120131921D01*
X148216596Y-120084302D01*
X148168977Y-119989064D01*
X148121358Y-119798588D01*
X148121358Y-119560493D01*
X148168977Y-119370017D01*
X148216596Y-119274779D01*
X148264215Y-119227160D01*
X148359453Y-119179540D01*
X149645167Y-120179540D02*
X149073739Y-120179540D01*
X149359453Y-120179540D02*
X149359453Y-119179540D01*
X149264215Y-119322398D01*
X149168977Y-119417636D01*
X149073739Y-119465255D01*
G04 #@! TO.C,C1*
D16*
X134397931Y-142191730D02*
X134434700Y-142228500D01*
X134471470Y-142338808D01*
X134471470Y-142412347D01*
X134434700Y-142522656D01*
X134361161Y-142596195D01*
X134287622Y-142632965D01*
X134140544Y-142669734D01*
X134030236Y-142669734D01*
X133883158Y-142632965D01*
X133809619Y-142596195D01*
X133736080Y-142522656D01*
X133699310Y-142412347D01*
X133699310Y-142338808D01*
X133736080Y-142228500D01*
X133772849Y-142191730D01*
X134471470Y-141456340D02*
X134471470Y-141897574D01*
X134471470Y-141676957D02*
X133699310Y-141676957D01*
X133809619Y-141750496D01*
X133883158Y-141824035D01*
X133919927Y-141897574D01*
G04 #@! TO.C,C2*
X139686211Y-142217130D02*
X139722980Y-142253900D01*
X139759750Y-142364208D01*
X139759750Y-142437747D01*
X139722980Y-142548056D01*
X139649441Y-142621595D01*
X139575902Y-142658365D01*
X139428824Y-142695134D01*
X139318516Y-142695134D01*
X139171438Y-142658365D01*
X139097899Y-142621595D01*
X139024360Y-142548056D01*
X138987590Y-142437747D01*
X138987590Y-142364208D01*
X139024360Y-142253900D01*
X139061129Y-142217130D01*
X139061129Y-141922974D02*
X139024360Y-141886205D01*
X138987590Y-141812666D01*
X138987590Y-141628818D01*
X139024360Y-141555279D01*
X139061129Y-141518509D01*
X139134668Y-141481740D01*
X139208207Y-141481740D01*
X139318516Y-141518509D01*
X139759750Y-141959744D01*
X139759750Y-141481740D01*
G04 #@! TO.C,D1*
X158192409Y-133459954D02*
X158964569Y-133459954D01*
X158964569Y-133643802D01*
X158927800Y-133754111D01*
X158854260Y-133827650D01*
X158780721Y-133864419D01*
X158633643Y-133901189D01*
X158523335Y-133901189D01*
X158376257Y-133864419D01*
X158302718Y-133827650D01*
X158229179Y-133754111D01*
X158192409Y-133643802D01*
X158192409Y-133459954D01*
X158192409Y-134636579D02*
X158192409Y-134195345D01*
X158192409Y-134415962D02*
X158964569Y-134415962D01*
X158854260Y-134342423D01*
X158780721Y-134268884D01*
X158743952Y-134195345D01*
G04 #@! TO.C,D2*
X158934210Y-133157090D02*
X158162050Y-133157090D01*
X158162050Y-132973242D01*
X158198820Y-132862933D01*
X158272359Y-132789394D01*
X158345898Y-132752625D01*
X158492976Y-132715855D01*
X158603284Y-132715855D01*
X158750362Y-132752625D01*
X158823901Y-132789394D01*
X158897440Y-132862933D01*
X158934210Y-132973242D01*
X158934210Y-133157090D01*
X158235589Y-132421699D02*
X158198820Y-132384930D01*
X158162050Y-132311391D01*
X158162050Y-132127543D01*
X158198820Y-132054004D01*
X158235589Y-132017234D01*
X158309128Y-131980465D01*
X158382667Y-131980465D01*
X158492976Y-132017234D01*
X158934210Y-132458469D01*
X158934210Y-131980465D01*
G04 #@! TO.C,R1*
X159203329Y-131889509D02*
X159571024Y-131632122D01*
X159203329Y-131448274D02*
X159975489Y-131448274D01*
X159975489Y-131742431D01*
X159938720Y-131815970D01*
X159901950Y-131852739D01*
X159828411Y-131889509D01*
X159718102Y-131889509D01*
X159644563Y-131852739D01*
X159607794Y-131815970D01*
X159571024Y-131742431D01*
X159571024Y-131448274D01*
X159203329Y-132624899D02*
X159203329Y-132183665D01*
X159203329Y-132404282D02*
X159975489Y-132404282D01*
X159865180Y-132330743D01*
X159791641Y-132257204D01*
X159754872Y-132183665D01*
G04 #@! TO.C,R2*
X161433449Y-131960629D02*
X161801144Y-131703242D01*
X161433449Y-131519394D02*
X162205609Y-131519394D01*
X162205609Y-131813551D01*
X162168840Y-131887090D01*
X162132070Y-131923859D01*
X162058531Y-131960629D01*
X161948222Y-131960629D01*
X161874683Y-131923859D01*
X161837914Y-131887090D01*
X161801144Y-131813551D01*
X161801144Y-131519394D01*
X162132070Y-132254785D02*
X162168840Y-132291554D01*
X162205609Y-132365093D01*
X162205609Y-132548941D01*
X162168840Y-132622480D01*
X162132070Y-132659250D01*
X162058531Y-132696019D01*
X161984992Y-132696019D01*
X161874683Y-132659250D01*
X161433449Y-132218015D01*
X161433449Y-132696019D01*
G04 #@! TO.C,L2*
X132828090Y-130032871D02*
X132828090Y-130400566D01*
X132055930Y-130400566D01*
X132129469Y-129812254D02*
X132092700Y-129775485D01*
X132055930Y-129701946D01*
X132055930Y-129518098D01*
X132092700Y-129444559D01*
X132129469Y-129407789D01*
X132203008Y-129371020D01*
X132276547Y-129371020D01*
X132386856Y-129407789D01*
X132828090Y-129849024D01*
X132828090Y-129371020D01*
G04 #@! TO.C,C4*
X130270431Y-129971755D02*
X130307200Y-130008525D01*
X130343970Y-130118833D01*
X130343970Y-130192373D01*
X130307200Y-130302681D01*
X130233661Y-130376220D01*
X130160122Y-130412990D01*
X130013044Y-130449759D01*
X129902736Y-130449759D01*
X129755658Y-130412990D01*
X129682119Y-130376220D01*
X129608580Y-130302681D01*
X129571810Y-130192373D01*
X129571810Y-130118833D01*
X129608580Y-130008525D01*
X129645349Y-129971755D01*
X129829197Y-129309904D02*
X130343970Y-129309904D01*
X129535040Y-129493752D02*
X130086583Y-129677599D01*
X130086583Y-129199595D01*
G04 #@! TO.C,C8*
X154575691Y-127458055D02*
X154612460Y-127494825D01*
X154649230Y-127605133D01*
X154649230Y-127678673D01*
X154612460Y-127788981D01*
X154538921Y-127862520D01*
X154465382Y-127899290D01*
X154318304Y-127936059D01*
X154207996Y-127936059D01*
X154060918Y-127899290D01*
X153987379Y-127862520D01*
X153913840Y-127788981D01*
X153877070Y-127678673D01*
X153877070Y-127605133D01*
X153913840Y-127494825D01*
X153950609Y-127458055D01*
X154207996Y-127016821D02*
X154171226Y-127090360D01*
X154134457Y-127127130D01*
X154060918Y-127163899D01*
X154024148Y-127163899D01*
X153950609Y-127127130D01*
X153913840Y-127090360D01*
X153877070Y-127016821D01*
X153877070Y-126869743D01*
X153913840Y-126796204D01*
X153950609Y-126759434D01*
X154024148Y-126722665D01*
X154060918Y-126722665D01*
X154134457Y-126759434D01*
X154171226Y-126796204D01*
X154207996Y-126869743D01*
X154207996Y-127016821D01*
X154244765Y-127090360D01*
X154281535Y-127127130D01*
X154355074Y-127163899D01*
X154502152Y-127163899D01*
X154575691Y-127127130D01*
X154612460Y-127090360D01*
X154649230Y-127016821D01*
X154649230Y-126869743D01*
X154612460Y-126796204D01*
X154575691Y-126759434D01*
X154502152Y-126722665D01*
X154355074Y-126722665D01*
X154281535Y-126759434D01*
X154244765Y-126796204D01*
X154207996Y-126869743D01*
G04 #@! TO.C,U2*
X158583569Y-128434625D02*
X157958487Y-128434625D01*
X157884948Y-128471394D01*
X157848179Y-128508164D01*
X157811409Y-128581703D01*
X157811409Y-128728781D01*
X157848179Y-128802320D01*
X157884948Y-128839090D01*
X157958487Y-128875859D01*
X158583569Y-128875859D01*
X158510030Y-129206785D02*
X158546800Y-129243554D01*
X158583569Y-129317093D01*
X158583569Y-129500941D01*
X158546800Y-129574480D01*
X158510030Y-129611250D01*
X158436491Y-129648019D01*
X158362952Y-129648019D01*
X158252643Y-129611250D01*
X157811409Y-129170015D01*
X157811409Y-129648019D01*
G04 #@! TO.C,R5*
X162650230Y-127361535D02*
X162282535Y-127618922D01*
X162650230Y-127802770D02*
X161878070Y-127802770D01*
X161878070Y-127508613D01*
X161914840Y-127435074D01*
X161951609Y-127398305D01*
X162025148Y-127361535D01*
X162135457Y-127361535D01*
X162208996Y-127398305D01*
X162245765Y-127435074D01*
X162282535Y-127508613D01*
X162282535Y-127802770D01*
X161878070Y-126662914D02*
X161878070Y-127030610D01*
X162245765Y-127067379D01*
X162208996Y-127030610D01*
X162172226Y-126957071D01*
X162172226Y-126773223D01*
X162208996Y-126699684D01*
X162245765Y-126662914D01*
X162319304Y-126626145D01*
X162503152Y-126626145D01*
X162576691Y-126662914D01*
X162613460Y-126699684D01*
X162650230Y-126773223D01*
X162650230Y-126957071D01*
X162613460Y-127030610D01*
X162576691Y-127067379D01*
G04 #@! TO.C,U4*
X171038230Y-131080814D02*
X171663312Y-131080814D01*
X171736851Y-131044045D01*
X171773620Y-131007275D01*
X171810390Y-130933736D01*
X171810390Y-130786658D01*
X171773620Y-130713119D01*
X171736851Y-130676349D01*
X171663312Y-130639580D01*
X171038230Y-130639580D01*
X171295617Y-129940959D02*
X171810390Y-129940959D01*
X171001460Y-130124806D02*
X171553003Y-130308654D01*
X171553003Y-129830650D01*
G04 #@! TO.C,C10*
X167280771Y-131735415D02*
X167317540Y-131772185D01*
X167354310Y-131882493D01*
X167354310Y-131956033D01*
X167317540Y-132066341D01*
X167244001Y-132139880D01*
X167170462Y-132176650D01*
X167023384Y-132213419D01*
X166913076Y-132213419D01*
X166765998Y-132176650D01*
X166692459Y-132139880D01*
X166618920Y-132066341D01*
X166582150Y-131956033D01*
X166582150Y-131882493D01*
X166618920Y-131772185D01*
X166655689Y-131735415D01*
X167354310Y-131000025D02*
X167354310Y-131441259D01*
X167354310Y-131220642D02*
X166582150Y-131220642D01*
X166692459Y-131294181D01*
X166765998Y-131367720D01*
X166802767Y-131441259D01*
X166582150Y-130522021D02*
X166582150Y-130448482D01*
X166618920Y-130374943D01*
X166655689Y-130338173D01*
X166729228Y-130301404D01*
X166876306Y-130264634D01*
X167060154Y-130264634D01*
X167207232Y-130301404D01*
X167280771Y-130338173D01*
X167317540Y-130374943D01*
X167354310Y-130448482D01*
X167354310Y-130522021D01*
X167317540Y-130595560D01*
X167280771Y-130632330D01*
X167207232Y-130669099D01*
X167060154Y-130705869D01*
X166876306Y-130705869D01*
X166729228Y-130669099D01*
X166655689Y-130632330D01*
X166618920Y-130595560D01*
X166582150Y-130522021D01*
G04 #@! TO.C,R9*
X174263110Y-135968730D02*
X173895415Y-136226117D01*
X174263110Y-136409965D02*
X173490950Y-136409965D01*
X173490950Y-136115808D01*
X173527720Y-136042269D01*
X173564489Y-136005500D01*
X173638028Y-135968730D01*
X173748337Y-135968730D01*
X173821876Y-136005500D01*
X173858645Y-136042269D01*
X173895415Y-136115808D01*
X173895415Y-136409965D01*
X174263110Y-135601035D02*
X174263110Y-135453957D01*
X174226340Y-135380418D01*
X174189571Y-135343648D01*
X174079262Y-135270109D01*
X173932184Y-135233340D01*
X173638028Y-135233340D01*
X173564489Y-135270109D01*
X173527720Y-135306879D01*
X173490950Y-135380418D01*
X173490950Y-135527496D01*
X173527720Y-135601035D01*
X173564489Y-135637805D01*
X173638028Y-135674574D01*
X173821876Y-135674574D01*
X173895415Y-135637805D01*
X173932184Y-135601035D01*
X173968954Y-135527496D01*
X173968954Y-135380418D01*
X173932184Y-135306879D01*
X173895415Y-135270109D01*
X173821876Y-135233340D01*
G04 #@! TO.C,X4*
D18*
X132417099Y-138747258D02*
X133060565Y-139712458D01*
X133060565Y-138747258D02*
X132417099Y-139712458D01*
X133841918Y-139068991D02*
X133841918Y-139712458D01*
X133612108Y-138701296D02*
X133382299Y-139390724D01*
X133979803Y-139390724D01*
G04 #@! TO.C,C7*
D16*
X170511651Y-137303095D02*
X170548420Y-137339865D01*
X170585190Y-137450173D01*
X170585190Y-137523713D01*
X170548420Y-137634021D01*
X170474881Y-137707560D01*
X170401342Y-137744330D01*
X170254264Y-137781099D01*
X170143956Y-137781099D01*
X169996878Y-137744330D01*
X169923339Y-137707560D01*
X169849800Y-137634021D01*
X169813030Y-137523713D01*
X169813030Y-137450173D01*
X169849800Y-137339865D01*
X169886569Y-137303095D01*
X169813030Y-137045709D02*
X169813030Y-136530935D01*
X170585190Y-136861861D01*
G04 #@! TO.C,P1*
D18*
X162204999Y-119334038D02*
X162204999Y-118368838D01*
X162572695Y-118368838D01*
X162664618Y-118414800D01*
X162710580Y-118460761D01*
X162756542Y-118552685D01*
X162756542Y-118690571D01*
X162710580Y-118782495D01*
X162664618Y-118828457D01*
X162572695Y-118874419D01*
X162204999Y-118874419D01*
X163675780Y-119334038D02*
X163124238Y-119334038D01*
X163400009Y-119334038D02*
X163400009Y-118368838D01*
X163308085Y-118506723D01*
X163216161Y-118598647D01*
X163124238Y-118644609D01*
G04 #@! TO.C,C17*
D19*
X170654647Y-123242245D02*
X170609409Y-123287483D01*
X170473695Y-123332721D01*
X170383219Y-123332721D01*
X170247504Y-123287483D01*
X170157028Y-123197007D01*
X170111790Y-123106531D01*
X170066552Y-122925579D01*
X170066552Y-122789864D01*
X170111790Y-122608912D01*
X170157028Y-122518436D01*
X170247504Y-122427960D01*
X170383219Y-122382721D01*
X170473695Y-122382721D01*
X170609409Y-122427960D01*
X170654647Y-122473198D01*
X171559409Y-123332721D02*
X171016552Y-123332721D01*
X171287980Y-123332721D02*
X171287980Y-122382721D01*
X171197504Y-122518436D01*
X171107028Y-122608912D01*
X171016552Y-122654150D01*
X171876076Y-122382721D02*
X172509409Y-122382721D01*
X172102266Y-123332721D01*
G04 #@! TD*
M02*
