G04 #@! TF.GenerationSoftware,KiCad,Pcbnew,(6.0.0-rc1-dev-1027-g90233e5ec)*
G04 #@! TF.CreationDate,2019-01-09T23:19:53+01:00*
G04 #@! TF.ProjectId,eBoard_remote_control,65426F6172645F72656D6F74655F636F,rev?*
G04 #@! TF.SameCoordinates,Original*
G04 #@! TF.FileFunction,Copper,L1,Top*
G04 #@! TF.FilePolarity,Positive*
%FSLAX46Y46*%
G04 Gerber Fmt 4.6, Leading zero omitted, Abs format (unit mm)*
G04 Created by KiCad (PCBNEW (6.0.0-rc1-dev-1027-g90233e5ec)) date 09.01.2019 23.19.54*
%MOMM*%
%LPD*%
G01*
G04 APERTURE LIST*
G04 #@! TA.AperFunction,SMDPad,CuDef*
%ADD10R,1.900000X2.000000*%
G04 #@! TD*
G04 #@! TA.AperFunction,SMDPad,CuDef*
%ADD11R,1.900000X2.300000*%
G04 #@! TD*
G04 #@! TA.AperFunction,SMDPad,CuDef*
%ADD12R,1.400000X0.400000*%
G04 #@! TD*
G04 #@! TA.AperFunction,ComponentPad*
%ADD13O,2.616000X1.308000*%
G04 #@! TD*
G04 #@! TA.AperFunction,SMDPad,CuDef*
%ADD14R,1.100000X1.000000*%
G04 #@! TD*
G04 #@! TA.AperFunction,SMDPad,CuDef*
%ADD15R,1.000000X1.100000*%
G04 #@! TD*
G04 #@! TA.AperFunction,ComponentPad*
%ADD16O,1.508000X3.016000*%
G04 #@! TD*
G04 #@! TA.AperFunction,ComponentPad*
%ADD17C,1.700000*%
G04 #@! TD*
G04 #@! TA.AperFunction,ComponentPad*
%ADD18R,1.700000X1.700000*%
G04 #@! TD*
G04 #@! TA.AperFunction,SMDPad,CuDef*
%ADD19R,0.740000X2.400000*%
G04 #@! TD*
G04 #@! TA.AperFunction,SMDPad,CuDef*
%ADD20R,1.168400X1.600200*%
G04 #@! TD*
G04 #@! TA.AperFunction,SMDPad,CuDef*
%ADD21R,0.635000X0.203200*%
G04 #@! TD*
G04 #@! TA.AperFunction,SMDPad,CuDef*
%ADD22R,1.000000X1.075000*%
G04 #@! TD*
G04 #@! TA.AperFunction,SMDPad,CuDef*
%ADD23R,0.800000X1.350000*%
G04 #@! TD*
G04 #@! TA.AperFunction,SMDPad,CuDef*
%ADD24R,1.200000X0.500000*%
G04 #@! TD*
G04 #@! TA.AperFunction,SMDPad,CuDef*
%ADD25R,1.600000X0.900000*%
G04 #@! TD*
G04 #@! TA.AperFunction,SMDPad,CuDef*
%ADD26R,1.600000X0.480000*%
G04 #@! TD*
G04 #@! TA.AperFunction,SMDPad,CuDef*
%ADD27R,0.480000X1.600000*%
G04 #@! TD*
G04 #@! TA.AperFunction,SMDPad,CuDef*
%ADD28R,1.000000X4.600000*%
G04 #@! TD*
G04 #@! TA.AperFunction,SMDPad,CuDef*
%ADD29R,1.600000X3.400000*%
G04 #@! TD*
G04 #@! TA.AperFunction,SMDPad,CuDef*
%ADD30R,1.100000X1.900000*%
G04 #@! TD*
G04 #@! TA.AperFunction,SMDPad,CuDef*
%ADD31R,1.000000X1.400000*%
G04 #@! TD*
G04 #@! TA.AperFunction,SMDPad,CuDef*
%ADD32R,1.500000X1.240000*%
G04 #@! TD*
G04 #@! TA.AperFunction,SMDPad,CuDef*
%ADD33R,1.200000X0.550000*%
G04 #@! TD*
G04 #@! TA.AperFunction,SMDPad,CuDef*
%ADD34R,1.200000X1.200000*%
G04 #@! TD*
G04 #@! TA.AperFunction,SMDPad,CuDef*
%ADD35R,1.075000X1.000000*%
G04 #@! TD*
G04 #@! TA.AperFunction,SMDPad,CuDef*
%ADD36R,2.500000X2.500000*%
G04 #@! TD*
G04 #@! TA.AperFunction,Conductor*
%ADD37C,0.100000*%
G04 #@! TD*
G04 #@! TA.AperFunction,SMDPad,CuDef*
%ADD38C,0.280000*%
G04 #@! TD*
G04 #@! TA.AperFunction,ViaPad*
%ADD39C,0.800000*%
G04 #@! TD*
G04 #@! TA.AperFunction,Conductor*
%ADD40C,0.250000*%
G04 #@! TD*
G04 #@! TA.AperFunction,Conductor*
%ADD41C,0.600000*%
G04 #@! TD*
G04 #@! TA.AperFunction,Conductor*
%ADD42C,0.350000*%
G04 #@! TD*
G04 #@! TA.AperFunction,Conductor*
%ADD43C,0.254000*%
G04 #@! TD*
G04 APERTURE END LIST*
D10*
G04 #@! TO.P,P1,G2*
G04 #@! TO.N,GND*
X178959863Y-142418018D03*
G04 #@! TO.P,P1,G3*
X178959863Y-139918018D03*
D11*
G04 #@! TO.P,P1,G1*
X178959863Y-145168018D03*
G04 #@! TO.P,P1,G4*
X178959863Y-137168018D03*
D12*
G04 #@! TO.P,P1,1*
G04 #@! TO.N,VBUS*
X181809863Y-139868018D03*
G04 #@! TO.P,P1,2*
G04 #@! TO.N,/USBD-*
X181809863Y-140518018D03*
G04 #@! TO.P,P1,4*
G04 #@! TO.N,Net-(P1-Pad4)*
X181809863Y-141818018D03*
G04 #@! TO.P,P1,5*
G04 #@! TO.N,GND*
X181809863Y-142468018D03*
G04 #@! TO.P,P1,3*
G04 #@! TO.N,/USBD+*
X181809863Y-141168018D03*
G04 #@! TD*
D13*
G04 #@! TO.P,S1,P1*
G04 #@! TO.N,GND*
X196606160Y-98811080D03*
G04 #@! TO.P,S1,P3*
G04 #@! TO.N,Net-(S1-PadP3)*
X196606160Y-88651080D03*
G04 #@! TO.P,S1,P2*
G04 #@! TO.N,/P0.07*
X196606160Y-93731080D03*
G04 #@! TD*
D14*
G04 #@! TO.P,C12,2*
G04 #@! TO.N,GND*
X191505244Y-124410210D03*
G04 #@! TO.P,C12,1*
G04 #@! TO.N,/A7/P0.31*
X193205244Y-124410210D03*
G04 #@! TD*
D15*
G04 #@! TO.P,C10,2*
G04 #@! TO.N,GND*
X184852663Y-138291418D03*
G04 #@! TO.P,C10,1*
G04 #@! TO.N,3.3V*
X184852663Y-139991418D03*
G04 #@! TD*
G04 #@! TO.P,C8,2*
G04 #@! TO.N,GND*
X186805735Y-126917768D03*
G04 #@! TO.P,C8,1*
G04 #@! TO.N,3.3V*
X186805735Y-125217768D03*
G04 #@! TD*
D14*
G04 #@! TO.P,C7,2*
G04 #@! TO.N,GND*
X185348863Y-147548818D03*
G04 #@! TO.P,C7,1*
G04 #@! TO.N,Net-(C7-Pad1)*
X187048863Y-147548818D03*
G04 #@! TD*
D15*
G04 #@! TO.P,C6,2*
G04 #@! TO.N,GND*
X180553360Y-126056760D03*
G04 #@! TO.P,C6,1*
G04 #@! TO.N,/VBB*
X180553360Y-124356760D03*
G04 #@! TD*
G04 #@! TO.P,C5,2*
G04 #@! TO.N,GND*
X179887880Y-131412880D03*
G04 #@! TO.P,C5,1*
G04 #@! TO.N,VBAT*
X179887880Y-133112880D03*
G04 #@! TD*
G04 #@! TO.P,C4,2*
G04 #@! TO.N,GND*
X191414400Y-127824600D03*
G04 #@! TO.P,C4,1*
G04 #@! TO.N,Net-(C4-Pad1)*
X191414400Y-126124600D03*
G04 #@! TD*
G04 #@! TO.P,C3,2*
G04 #@! TO.N,GND*
X194873880Y-130750680D03*
G04 #@! TO.P,C3,1*
G04 #@! TO.N,3.3V*
X194873880Y-129050680D03*
G04 #@! TD*
G04 #@! TO.P,C2,2*
G04 #@! TO.N,GND*
X199338337Y-137884276D03*
G04 #@! TO.P,C2,1*
G04 #@! TO.N,Net-(C2-Pad1)*
X199338337Y-136184276D03*
G04 #@! TD*
G04 #@! TO.P,C1,2*
G04 #@! TO.N,GND*
X196899937Y-137909676D03*
G04 #@! TO.P,C1,1*
G04 #@! TO.N,Net-(C1-Pad1)*
X196899937Y-136209676D03*
G04 #@! TD*
D16*
G04 #@! TO.P,S2,2*
G04 #@! TO.N,VBAT*
X194716400Y-154914600D03*
G04 #@! TO.P,S2,1*
G04 #@! TO.N,/VBB*
X199416400Y-154914600D03*
G04 #@! TO.P,S2,3*
G04 #@! TO.N,Net-(S2-Pad3)*
X190016400Y-154914600D03*
G04 #@! TD*
D17*
G04 #@! TO.P,DIS1,SDA*
G04 #@! TO.N,/SDA*
X187645040Y-119781320D03*
G04 #@! TO.P,DIS1,SCL*
G04 #@! TO.N,/SCL*
X185105040Y-119781320D03*
G04 #@! TO.P,DIS1,VCC*
G04 #@! TO.N,3.3V*
X182565040Y-119781320D03*
D18*
G04 #@! TO.P,DIS1,GND*
G04 #@! TO.N,GND*
X180025040Y-119781320D03*
G04 #@! TD*
D19*
G04 #@! TO.P,J1,10*
G04 #@! TO.N,/RESET*
X209524600Y-141158680D03*
G04 #@! TO.P,J1,9*
G04 #@! TO.N,GND*
X209524600Y-145058680D03*
G04 #@! TO.P,J1,8*
G04 #@! TO.N,Net-(J1-Pad8)*
X208254600Y-141158680D03*
G04 #@! TO.P,J1,7*
G04 #@! TO.N,GND*
X208254600Y-145058680D03*
G04 #@! TO.P,J1,6*
G04 #@! TO.N,Net-(J1-Pad6)*
X206984600Y-141158680D03*
G04 #@! TO.P,J1,5*
G04 #@! TO.N,GND*
X206984600Y-145058680D03*
G04 #@! TO.P,J1,4*
G04 #@! TO.N,/SWCLK*
X205714600Y-141158680D03*
G04 #@! TO.P,J1,3*
G04 #@! TO.N,GND*
X205714600Y-145058680D03*
G04 #@! TO.P,J1,2*
G04 #@! TO.N,/SWDIO*
X204444600Y-141158680D03*
G04 #@! TO.P,J1,1*
G04 #@! TO.N,3.3V*
X204444600Y-145058680D03*
G04 #@! TD*
D20*
G04 #@! TO.P,SJ2,1*
G04 #@! TO.N,Net-(C9-Pad1)*
X196570600Y-147294600D03*
G04 #@! TO.P,SJ2,2*
G04 #@! TO.N,/RESET*
X198094600Y-147294600D03*
D21*
G04 #@! TO.P,SJ2,WIRE*
G04 #@! TO.N,N/C*
X197332600Y-147294600D03*
G04 #@! TD*
D22*
G04 #@! TO.P,R2,2*
G04 #@! TO.N,/RESET*
X200487280Y-146011000D03*
G04 #@! TO.P,R2,1*
G04 #@! TO.N,3.3V*
X200487280Y-144311000D03*
G04 #@! TD*
D23*
G04 #@! TO.P,D4,A*
G04 #@! TO.N,/RESET*
X202265280Y-146476720D03*
G04 #@! TO.P,D4,C*
G04 #@! TO.N,3.3V*
X202265280Y-143936720D03*
G04 #@! TD*
D14*
G04 #@! TO.P,C9,2*
G04 #@! TO.N,/DTR*
X191809000Y-147396200D03*
G04 #@! TO.P,C9,1*
G04 #@! TO.N,Net-(C9-Pad1)*
X193509000Y-147396200D03*
G04 #@! TD*
D24*
G04 #@! TO.P,U1,41*
G04 #@! TO.N,Net-(U1-Pad41)*
X204192263Y-120673756D03*
G04 #@! TO.P,U1,40*
G04 #@! TO.N,Net-(U1-Pad40)*
X204192263Y-119273756D03*
D25*
G04 #@! TO.P,U1,39*
G04 #@! TO.N,GND*
X205892263Y-118723756D03*
D26*
G04 #@! TO.P,U1,38*
G04 #@! TO.N,/FRST*
X205892263Y-119623756D03*
G04 #@! TO.P,U1,37*
G04 #@! TO.N,/SWDIO*
X205892263Y-120323756D03*
G04 #@! TO.P,U1,36*
G04 #@! TO.N,/SWCLK*
X205892263Y-121023756D03*
G04 #@! TO.P,U1,35*
G04 #@! TO.N,/RESET*
X205892263Y-121723756D03*
G04 #@! TO.P,U1,34*
G04 #@! TO.N,/DFU*
X205892263Y-122423756D03*
G04 #@! TO.P,U1,33*
G04 #@! TO.N,Net-(U1-Pad33)*
X205892263Y-123123756D03*
G04 #@! TO.P,U1,32*
G04 #@! TO.N,/SWO*
X205892263Y-123823756D03*
G04 #@! TO.P,U1,31*
G04 #@! TO.N,Net-(U1-Pad31)*
X205892263Y-124523756D03*
G04 #@! TO.P,U1,30*
G04 #@! TO.N,/P0.16*
X205892263Y-125223756D03*
G04 #@! TO.P,U1,29*
G04 #@! TO.N,/P0.15*
X205892263Y-125923756D03*
G04 #@! TO.P,U1,28*
G04 #@! TO.N,/MISO*
X205892263Y-126623756D03*
G04 #@! TO.P,U1,27*
G04 #@! TO.N,/MOSI*
X205892263Y-127323756D03*
G04 #@! TO.P,U1,26*
G04 #@! TO.N,/SCK*
X205892263Y-128023756D03*
G04 #@! TO.P,U1,25*
G04 #@! TO.N,/P0.11*
X205892263Y-128723756D03*
D27*
G04 #@! TO.P,U1,24*
G04 #@! TO.N,GND*
X205492263Y-130173756D03*
G04 #@! TO.P,U1,23*
G04 #@! TO.N,Net-(U1-Pad23)*
X204792263Y-130173756D03*
G04 #@! TO.P,U1,22*
G04 #@! TO.N,Net-(U1-Pad22)*
X204092263Y-130173756D03*
G04 #@! TO.P,U1,21*
G04 #@! TO.N,/RXD*
X203392263Y-130173756D03*
G04 #@! TO.P,U1,20*
G04 #@! TO.N,/P0.07*
X202692263Y-130173756D03*
G04 #@! TO.P,U1,19*
G04 #@! TO.N,/TXD*
X201992263Y-130173756D03*
G04 #@! TO.P,U1,18*
G04 #@! TO.N,/A3*
X201292263Y-130173756D03*
G04 #@! TO.P,U1,17*
G04 #@! TO.N,/A2*
X200592263Y-130173756D03*
G04 #@! TO.P,U1,16*
G04 #@! TO.N,/A1*
X199892263Y-130173756D03*
G04 #@! TO.P,U1,15*
G04 #@! TO.N,/A0*
X199192263Y-130173756D03*
G04 #@! TO.P,U1,14*
G04 #@! TO.N,Net-(C2-Pad1)*
X198492263Y-130173756D03*
G04 #@! TO.P,U1,13*
G04 #@! TO.N,Net-(C1-Pad1)*
X197792263Y-130173756D03*
G04 #@! TO.P,U1,12*
G04 #@! TO.N,GND*
X197092263Y-130173756D03*
D26*
G04 #@! TO.P,U1,11*
G04 #@! TO.N,3.3V*
X196692263Y-128023756D03*
G04 #@! TO.P,U1,10*
G04 #@! TO.N,Net-(L2-Pad2)*
X196692263Y-127323756D03*
G04 #@! TO.P,U1,9*
G04 #@! TO.N,Net-(C4-Pad1)*
X196692263Y-126623756D03*
G04 #@! TO.P,U1,8*
G04 #@! TO.N,/A7/P0.31*
X196692263Y-125923756D03*
G04 #@! TO.P,U1,7*
G04 #@! TO.N,/A6/P0.30*
X196692263Y-125223756D03*
G04 #@! TO.P,U1,6*
G04 #@! TO.N,/A5/0.29*
X196692263Y-124523756D03*
G04 #@! TO.P,U1,5*
G04 #@! TO.N,/A4/0.28*
X196692263Y-123823756D03*
G04 #@! TO.P,U1,4*
G04 #@! TO.N,/P0.27*
X196692263Y-123123756D03*
G04 #@! TO.P,U1,3*
G04 #@! TO.N,/SCL*
X196692263Y-122423756D03*
G04 #@! TO.P,U1,2*
G04 #@! TO.N,/SDA*
X196692263Y-121723756D03*
D25*
G04 #@! TO.P,U1,1*
G04 #@! TO.N,GND*
X196692263Y-118723756D03*
G04 #@! TD*
D28*
G04 #@! TO.P,X2,1*
G04 #@! TO.N,GND*
X182337200Y-112945400D03*
G04 #@! TO.P,X2,2*
G04 #@! TO.N,VBAT*
X184337200Y-112945400D03*
D29*
G04 #@! TO.P,X2,NC1*
G04 #@! TO.N,N/C*
X179937200Y-107745400D03*
G04 #@! TO.P,X2,NC2*
X186737200Y-107745400D03*
G04 #@! TD*
D22*
G04 #@! TO.P,R8,2*
G04 #@! TO.N,GND*
X185750200Y-131367160D03*
G04 #@! TO.P,R8,1*
G04 #@! TO.N,Net-(R8-Pad1)*
X185750200Y-133067160D03*
G04 #@! TD*
D30*
G04 #@! TO.P,X4,P$2*
G04 #@! TO.N,Net-(C2-Pad1)*
X199344537Y-133935476D03*
G04 #@! TO.P,X4,P$1*
G04 #@! TO.N,Net-(C1-Pad1)*
X196944537Y-133935476D03*
G04 #@! TD*
D22*
G04 #@! TO.P,R9,2*
G04 #@! TO.N,/RXD*
X204101700Y-133287400D03*
G04 #@! TO.P,R9,1*
G04 #@! TO.N,Net-(R9-Pad1)*
X204101700Y-134987400D03*
G04 #@! TD*
D31*
G04 #@! TO.P,U5,1*
G04 #@! TO.N,3.3V*
X189067400Y-69045000D03*
G04 #@! TO.P,U5,2*
G04 #@! TO.N,/A0*
X190967400Y-69045000D03*
G04 #@! TO.P,U5,3*
G04 #@! TO.N,GND*
X190017400Y-66845000D03*
G04 #@! TD*
G04 #@! TO.P,U7,1*
G04 #@! TO.N,3.3V*
X198353640Y-61836480D03*
G04 #@! TO.P,U7,2*
G04 #@! TO.N,/A2*
X200253640Y-61836480D03*
G04 #@! TO.P,U7,3*
G04 #@! TO.N,GND*
X199303640Y-59636480D03*
G04 #@! TD*
G04 #@! TO.P,U6,1*
G04 #@! TO.N,3.3V*
X194467440Y-66853160D03*
G04 #@! TO.P,U6,2*
G04 #@! TO.N,/A1*
X196367440Y-66853160D03*
G04 #@! TO.P,U6,3*
G04 #@! TO.N,GND*
X195417440Y-64653160D03*
G04 #@! TD*
D15*
G04 #@! TO.P,C21,2*
G04 #@! TO.N,GND*
X198120000Y-67194800D03*
G04 #@! TO.P,C21,1*
G04 #@! TO.N,3.3V*
X198120000Y-65494800D03*
G04 #@! TD*
G04 #@! TO.P,C20,2*
G04 #@! TO.N,GND*
X194045145Y-72439695D03*
G04 #@! TO.P,C20,1*
G04 #@! TO.N,3.3V*
X194045145Y-70739695D03*
G04 #@! TD*
D32*
G04 #@! TO.P,L2,2*
G04 #@! TO.N,Net-(L2-Pad2)*
X192990244Y-127925610D03*
G04 #@! TO.P,L2,1*
G04 #@! TO.N,Net-(C4-Pad1)*
X192990244Y-126025610D03*
G04 #@! TD*
D33*
G04 #@! TO.P,U3,5*
G04 #@! TO.N,Net-(R8-Pad1)*
X184317177Y-131229116D03*
G04 #@! TO.P,U3,4*
G04 #@! TO.N,VBUS*
X184317177Y-133129116D03*
G04 #@! TO.P,U3,3*
G04 #@! TO.N,VBAT*
X181716977Y-133129116D03*
G04 #@! TO.P,U3,2*
G04 #@! TO.N,GND*
X181716977Y-132179116D03*
G04 #@! TO.P,U3,1*
G04 #@! TO.N,Net-(R3-Pad2)*
X181716977Y-131229116D03*
G04 #@! TD*
D34*
G04 #@! TO.P,CHG1,A*
G04 #@! TO.N,VBUS*
X187335077Y-133089416D03*
G04 #@! TO.P,CHG1,C*
G04 #@! TO.N,Net-(CHG1-PadC)*
X187335077Y-130989416D03*
G04 #@! TD*
D22*
G04 #@! TO.P,R3,2*
G04 #@! TO.N,Net-(R3-Pad2)*
X189062277Y-132787816D03*
G04 #@! TO.P,R3,1*
G04 #@! TO.N,Net-(CHG1-PadC)*
X189062277Y-131087816D03*
G04 #@! TD*
D35*
G04 #@! TO.P,R4,2*
G04 #@! TO.N,/A7/P0.31*
X193154444Y-121184410D03*
G04 #@! TO.P,R4,1*
G04 #@! TO.N,VBAT*
X191454444Y-121184410D03*
G04 #@! TD*
G04 #@! TO.P,R6,2*
G04 #@! TO.N,GND*
X191518844Y-122810010D03*
G04 #@! TO.P,R6,1*
G04 #@! TO.N,/A7/P0.31*
X193218844Y-122810010D03*
G04 #@! TD*
D33*
G04 #@! TO.P,U2,5*
G04 #@! TO.N,3.3V*
X184956235Y-124939968D03*
G04 #@! TO.P,U2,4*
G04 #@! TO.N,Net-(U2-Pad4)*
X184956235Y-126839968D03*
G04 #@! TO.P,U2,3*
G04 #@! TO.N,Net-(R5-Pad1)*
X182356035Y-126839968D03*
G04 #@! TO.P,U2,2*
G04 #@! TO.N,GND*
X182356035Y-125889968D03*
G04 #@! TO.P,U2,1*
G04 #@! TO.N,/VBB*
X182356035Y-124939968D03*
G04 #@! TD*
D35*
G04 #@! TO.P,R5,2*
G04 #@! TO.N,/VBB*
X180419640Y-127975360D03*
G04 #@! TO.P,R5,1*
G04 #@! TO.N,Net-(R5-Pad1)*
X182119640Y-127975360D03*
G04 #@! TD*
D36*
G04 #@! TO.P,U4,THERM*
G04 #@! TO.N,GND*
X186503663Y-143662618D03*
D37*
G04 #@! TD*
G04 #@! TO.N,Net-(U4-Pad24)*
G04 #@! TO.C,U4*
G36*
X188840524Y-142272955D02*
X188847319Y-142273963D01*
X188853983Y-142275632D01*
X188860451Y-142277946D01*
X188866661Y-142280884D01*
X188872553Y-142284415D01*
X188878071Y-142288507D01*
X188883160Y-142293121D01*
X188887774Y-142298210D01*
X188891866Y-142303728D01*
X188895397Y-142309620D01*
X188898335Y-142315830D01*
X188900649Y-142322298D01*
X188902318Y-142328962D01*
X188903326Y-142335757D01*
X188903663Y-142342618D01*
X188903663Y-142482618D01*
X188903326Y-142489479D01*
X188902318Y-142496274D01*
X188900649Y-142502938D01*
X188898335Y-142509406D01*
X188895397Y-142515616D01*
X188891866Y-142521508D01*
X188887774Y-142527026D01*
X188883160Y-142532115D01*
X188878071Y-142536729D01*
X188872553Y-142540821D01*
X188866661Y-142544352D01*
X188860451Y-142547290D01*
X188853983Y-142549604D01*
X188847319Y-142551273D01*
X188840524Y-142552281D01*
X188833663Y-142552618D01*
X188173663Y-142552618D01*
X188166802Y-142552281D01*
X188160007Y-142551273D01*
X188153343Y-142549604D01*
X188146875Y-142547290D01*
X188140665Y-142544352D01*
X188134773Y-142540821D01*
X188129255Y-142536729D01*
X188124166Y-142532115D01*
X188119552Y-142527026D01*
X188115460Y-142521508D01*
X188111929Y-142515616D01*
X188108991Y-142509406D01*
X188106677Y-142502938D01*
X188105008Y-142496274D01*
X188104000Y-142489479D01*
X188103663Y-142482618D01*
X188103663Y-142342618D01*
X188104000Y-142335757D01*
X188105008Y-142328962D01*
X188106677Y-142322298D01*
X188108991Y-142315830D01*
X188111929Y-142309620D01*
X188115460Y-142303728D01*
X188119552Y-142298210D01*
X188124166Y-142293121D01*
X188129255Y-142288507D01*
X188134773Y-142284415D01*
X188140665Y-142280884D01*
X188146875Y-142277946D01*
X188153343Y-142275632D01*
X188160007Y-142273963D01*
X188166802Y-142272955D01*
X188173663Y-142272618D01*
X188833663Y-142272618D01*
X188840524Y-142272955D01*
X188840524Y-142272955D01*
G37*
D38*
G04 #@! TO.P,U4,24*
G04 #@! TO.N,Net-(U4-Pad24)*
X188503663Y-142412618D03*
D37*
G04 #@! TD*
G04 #@! TO.N,/DTR*
G04 #@! TO.C,U4*
G36*
X188840524Y-142772955D02*
X188847319Y-142773963D01*
X188853983Y-142775632D01*
X188860451Y-142777946D01*
X188866661Y-142780884D01*
X188872553Y-142784415D01*
X188878071Y-142788507D01*
X188883160Y-142793121D01*
X188887774Y-142798210D01*
X188891866Y-142803728D01*
X188895397Y-142809620D01*
X188898335Y-142815830D01*
X188900649Y-142822298D01*
X188902318Y-142828962D01*
X188903326Y-142835757D01*
X188903663Y-142842618D01*
X188903663Y-142982618D01*
X188903326Y-142989479D01*
X188902318Y-142996274D01*
X188900649Y-143002938D01*
X188898335Y-143009406D01*
X188895397Y-143015616D01*
X188891866Y-143021508D01*
X188887774Y-143027026D01*
X188883160Y-143032115D01*
X188878071Y-143036729D01*
X188872553Y-143040821D01*
X188866661Y-143044352D01*
X188860451Y-143047290D01*
X188853983Y-143049604D01*
X188847319Y-143051273D01*
X188840524Y-143052281D01*
X188833663Y-143052618D01*
X188173663Y-143052618D01*
X188166802Y-143052281D01*
X188160007Y-143051273D01*
X188153343Y-143049604D01*
X188146875Y-143047290D01*
X188140665Y-143044352D01*
X188134773Y-143040821D01*
X188129255Y-143036729D01*
X188124166Y-143032115D01*
X188119552Y-143027026D01*
X188115460Y-143021508D01*
X188111929Y-143015616D01*
X188108991Y-143009406D01*
X188106677Y-143002938D01*
X188105008Y-142996274D01*
X188104000Y-142989479D01*
X188103663Y-142982618D01*
X188103663Y-142842618D01*
X188104000Y-142835757D01*
X188105008Y-142828962D01*
X188106677Y-142822298D01*
X188108991Y-142815830D01*
X188111929Y-142809620D01*
X188115460Y-142803728D01*
X188119552Y-142798210D01*
X188124166Y-142793121D01*
X188129255Y-142788507D01*
X188134773Y-142784415D01*
X188140665Y-142780884D01*
X188146875Y-142777946D01*
X188153343Y-142775632D01*
X188160007Y-142773963D01*
X188166802Y-142772955D01*
X188173663Y-142772618D01*
X188833663Y-142772618D01*
X188840524Y-142772955D01*
X188840524Y-142772955D01*
G37*
D38*
G04 #@! TO.P,U4,23*
G04 #@! TO.N,/DTR*
X188503663Y-142912618D03*
D37*
G04 #@! TD*
G04 #@! TO.N,Net-(U4-Pad22)*
G04 #@! TO.C,U4*
G36*
X188840524Y-143272955D02*
X188847319Y-143273963D01*
X188853983Y-143275632D01*
X188860451Y-143277946D01*
X188866661Y-143280884D01*
X188872553Y-143284415D01*
X188878071Y-143288507D01*
X188883160Y-143293121D01*
X188887774Y-143298210D01*
X188891866Y-143303728D01*
X188895397Y-143309620D01*
X188898335Y-143315830D01*
X188900649Y-143322298D01*
X188902318Y-143328962D01*
X188903326Y-143335757D01*
X188903663Y-143342618D01*
X188903663Y-143482618D01*
X188903326Y-143489479D01*
X188902318Y-143496274D01*
X188900649Y-143502938D01*
X188898335Y-143509406D01*
X188895397Y-143515616D01*
X188891866Y-143521508D01*
X188887774Y-143527026D01*
X188883160Y-143532115D01*
X188878071Y-143536729D01*
X188872553Y-143540821D01*
X188866661Y-143544352D01*
X188860451Y-143547290D01*
X188853983Y-143549604D01*
X188847319Y-143551273D01*
X188840524Y-143552281D01*
X188833663Y-143552618D01*
X188173663Y-143552618D01*
X188166802Y-143552281D01*
X188160007Y-143551273D01*
X188153343Y-143549604D01*
X188146875Y-143547290D01*
X188140665Y-143544352D01*
X188134773Y-143540821D01*
X188129255Y-143536729D01*
X188124166Y-143532115D01*
X188119552Y-143527026D01*
X188115460Y-143521508D01*
X188111929Y-143515616D01*
X188108991Y-143509406D01*
X188106677Y-143502938D01*
X188105008Y-143496274D01*
X188104000Y-143489479D01*
X188103663Y-143482618D01*
X188103663Y-143342618D01*
X188104000Y-143335757D01*
X188105008Y-143328962D01*
X188106677Y-143322298D01*
X188108991Y-143315830D01*
X188111929Y-143309620D01*
X188115460Y-143303728D01*
X188119552Y-143298210D01*
X188124166Y-143293121D01*
X188129255Y-143288507D01*
X188134773Y-143284415D01*
X188140665Y-143280884D01*
X188146875Y-143277946D01*
X188153343Y-143275632D01*
X188160007Y-143273963D01*
X188166802Y-143272955D01*
X188173663Y-143272618D01*
X188833663Y-143272618D01*
X188840524Y-143272955D01*
X188840524Y-143272955D01*
G37*
D38*
G04 #@! TO.P,U4,22*
G04 #@! TO.N,Net-(U4-Pad22)*
X188503663Y-143412618D03*
D37*
G04 #@! TD*
G04 #@! TO.N,Net-(R9-Pad1)*
G04 #@! TO.C,U4*
G36*
X188840524Y-143772955D02*
X188847319Y-143773963D01*
X188853983Y-143775632D01*
X188860451Y-143777946D01*
X188866661Y-143780884D01*
X188872553Y-143784415D01*
X188878071Y-143788507D01*
X188883160Y-143793121D01*
X188887774Y-143798210D01*
X188891866Y-143803728D01*
X188895397Y-143809620D01*
X188898335Y-143815830D01*
X188900649Y-143822298D01*
X188902318Y-143828962D01*
X188903326Y-143835757D01*
X188903663Y-143842618D01*
X188903663Y-143982618D01*
X188903326Y-143989479D01*
X188902318Y-143996274D01*
X188900649Y-144002938D01*
X188898335Y-144009406D01*
X188895397Y-144015616D01*
X188891866Y-144021508D01*
X188887774Y-144027026D01*
X188883160Y-144032115D01*
X188878071Y-144036729D01*
X188872553Y-144040821D01*
X188866661Y-144044352D01*
X188860451Y-144047290D01*
X188853983Y-144049604D01*
X188847319Y-144051273D01*
X188840524Y-144052281D01*
X188833663Y-144052618D01*
X188173663Y-144052618D01*
X188166802Y-144052281D01*
X188160007Y-144051273D01*
X188153343Y-144049604D01*
X188146875Y-144047290D01*
X188140665Y-144044352D01*
X188134773Y-144040821D01*
X188129255Y-144036729D01*
X188124166Y-144032115D01*
X188119552Y-144027026D01*
X188115460Y-144021508D01*
X188111929Y-144015616D01*
X188108991Y-144009406D01*
X188106677Y-144002938D01*
X188105008Y-143996274D01*
X188104000Y-143989479D01*
X188103663Y-143982618D01*
X188103663Y-143842618D01*
X188104000Y-143835757D01*
X188105008Y-143828962D01*
X188106677Y-143822298D01*
X188108991Y-143815830D01*
X188111929Y-143809620D01*
X188115460Y-143803728D01*
X188119552Y-143798210D01*
X188124166Y-143793121D01*
X188129255Y-143788507D01*
X188134773Y-143784415D01*
X188140665Y-143780884D01*
X188146875Y-143777946D01*
X188153343Y-143775632D01*
X188160007Y-143773963D01*
X188166802Y-143772955D01*
X188173663Y-143772618D01*
X188833663Y-143772618D01*
X188840524Y-143772955D01*
X188840524Y-143772955D01*
G37*
D38*
G04 #@! TO.P,U4,21*
G04 #@! TO.N,Net-(R9-Pad1)*
X188503663Y-143912618D03*
D37*
G04 #@! TD*
G04 #@! TO.N,/TXD*
G04 #@! TO.C,U4*
G36*
X188840524Y-144272955D02*
X188847319Y-144273963D01*
X188853983Y-144275632D01*
X188860451Y-144277946D01*
X188866661Y-144280884D01*
X188872553Y-144284415D01*
X188878071Y-144288507D01*
X188883160Y-144293121D01*
X188887774Y-144298210D01*
X188891866Y-144303728D01*
X188895397Y-144309620D01*
X188898335Y-144315830D01*
X188900649Y-144322298D01*
X188902318Y-144328962D01*
X188903326Y-144335757D01*
X188903663Y-144342618D01*
X188903663Y-144482618D01*
X188903326Y-144489479D01*
X188902318Y-144496274D01*
X188900649Y-144502938D01*
X188898335Y-144509406D01*
X188895397Y-144515616D01*
X188891866Y-144521508D01*
X188887774Y-144527026D01*
X188883160Y-144532115D01*
X188878071Y-144536729D01*
X188872553Y-144540821D01*
X188866661Y-144544352D01*
X188860451Y-144547290D01*
X188853983Y-144549604D01*
X188847319Y-144551273D01*
X188840524Y-144552281D01*
X188833663Y-144552618D01*
X188173663Y-144552618D01*
X188166802Y-144552281D01*
X188160007Y-144551273D01*
X188153343Y-144549604D01*
X188146875Y-144547290D01*
X188140665Y-144544352D01*
X188134773Y-144540821D01*
X188129255Y-144536729D01*
X188124166Y-144532115D01*
X188119552Y-144527026D01*
X188115460Y-144521508D01*
X188111929Y-144515616D01*
X188108991Y-144509406D01*
X188106677Y-144502938D01*
X188105008Y-144496274D01*
X188104000Y-144489479D01*
X188103663Y-144482618D01*
X188103663Y-144342618D01*
X188104000Y-144335757D01*
X188105008Y-144328962D01*
X188106677Y-144322298D01*
X188108991Y-144315830D01*
X188111929Y-144309620D01*
X188115460Y-144303728D01*
X188119552Y-144298210D01*
X188124166Y-144293121D01*
X188129255Y-144288507D01*
X188134773Y-144284415D01*
X188140665Y-144280884D01*
X188146875Y-144277946D01*
X188153343Y-144275632D01*
X188160007Y-144273963D01*
X188166802Y-144272955D01*
X188173663Y-144272618D01*
X188833663Y-144272618D01*
X188840524Y-144272955D01*
X188840524Y-144272955D01*
G37*
D38*
G04 #@! TO.P,U4,20*
G04 #@! TO.N,/TXD*
X188503663Y-144412618D03*
D37*
G04 #@! TD*
G04 #@! TO.N,Net-(U4-Pad19)*
G04 #@! TO.C,U4*
G36*
X188840524Y-144772955D02*
X188847319Y-144773963D01*
X188853983Y-144775632D01*
X188860451Y-144777946D01*
X188866661Y-144780884D01*
X188872553Y-144784415D01*
X188878071Y-144788507D01*
X188883160Y-144793121D01*
X188887774Y-144798210D01*
X188891866Y-144803728D01*
X188895397Y-144809620D01*
X188898335Y-144815830D01*
X188900649Y-144822298D01*
X188902318Y-144828962D01*
X188903326Y-144835757D01*
X188903663Y-144842618D01*
X188903663Y-144982618D01*
X188903326Y-144989479D01*
X188902318Y-144996274D01*
X188900649Y-145002938D01*
X188898335Y-145009406D01*
X188895397Y-145015616D01*
X188891866Y-145021508D01*
X188887774Y-145027026D01*
X188883160Y-145032115D01*
X188878071Y-145036729D01*
X188872553Y-145040821D01*
X188866661Y-145044352D01*
X188860451Y-145047290D01*
X188853983Y-145049604D01*
X188847319Y-145051273D01*
X188840524Y-145052281D01*
X188833663Y-145052618D01*
X188173663Y-145052618D01*
X188166802Y-145052281D01*
X188160007Y-145051273D01*
X188153343Y-145049604D01*
X188146875Y-145047290D01*
X188140665Y-145044352D01*
X188134773Y-145040821D01*
X188129255Y-145036729D01*
X188124166Y-145032115D01*
X188119552Y-145027026D01*
X188115460Y-145021508D01*
X188111929Y-145015616D01*
X188108991Y-145009406D01*
X188106677Y-145002938D01*
X188105008Y-144996274D01*
X188104000Y-144989479D01*
X188103663Y-144982618D01*
X188103663Y-144842618D01*
X188104000Y-144835757D01*
X188105008Y-144828962D01*
X188106677Y-144822298D01*
X188108991Y-144815830D01*
X188111929Y-144809620D01*
X188115460Y-144803728D01*
X188119552Y-144798210D01*
X188124166Y-144793121D01*
X188129255Y-144788507D01*
X188134773Y-144784415D01*
X188140665Y-144780884D01*
X188146875Y-144777946D01*
X188153343Y-144775632D01*
X188160007Y-144773963D01*
X188166802Y-144772955D01*
X188173663Y-144772618D01*
X188833663Y-144772618D01*
X188840524Y-144772955D01*
X188840524Y-144772955D01*
G37*
D38*
G04 #@! TO.P,U4,19*
G04 #@! TO.N,Net-(U4-Pad19)*
X188503663Y-144912618D03*
D37*
G04 #@! TD*
G04 #@! TO.N,Net-(U4-Pad18)*
G04 #@! TO.C,U4*
G36*
X187830524Y-145262955D02*
X187837319Y-145263963D01*
X187843983Y-145265632D01*
X187850451Y-145267946D01*
X187856661Y-145270884D01*
X187862553Y-145274415D01*
X187868071Y-145278507D01*
X187873160Y-145283121D01*
X187877774Y-145288210D01*
X187881866Y-145293728D01*
X187885397Y-145299620D01*
X187888335Y-145305830D01*
X187890649Y-145312298D01*
X187892318Y-145318962D01*
X187893326Y-145325757D01*
X187893663Y-145332618D01*
X187893663Y-145992618D01*
X187893326Y-145999479D01*
X187892318Y-146006274D01*
X187890649Y-146012938D01*
X187888335Y-146019406D01*
X187885397Y-146025616D01*
X187881866Y-146031508D01*
X187877774Y-146037026D01*
X187873160Y-146042115D01*
X187868071Y-146046729D01*
X187862553Y-146050821D01*
X187856661Y-146054352D01*
X187850451Y-146057290D01*
X187843983Y-146059604D01*
X187837319Y-146061273D01*
X187830524Y-146062281D01*
X187823663Y-146062618D01*
X187683663Y-146062618D01*
X187676802Y-146062281D01*
X187670007Y-146061273D01*
X187663343Y-146059604D01*
X187656875Y-146057290D01*
X187650665Y-146054352D01*
X187644773Y-146050821D01*
X187639255Y-146046729D01*
X187634166Y-146042115D01*
X187629552Y-146037026D01*
X187625460Y-146031508D01*
X187621929Y-146025616D01*
X187618991Y-146019406D01*
X187616677Y-146012938D01*
X187615008Y-146006274D01*
X187614000Y-145999479D01*
X187613663Y-145992618D01*
X187613663Y-145332618D01*
X187614000Y-145325757D01*
X187615008Y-145318962D01*
X187616677Y-145312298D01*
X187618991Y-145305830D01*
X187621929Y-145299620D01*
X187625460Y-145293728D01*
X187629552Y-145288210D01*
X187634166Y-145283121D01*
X187639255Y-145278507D01*
X187644773Y-145274415D01*
X187650665Y-145270884D01*
X187656875Y-145267946D01*
X187663343Y-145265632D01*
X187670007Y-145263963D01*
X187676802Y-145262955D01*
X187683663Y-145262618D01*
X187823663Y-145262618D01*
X187830524Y-145262955D01*
X187830524Y-145262955D01*
G37*
D38*
G04 #@! TO.P,U4,18*
G04 #@! TO.N,Net-(U4-Pad18)*
X187753663Y-145662618D03*
D37*
G04 #@! TD*
G04 #@! TO.N,Net-(U4-Pad17)*
G04 #@! TO.C,U4*
G36*
X187330524Y-145262955D02*
X187337319Y-145263963D01*
X187343983Y-145265632D01*
X187350451Y-145267946D01*
X187356661Y-145270884D01*
X187362553Y-145274415D01*
X187368071Y-145278507D01*
X187373160Y-145283121D01*
X187377774Y-145288210D01*
X187381866Y-145293728D01*
X187385397Y-145299620D01*
X187388335Y-145305830D01*
X187390649Y-145312298D01*
X187392318Y-145318962D01*
X187393326Y-145325757D01*
X187393663Y-145332618D01*
X187393663Y-145992618D01*
X187393326Y-145999479D01*
X187392318Y-146006274D01*
X187390649Y-146012938D01*
X187388335Y-146019406D01*
X187385397Y-146025616D01*
X187381866Y-146031508D01*
X187377774Y-146037026D01*
X187373160Y-146042115D01*
X187368071Y-146046729D01*
X187362553Y-146050821D01*
X187356661Y-146054352D01*
X187350451Y-146057290D01*
X187343983Y-146059604D01*
X187337319Y-146061273D01*
X187330524Y-146062281D01*
X187323663Y-146062618D01*
X187183663Y-146062618D01*
X187176802Y-146062281D01*
X187170007Y-146061273D01*
X187163343Y-146059604D01*
X187156875Y-146057290D01*
X187150665Y-146054352D01*
X187144773Y-146050821D01*
X187139255Y-146046729D01*
X187134166Y-146042115D01*
X187129552Y-146037026D01*
X187125460Y-146031508D01*
X187121929Y-146025616D01*
X187118991Y-146019406D01*
X187116677Y-146012938D01*
X187115008Y-146006274D01*
X187114000Y-145999479D01*
X187113663Y-145992618D01*
X187113663Y-145332618D01*
X187114000Y-145325757D01*
X187115008Y-145318962D01*
X187116677Y-145312298D01*
X187118991Y-145305830D01*
X187121929Y-145299620D01*
X187125460Y-145293728D01*
X187129552Y-145288210D01*
X187134166Y-145283121D01*
X187139255Y-145278507D01*
X187144773Y-145274415D01*
X187150665Y-145270884D01*
X187156875Y-145267946D01*
X187163343Y-145265632D01*
X187170007Y-145263963D01*
X187176802Y-145262955D01*
X187183663Y-145262618D01*
X187323663Y-145262618D01*
X187330524Y-145262955D01*
X187330524Y-145262955D01*
G37*
D38*
G04 #@! TO.P,U4,17*
G04 #@! TO.N,Net-(U4-Pad17)*
X187253663Y-145662618D03*
D37*
G04 #@! TD*
G04 #@! TO.N,Net-(C7-Pad1)*
G04 #@! TO.C,U4*
G36*
X186830524Y-145262955D02*
X186837319Y-145263963D01*
X186843983Y-145265632D01*
X186850451Y-145267946D01*
X186856661Y-145270884D01*
X186862553Y-145274415D01*
X186868071Y-145278507D01*
X186873160Y-145283121D01*
X186877774Y-145288210D01*
X186881866Y-145293728D01*
X186885397Y-145299620D01*
X186888335Y-145305830D01*
X186890649Y-145312298D01*
X186892318Y-145318962D01*
X186893326Y-145325757D01*
X186893663Y-145332618D01*
X186893663Y-145992618D01*
X186893326Y-145999479D01*
X186892318Y-146006274D01*
X186890649Y-146012938D01*
X186888335Y-146019406D01*
X186885397Y-146025616D01*
X186881866Y-146031508D01*
X186877774Y-146037026D01*
X186873160Y-146042115D01*
X186868071Y-146046729D01*
X186862553Y-146050821D01*
X186856661Y-146054352D01*
X186850451Y-146057290D01*
X186843983Y-146059604D01*
X186837319Y-146061273D01*
X186830524Y-146062281D01*
X186823663Y-146062618D01*
X186683663Y-146062618D01*
X186676802Y-146062281D01*
X186670007Y-146061273D01*
X186663343Y-146059604D01*
X186656875Y-146057290D01*
X186650665Y-146054352D01*
X186644773Y-146050821D01*
X186639255Y-146046729D01*
X186634166Y-146042115D01*
X186629552Y-146037026D01*
X186625460Y-146031508D01*
X186621929Y-146025616D01*
X186618991Y-146019406D01*
X186616677Y-146012938D01*
X186615008Y-146006274D01*
X186614000Y-145999479D01*
X186613663Y-145992618D01*
X186613663Y-145332618D01*
X186614000Y-145325757D01*
X186615008Y-145318962D01*
X186616677Y-145312298D01*
X186618991Y-145305830D01*
X186621929Y-145299620D01*
X186625460Y-145293728D01*
X186629552Y-145288210D01*
X186634166Y-145283121D01*
X186639255Y-145278507D01*
X186644773Y-145274415D01*
X186650665Y-145270884D01*
X186656875Y-145267946D01*
X186663343Y-145265632D01*
X186670007Y-145263963D01*
X186676802Y-145262955D01*
X186683663Y-145262618D01*
X186823663Y-145262618D01*
X186830524Y-145262955D01*
X186830524Y-145262955D01*
G37*
D38*
G04 #@! TO.P,U4,16*
G04 #@! TO.N,Net-(C7-Pad1)*
X186753663Y-145662618D03*
D37*
G04 #@! TD*
G04 #@! TO.N,Net-(U4-Pad15)*
G04 #@! TO.C,U4*
G36*
X186330524Y-145262955D02*
X186337319Y-145263963D01*
X186343983Y-145265632D01*
X186350451Y-145267946D01*
X186356661Y-145270884D01*
X186362553Y-145274415D01*
X186368071Y-145278507D01*
X186373160Y-145283121D01*
X186377774Y-145288210D01*
X186381866Y-145293728D01*
X186385397Y-145299620D01*
X186388335Y-145305830D01*
X186390649Y-145312298D01*
X186392318Y-145318962D01*
X186393326Y-145325757D01*
X186393663Y-145332618D01*
X186393663Y-145992618D01*
X186393326Y-145999479D01*
X186392318Y-146006274D01*
X186390649Y-146012938D01*
X186388335Y-146019406D01*
X186385397Y-146025616D01*
X186381866Y-146031508D01*
X186377774Y-146037026D01*
X186373160Y-146042115D01*
X186368071Y-146046729D01*
X186362553Y-146050821D01*
X186356661Y-146054352D01*
X186350451Y-146057290D01*
X186343983Y-146059604D01*
X186337319Y-146061273D01*
X186330524Y-146062281D01*
X186323663Y-146062618D01*
X186183663Y-146062618D01*
X186176802Y-146062281D01*
X186170007Y-146061273D01*
X186163343Y-146059604D01*
X186156875Y-146057290D01*
X186150665Y-146054352D01*
X186144773Y-146050821D01*
X186139255Y-146046729D01*
X186134166Y-146042115D01*
X186129552Y-146037026D01*
X186125460Y-146031508D01*
X186121929Y-146025616D01*
X186118991Y-146019406D01*
X186116677Y-146012938D01*
X186115008Y-146006274D01*
X186114000Y-145999479D01*
X186113663Y-145992618D01*
X186113663Y-145332618D01*
X186114000Y-145325757D01*
X186115008Y-145318962D01*
X186116677Y-145312298D01*
X186118991Y-145305830D01*
X186121929Y-145299620D01*
X186125460Y-145293728D01*
X186129552Y-145288210D01*
X186134166Y-145283121D01*
X186139255Y-145278507D01*
X186144773Y-145274415D01*
X186150665Y-145270884D01*
X186156875Y-145267946D01*
X186163343Y-145265632D01*
X186170007Y-145263963D01*
X186176802Y-145262955D01*
X186183663Y-145262618D01*
X186323663Y-145262618D01*
X186330524Y-145262955D01*
X186330524Y-145262955D01*
G37*
D38*
G04 #@! TO.P,U4,15*
G04 #@! TO.N,Net-(U4-Pad15)*
X186253663Y-145662618D03*
D37*
G04 #@! TD*
G04 #@! TO.N,Net-(U4-Pad14)*
G04 #@! TO.C,U4*
G36*
X185830524Y-145262955D02*
X185837319Y-145263963D01*
X185843983Y-145265632D01*
X185850451Y-145267946D01*
X185856661Y-145270884D01*
X185862553Y-145274415D01*
X185868071Y-145278507D01*
X185873160Y-145283121D01*
X185877774Y-145288210D01*
X185881866Y-145293728D01*
X185885397Y-145299620D01*
X185888335Y-145305830D01*
X185890649Y-145312298D01*
X185892318Y-145318962D01*
X185893326Y-145325757D01*
X185893663Y-145332618D01*
X185893663Y-145992618D01*
X185893326Y-145999479D01*
X185892318Y-146006274D01*
X185890649Y-146012938D01*
X185888335Y-146019406D01*
X185885397Y-146025616D01*
X185881866Y-146031508D01*
X185877774Y-146037026D01*
X185873160Y-146042115D01*
X185868071Y-146046729D01*
X185862553Y-146050821D01*
X185856661Y-146054352D01*
X185850451Y-146057290D01*
X185843983Y-146059604D01*
X185837319Y-146061273D01*
X185830524Y-146062281D01*
X185823663Y-146062618D01*
X185683663Y-146062618D01*
X185676802Y-146062281D01*
X185670007Y-146061273D01*
X185663343Y-146059604D01*
X185656875Y-146057290D01*
X185650665Y-146054352D01*
X185644773Y-146050821D01*
X185639255Y-146046729D01*
X185634166Y-146042115D01*
X185629552Y-146037026D01*
X185625460Y-146031508D01*
X185621929Y-146025616D01*
X185618991Y-146019406D01*
X185616677Y-146012938D01*
X185615008Y-146006274D01*
X185614000Y-145999479D01*
X185613663Y-145992618D01*
X185613663Y-145332618D01*
X185614000Y-145325757D01*
X185615008Y-145318962D01*
X185616677Y-145312298D01*
X185618991Y-145305830D01*
X185621929Y-145299620D01*
X185625460Y-145293728D01*
X185629552Y-145288210D01*
X185634166Y-145283121D01*
X185639255Y-145278507D01*
X185644773Y-145274415D01*
X185650665Y-145270884D01*
X185656875Y-145267946D01*
X185663343Y-145265632D01*
X185670007Y-145263963D01*
X185676802Y-145262955D01*
X185683663Y-145262618D01*
X185823663Y-145262618D01*
X185830524Y-145262955D01*
X185830524Y-145262955D01*
G37*
D38*
G04 #@! TO.P,U4,14*
G04 #@! TO.N,Net-(U4-Pad14)*
X185753663Y-145662618D03*
D37*
G04 #@! TD*
G04 #@! TO.N,Net-(U4-Pad13)*
G04 #@! TO.C,U4*
G36*
X185330524Y-145262955D02*
X185337319Y-145263963D01*
X185343983Y-145265632D01*
X185350451Y-145267946D01*
X185356661Y-145270884D01*
X185362553Y-145274415D01*
X185368071Y-145278507D01*
X185373160Y-145283121D01*
X185377774Y-145288210D01*
X185381866Y-145293728D01*
X185385397Y-145299620D01*
X185388335Y-145305830D01*
X185390649Y-145312298D01*
X185392318Y-145318962D01*
X185393326Y-145325757D01*
X185393663Y-145332618D01*
X185393663Y-145992618D01*
X185393326Y-145999479D01*
X185392318Y-146006274D01*
X185390649Y-146012938D01*
X185388335Y-146019406D01*
X185385397Y-146025616D01*
X185381866Y-146031508D01*
X185377774Y-146037026D01*
X185373160Y-146042115D01*
X185368071Y-146046729D01*
X185362553Y-146050821D01*
X185356661Y-146054352D01*
X185350451Y-146057290D01*
X185343983Y-146059604D01*
X185337319Y-146061273D01*
X185330524Y-146062281D01*
X185323663Y-146062618D01*
X185183663Y-146062618D01*
X185176802Y-146062281D01*
X185170007Y-146061273D01*
X185163343Y-146059604D01*
X185156875Y-146057290D01*
X185150665Y-146054352D01*
X185144773Y-146050821D01*
X185139255Y-146046729D01*
X185134166Y-146042115D01*
X185129552Y-146037026D01*
X185125460Y-146031508D01*
X185121929Y-146025616D01*
X185118991Y-146019406D01*
X185116677Y-146012938D01*
X185115008Y-146006274D01*
X185114000Y-145999479D01*
X185113663Y-145992618D01*
X185113663Y-145332618D01*
X185114000Y-145325757D01*
X185115008Y-145318962D01*
X185116677Y-145312298D01*
X185118991Y-145305830D01*
X185121929Y-145299620D01*
X185125460Y-145293728D01*
X185129552Y-145288210D01*
X185134166Y-145283121D01*
X185139255Y-145278507D01*
X185144773Y-145274415D01*
X185150665Y-145270884D01*
X185156875Y-145267946D01*
X185163343Y-145265632D01*
X185170007Y-145263963D01*
X185176802Y-145262955D01*
X185183663Y-145262618D01*
X185323663Y-145262618D01*
X185330524Y-145262955D01*
X185330524Y-145262955D01*
G37*
D38*
G04 #@! TO.P,U4,13*
G04 #@! TO.N,Net-(U4-Pad13)*
X185253663Y-145662618D03*
D37*
G04 #@! TD*
G04 #@! TO.N,Net-(U4-Pad12)*
G04 #@! TO.C,U4*
G36*
X184840524Y-144772955D02*
X184847319Y-144773963D01*
X184853983Y-144775632D01*
X184860451Y-144777946D01*
X184866661Y-144780884D01*
X184872553Y-144784415D01*
X184878071Y-144788507D01*
X184883160Y-144793121D01*
X184887774Y-144798210D01*
X184891866Y-144803728D01*
X184895397Y-144809620D01*
X184898335Y-144815830D01*
X184900649Y-144822298D01*
X184902318Y-144828962D01*
X184903326Y-144835757D01*
X184903663Y-144842618D01*
X184903663Y-144982618D01*
X184903326Y-144989479D01*
X184902318Y-144996274D01*
X184900649Y-145002938D01*
X184898335Y-145009406D01*
X184895397Y-145015616D01*
X184891866Y-145021508D01*
X184887774Y-145027026D01*
X184883160Y-145032115D01*
X184878071Y-145036729D01*
X184872553Y-145040821D01*
X184866661Y-145044352D01*
X184860451Y-145047290D01*
X184853983Y-145049604D01*
X184847319Y-145051273D01*
X184840524Y-145052281D01*
X184833663Y-145052618D01*
X184173663Y-145052618D01*
X184166802Y-145052281D01*
X184160007Y-145051273D01*
X184153343Y-145049604D01*
X184146875Y-145047290D01*
X184140665Y-145044352D01*
X184134773Y-145040821D01*
X184129255Y-145036729D01*
X184124166Y-145032115D01*
X184119552Y-145027026D01*
X184115460Y-145021508D01*
X184111929Y-145015616D01*
X184108991Y-145009406D01*
X184106677Y-145002938D01*
X184105008Y-144996274D01*
X184104000Y-144989479D01*
X184103663Y-144982618D01*
X184103663Y-144842618D01*
X184104000Y-144835757D01*
X184105008Y-144828962D01*
X184106677Y-144822298D01*
X184108991Y-144815830D01*
X184111929Y-144809620D01*
X184115460Y-144803728D01*
X184119552Y-144798210D01*
X184124166Y-144793121D01*
X184129255Y-144788507D01*
X184134773Y-144784415D01*
X184140665Y-144780884D01*
X184146875Y-144777946D01*
X184153343Y-144775632D01*
X184160007Y-144773963D01*
X184166802Y-144772955D01*
X184173663Y-144772618D01*
X184833663Y-144772618D01*
X184840524Y-144772955D01*
X184840524Y-144772955D01*
G37*
D38*
G04 #@! TO.P,U4,12*
G04 #@! TO.N,Net-(U4-Pad12)*
X184503663Y-144912618D03*
D37*
G04 #@! TD*
G04 #@! TO.N,Net-(U4-Pad11)*
G04 #@! TO.C,U4*
G36*
X184840524Y-144272955D02*
X184847319Y-144273963D01*
X184853983Y-144275632D01*
X184860451Y-144277946D01*
X184866661Y-144280884D01*
X184872553Y-144284415D01*
X184878071Y-144288507D01*
X184883160Y-144293121D01*
X184887774Y-144298210D01*
X184891866Y-144303728D01*
X184895397Y-144309620D01*
X184898335Y-144315830D01*
X184900649Y-144322298D01*
X184902318Y-144328962D01*
X184903326Y-144335757D01*
X184903663Y-144342618D01*
X184903663Y-144482618D01*
X184903326Y-144489479D01*
X184902318Y-144496274D01*
X184900649Y-144502938D01*
X184898335Y-144509406D01*
X184895397Y-144515616D01*
X184891866Y-144521508D01*
X184887774Y-144527026D01*
X184883160Y-144532115D01*
X184878071Y-144536729D01*
X184872553Y-144540821D01*
X184866661Y-144544352D01*
X184860451Y-144547290D01*
X184853983Y-144549604D01*
X184847319Y-144551273D01*
X184840524Y-144552281D01*
X184833663Y-144552618D01*
X184173663Y-144552618D01*
X184166802Y-144552281D01*
X184160007Y-144551273D01*
X184153343Y-144549604D01*
X184146875Y-144547290D01*
X184140665Y-144544352D01*
X184134773Y-144540821D01*
X184129255Y-144536729D01*
X184124166Y-144532115D01*
X184119552Y-144527026D01*
X184115460Y-144521508D01*
X184111929Y-144515616D01*
X184108991Y-144509406D01*
X184106677Y-144502938D01*
X184105008Y-144496274D01*
X184104000Y-144489479D01*
X184103663Y-144482618D01*
X184103663Y-144342618D01*
X184104000Y-144335757D01*
X184105008Y-144328962D01*
X184106677Y-144322298D01*
X184108991Y-144315830D01*
X184111929Y-144309620D01*
X184115460Y-144303728D01*
X184119552Y-144298210D01*
X184124166Y-144293121D01*
X184129255Y-144288507D01*
X184134773Y-144284415D01*
X184140665Y-144280884D01*
X184146875Y-144277946D01*
X184153343Y-144275632D01*
X184160007Y-144273963D01*
X184166802Y-144272955D01*
X184173663Y-144272618D01*
X184833663Y-144272618D01*
X184840524Y-144272955D01*
X184840524Y-144272955D01*
G37*
D38*
G04 #@! TO.P,U4,11*
G04 #@! TO.N,Net-(U4-Pad11)*
X184503663Y-144412618D03*
D37*
G04 #@! TD*
G04 #@! TO.N,Net-(U4-Pad10)*
G04 #@! TO.C,U4*
G36*
X184840524Y-143772955D02*
X184847319Y-143773963D01*
X184853983Y-143775632D01*
X184860451Y-143777946D01*
X184866661Y-143780884D01*
X184872553Y-143784415D01*
X184878071Y-143788507D01*
X184883160Y-143793121D01*
X184887774Y-143798210D01*
X184891866Y-143803728D01*
X184895397Y-143809620D01*
X184898335Y-143815830D01*
X184900649Y-143822298D01*
X184902318Y-143828962D01*
X184903326Y-143835757D01*
X184903663Y-143842618D01*
X184903663Y-143982618D01*
X184903326Y-143989479D01*
X184902318Y-143996274D01*
X184900649Y-144002938D01*
X184898335Y-144009406D01*
X184895397Y-144015616D01*
X184891866Y-144021508D01*
X184887774Y-144027026D01*
X184883160Y-144032115D01*
X184878071Y-144036729D01*
X184872553Y-144040821D01*
X184866661Y-144044352D01*
X184860451Y-144047290D01*
X184853983Y-144049604D01*
X184847319Y-144051273D01*
X184840524Y-144052281D01*
X184833663Y-144052618D01*
X184173663Y-144052618D01*
X184166802Y-144052281D01*
X184160007Y-144051273D01*
X184153343Y-144049604D01*
X184146875Y-144047290D01*
X184140665Y-144044352D01*
X184134773Y-144040821D01*
X184129255Y-144036729D01*
X184124166Y-144032115D01*
X184119552Y-144027026D01*
X184115460Y-144021508D01*
X184111929Y-144015616D01*
X184108991Y-144009406D01*
X184106677Y-144002938D01*
X184105008Y-143996274D01*
X184104000Y-143989479D01*
X184103663Y-143982618D01*
X184103663Y-143842618D01*
X184104000Y-143835757D01*
X184105008Y-143828962D01*
X184106677Y-143822298D01*
X184108991Y-143815830D01*
X184111929Y-143809620D01*
X184115460Y-143803728D01*
X184119552Y-143798210D01*
X184124166Y-143793121D01*
X184129255Y-143788507D01*
X184134773Y-143784415D01*
X184140665Y-143780884D01*
X184146875Y-143777946D01*
X184153343Y-143775632D01*
X184160007Y-143773963D01*
X184166802Y-143772955D01*
X184173663Y-143772618D01*
X184833663Y-143772618D01*
X184840524Y-143772955D01*
X184840524Y-143772955D01*
G37*
D38*
G04 #@! TO.P,U4,10*
G04 #@! TO.N,Net-(U4-Pad10)*
X184503663Y-143912618D03*
D37*
G04 #@! TD*
G04 #@! TO.N,Net-(U4-Pad9)*
G04 #@! TO.C,U4*
G36*
X184840524Y-143272955D02*
X184847319Y-143273963D01*
X184853983Y-143275632D01*
X184860451Y-143277946D01*
X184866661Y-143280884D01*
X184872553Y-143284415D01*
X184878071Y-143288507D01*
X184883160Y-143293121D01*
X184887774Y-143298210D01*
X184891866Y-143303728D01*
X184895397Y-143309620D01*
X184898335Y-143315830D01*
X184900649Y-143322298D01*
X184902318Y-143328962D01*
X184903326Y-143335757D01*
X184903663Y-143342618D01*
X184903663Y-143482618D01*
X184903326Y-143489479D01*
X184902318Y-143496274D01*
X184900649Y-143502938D01*
X184898335Y-143509406D01*
X184895397Y-143515616D01*
X184891866Y-143521508D01*
X184887774Y-143527026D01*
X184883160Y-143532115D01*
X184878071Y-143536729D01*
X184872553Y-143540821D01*
X184866661Y-143544352D01*
X184860451Y-143547290D01*
X184853983Y-143549604D01*
X184847319Y-143551273D01*
X184840524Y-143552281D01*
X184833663Y-143552618D01*
X184173663Y-143552618D01*
X184166802Y-143552281D01*
X184160007Y-143551273D01*
X184153343Y-143549604D01*
X184146875Y-143547290D01*
X184140665Y-143544352D01*
X184134773Y-143540821D01*
X184129255Y-143536729D01*
X184124166Y-143532115D01*
X184119552Y-143527026D01*
X184115460Y-143521508D01*
X184111929Y-143515616D01*
X184108991Y-143509406D01*
X184106677Y-143502938D01*
X184105008Y-143496274D01*
X184104000Y-143489479D01*
X184103663Y-143482618D01*
X184103663Y-143342618D01*
X184104000Y-143335757D01*
X184105008Y-143328962D01*
X184106677Y-143322298D01*
X184108991Y-143315830D01*
X184111929Y-143309620D01*
X184115460Y-143303728D01*
X184119552Y-143298210D01*
X184124166Y-143293121D01*
X184129255Y-143288507D01*
X184134773Y-143284415D01*
X184140665Y-143280884D01*
X184146875Y-143277946D01*
X184153343Y-143275632D01*
X184160007Y-143273963D01*
X184166802Y-143272955D01*
X184173663Y-143272618D01*
X184833663Y-143272618D01*
X184840524Y-143272955D01*
X184840524Y-143272955D01*
G37*
D38*
G04 #@! TO.P,U4,9*
G04 #@! TO.N,Net-(U4-Pad9)*
X184503663Y-143412618D03*
D37*
G04 #@! TD*
G04 #@! TO.N,VBUS*
G04 #@! TO.C,U4*
G36*
X184840524Y-142772955D02*
X184847319Y-142773963D01*
X184853983Y-142775632D01*
X184860451Y-142777946D01*
X184866661Y-142780884D01*
X184872553Y-142784415D01*
X184878071Y-142788507D01*
X184883160Y-142793121D01*
X184887774Y-142798210D01*
X184891866Y-142803728D01*
X184895397Y-142809620D01*
X184898335Y-142815830D01*
X184900649Y-142822298D01*
X184902318Y-142828962D01*
X184903326Y-142835757D01*
X184903663Y-142842618D01*
X184903663Y-142982618D01*
X184903326Y-142989479D01*
X184902318Y-142996274D01*
X184900649Y-143002938D01*
X184898335Y-143009406D01*
X184895397Y-143015616D01*
X184891866Y-143021508D01*
X184887774Y-143027026D01*
X184883160Y-143032115D01*
X184878071Y-143036729D01*
X184872553Y-143040821D01*
X184866661Y-143044352D01*
X184860451Y-143047290D01*
X184853983Y-143049604D01*
X184847319Y-143051273D01*
X184840524Y-143052281D01*
X184833663Y-143052618D01*
X184173663Y-143052618D01*
X184166802Y-143052281D01*
X184160007Y-143051273D01*
X184153343Y-143049604D01*
X184146875Y-143047290D01*
X184140665Y-143044352D01*
X184134773Y-143040821D01*
X184129255Y-143036729D01*
X184124166Y-143032115D01*
X184119552Y-143027026D01*
X184115460Y-143021508D01*
X184111929Y-143015616D01*
X184108991Y-143009406D01*
X184106677Y-143002938D01*
X184105008Y-142996274D01*
X184104000Y-142989479D01*
X184103663Y-142982618D01*
X184103663Y-142842618D01*
X184104000Y-142835757D01*
X184105008Y-142828962D01*
X184106677Y-142822298D01*
X184108991Y-142815830D01*
X184111929Y-142809620D01*
X184115460Y-142803728D01*
X184119552Y-142798210D01*
X184124166Y-142793121D01*
X184129255Y-142788507D01*
X184134773Y-142784415D01*
X184140665Y-142780884D01*
X184146875Y-142777946D01*
X184153343Y-142775632D01*
X184160007Y-142773963D01*
X184166802Y-142772955D01*
X184173663Y-142772618D01*
X184833663Y-142772618D01*
X184840524Y-142772955D01*
X184840524Y-142772955D01*
G37*
D38*
G04 #@! TO.P,U4,8*
G04 #@! TO.N,VBUS*
X184503663Y-142912618D03*
D37*
G04 #@! TD*
G04 #@! TO.N,3.3V*
G04 #@! TO.C,U4*
G36*
X184840524Y-142272955D02*
X184847319Y-142273963D01*
X184853983Y-142275632D01*
X184860451Y-142277946D01*
X184866661Y-142280884D01*
X184872553Y-142284415D01*
X184878071Y-142288507D01*
X184883160Y-142293121D01*
X184887774Y-142298210D01*
X184891866Y-142303728D01*
X184895397Y-142309620D01*
X184898335Y-142315830D01*
X184900649Y-142322298D01*
X184902318Y-142328962D01*
X184903326Y-142335757D01*
X184903663Y-142342618D01*
X184903663Y-142482618D01*
X184903326Y-142489479D01*
X184902318Y-142496274D01*
X184900649Y-142502938D01*
X184898335Y-142509406D01*
X184895397Y-142515616D01*
X184891866Y-142521508D01*
X184887774Y-142527026D01*
X184883160Y-142532115D01*
X184878071Y-142536729D01*
X184872553Y-142540821D01*
X184866661Y-142544352D01*
X184860451Y-142547290D01*
X184853983Y-142549604D01*
X184847319Y-142551273D01*
X184840524Y-142552281D01*
X184833663Y-142552618D01*
X184173663Y-142552618D01*
X184166802Y-142552281D01*
X184160007Y-142551273D01*
X184153343Y-142549604D01*
X184146875Y-142547290D01*
X184140665Y-142544352D01*
X184134773Y-142540821D01*
X184129255Y-142536729D01*
X184124166Y-142532115D01*
X184119552Y-142527026D01*
X184115460Y-142521508D01*
X184111929Y-142515616D01*
X184108991Y-142509406D01*
X184106677Y-142502938D01*
X184105008Y-142496274D01*
X184104000Y-142489479D01*
X184103663Y-142482618D01*
X184103663Y-142342618D01*
X184104000Y-142335757D01*
X184105008Y-142328962D01*
X184106677Y-142322298D01*
X184108991Y-142315830D01*
X184111929Y-142309620D01*
X184115460Y-142303728D01*
X184119552Y-142298210D01*
X184124166Y-142293121D01*
X184129255Y-142288507D01*
X184134773Y-142284415D01*
X184140665Y-142280884D01*
X184146875Y-142277946D01*
X184153343Y-142275632D01*
X184160007Y-142273963D01*
X184166802Y-142272955D01*
X184173663Y-142272618D01*
X184833663Y-142272618D01*
X184840524Y-142272955D01*
X184840524Y-142272955D01*
G37*
D38*
G04 #@! TO.P,U4,7*
G04 #@! TO.N,3.3V*
X184503663Y-142412618D03*
D37*
G04 #@! TD*
G04 #@! TO.N,3.3V*
G04 #@! TO.C,U4*
G36*
X185330524Y-141262955D02*
X185337319Y-141263963D01*
X185343983Y-141265632D01*
X185350451Y-141267946D01*
X185356661Y-141270884D01*
X185362553Y-141274415D01*
X185368071Y-141278507D01*
X185373160Y-141283121D01*
X185377774Y-141288210D01*
X185381866Y-141293728D01*
X185385397Y-141299620D01*
X185388335Y-141305830D01*
X185390649Y-141312298D01*
X185392318Y-141318962D01*
X185393326Y-141325757D01*
X185393663Y-141332618D01*
X185393663Y-141992618D01*
X185393326Y-141999479D01*
X185392318Y-142006274D01*
X185390649Y-142012938D01*
X185388335Y-142019406D01*
X185385397Y-142025616D01*
X185381866Y-142031508D01*
X185377774Y-142037026D01*
X185373160Y-142042115D01*
X185368071Y-142046729D01*
X185362553Y-142050821D01*
X185356661Y-142054352D01*
X185350451Y-142057290D01*
X185343983Y-142059604D01*
X185337319Y-142061273D01*
X185330524Y-142062281D01*
X185323663Y-142062618D01*
X185183663Y-142062618D01*
X185176802Y-142062281D01*
X185170007Y-142061273D01*
X185163343Y-142059604D01*
X185156875Y-142057290D01*
X185150665Y-142054352D01*
X185144773Y-142050821D01*
X185139255Y-142046729D01*
X185134166Y-142042115D01*
X185129552Y-142037026D01*
X185125460Y-142031508D01*
X185121929Y-142025616D01*
X185118991Y-142019406D01*
X185116677Y-142012938D01*
X185115008Y-142006274D01*
X185114000Y-141999479D01*
X185113663Y-141992618D01*
X185113663Y-141332618D01*
X185114000Y-141325757D01*
X185115008Y-141318962D01*
X185116677Y-141312298D01*
X185118991Y-141305830D01*
X185121929Y-141299620D01*
X185125460Y-141293728D01*
X185129552Y-141288210D01*
X185134166Y-141283121D01*
X185139255Y-141278507D01*
X185144773Y-141274415D01*
X185150665Y-141270884D01*
X185156875Y-141267946D01*
X185163343Y-141265632D01*
X185170007Y-141263963D01*
X185176802Y-141262955D01*
X185183663Y-141262618D01*
X185323663Y-141262618D01*
X185330524Y-141262955D01*
X185330524Y-141262955D01*
G37*
D38*
G04 #@! TO.P,U4,6*
G04 #@! TO.N,3.3V*
X185253663Y-141662618D03*
D37*
G04 #@! TD*
G04 #@! TO.N,3.3V*
G04 #@! TO.C,U4*
G36*
X185830524Y-141262955D02*
X185837319Y-141263963D01*
X185843983Y-141265632D01*
X185850451Y-141267946D01*
X185856661Y-141270884D01*
X185862553Y-141274415D01*
X185868071Y-141278507D01*
X185873160Y-141283121D01*
X185877774Y-141288210D01*
X185881866Y-141293728D01*
X185885397Y-141299620D01*
X185888335Y-141305830D01*
X185890649Y-141312298D01*
X185892318Y-141318962D01*
X185893326Y-141325757D01*
X185893663Y-141332618D01*
X185893663Y-141992618D01*
X185893326Y-141999479D01*
X185892318Y-142006274D01*
X185890649Y-142012938D01*
X185888335Y-142019406D01*
X185885397Y-142025616D01*
X185881866Y-142031508D01*
X185877774Y-142037026D01*
X185873160Y-142042115D01*
X185868071Y-142046729D01*
X185862553Y-142050821D01*
X185856661Y-142054352D01*
X185850451Y-142057290D01*
X185843983Y-142059604D01*
X185837319Y-142061273D01*
X185830524Y-142062281D01*
X185823663Y-142062618D01*
X185683663Y-142062618D01*
X185676802Y-142062281D01*
X185670007Y-142061273D01*
X185663343Y-142059604D01*
X185656875Y-142057290D01*
X185650665Y-142054352D01*
X185644773Y-142050821D01*
X185639255Y-142046729D01*
X185634166Y-142042115D01*
X185629552Y-142037026D01*
X185625460Y-142031508D01*
X185621929Y-142025616D01*
X185618991Y-142019406D01*
X185616677Y-142012938D01*
X185615008Y-142006274D01*
X185614000Y-141999479D01*
X185613663Y-141992618D01*
X185613663Y-141332618D01*
X185614000Y-141325757D01*
X185615008Y-141318962D01*
X185616677Y-141312298D01*
X185618991Y-141305830D01*
X185621929Y-141299620D01*
X185625460Y-141293728D01*
X185629552Y-141288210D01*
X185634166Y-141283121D01*
X185639255Y-141278507D01*
X185644773Y-141274415D01*
X185650665Y-141270884D01*
X185656875Y-141267946D01*
X185663343Y-141265632D01*
X185670007Y-141263963D01*
X185676802Y-141262955D01*
X185683663Y-141262618D01*
X185823663Y-141262618D01*
X185830524Y-141262955D01*
X185830524Y-141262955D01*
G37*
D38*
G04 #@! TO.P,U4,5*
G04 #@! TO.N,3.3V*
X185753663Y-141662618D03*
D37*
G04 #@! TD*
G04 #@! TO.N,/USBD-*
G04 #@! TO.C,U4*
G36*
X186330524Y-141262955D02*
X186337319Y-141263963D01*
X186343983Y-141265632D01*
X186350451Y-141267946D01*
X186356661Y-141270884D01*
X186362553Y-141274415D01*
X186368071Y-141278507D01*
X186373160Y-141283121D01*
X186377774Y-141288210D01*
X186381866Y-141293728D01*
X186385397Y-141299620D01*
X186388335Y-141305830D01*
X186390649Y-141312298D01*
X186392318Y-141318962D01*
X186393326Y-141325757D01*
X186393663Y-141332618D01*
X186393663Y-141992618D01*
X186393326Y-141999479D01*
X186392318Y-142006274D01*
X186390649Y-142012938D01*
X186388335Y-142019406D01*
X186385397Y-142025616D01*
X186381866Y-142031508D01*
X186377774Y-142037026D01*
X186373160Y-142042115D01*
X186368071Y-142046729D01*
X186362553Y-142050821D01*
X186356661Y-142054352D01*
X186350451Y-142057290D01*
X186343983Y-142059604D01*
X186337319Y-142061273D01*
X186330524Y-142062281D01*
X186323663Y-142062618D01*
X186183663Y-142062618D01*
X186176802Y-142062281D01*
X186170007Y-142061273D01*
X186163343Y-142059604D01*
X186156875Y-142057290D01*
X186150665Y-142054352D01*
X186144773Y-142050821D01*
X186139255Y-142046729D01*
X186134166Y-142042115D01*
X186129552Y-142037026D01*
X186125460Y-142031508D01*
X186121929Y-142025616D01*
X186118991Y-142019406D01*
X186116677Y-142012938D01*
X186115008Y-142006274D01*
X186114000Y-141999479D01*
X186113663Y-141992618D01*
X186113663Y-141332618D01*
X186114000Y-141325757D01*
X186115008Y-141318962D01*
X186116677Y-141312298D01*
X186118991Y-141305830D01*
X186121929Y-141299620D01*
X186125460Y-141293728D01*
X186129552Y-141288210D01*
X186134166Y-141283121D01*
X186139255Y-141278507D01*
X186144773Y-141274415D01*
X186150665Y-141270884D01*
X186156875Y-141267946D01*
X186163343Y-141265632D01*
X186170007Y-141263963D01*
X186176802Y-141262955D01*
X186183663Y-141262618D01*
X186323663Y-141262618D01*
X186330524Y-141262955D01*
X186330524Y-141262955D01*
G37*
D38*
G04 #@! TO.P,U4,4*
G04 #@! TO.N,/USBD-*
X186253663Y-141662618D03*
D37*
G04 #@! TD*
G04 #@! TO.N,/USBD+*
G04 #@! TO.C,U4*
G36*
X186830524Y-141262955D02*
X186837319Y-141263963D01*
X186843983Y-141265632D01*
X186850451Y-141267946D01*
X186856661Y-141270884D01*
X186862553Y-141274415D01*
X186868071Y-141278507D01*
X186873160Y-141283121D01*
X186877774Y-141288210D01*
X186881866Y-141293728D01*
X186885397Y-141299620D01*
X186888335Y-141305830D01*
X186890649Y-141312298D01*
X186892318Y-141318962D01*
X186893326Y-141325757D01*
X186893663Y-141332618D01*
X186893663Y-141992618D01*
X186893326Y-141999479D01*
X186892318Y-142006274D01*
X186890649Y-142012938D01*
X186888335Y-142019406D01*
X186885397Y-142025616D01*
X186881866Y-142031508D01*
X186877774Y-142037026D01*
X186873160Y-142042115D01*
X186868071Y-142046729D01*
X186862553Y-142050821D01*
X186856661Y-142054352D01*
X186850451Y-142057290D01*
X186843983Y-142059604D01*
X186837319Y-142061273D01*
X186830524Y-142062281D01*
X186823663Y-142062618D01*
X186683663Y-142062618D01*
X186676802Y-142062281D01*
X186670007Y-142061273D01*
X186663343Y-142059604D01*
X186656875Y-142057290D01*
X186650665Y-142054352D01*
X186644773Y-142050821D01*
X186639255Y-142046729D01*
X186634166Y-142042115D01*
X186629552Y-142037026D01*
X186625460Y-142031508D01*
X186621929Y-142025616D01*
X186618991Y-142019406D01*
X186616677Y-142012938D01*
X186615008Y-142006274D01*
X186614000Y-141999479D01*
X186613663Y-141992618D01*
X186613663Y-141332618D01*
X186614000Y-141325757D01*
X186615008Y-141318962D01*
X186616677Y-141312298D01*
X186618991Y-141305830D01*
X186621929Y-141299620D01*
X186625460Y-141293728D01*
X186629552Y-141288210D01*
X186634166Y-141283121D01*
X186639255Y-141278507D01*
X186644773Y-141274415D01*
X186650665Y-141270884D01*
X186656875Y-141267946D01*
X186663343Y-141265632D01*
X186670007Y-141263963D01*
X186676802Y-141262955D01*
X186683663Y-141262618D01*
X186823663Y-141262618D01*
X186830524Y-141262955D01*
X186830524Y-141262955D01*
G37*
D38*
G04 #@! TO.P,U4,3*
G04 #@! TO.N,/USBD+*
X186753663Y-141662618D03*
D37*
G04 #@! TD*
G04 #@! TO.N,GND*
G04 #@! TO.C,U4*
G36*
X187330524Y-141262955D02*
X187337319Y-141263963D01*
X187343983Y-141265632D01*
X187350451Y-141267946D01*
X187356661Y-141270884D01*
X187362553Y-141274415D01*
X187368071Y-141278507D01*
X187373160Y-141283121D01*
X187377774Y-141288210D01*
X187381866Y-141293728D01*
X187385397Y-141299620D01*
X187388335Y-141305830D01*
X187390649Y-141312298D01*
X187392318Y-141318962D01*
X187393326Y-141325757D01*
X187393663Y-141332618D01*
X187393663Y-141992618D01*
X187393326Y-141999479D01*
X187392318Y-142006274D01*
X187390649Y-142012938D01*
X187388335Y-142019406D01*
X187385397Y-142025616D01*
X187381866Y-142031508D01*
X187377774Y-142037026D01*
X187373160Y-142042115D01*
X187368071Y-142046729D01*
X187362553Y-142050821D01*
X187356661Y-142054352D01*
X187350451Y-142057290D01*
X187343983Y-142059604D01*
X187337319Y-142061273D01*
X187330524Y-142062281D01*
X187323663Y-142062618D01*
X187183663Y-142062618D01*
X187176802Y-142062281D01*
X187170007Y-142061273D01*
X187163343Y-142059604D01*
X187156875Y-142057290D01*
X187150665Y-142054352D01*
X187144773Y-142050821D01*
X187139255Y-142046729D01*
X187134166Y-142042115D01*
X187129552Y-142037026D01*
X187125460Y-142031508D01*
X187121929Y-142025616D01*
X187118991Y-142019406D01*
X187116677Y-142012938D01*
X187115008Y-142006274D01*
X187114000Y-141999479D01*
X187113663Y-141992618D01*
X187113663Y-141332618D01*
X187114000Y-141325757D01*
X187115008Y-141318962D01*
X187116677Y-141312298D01*
X187118991Y-141305830D01*
X187121929Y-141299620D01*
X187125460Y-141293728D01*
X187129552Y-141288210D01*
X187134166Y-141283121D01*
X187139255Y-141278507D01*
X187144773Y-141274415D01*
X187150665Y-141270884D01*
X187156875Y-141267946D01*
X187163343Y-141265632D01*
X187170007Y-141263963D01*
X187176802Y-141262955D01*
X187183663Y-141262618D01*
X187323663Y-141262618D01*
X187330524Y-141262955D01*
X187330524Y-141262955D01*
G37*
D38*
G04 #@! TO.P,U4,2*
G04 #@! TO.N,GND*
X187253663Y-141662618D03*
D37*
G04 #@! TD*
G04 #@! TO.N,Net-(U4-Pad1)*
G04 #@! TO.C,U4*
G36*
X187830524Y-141262955D02*
X187837319Y-141263963D01*
X187843983Y-141265632D01*
X187850451Y-141267946D01*
X187856661Y-141270884D01*
X187862553Y-141274415D01*
X187868071Y-141278507D01*
X187873160Y-141283121D01*
X187877774Y-141288210D01*
X187881866Y-141293728D01*
X187885397Y-141299620D01*
X187888335Y-141305830D01*
X187890649Y-141312298D01*
X187892318Y-141318962D01*
X187893326Y-141325757D01*
X187893663Y-141332618D01*
X187893663Y-141992618D01*
X187893326Y-141999479D01*
X187892318Y-142006274D01*
X187890649Y-142012938D01*
X187888335Y-142019406D01*
X187885397Y-142025616D01*
X187881866Y-142031508D01*
X187877774Y-142037026D01*
X187873160Y-142042115D01*
X187868071Y-142046729D01*
X187862553Y-142050821D01*
X187856661Y-142054352D01*
X187850451Y-142057290D01*
X187843983Y-142059604D01*
X187837319Y-142061273D01*
X187830524Y-142062281D01*
X187823663Y-142062618D01*
X187683663Y-142062618D01*
X187676802Y-142062281D01*
X187670007Y-142061273D01*
X187663343Y-142059604D01*
X187656875Y-142057290D01*
X187650665Y-142054352D01*
X187644773Y-142050821D01*
X187639255Y-142046729D01*
X187634166Y-142042115D01*
X187629552Y-142037026D01*
X187625460Y-142031508D01*
X187621929Y-142025616D01*
X187618991Y-142019406D01*
X187616677Y-142012938D01*
X187615008Y-142006274D01*
X187614000Y-141999479D01*
X187613663Y-141992618D01*
X187613663Y-141332618D01*
X187614000Y-141325757D01*
X187615008Y-141318962D01*
X187616677Y-141312298D01*
X187618991Y-141305830D01*
X187621929Y-141299620D01*
X187625460Y-141293728D01*
X187629552Y-141288210D01*
X187634166Y-141283121D01*
X187639255Y-141278507D01*
X187644773Y-141274415D01*
X187650665Y-141270884D01*
X187656875Y-141267946D01*
X187663343Y-141265632D01*
X187670007Y-141263963D01*
X187676802Y-141262955D01*
X187683663Y-141262618D01*
X187823663Y-141262618D01*
X187830524Y-141262955D01*
X187830524Y-141262955D01*
G37*
D38*
G04 #@! TO.P,U4,1*
G04 #@! TO.N,Net-(U4-Pad1)*
X187753663Y-141662618D03*
G04 #@! TD*
D15*
G04 #@! TO.P,C14,2*
G04 #@! TO.N,GND*
X199872600Y-67144000D03*
G04 #@! TO.P,C14,1*
G04 #@! TO.N,3.3V*
X199872600Y-65444000D03*
G04 #@! TD*
D22*
G04 #@! TO.P,R10,2*
G04 #@! TO.N,3.3V*
X193862960Y-91819360D03*
G04 #@! TO.P,R10,1*
G04 #@! TO.N,/P0.07*
X193862960Y-93519360D03*
G04 #@! TD*
D15*
G04 #@! TO.P,C16,2*
G04 #@! TO.N,GND*
X192506600Y-72452600D03*
G04 #@! TO.P,C16,1*
G04 #@! TO.N,3.3V*
X192506600Y-70752600D03*
G04 #@! TD*
G04 #@! TO.P,C17,2*
G04 #@! TO.N,GND*
X183083200Y-145360760D03*
G04 #@! TO.P,C17,1*
G04 #@! TO.N,VBUS*
X183083200Y-143660760D03*
G04 #@! TD*
D39*
G04 #@! TO.N,*
X202148440Y-128264920D03*
G04 #@! TO.N,GND*
X180812440Y-138856720D03*
X187062463Y-144196018D03*
X187087863Y-143180018D03*
X185944863Y-144196018D03*
X186046463Y-143078418D03*
X207134263Y-118866156D03*
X183706935Y-125991568D03*
X180509263Y-137795218D03*
X181144263Y-145364418D03*
X183220277Y-127810316D03*
X183098440Y-146532600D03*
X190433960Y-124485400D03*
X190342520Y-122915680D03*
X184861200Y-136855200D03*
X182905400Y-134975600D03*
X181330600Y-134645400D03*
X188810900Y-134124700D03*
X182968900Y-129336800D03*
X180898800Y-112420400D03*
X180898800Y-113703100D03*
X181051200Y-114909600D03*
X187883800Y-140500100D03*
X180035200Y-121412000D03*
X205892400Y-131864100D03*
X197789800Y-140601700D03*
X184053480Y-147518120D03*
X183372760Y-142295880D03*
X180715920Y-144287240D03*
X183067960Y-132130800D03*
X185877200Y-130688080D03*
X186801760Y-128361440D03*
X194853560Y-131978400D03*
X199268080Y-138856720D03*
X196839840Y-138983720D03*
X193172080Y-135163560D03*
X189478920Y-139146280D03*
X204409040Y-136535160D03*
X201259440Y-136966960D03*
X189382400Y-145999200D03*
X181041040Y-130144520D03*
X198856600Y-69088000D03*
X192943480Y-73939400D03*
X192521840Y-90972640D03*
X190784480Y-91074240D03*
X188341000Y-90992960D03*
X183875680Y-109407960D03*
X186060080Y-110373160D03*
X188341000Y-111480600D03*
X190601600Y-112903000D03*
X192836800Y-113944400D03*
X197510400Y-119938800D03*
X186563000Y-92689680D03*
X188356240Y-92730320D03*
X190703200Y-92730320D03*
X192481200Y-92770960D03*
X198323200Y-120827800D03*
X199938640Y-122128280D03*
X204089000Y-122910600D03*
X199450960Y-124241560D03*
X198968360Y-126232920D03*
X201173080Y-126116080D03*
X202260200Y-124393960D03*
X201660760Y-122864880D03*
X208198720Y-119400320D03*
X206288640Y-129854960D03*
X205892400Y-131864100D03*
X205892400Y-131864100D03*
X206598520Y-130881120D03*
X207294480Y-129738120D03*
X207543400Y-130804920D03*
X197032880Y-131734560D03*
X196027040Y-131790440D03*
X195696840Y-132775960D03*
X194630040Y-132969000D03*
X195046600Y-116890800D03*
X204216000Y-127568960D03*
X199085200Y-128706880D03*
X197002400Y-128910080D03*
X186258200Y-118262400D03*
X184124600Y-116560600D03*
X179984400Y-114645440D03*
X180365400Y-117637560D03*
X182209440Y-117551200D03*
X186385200Y-90855800D03*
X192714880Y-66629280D03*
X196484240Y-62712600D03*
X187289440Y-70500240D03*
X199847200Y-71831200D03*
X189966600Y-142041880D03*
X199110600Y-142443200D03*
X202341480Y-141980920D03*
X201076560Y-140131800D03*
X209692240Y-137378440D03*
X207299560Y-134884160D03*
X210047840Y-130997960D03*
X194472560Y-98506280D03*
X183819800Y-122326400D03*
X189509400Y-73431400D03*
X194233800Y-76733400D03*
X203936600Y-124968000D03*
X183311800Y-138404600D03*
G04 #@! TO.N,3.3V*
X184978040Y-91805760D03*
X192724866Y-136057989D03*
X200994853Y-142996493D03*
G04 #@! TO.N,VBAT*
X178318160Y-135092440D03*
G04 #@! TO.N,/SWDIO*
X209682080Y-133802120D03*
X206105760Y-136789160D03*
G04 #@! TO.N,/SWCLK*
X209442893Y-135066613D03*
X206830693Y-137943203D03*
G04 #@! TO.N,/RESET*
X208838800Y-143210280D03*
X203352400Y-146359880D03*
G04 #@! TO.N,/P0.07*
X202717263Y-131795520D03*
X193781680Y-95676720D03*
G04 #@! TO.N,/TXD*
X202016360Y-135869680D03*
X204612240Y-138353800D03*
G04 #@! TO.N,/DTR*
X190652400Y-147218400D03*
X189890400Y-143187618D03*
G04 #@! TO.N,/USBD-*
X185973972Y-140317578D03*
X183205120Y-139979400D03*
G04 #@! TO.N,/USBD+*
X184307951Y-141201466D03*
X186975954Y-139882489D03*
G04 #@! TO.N,/A0*
X199277221Y-132385474D03*
X190119000Y-71094600D03*
G04 #@! TO.N,/A1*
X200587154Y-132583509D03*
X196352160Y-68549520D03*
G04 #@! TO.N,/A2*
X201234040Y-131820920D03*
X201594720Y-61981080D03*
G04 #@! TO.N,/VBB*
X179964080Y-129555240D03*
G04 #@! TD*
D40*
G04 #@! TO.N,GND*
X181859863Y-142418018D02*
X181809863Y-142468018D01*
X187253663Y-141130237D02*
X187253663Y-141662618D01*
X187883800Y-140500100D02*
X187253663Y-141130237D01*
X190017400Y-66845000D02*
X189641300Y-67221100D01*
X205492263Y-131463963D02*
X205892400Y-131864100D01*
X205492263Y-130173756D02*
X205492263Y-131463963D01*
D41*
X196900804Y-130173756D02*
X197052262Y-130173756D01*
X196223880Y-130850680D02*
X196900804Y-130173756D01*
X194873880Y-130850680D02*
X196223880Y-130850680D01*
X180579117Y-132004117D02*
X179887880Y-131312880D01*
X181386797Y-132004117D02*
X180579117Y-132004117D01*
X181561796Y-132179116D02*
X181386797Y-132004117D01*
X181716977Y-132179116D02*
X181561796Y-132179116D01*
X180820152Y-125889968D02*
X180553360Y-126156760D01*
X182356035Y-125889968D02*
X180820152Y-125889968D01*
D40*
X184084178Y-147548818D02*
X184053480Y-147518120D01*
X185248863Y-147548818D02*
X184084178Y-147548818D01*
X183098440Y-145376000D02*
X183083200Y-145360760D01*
X183098440Y-146532600D02*
X183098440Y-145376000D01*
X183200622Y-142468018D02*
X183372760Y-142295880D01*
X181809863Y-142468018D02*
X183200622Y-142468018D01*
X181765293Y-132130800D02*
X181716977Y-132179116D01*
X183067960Y-132130800D02*
X181765293Y-132130800D01*
X181041040Y-130159720D02*
X179887880Y-131312880D01*
X181041040Y-130144520D02*
X181041040Y-130159720D01*
X185877200Y-131240160D02*
X185750200Y-131367160D01*
X185877200Y-130688080D02*
X185877200Y-131240160D01*
X186801760Y-127021743D02*
X186805735Y-127017768D01*
X186801760Y-128361440D02*
X186801760Y-127021743D01*
D41*
X182457635Y-125991568D02*
X182356035Y-125889968D01*
X183706935Y-125991568D02*
X182457635Y-125991568D01*
D40*
X197092263Y-131675177D02*
X197032880Y-131734560D01*
X197092263Y-130173756D02*
X197092263Y-131675177D01*
X197002400Y-130083893D02*
X197092263Y-130173756D01*
X197002400Y-128910080D02*
X197002400Y-130083893D01*
X206034663Y-118866156D02*
X205892263Y-118723756D01*
X207134263Y-118866156D02*
X206034663Y-118866156D01*
X209524600Y-145058680D02*
X208254600Y-145058680D01*
X206984600Y-145058680D02*
X208254600Y-145058680D01*
X205714600Y-145058680D02*
X206984600Y-145058680D01*
G04 #@! TO.N,3.3V*
X194032240Y-70752600D02*
X194045145Y-70739695D01*
X192506600Y-70752600D02*
X194032240Y-70752600D01*
D41*
X188155735Y-125117768D02*
X189250320Y-126212353D01*
X186805735Y-125117768D02*
X188155735Y-125117768D01*
X189250320Y-126212353D02*
X189250320Y-128132840D01*
X190163091Y-129045611D02*
X190178331Y-129045611D01*
X189250320Y-128132840D02*
X190163091Y-129045611D01*
X190178331Y-129045611D02*
X192003680Y-130870960D01*
X192003680Y-135413522D02*
X189332642Y-138084560D01*
X192003680Y-130870960D02*
X192003680Y-135413522D01*
X185426504Y-139417577D02*
X184852663Y-139991418D01*
X185664006Y-139417577D02*
X185426504Y-139417577D01*
X186997023Y-138084560D02*
X185664006Y-139417577D01*
X189332642Y-138084560D02*
X186997023Y-138084560D01*
X193829029Y-129045611D02*
X192003680Y-130870960D01*
X194778949Y-129045611D02*
X193829029Y-129045611D01*
X194873880Y-128950680D02*
X194778949Y-129045611D01*
X196652262Y-128063757D02*
X196692263Y-128063757D01*
X195765339Y-128950680D02*
X196652262Y-128063757D01*
X194873880Y-128950680D02*
X195765339Y-128950680D01*
X185134035Y-125117768D02*
X184956235Y-124939968D01*
X186805735Y-125117768D02*
X185134035Y-125117768D01*
X184631235Y-124939968D02*
X184956235Y-124939968D01*
X182549800Y-122858533D02*
X184631235Y-124939968D01*
X182549800Y-119811200D02*
X182549800Y-122858533D01*
D42*
X185253663Y-141162618D02*
X185253663Y-141662618D01*
X185064772Y-140973727D02*
X185253663Y-141162618D01*
X185064772Y-140203527D02*
X185064772Y-140973727D01*
D40*
X185753663Y-141662618D02*
X185253663Y-141662618D01*
X184939139Y-141662618D02*
X185253663Y-141662618D01*
X184929710Y-141653189D02*
X184939139Y-141662618D01*
X184503663Y-142412618D02*
X184503663Y-142079236D01*
X184503663Y-142079236D02*
X184929710Y-141653189D01*
X193849360Y-91805760D02*
X193862960Y-91819360D01*
X184978040Y-91805760D02*
X193849360Y-91805760D01*
X194726520Y-70058320D02*
X194045145Y-70739695D01*
X194726520Y-66703120D02*
X194726520Y-70058320D01*
X193862960Y-91819360D02*
X193862960Y-78262480D01*
X194045145Y-70789695D02*
X194045145Y-70739695D01*
X195290440Y-72034990D02*
X194045145Y-70789695D01*
X195290440Y-76835000D02*
X195290440Y-72034990D01*
X193862960Y-78262480D02*
X195290440Y-76835000D01*
X191756600Y-70752600D02*
X192506600Y-70752600D01*
X190689599Y-71819601D02*
X191756600Y-70752600D01*
X189770999Y-71819601D02*
X190689599Y-71819601D01*
X189067400Y-71116002D02*
X189770999Y-71819601D01*
X189067400Y-69045000D02*
X189067400Y-71116002D01*
X201891000Y-144311000D02*
X202265280Y-143936720D01*
X200487280Y-144311000D02*
X201891000Y-144311000D01*
X202265280Y-144211720D02*
X202265280Y-143936720D01*
X203112240Y-145058680D02*
X202265280Y-144211720D01*
X204444600Y-145058680D02*
X203112240Y-145058680D01*
X192003680Y-135413522D02*
X192080399Y-135413522D01*
X192080399Y-135413522D02*
X192724866Y-136057989D01*
X200487280Y-144311000D02*
X200487280Y-143504066D01*
X200487280Y-143504066D02*
X200994853Y-142996493D01*
X198353640Y-65261160D02*
X198120000Y-65494800D01*
X198353640Y-61836480D02*
X198353640Y-65261160D01*
X197370000Y-65494800D02*
X198120000Y-65494800D01*
X197036641Y-65828159D02*
X197370000Y-65494800D01*
X195292441Y-65828159D02*
X197036641Y-65828159D01*
X194467440Y-66653160D02*
X195292441Y-65828159D01*
X194467440Y-66853160D02*
X194467440Y-66653160D01*
X199821800Y-65494800D02*
X199872600Y-65444000D01*
X198120000Y-65494800D02*
X199821800Y-65494800D01*
D41*
G04 #@! TO.N,VBAT*
X182685401Y-116397199D02*
X179431521Y-116397199D01*
X184337200Y-112945400D02*
X184337200Y-114745400D01*
X184337200Y-114745400D02*
X182685401Y-116397199D01*
X179431521Y-116397199D02*
X178257200Y-117571520D01*
X178410840Y-133085840D02*
X178257200Y-133085840D01*
X178537880Y-133212880D02*
X178410840Y-133085840D01*
X179887880Y-133212880D02*
X178537880Y-133212880D01*
X178257200Y-117571520D02*
X178257200Y-133085840D01*
X178257200Y-133085840D02*
X178257200Y-133421120D01*
X181633213Y-133212880D02*
X181716977Y-133129116D01*
X179887880Y-133212880D02*
X181633213Y-133212880D01*
X178257200Y-133421120D02*
X178257200Y-135031480D01*
X178257200Y-135031480D02*
X178318160Y-135092440D01*
D40*
X183428801Y-117140599D02*
X182685401Y-116397199D01*
X190666944Y-121184410D02*
X189931354Y-121920000D01*
X191454444Y-121184410D02*
X190666944Y-121184410D01*
X189931354Y-121920000D02*
X184912000Y-121920000D01*
X183740041Y-117451839D02*
X183428801Y-117140599D01*
X183740041Y-120748041D02*
X183740041Y-117451839D01*
X184912000Y-121920000D02*
X183740041Y-120748041D01*
D42*
G04 #@! TO.N,VBUS*
X186515733Y-134858760D02*
X184317177Y-134858760D01*
X187335077Y-134039416D02*
X186515733Y-134858760D01*
X187335077Y-133089416D02*
X187335077Y-134039416D01*
D41*
X184317177Y-133129116D02*
X184317177Y-134858760D01*
X184317177Y-134858760D02*
X184317177Y-135652502D01*
D40*
X183831342Y-142912618D02*
X184503663Y-142912618D01*
X183083200Y-143660760D02*
X183831342Y-142912618D01*
D42*
X183083200Y-143660760D02*
X181427603Y-143660760D01*
X181427603Y-143660760D02*
X180734862Y-142968019D01*
X180734862Y-139893019D02*
X180759863Y-139868018D01*
X180759863Y-139868018D02*
X181809863Y-139868018D01*
X180734862Y-142968019D02*
X180734862Y-139893019D01*
D41*
X184317177Y-135652502D02*
X181809863Y-138159816D01*
X181809863Y-138159816D02*
X181809863Y-139818017D01*
D40*
G04 #@! TO.N,/SWDIO*
X204444600Y-139708680D02*
X204444600Y-141158680D01*
X204444600Y-139594442D02*
X204444600Y-139708680D01*
X206105760Y-137933282D02*
X204444600Y-139594442D01*
X206105760Y-136789160D02*
X206105760Y-137933282D01*
X206942263Y-120323756D02*
X205892263Y-120323756D01*
X209260440Y-122641933D02*
X206942263Y-120323756D01*
X209260440Y-133522720D02*
X209260440Y-122641933D01*
X209682080Y-133802120D02*
X209539840Y-133802120D01*
X209539840Y-133802120D02*
X209260440Y-133522720D01*
G04 #@! TO.N,/SWCLK*
X208745250Y-122826743D02*
X208745250Y-131914470D01*
X205892263Y-121023756D02*
X206942263Y-121023756D01*
X206942263Y-121023756D02*
X208745250Y-122826743D01*
X208745250Y-131914470D02*
X208745250Y-134368970D01*
X208745250Y-134368970D02*
X209442893Y-135066613D01*
X205714600Y-139059296D02*
X205714600Y-141158680D01*
X206830693Y-137943203D02*
X205714600Y-139059296D01*
G04 #@! TO.N,/RESET*
X201799560Y-146011000D02*
X202265280Y-146476720D01*
X200487280Y-146011000D02*
X201799560Y-146011000D01*
X202265280Y-146201720D02*
X202265280Y-146476720D01*
X209524600Y-141158680D02*
X209524600Y-142524480D01*
X209524600Y-142524480D02*
X208838800Y-143210280D01*
X202382120Y-146359880D02*
X202265280Y-146476720D01*
X203352400Y-146359880D02*
X202382120Y-146359880D01*
X209524600Y-139708680D02*
X209524600Y-141158680D01*
X208295240Y-138479320D02*
X209524600Y-139708680D01*
X208295240Y-123076733D02*
X208295240Y-138479320D01*
X206942263Y-121723756D02*
X208295240Y-123076733D01*
X205892263Y-121723756D02*
X206942263Y-121723756D01*
X200487280Y-146048500D02*
X200487280Y-146011000D01*
X199241180Y-147294600D02*
X200487280Y-146048500D01*
X198094600Y-147294600D02*
X199241180Y-147294600D01*
G04 #@! TO.N,/RXD*
X204101700Y-132499900D02*
X204101700Y-133287400D01*
X204101700Y-131933193D02*
X204101700Y-132499900D01*
X203392263Y-131223756D02*
X204101700Y-131933193D01*
X203392263Y-130173756D02*
X203392263Y-131223756D01*
G04 #@! TO.N,/P0.07*
X202692263Y-130173756D02*
X202692263Y-131770520D01*
X202692263Y-131770520D02*
X202717263Y-131795520D01*
X193781680Y-93600640D02*
X193862960Y-93519360D01*
X193781680Y-95676720D02*
X193781680Y-93600640D01*
X194044200Y-93700600D02*
X193862960Y-93519360D01*
X195961000Y-93700600D02*
X194044200Y-93700600D01*
X194034040Y-93690440D02*
X193862960Y-93519360D01*
X196611240Y-93690440D02*
X194034040Y-93690440D01*
G04 #@! TO.N,/TXD*
X201992263Y-135845583D02*
X202016360Y-135869680D01*
X201992263Y-130173756D02*
X201992263Y-135845583D01*
X204612240Y-138353800D02*
X197104000Y-145862040D01*
X189003663Y-144412618D02*
X188503663Y-144412618D01*
X190453085Y-145862040D02*
X189003663Y-144412618D01*
X197104000Y-145862040D02*
X190453085Y-145862040D01*
G04 #@! TO.N,Net-(C2-Pad1)*
X199338337Y-136184276D02*
X199338337Y-133941676D01*
D42*
X198492263Y-133083202D02*
X199344537Y-133935476D01*
X198492263Y-130173756D02*
X198492263Y-133083202D01*
D40*
G04 #@! TO.N,Net-(C1-Pad1)*
X196899937Y-136209676D02*
X196899937Y-133980076D01*
X196899937Y-133980076D02*
X196944537Y-133935476D01*
D42*
X197792263Y-133087750D02*
X196944537Y-133935476D01*
X197792263Y-130173756D02*
X197792263Y-133087750D01*
D40*
G04 #@! TO.N,Net-(L2-Pad2)*
X193592098Y-127323756D02*
X192990244Y-127925610D01*
X196692263Y-127323756D02*
X193592098Y-127323756D01*
G04 #@! TO.N,Net-(C4-Pad1)*
X193588390Y-126623756D02*
X192990244Y-126025610D01*
X196692263Y-126623756D02*
X193588390Y-126623756D01*
X191513390Y-126025610D02*
X191414400Y-126124600D01*
X192990244Y-126025610D02*
X191513390Y-126025610D01*
G04 #@! TO.N,/A7/P0.31*
X193242744Y-124410210D02*
X193205244Y-124410210D01*
X193992744Y-125160210D02*
X193242744Y-124410210D01*
X193992744Y-125197710D02*
X193992744Y-125160210D01*
X194718790Y-125923756D02*
X193992744Y-125197710D01*
X196692263Y-125923756D02*
X194718790Y-125923756D01*
X193205244Y-122823610D02*
X193218844Y-122810010D01*
X193205244Y-124410210D02*
X193205244Y-122823610D01*
X193218844Y-121248810D02*
X193154444Y-121184410D01*
X193218844Y-122810010D02*
X193218844Y-121248810D01*
G04 #@! TO.N,/SCL*
X185955039Y-120631319D02*
X185105040Y-119781320D01*
X186280041Y-120956321D02*
X185955039Y-120631319D01*
X188209041Y-120956321D02*
X186280041Y-120956321D01*
X188805953Y-120359409D02*
X188209041Y-120956321D01*
X193951945Y-120359409D02*
X188805953Y-120359409D01*
X196692263Y-122423756D02*
X195642263Y-122423756D01*
X195642263Y-122423756D02*
X194016945Y-120798438D01*
X194016945Y-120424409D02*
X193951945Y-120359409D01*
X194016945Y-120798438D02*
X194016945Y-120424409D01*
G04 #@! TO.N,/SDA*
X189517723Y-119803678D02*
X189454314Y-119781490D01*
X189771526Y-119745749D02*
X189714645Y-119781490D01*
X189819029Y-119698246D02*
X189771526Y-119745749D01*
X189584480Y-119811200D02*
X189517723Y-119803678D01*
X189854770Y-119641365D02*
X189819029Y-119698246D01*
X189314189Y-119641365D02*
X189292001Y-119577956D01*
X189884480Y-119511200D02*
X189876958Y-119577956D01*
X189171526Y-118876650D02*
X189114645Y-118840909D01*
X189884480Y-119111200D02*
X189884480Y-119511200D01*
X189892001Y-119044443D02*
X189884480Y-119111200D01*
X189914189Y-118981034D02*
X189892001Y-119044443D01*
X189997433Y-118876650D02*
X189949930Y-118924153D01*
X190514189Y-119641365D02*
X190492001Y-119577956D01*
X190184480Y-118811200D02*
X190117723Y-118818721D01*
X190549930Y-119698246D02*
X190514189Y-119641365D01*
X190784480Y-119811200D02*
X190717723Y-119803678D01*
X190454770Y-118981034D02*
X190419029Y-118924153D01*
X189651236Y-119803678D02*
X189584480Y-119811200D01*
X189714645Y-119781490D02*
X189651236Y-119803678D01*
X188749930Y-118924153D02*
X188714189Y-118981034D01*
X190597433Y-119745749D02*
X190549930Y-119698246D01*
X190654314Y-119781490D02*
X190597433Y-119745749D01*
X190717723Y-119803678D02*
X190654314Y-119781490D01*
X190117723Y-118818721D02*
X190054314Y-118840909D01*
X189349930Y-119698246D02*
X189314189Y-119641365D01*
X190251236Y-118818721D02*
X190184480Y-118811200D01*
X189876958Y-119577956D02*
X189854770Y-119641365D01*
X190492001Y-119577956D02*
X190484480Y-119511200D01*
X190484480Y-119511200D02*
X190484480Y-119111200D01*
X190419029Y-118924153D02*
X190371526Y-118876650D01*
X189454314Y-119781490D02*
X189397433Y-119745749D01*
X190484480Y-119111200D02*
X190476958Y-119044443D01*
X190476958Y-119044443D02*
X190454770Y-118981034D01*
X189949930Y-118924153D02*
X189914189Y-118981034D01*
X190054314Y-118840909D02*
X189997433Y-118876650D01*
X190371526Y-118876650D02*
X190314645Y-118840909D01*
X189397433Y-119745749D02*
X189349930Y-119698246D01*
X190314645Y-118840909D02*
X190251236Y-118818721D01*
X189276958Y-119044443D02*
X189254770Y-118981034D01*
X189292001Y-119577956D02*
X189284480Y-119511200D01*
X189284480Y-119511200D02*
X189284480Y-119111200D01*
X189284480Y-119111200D02*
X189276958Y-119044443D01*
X189254770Y-118981034D02*
X189219029Y-118924153D01*
X188676958Y-119577956D02*
X188654770Y-119641365D01*
X189219029Y-118924153D02*
X189171526Y-118876650D01*
X189114645Y-118840909D02*
X189051236Y-118818721D01*
X189051236Y-118818721D02*
X188984480Y-118811200D01*
X188984480Y-118811200D02*
X188917723Y-118818721D01*
X188917723Y-118818721D02*
X188854314Y-118840909D01*
X188854314Y-118840909D02*
X188797433Y-118876650D01*
X188797433Y-118876650D02*
X188749930Y-118924153D01*
X188714189Y-118981034D02*
X188692001Y-119044443D01*
X188692001Y-119044443D02*
X188684480Y-119111200D01*
X188684480Y-119111200D02*
X188684480Y-119511200D01*
X188684480Y-119511200D02*
X188676958Y-119577956D01*
X188654770Y-119641365D02*
X188619029Y-119698246D01*
X188619029Y-119698246D02*
X188571526Y-119745749D01*
X188571526Y-119745749D02*
X188514645Y-119781490D01*
X188514645Y-119781490D02*
X188451236Y-119803678D01*
X188451236Y-119803678D02*
X188384480Y-119811200D01*
X188384480Y-119811200D02*
X187634480Y-119811200D01*
X187634480Y-119811200D02*
X187629800Y-119811200D01*
X190792002Y-119803678D02*
X190784480Y-119811200D01*
X190717723Y-119803678D02*
X190838322Y-119803678D01*
X196132263Y-121723756D02*
X196692263Y-121723756D01*
X193483707Y-119075200D02*
X196132263Y-121723756D01*
X191592200Y-119075200D02*
X193483707Y-119075200D01*
X190717723Y-119803678D02*
X190863722Y-119803678D01*
X190863722Y-119803678D02*
X191592200Y-119075200D01*
D42*
G04 #@! TO.N,Net-(R8-Pad1)*
X184317177Y-131634137D02*
X185750200Y-133067160D01*
X184317177Y-131229116D02*
X184317177Y-131634137D01*
G04 #@! TO.N,Net-(R3-Pad2)*
X182666977Y-131229116D02*
X181716977Y-131229116D01*
X183881678Y-130014415D02*
X182666977Y-131229116D01*
X189701378Y-130014415D02*
X183881678Y-130014415D01*
X189937278Y-130250315D02*
X189701378Y-130014415D01*
X189937278Y-132762815D02*
X189937278Y-130250315D01*
X189912277Y-132787816D02*
X189937278Y-132762815D01*
X189062277Y-132787816D02*
X189912277Y-132787816D01*
G04 #@! TO.N,Net-(R5-Pad1)*
X182356035Y-127738965D02*
X182119640Y-127975360D01*
X182356035Y-126839968D02*
X182356035Y-127738965D01*
D40*
G04 #@! TO.N,/DTR*
X191809000Y-147396200D02*
X190830200Y-147396200D01*
X190830200Y-147396200D02*
X190652400Y-147218400D01*
X189615400Y-142912618D02*
X188503663Y-142912618D01*
X189890400Y-143187618D02*
X189615400Y-142912618D01*
G04 #@! TO.N,Net-(R9-Pad1)*
X204101700Y-135774900D02*
X204101700Y-134987400D01*
X204101700Y-135801100D02*
X204101700Y-135774900D01*
X188503663Y-143912618D02*
X195990182Y-143912618D01*
X195990182Y-143912618D02*
X204101700Y-135801100D01*
G04 #@! TO.N,Net-(C7-Pad1)*
X186753663Y-147153618D02*
X186753663Y-145662618D01*
X187148863Y-147548818D02*
X186753663Y-147153618D01*
G04 #@! TO.N,/USBD-*
X181810771Y-140517110D02*
X181809863Y-140518018D01*
X181814863Y-140513018D02*
X181809863Y-140518018D01*
X186253663Y-140597269D02*
X185973972Y-140317578D01*
X186253663Y-141662618D02*
X186253663Y-140597269D01*
X183135667Y-140048853D02*
X183205120Y-139979400D01*
X183205120Y-139979400D02*
X183205120Y-140192760D01*
X182879862Y-140518018D02*
X181809863Y-140518018D01*
X183205120Y-140192760D02*
X182879862Y-140518018D01*
G04 #@! TO.N,/USBD+*
X182759863Y-141168018D02*
X181809863Y-141168018D01*
X182829864Y-141238019D02*
X182759863Y-141168018D01*
X184271398Y-141238019D02*
X182829864Y-141238019D01*
X184307951Y-141201466D02*
X184271398Y-141238019D01*
X186753663Y-141662618D02*
X186753663Y-140104780D01*
X186753663Y-140104780D02*
X186975954Y-139882489D01*
G04 #@! TO.N,/A0*
X199192263Y-130173756D02*
X199192263Y-132300516D01*
X199192263Y-132300516D02*
X199277221Y-132385474D01*
X190967400Y-70246200D02*
X190967400Y-69045000D01*
X190119000Y-71094600D02*
X190967400Y-70246200D01*
G04 #@! TO.N,Net-(CHG1-PadC)*
X188963877Y-130989416D02*
X189062277Y-131087816D01*
X187335077Y-130989416D02*
X188963877Y-130989416D01*
G04 #@! TO.N,/A1*
X199892263Y-130173756D02*
X199892263Y-131888618D01*
X199892263Y-131888618D02*
X200587154Y-132583509D01*
X196352160Y-66977480D02*
X196626520Y-66703120D01*
X196352160Y-68549520D02*
X196352160Y-66977480D01*
G04 #@! TO.N,/A2*
X200592263Y-130173756D02*
X200592263Y-131179143D01*
X200592263Y-131179143D02*
X201234040Y-131820920D01*
X200398240Y-61981080D02*
X200253640Y-61836480D01*
X201594720Y-61981080D02*
X200398240Y-61981080D01*
D41*
G04 #@! TO.N,/VBB*
X181236568Y-124939968D02*
X180553360Y-124256760D01*
X182356035Y-124939968D02*
X181236568Y-124939968D01*
X180419640Y-129099680D02*
X180419640Y-127975360D01*
X179964080Y-129555240D02*
X180419640Y-129099680D01*
X179564081Y-129155241D02*
X179964080Y-129555240D01*
X179303359Y-128894519D02*
X179564081Y-129155241D01*
X179303359Y-125136759D02*
X179303359Y-128894519D01*
X180183358Y-124256760D02*
X179303359Y-125136759D01*
X180553360Y-124256760D02*
X180183358Y-124256760D01*
D40*
G04 #@! TO.N,Net-(C9-Pad1)*
X193610600Y-147294600D02*
X193509000Y-147396200D01*
X196570600Y-147294600D02*
X193610600Y-147294600D01*
G04 #@! TD*
D43*
G04 #@! TO.N,GND*
G36*
X210795012Y-151905324D02*
X210680869Y-152909775D01*
X210552434Y-153035000D01*
X200231954Y-153035000D01*
X199958361Y-152852191D01*
X199416400Y-152744388D01*
X198874440Y-152852191D01*
X198600847Y-153035000D01*
X195531954Y-153035000D01*
X195258361Y-152852191D01*
X194716400Y-152744388D01*
X194174440Y-152852191D01*
X193900847Y-153035000D01*
X190831954Y-153035000D01*
X190558361Y-152852191D01*
X190016400Y-152744388D01*
X189474440Y-152852191D01*
X189200847Y-153035000D01*
X185244006Y-153035000D01*
X181191803Y-148982797D01*
X181150601Y-148955267D01*
X181102000Y-148945600D01*
X178690806Y-148945600D01*
X178128870Y-148383664D01*
X178128648Y-147834568D01*
X184163863Y-147834568D01*
X184163863Y-148175128D01*
X184260536Y-148408517D01*
X184439165Y-148587145D01*
X184672554Y-148683818D01*
X185063113Y-148683818D01*
X185221863Y-148525068D01*
X185221863Y-147675818D01*
X184322613Y-147675818D01*
X184163863Y-147834568D01*
X178128648Y-147834568D01*
X178128289Y-146953018D01*
X178674113Y-146953018D01*
X178832863Y-146794268D01*
X178832863Y-145295018D01*
X179086863Y-145295018D01*
X179086863Y-146794268D01*
X179245613Y-146953018D01*
X180036173Y-146953018D01*
X180269562Y-146856345D01*
X180448190Y-146677716D01*
X180544863Y-146444327D01*
X180544863Y-145646510D01*
X181948200Y-145646510D01*
X181948200Y-146037069D01*
X182044873Y-146270458D01*
X182223501Y-146449087D01*
X182456890Y-146545760D01*
X182797450Y-146545760D01*
X182956200Y-146387010D01*
X182956200Y-145487760D01*
X182106950Y-145487760D01*
X181948200Y-145646510D01*
X180544863Y-145646510D01*
X180544863Y-145453768D01*
X180386113Y-145295018D01*
X179086863Y-145295018D01*
X178832863Y-145295018D01*
X178812863Y-145295018D01*
X178812863Y-145041018D01*
X178832863Y-145041018D01*
X178832863Y-142545018D01*
X178812863Y-142545018D01*
X178812863Y-142291018D01*
X178832863Y-142291018D01*
X178832863Y-140045018D01*
X178812863Y-140045018D01*
X178812863Y-139791018D01*
X178832863Y-139791018D01*
X178832863Y-137295018D01*
X178812863Y-137295018D01*
X178812863Y-137041018D01*
X178832863Y-137041018D01*
X178832863Y-137021018D01*
X179086863Y-137021018D01*
X179086863Y-137041018D01*
X180386113Y-137041018D01*
X180544863Y-136882268D01*
X180544863Y-135891709D01*
X180448190Y-135658320D01*
X180269562Y-135479691D01*
X180036173Y-135383018D01*
X179318075Y-135383018D01*
X179353160Y-135298314D01*
X179353160Y-134886566D01*
X179195591Y-134506160D01*
X179192200Y-134502769D01*
X179192200Y-134271397D01*
X179387880Y-134310320D01*
X180387880Y-134310320D01*
X180635645Y-134261037D01*
X180804995Y-134147880D01*
X181541127Y-134147880D01*
X181633213Y-134166197D01*
X181725299Y-134147880D01*
X181998032Y-134093630D01*
X182061000Y-134051556D01*
X182316977Y-134051556D01*
X182564742Y-134002273D01*
X182774786Y-133861925D01*
X182915134Y-133651881D01*
X182964417Y-133404116D01*
X182964417Y-132854116D01*
X182923603Y-132648927D01*
X182951977Y-132580425D01*
X182951977Y-132464866D01*
X182793227Y-132306116D01*
X182639807Y-132306116D01*
X182564742Y-132255959D01*
X182316977Y-132206676D01*
X181872202Y-132206676D01*
X181716976Y-132175800D01*
X181569977Y-132205040D01*
X181569977Y-132151556D01*
X182316977Y-132151556D01*
X182564742Y-132102273D01*
X182639807Y-132052116D01*
X182652559Y-132052116D01*
X182666977Y-132054984D01*
X182681395Y-132052116D01*
X182793227Y-132052116D01*
X182820995Y-132024348D01*
X182983023Y-131992119D01*
X183188019Y-131855145D01*
X183259368Y-131961925D01*
X183469412Y-132102273D01*
X183684367Y-132145030D01*
X183725558Y-132206676D01*
X183717177Y-132206676D01*
X183469412Y-132255959D01*
X183259368Y-132396307D01*
X183119020Y-132606351D01*
X183069737Y-132854116D01*
X183069737Y-133404116D01*
X183119020Y-133651881D01*
X183259368Y-133861925D01*
X183382177Y-133943984D01*
X183382178Y-134766670D01*
X183382177Y-134766675D01*
X183382177Y-135265212D01*
X181213835Y-137433555D01*
X181135766Y-137485719D01*
X181034854Y-137636745D01*
X180929113Y-137794998D01*
X180856546Y-138159816D01*
X180874863Y-138251902D01*
X180874864Y-139058018D01*
X180839637Y-139058018D01*
X180759863Y-139042150D01*
X180544863Y-139084916D01*
X180544863Y-138791709D01*
X180472918Y-138618018D01*
X180544863Y-138444327D01*
X180544863Y-137453768D01*
X180386113Y-137295018D01*
X179086863Y-137295018D01*
X179086863Y-139791018D01*
X179106863Y-139791018D01*
X179106863Y-140045018D01*
X179086863Y-140045018D01*
X179086863Y-142291018D01*
X179106863Y-142291018D01*
X179106863Y-142545018D01*
X179086863Y-142545018D01*
X179086863Y-145041018D01*
X180386113Y-145041018D01*
X180544863Y-144882268D01*
X180544863Y-143923533D01*
X180798437Y-144177107D01*
X180843626Y-144244737D01*
X180974873Y-144332433D01*
X181111556Y-144423763D01*
X181427603Y-144486628D01*
X181507377Y-144470760D01*
X181993218Y-144470760D01*
X182020069Y-144510944D01*
X181948200Y-144684451D01*
X181948200Y-145075010D01*
X182106950Y-145233760D01*
X182956200Y-145233760D01*
X182956200Y-145213760D01*
X183210200Y-145213760D01*
X183210200Y-145233760D01*
X183230200Y-145233760D01*
X183230200Y-145487760D01*
X183210200Y-145487760D01*
X183210200Y-146387010D01*
X183368950Y-146545760D01*
X183709510Y-146545760D01*
X183942899Y-146449087D01*
X184121527Y-146270458D01*
X184218200Y-146037069D01*
X184218200Y-145700058D01*
X184466223Y-145700058D01*
X184466223Y-145992618D01*
X184520835Y-146267170D01*
X184630469Y-146431250D01*
X184439165Y-146510491D01*
X184260536Y-146689119D01*
X184163863Y-146922508D01*
X184163863Y-147263068D01*
X184322613Y-147421818D01*
X185221863Y-147421818D01*
X185221863Y-147401818D01*
X185475863Y-147401818D01*
X185475863Y-147421818D01*
X185495863Y-147421818D01*
X185495863Y-147675818D01*
X185475863Y-147675818D01*
X185475863Y-148525068D01*
X185634613Y-148683818D01*
X186025172Y-148683818D01*
X186198679Y-148611949D01*
X186251098Y-148646975D01*
X186498863Y-148696258D01*
X187598863Y-148696258D01*
X187846628Y-148646975D01*
X188056672Y-148506627D01*
X188197020Y-148296583D01*
X188246303Y-148048818D01*
X188246303Y-147048818D01*
X188197020Y-146801053D01*
X188099261Y-146654747D01*
X188330970Y-146499925D01*
X188486491Y-146267170D01*
X188541103Y-145992618D01*
X188541103Y-145700058D01*
X188833663Y-145700058D01*
X189108215Y-145645446D01*
X189140271Y-145624027D01*
X189862756Y-146346513D01*
X189905156Y-146409969D01*
X189960284Y-146446805D01*
X189774969Y-146632120D01*
X189617400Y-147012526D01*
X189617400Y-147424274D01*
X189774969Y-147804680D01*
X190066120Y-148095831D01*
X190446526Y-148253400D01*
X190733966Y-148253400D01*
X190801191Y-148354009D01*
X191011235Y-148494357D01*
X191259000Y-148543640D01*
X192359000Y-148543640D01*
X192606765Y-148494357D01*
X192659000Y-148459454D01*
X192711235Y-148494357D01*
X192959000Y-148543640D01*
X194059000Y-148543640D01*
X194306765Y-148494357D01*
X194516809Y-148354009D01*
X194657157Y-148143965D01*
X194674933Y-148054600D01*
X195338960Y-148054600D01*
X195338960Y-148094700D01*
X195388243Y-148342465D01*
X195528591Y-148552509D01*
X195738635Y-148692857D01*
X195986400Y-148742140D01*
X197154800Y-148742140D01*
X197332600Y-148706774D01*
X197510400Y-148742140D01*
X198678800Y-148742140D01*
X198926565Y-148692857D01*
X199136609Y-148552509D01*
X199276957Y-148342465D01*
X199326240Y-148094700D01*
X199326240Y-148052569D01*
X199537717Y-148010504D01*
X199789109Y-147842529D01*
X199831511Y-147779070D01*
X200414642Y-147195940D01*
X200987280Y-147195940D01*
X201217840Y-147150079D01*
X201217840Y-147151720D01*
X201267123Y-147399485D01*
X201407471Y-147609529D01*
X201617515Y-147749877D01*
X201865280Y-147799160D01*
X202665280Y-147799160D01*
X202913045Y-147749877D01*
X203123089Y-147609529D01*
X203263437Y-147399485D01*
X203264353Y-147394880D01*
X203558274Y-147394880D01*
X203938680Y-147237311D01*
X204229831Y-146946160D01*
X204246416Y-146906120D01*
X204582499Y-146906120D01*
X204326168Y-147162451D01*
X204008818Y-147785284D01*
X203899467Y-148475700D01*
X204008818Y-149166116D01*
X204326168Y-149788949D01*
X204820451Y-150283232D01*
X205443284Y-150600582D01*
X206133700Y-150709933D01*
X206824116Y-150600582D01*
X207446949Y-150283232D01*
X207941232Y-149788949D01*
X208258582Y-149166116D01*
X208367933Y-148475700D01*
X208258582Y-147785284D01*
X207941232Y-147162451D01*
X207616357Y-146837576D01*
X207619600Y-146836233D01*
X207758290Y-146893680D01*
X207968850Y-146893680D01*
X208127600Y-146734930D01*
X208127600Y-145185680D01*
X208381600Y-145185680D01*
X208381600Y-146734930D01*
X208540350Y-146893680D01*
X208750910Y-146893680D01*
X208889600Y-146836233D01*
X209028290Y-146893680D01*
X209238850Y-146893680D01*
X209397600Y-146734930D01*
X209397600Y-145185680D01*
X209651600Y-145185680D01*
X209651600Y-146734930D01*
X209810350Y-146893680D01*
X210020910Y-146893680D01*
X210254299Y-146797007D01*
X210432927Y-146618378D01*
X210529600Y-146384989D01*
X210529600Y-145344430D01*
X210370850Y-145185680D01*
X209651600Y-145185680D01*
X209397600Y-145185680D01*
X208381600Y-145185680D01*
X208127600Y-145185680D01*
X207111600Y-145185680D01*
X207111600Y-145205680D01*
X206857600Y-145205680D01*
X206857600Y-145185680D01*
X205841600Y-145185680D01*
X205841600Y-145205680D01*
X205587600Y-145205680D01*
X205587600Y-145185680D01*
X205567600Y-145185680D01*
X205567600Y-144931680D01*
X205587600Y-144931680D01*
X205587600Y-143382430D01*
X205841600Y-143382430D01*
X205841600Y-144931680D01*
X206857600Y-144931680D01*
X206857600Y-143382430D01*
X206698850Y-143223680D01*
X206488290Y-143223680D01*
X206349600Y-143281127D01*
X206210910Y-143223680D01*
X206000350Y-143223680D01*
X205841600Y-143382430D01*
X205587600Y-143382430D01*
X205428850Y-143223680D01*
X205218290Y-143223680D01*
X205087996Y-143277649D01*
X205062365Y-143260523D01*
X204814600Y-143211240D01*
X204074600Y-143211240D01*
X203826835Y-143260523D01*
X203616791Y-143400871D01*
X203476443Y-143610915D01*
X203427160Y-143858680D01*
X203427160Y-144298680D01*
X203427042Y-144298680D01*
X203312720Y-144184358D01*
X203312720Y-143261720D01*
X203263437Y-143013955D01*
X203123089Y-142803911D01*
X202913045Y-142663563D01*
X202665280Y-142614280D01*
X201956811Y-142614280D01*
X201872284Y-142410213D01*
X201751456Y-142289385D01*
X203427160Y-140613682D01*
X203427160Y-142358680D01*
X203476443Y-142606445D01*
X203616791Y-142816489D01*
X203826835Y-142956837D01*
X204074600Y-143006120D01*
X204814600Y-143006120D01*
X205062365Y-142956837D01*
X205079600Y-142945321D01*
X205096835Y-142956837D01*
X205344600Y-143006120D01*
X206084600Y-143006120D01*
X206332365Y-142956837D01*
X206349600Y-142945321D01*
X206366835Y-142956837D01*
X206614600Y-143006120D01*
X207354600Y-143006120D01*
X207602365Y-142956837D01*
X207619600Y-142945321D01*
X207636835Y-142956837D01*
X207809295Y-142991141D01*
X207803800Y-143004406D01*
X207803800Y-143223680D01*
X207758290Y-143223680D01*
X207619600Y-143281127D01*
X207480910Y-143223680D01*
X207270350Y-143223680D01*
X207111600Y-143382430D01*
X207111600Y-144931680D01*
X208127600Y-144931680D01*
X208127600Y-144911680D01*
X208381600Y-144911680D01*
X208381600Y-144931680D01*
X209397600Y-144931680D01*
X209397600Y-144911680D01*
X209651600Y-144911680D01*
X209651600Y-144931680D01*
X210370850Y-144931680D01*
X210529600Y-144772930D01*
X210529600Y-143732371D01*
X210432927Y-143498982D01*
X210254299Y-143320353D01*
X210020910Y-143223680D01*
X209900202Y-143223680D01*
X210009073Y-143114809D01*
X210072529Y-143072409D01*
X210150220Y-142956137D01*
X210155710Y-142947920D01*
X210352409Y-142816489D01*
X210492757Y-142606445D01*
X210542040Y-142358680D01*
X210542040Y-139958680D01*
X210492757Y-139710915D01*
X210352409Y-139500871D01*
X210243705Y-139428237D01*
X210240504Y-139412143D01*
X210072529Y-139160751D01*
X210009073Y-139118351D01*
X209055240Y-138164519D01*
X209055240Y-136026318D01*
X209237019Y-136101613D01*
X209648767Y-136101613D01*
X210029173Y-135944044D01*
X210320324Y-135652893D01*
X210477893Y-135272487D01*
X210477893Y-134860739D01*
X210363454Y-134584457D01*
X210559511Y-134388400D01*
X210717080Y-134007994D01*
X210717080Y-133596246D01*
X210559511Y-133215840D01*
X210268360Y-132924689D01*
X210020440Y-132821997D01*
X210020440Y-122716779D01*
X210035328Y-122641932D01*
X210020440Y-122567085D01*
X210020440Y-122567081D01*
X209976344Y-122345396D01*
X209890243Y-122216537D01*
X209850769Y-122157459D01*
X209850767Y-122157457D01*
X209808369Y-122094004D01*
X209744916Y-122051606D01*
X207532594Y-119839286D01*
X207490192Y-119775827D01*
X207339703Y-119675273D01*
X207339703Y-119383756D01*
X207324421Y-119306927D01*
X207327263Y-119300066D01*
X207327263Y-119009506D01*
X207168513Y-118850756D01*
X207037542Y-118850756D01*
X206940028Y-118785599D01*
X206692263Y-118736316D01*
X205745263Y-118736316D01*
X205745263Y-118596756D01*
X205765263Y-118596756D01*
X205765263Y-118576756D01*
X206019263Y-118576756D01*
X206019263Y-118596756D01*
X207168513Y-118596756D01*
X207327263Y-118438006D01*
X207327263Y-118147446D01*
X207306492Y-118097300D01*
X210805254Y-118097300D01*
X210795012Y-151905324D01*
X210795012Y-151905324D01*
G37*
X210795012Y-151905324D02*
X210680869Y-152909775D01*
X210552434Y-153035000D01*
X200231954Y-153035000D01*
X199958361Y-152852191D01*
X199416400Y-152744388D01*
X198874440Y-152852191D01*
X198600847Y-153035000D01*
X195531954Y-153035000D01*
X195258361Y-152852191D01*
X194716400Y-152744388D01*
X194174440Y-152852191D01*
X193900847Y-153035000D01*
X190831954Y-153035000D01*
X190558361Y-152852191D01*
X190016400Y-152744388D01*
X189474440Y-152852191D01*
X189200847Y-153035000D01*
X185244006Y-153035000D01*
X181191803Y-148982797D01*
X181150601Y-148955267D01*
X181102000Y-148945600D01*
X178690806Y-148945600D01*
X178128870Y-148383664D01*
X178128648Y-147834568D01*
X184163863Y-147834568D01*
X184163863Y-148175128D01*
X184260536Y-148408517D01*
X184439165Y-148587145D01*
X184672554Y-148683818D01*
X185063113Y-148683818D01*
X185221863Y-148525068D01*
X185221863Y-147675818D01*
X184322613Y-147675818D01*
X184163863Y-147834568D01*
X178128648Y-147834568D01*
X178128289Y-146953018D01*
X178674113Y-146953018D01*
X178832863Y-146794268D01*
X178832863Y-145295018D01*
X179086863Y-145295018D01*
X179086863Y-146794268D01*
X179245613Y-146953018D01*
X180036173Y-146953018D01*
X180269562Y-146856345D01*
X180448190Y-146677716D01*
X180544863Y-146444327D01*
X180544863Y-145646510D01*
X181948200Y-145646510D01*
X181948200Y-146037069D01*
X182044873Y-146270458D01*
X182223501Y-146449087D01*
X182456890Y-146545760D01*
X182797450Y-146545760D01*
X182956200Y-146387010D01*
X182956200Y-145487760D01*
X182106950Y-145487760D01*
X181948200Y-145646510D01*
X180544863Y-145646510D01*
X180544863Y-145453768D01*
X180386113Y-145295018D01*
X179086863Y-145295018D01*
X178832863Y-145295018D01*
X178812863Y-145295018D01*
X178812863Y-145041018D01*
X178832863Y-145041018D01*
X178832863Y-142545018D01*
X178812863Y-142545018D01*
X178812863Y-142291018D01*
X178832863Y-142291018D01*
X178832863Y-140045018D01*
X178812863Y-140045018D01*
X178812863Y-139791018D01*
X178832863Y-139791018D01*
X178832863Y-137295018D01*
X178812863Y-137295018D01*
X178812863Y-137041018D01*
X178832863Y-137041018D01*
X178832863Y-137021018D01*
X179086863Y-137021018D01*
X179086863Y-137041018D01*
X180386113Y-137041018D01*
X180544863Y-136882268D01*
X180544863Y-135891709D01*
X180448190Y-135658320D01*
X180269562Y-135479691D01*
X180036173Y-135383018D01*
X179318075Y-135383018D01*
X179353160Y-135298314D01*
X179353160Y-134886566D01*
X179195591Y-134506160D01*
X179192200Y-134502769D01*
X179192200Y-134271397D01*
X179387880Y-134310320D01*
X180387880Y-134310320D01*
X180635645Y-134261037D01*
X180804995Y-134147880D01*
X181541127Y-134147880D01*
X181633213Y-134166197D01*
X181725299Y-134147880D01*
X181998032Y-134093630D01*
X182061000Y-134051556D01*
X182316977Y-134051556D01*
X182564742Y-134002273D01*
X182774786Y-133861925D01*
X182915134Y-133651881D01*
X182964417Y-133404116D01*
X182964417Y-132854116D01*
X182923603Y-132648927D01*
X182951977Y-132580425D01*
X182951977Y-132464866D01*
X182793227Y-132306116D01*
X182639807Y-132306116D01*
X182564742Y-132255959D01*
X182316977Y-132206676D01*
X181872202Y-132206676D01*
X181716976Y-132175800D01*
X181569977Y-132205040D01*
X181569977Y-132151556D01*
X182316977Y-132151556D01*
X182564742Y-132102273D01*
X182639807Y-132052116D01*
X182652559Y-132052116D01*
X182666977Y-132054984D01*
X182681395Y-132052116D01*
X182793227Y-132052116D01*
X182820995Y-132024348D01*
X182983023Y-131992119D01*
X183188019Y-131855145D01*
X183259368Y-131961925D01*
X183469412Y-132102273D01*
X183684367Y-132145030D01*
X183725558Y-132206676D01*
X183717177Y-132206676D01*
X183469412Y-132255959D01*
X183259368Y-132396307D01*
X183119020Y-132606351D01*
X183069737Y-132854116D01*
X183069737Y-133404116D01*
X183119020Y-133651881D01*
X183259368Y-133861925D01*
X183382177Y-133943984D01*
X183382178Y-134766670D01*
X183382177Y-134766675D01*
X183382177Y-135265212D01*
X181213835Y-137433555D01*
X181135766Y-137485719D01*
X181034854Y-137636745D01*
X180929113Y-137794998D01*
X180856546Y-138159816D01*
X180874863Y-138251902D01*
X180874864Y-139058018D01*
X180839637Y-139058018D01*
X180759863Y-139042150D01*
X180544863Y-139084916D01*
X180544863Y-138791709D01*
X180472918Y-138618018D01*
X180544863Y-138444327D01*
X180544863Y-137453768D01*
X180386113Y-137295018D01*
X179086863Y-137295018D01*
X179086863Y-139791018D01*
X179106863Y-139791018D01*
X179106863Y-140045018D01*
X179086863Y-140045018D01*
X179086863Y-142291018D01*
X179106863Y-142291018D01*
X179106863Y-142545018D01*
X179086863Y-142545018D01*
X179086863Y-145041018D01*
X180386113Y-145041018D01*
X180544863Y-144882268D01*
X180544863Y-143923533D01*
X180798437Y-144177107D01*
X180843626Y-144244737D01*
X180974873Y-144332433D01*
X181111556Y-144423763D01*
X181427603Y-144486628D01*
X181507377Y-144470760D01*
X181993218Y-144470760D01*
X182020069Y-144510944D01*
X181948200Y-144684451D01*
X181948200Y-145075010D01*
X182106950Y-145233760D01*
X182956200Y-145233760D01*
X182956200Y-145213760D01*
X183210200Y-145213760D01*
X183210200Y-145233760D01*
X183230200Y-145233760D01*
X183230200Y-145487760D01*
X183210200Y-145487760D01*
X183210200Y-146387010D01*
X183368950Y-146545760D01*
X183709510Y-146545760D01*
X183942899Y-146449087D01*
X184121527Y-146270458D01*
X184218200Y-146037069D01*
X184218200Y-145700058D01*
X184466223Y-145700058D01*
X184466223Y-145992618D01*
X184520835Y-146267170D01*
X184630469Y-146431250D01*
X184439165Y-146510491D01*
X184260536Y-146689119D01*
X184163863Y-146922508D01*
X184163863Y-147263068D01*
X184322613Y-147421818D01*
X185221863Y-147421818D01*
X185221863Y-147401818D01*
X185475863Y-147401818D01*
X185475863Y-147421818D01*
X185495863Y-147421818D01*
X185495863Y-147675818D01*
X185475863Y-147675818D01*
X185475863Y-148525068D01*
X185634613Y-148683818D01*
X186025172Y-148683818D01*
X186198679Y-148611949D01*
X186251098Y-148646975D01*
X186498863Y-148696258D01*
X187598863Y-148696258D01*
X187846628Y-148646975D01*
X188056672Y-148506627D01*
X188197020Y-148296583D01*
X188246303Y-148048818D01*
X188246303Y-147048818D01*
X188197020Y-146801053D01*
X188099261Y-146654747D01*
X188330970Y-146499925D01*
X188486491Y-146267170D01*
X188541103Y-145992618D01*
X188541103Y-145700058D01*
X188833663Y-145700058D01*
X189108215Y-145645446D01*
X189140271Y-145624027D01*
X189862756Y-146346513D01*
X189905156Y-146409969D01*
X189960284Y-146446805D01*
X189774969Y-146632120D01*
X189617400Y-147012526D01*
X189617400Y-147424274D01*
X189774969Y-147804680D01*
X190066120Y-148095831D01*
X190446526Y-148253400D01*
X190733966Y-148253400D01*
X190801191Y-148354009D01*
X191011235Y-148494357D01*
X191259000Y-148543640D01*
X192359000Y-148543640D01*
X192606765Y-148494357D01*
X192659000Y-148459454D01*
X192711235Y-148494357D01*
X192959000Y-148543640D01*
X194059000Y-148543640D01*
X194306765Y-148494357D01*
X194516809Y-148354009D01*
X194657157Y-148143965D01*
X194674933Y-148054600D01*
X195338960Y-148054600D01*
X195338960Y-148094700D01*
X195388243Y-148342465D01*
X195528591Y-148552509D01*
X195738635Y-148692857D01*
X195986400Y-148742140D01*
X197154800Y-148742140D01*
X197332600Y-148706774D01*
X197510400Y-148742140D01*
X198678800Y-148742140D01*
X198926565Y-148692857D01*
X199136609Y-148552509D01*
X199276957Y-148342465D01*
X199326240Y-148094700D01*
X199326240Y-148052569D01*
X199537717Y-148010504D01*
X199789109Y-147842529D01*
X199831511Y-147779070D01*
X200414642Y-147195940D01*
X200987280Y-147195940D01*
X201217840Y-147150079D01*
X201217840Y-147151720D01*
X201267123Y-147399485D01*
X201407471Y-147609529D01*
X201617515Y-147749877D01*
X201865280Y-147799160D01*
X202665280Y-147799160D01*
X202913045Y-147749877D01*
X203123089Y-147609529D01*
X203263437Y-147399485D01*
X203264353Y-147394880D01*
X203558274Y-147394880D01*
X203938680Y-147237311D01*
X204229831Y-146946160D01*
X204246416Y-146906120D01*
X204582499Y-146906120D01*
X204326168Y-147162451D01*
X204008818Y-147785284D01*
X203899467Y-148475700D01*
X204008818Y-149166116D01*
X204326168Y-149788949D01*
X204820451Y-150283232D01*
X205443284Y-150600582D01*
X206133700Y-150709933D01*
X206824116Y-150600582D01*
X207446949Y-150283232D01*
X207941232Y-149788949D01*
X208258582Y-149166116D01*
X208367933Y-148475700D01*
X208258582Y-147785284D01*
X207941232Y-147162451D01*
X207616357Y-146837576D01*
X207619600Y-146836233D01*
X207758290Y-146893680D01*
X207968850Y-146893680D01*
X208127600Y-146734930D01*
X208127600Y-145185680D01*
X208381600Y-145185680D01*
X208381600Y-146734930D01*
X208540350Y-146893680D01*
X208750910Y-146893680D01*
X208889600Y-146836233D01*
X209028290Y-146893680D01*
X209238850Y-146893680D01*
X209397600Y-146734930D01*
X209397600Y-145185680D01*
X209651600Y-145185680D01*
X209651600Y-146734930D01*
X209810350Y-146893680D01*
X210020910Y-146893680D01*
X210254299Y-146797007D01*
X210432927Y-146618378D01*
X210529600Y-146384989D01*
X210529600Y-145344430D01*
X210370850Y-145185680D01*
X209651600Y-145185680D01*
X209397600Y-145185680D01*
X208381600Y-145185680D01*
X208127600Y-145185680D01*
X207111600Y-145185680D01*
X207111600Y-145205680D01*
X206857600Y-145205680D01*
X206857600Y-145185680D01*
X205841600Y-145185680D01*
X205841600Y-145205680D01*
X205587600Y-145205680D01*
X205587600Y-145185680D01*
X205567600Y-145185680D01*
X205567600Y-144931680D01*
X205587600Y-144931680D01*
X205587600Y-143382430D01*
X205841600Y-143382430D01*
X205841600Y-144931680D01*
X206857600Y-144931680D01*
X206857600Y-143382430D01*
X206698850Y-143223680D01*
X206488290Y-143223680D01*
X206349600Y-143281127D01*
X206210910Y-143223680D01*
X206000350Y-143223680D01*
X205841600Y-143382430D01*
X205587600Y-143382430D01*
X205428850Y-143223680D01*
X205218290Y-143223680D01*
X205087996Y-143277649D01*
X205062365Y-143260523D01*
X204814600Y-143211240D01*
X204074600Y-143211240D01*
X203826835Y-143260523D01*
X203616791Y-143400871D01*
X203476443Y-143610915D01*
X203427160Y-143858680D01*
X203427160Y-144298680D01*
X203427042Y-144298680D01*
X203312720Y-144184358D01*
X203312720Y-143261720D01*
X203263437Y-143013955D01*
X203123089Y-142803911D01*
X202913045Y-142663563D01*
X202665280Y-142614280D01*
X201956811Y-142614280D01*
X201872284Y-142410213D01*
X201751456Y-142289385D01*
X203427160Y-140613682D01*
X203427160Y-142358680D01*
X203476443Y-142606445D01*
X203616791Y-142816489D01*
X203826835Y-142956837D01*
X204074600Y-143006120D01*
X204814600Y-143006120D01*
X205062365Y-142956837D01*
X205079600Y-142945321D01*
X205096835Y-142956837D01*
X205344600Y-143006120D01*
X206084600Y-143006120D01*
X206332365Y-142956837D01*
X206349600Y-142945321D01*
X206366835Y-142956837D01*
X206614600Y-143006120D01*
X207354600Y-143006120D01*
X207602365Y-142956837D01*
X207619600Y-142945321D01*
X207636835Y-142956837D01*
X207809295Y-142991141D01*
X207803800Y-143004406D01*
X207803800Y-143223680D01*
X207758290Y-143223680D01*
X207619600Y-143281127D01*
X207480910Y-143223680D01*
X207270350Y-143223680D01*
X207111600Y-143382430D01*
X207111600Y-144931680D01*
X208127600Y-144931680D01*
X208127600Y-144911680D01*
X208381600Y-144911680D01*
X208381600Y-144931680D01*
X209397600Y-144931680D01*
X209397600Y-144911680D01*
X209651600Y-144911680D01*
X209651600Y-144931680D01*
X210370850Y-144931680D01*
X210529600Y-144772930D01*
X210529600Y-143732371D01*
X210432927Y-143498982D01*
X210254299Y-143320353D01*
X210020910Y-143223680D01*
X209900202Y-143223680D01*
X210009073Y-143114809D01*
X210072529Y-143072409D01*
X210150220Y-142956137D01*
X210155710Y-142947920D01*
X210352409Y-142816489D01*
X210492757Y-142606445D01*
X210542040Y-142358680D01*
X210542040Y-139958680D01*
X210492757Y-139710915D01*
X210352409Y-139500871D01*
X210243705Y-139428237D01*
X210240504Y-139412143D01*
X210072529Y-139160751D01*
X210009073Y-139118351D01*
X209055240Y-138164519D01*
X209055240Y-136026318D01*
X209237019Y-136101613D01*
X209648767Y-136101613D01*
X210029173Y-135944044D01*
X210320324Y-135652893D01*
X210477893Y-135272487D01*
X210477893Y-134860739D01*
X210363454Y-134584457D01*
X210559511Y-134388400D01*
X210717080Y-134007994D01*
X210717080Y-133596246D01*
X210559511Y-133215840D01*
X210268360Y-132924689D01*
X210020440Y-132821997D01*
X210020440Y-122716779D01*
X210035328Y-122641932D01*
X210020440Y-122567085D01*
X210020440Y-122567081D01*
X209976344Y-122345396D01*
X209890243Y-122216537D01*
X209850769Y-122157459D01*
X209850767Y-122157457D01*
X209808369Y-122094004D01*
X209744916Y-122051606D01*
X207532594Y-119839286D01*
X207490192Y-119775827D01*
X207339703Y-119675273D01*
X207339703Y-119383756D01*
X207324421Y-119306927D01*
X207327263Y-119300066D01*
X207327263Y-119009506D01*
X207168513Y-118850756D01*
X207037542Y-118850756D01*
X206940028Y-118785599D01*
X206692263Y-118736316D01*
X205745263Y-118736316D01*
X205745263Y-118596756D01*
X205765263Y-118596756D01*
X205765263Y-118576756D01*
X206019263Y-118576756D01*
X206019263Y-118596756D01*
X207168513Y-118596756D01*
X207327263Y-118438006D01*
X207327263Y-118147446D01*
X207306492Y-118097300D01*
X210805254Y-118097300D01*
X210795012Y-151905324D01*
G36*
X207535240Y-123391536D02*
X207535241Y-137184040D01*
X207416973Y-137065772D01*
X207140760Y-136951361D01*
X207140760Y-136583286D01*
X206983191Y-136202880D01*
X206692040Y-135911729D01*
X206311634Y-135754160D01*
X205899886Y-135754160D01*
X205519480Y-135911729D01*
X205228329Y-136202880D01*
X205070760Y-136583286D01*
X205070760Y-136995034D01*
X205228329Y-137375440D01*
X205345761Y-137492872D01*
X205345761Y-137618479D01*
X205343196Y-137621045D01*
X205198520Y-137476369D01*
X204818114Y-137318800D01*
X204406366Y-137318800D01*
X204025960Y-137476369D01*
X203734809Y-137767520D01*
X203577240Y-138147926D01*
X203577240Y-138313998D01*
X196789199Y-145102040D01*
X190767887Y-145102040D01*
X190338465Y-144672618D01*
X195915335Y-144672618D01*
X195990182Y-144687506D01*
X196065029Y-144672618D01*
X196065034Y-144672618D01*
X196286719Y-144628522D01*
X196538111Y-144460547D01*
X196580513Y-144397088D01*
X204586173Y-136391429D01*
X204649629Y-136349029D01*
X204709700Y-136259127D01*
X204793132Y-136134262D01*
X204849465Y-136123057D01*
X205059509Y-135982709D01*
X205199857Y-135772665D01*
X205249140Y-135524900D01*
X205249140Y-134449900D01*
X205199857Y-134202135D01*
X205156602Y-134137400D01*
X205199857Y-134072665D01*
X205249140Y-133824900D01*
X205249140Y-132749900D01*
X205199857Y-132502135D01*
X205059509Y-132292091D01*
X204861700Y-132159918D01*
X204861700Y-132008039D01*
X204876588Y-131933192D01*
X204861700Y-131858345D01*
X204861700Y-131858341D01*
X204817604Y-131636656D01*
X204807274Y-131621196D01*
X205032263Y-131621196D01*
X205115848Y-131604570D01*
X205125953Y-131608756D01*
X205213513Y-131608756D01*
X205242988Y-131579281D01*
X205280028Y-131571913D01*
X205490072Y-131431565D01*
X205612263Y-131248695D01*
X205612263Y-131450006D01*
X205771013Y-131608756D01*
X205858573Y-131608756D01*
X206091962Y-131512083D01*
X206270590Y-131333454D01*
X206367263Y-131100065D01*
X206367263Y-130459506D01*
X206208513Y-130300756D01*
X205679703Y-130300756D01*
X205679703Y-130046756D01*
X206208513Y-130046756D01*
X206367263Y-129888006D01*
X206367263Y-129611196D01*
X206692263Y-129611196D01*
X206940028Y-129561913D01*
X207150072Y-129421565D01*
X207290420Y-129211521D01*
X207339703Y-128963756D01*
X207339703Y-128483756D01*
X207317823Y-128373756D01*
X207339703Y-128263756D01*
X207339703Y-127783756D01*
X207317823Y-127673756D01*
X207339703Y-127563756D01*
X207339703Y-127083756D01*
X207317823Y-126973756D01*
X207339703Y-126863756D01*
X207339703Y-126383756D01*
X207317823Y-126273756D01*
X207339703Y-126163756D01*
X207339703Y-125683756D01*
X207317823Y-125573756D01*
X207339703Y-125463756D01*
X207339703Y-124983756D01*
X207317823Y-124873756D01*
X207339703Y-124763756D01*
X207339703Y-124283756D01*
X207317823Y-124173756D01*
X207339703Y-124063756D01*
X207339703Y-123583756D01*
X207317823Y-123473756D01*
X207339703Y-123363756D01*
X207339703Y-123195998D01*
X207535240Y-123391536D01*
X207535240Y-123391536D01*
G37*
X207535240Y-123391536D02*
X207535241Y-137184040D01*
X207416973Y-137065772D01*
X207140760Y-136951361D01*
X207140760Y-136583286D01*
X206983191Y-136202880D01*
X206692040Y-135911729D01*
X206311634Y-135754160D01*
X205899886Y-135754160D01*
X205519480Y-135911729D01*
X205228329Y-136202880D01*
X205070760Y-136583286D01*
X205070760Y-136995034D01*
X205228329Y-137375440D01*
X205345761Y-137492872D01*
X205345761Y-137618479D01*
X205343196Y-137621045D01*
X205198520Y-137476369D01*
X204818114Y-137318800D01*
X204406366Y-137318800D01*
X204025960Y-137476369D01*
X203734809Y-137767520D01*
X203577240Y-138147926D01*
X203577240Y-138313998D01*
X196789199Y-145102040D01*
X190767887Y-145102040D01*
X190338465Y-144672618D01*
X195915335Y-144672618D01*
X195990182Y-144687506D01*
X196065029Y-144672618D01*
X196065034Y-144672618D01*
X196286719Y-144628522D01*
X196538111Y-144460547D01*
X196580513Y-144397088D01*
X204586173Y-136391429D01*
X204649629Y-136349029D01*
X204709700Y-136259127D01*
X204793132Y-136134262D01*
X204849465Y-136123057D01*
X205059509Y-135982709D01*
X205199857Y-135772665D01*
X205249140Y-135524900D01*
X205249140Y-134449900D01*
X205199857Y-134202135D01*
X205156602Y-134137400D01*
X205199857Y-134072665D01*
X205249140Y-133824900D01*
X205249140Y-132749900D01*
X205199857Y-132502135D01*
X205059509Y-132292091D01*
X204861700Y-132159918D01*
X204861700Y-132008039D01*
X204876588Y-131933192D01*
X204861700Y-131858345D01*
X204861700Y-131858341D01*
X204817604Y-131636656D01*
X204807274Y-131621196D01*
X205032263Y-131621196D01*
X205115848Y-131604570D01*
X205125953Y-131608756D01*
X205213513Y-131608756D01*
X205242988Y-131579281D01*
X205280028Y-131571913D01*
X205490072Y-131431565D01*
X205612263Y-131248695D01*
X205612263Y-131450006D01*
X205771013Y-131608756D01*
X205858573Y-131608756D01*
X206091962Y-131512083D01*
X206270590Y-131333454D01*
X206367263Y-131100065D01*
X206367263Y-130459506D01*
X206208513Y-130300756D01*
X205679703Y-130300756D01*
X205679703Y-130046756D01*
X206208513Y-130046756D01*
X206367263Y-129888006D01*
X206367263Y-129611196D01*
X206692263Y-129611196D01*
X206940028Y-129561913D01*
X207150072Y-129421565D01*
X207290420Y-129211521D01*
X207339703Y-128963756D01*
X207339703Y-128483756D01*
X207317823Y-128373756D01*
X207339703Y-128263756D01*
X207339703Y-127783756D01*
X207317823Y-127673756D01*
X207339703Y-127563756D01*
X207339703Y-127083756D01*
X207317823Y-126973756D01*
X207339703Y-126863756D01*
X207339703Y-126383756D01*
X207317823Y-126273756D01*
X207339703Y-126163756D01*
X207339703Y-125683756D01*
X207317823Y-125573756D01*
X207339703Y-125463756D01*
X207339703Y-124983756D01*
X207317823Y-124873756D01*
X207339703Y-124763756D01*
X207339703Y-124283756D01*
X207317823Y-124173756D01*
X207339703Y-124063756D01*
X207339703Y-123583756D01*
X207317823Y-123473756D01*
X207339703Y-123363756D01*
X207339703Y-123195998D01*
X207535240Y-123391536D01*
G36*
X186630663Y-143535618D02*
X186650663Y-143535618D01*
X186650663Y-143789618D01*
X186630663Y-143789618D01*
X186630663Y-143809618D01*
X186376663Y-143809618D01*
X186376663Y-143789618D01*
X186356663Y-143789618D01*
X186356663Y-143535618D01*
X186376663Y-143535618D01*
X186376663Y-143515618D01*
X186630663Y-143515618D01*
X186630663Y-143535618D01*
X186630663Y-143535618D01*
G37*
X186630663Y-143535618D02*
X186650663Y-143535618D01*
X186650663Y-143789618D01*
X186630663Y-143789618D01*
X186630663Y-143809618D01*
X186376663Y-143809618D01*
X186376663Y-143789618D01*
X186356663Y-143789618D01*
X186356663Y-143535618D01*
X186376663Y-143535618D01*
X186376663Y-143515618D01*
X186630663Y-143515618D01*
X186630663Y-143535618D01*
G36*
X196217263Y-129888006D02*
X196376013Y-130046756D01*
X196904823Y-130046756D01*
X196904823Y-130300756D01*
X196376013Y-130300756D01*
X196217263Y-130459506D01*
X196217263Y-131100065D01*
X196313936Y-131333454D01*
X196492564Y-131512083D01*
X196725953Y-131608756D01*
X196813513Y-131608756D01*
X196965261Y-131457008D01*
X196965261Y-131608756D01*
X196982263Y-131608756D01*
X196982264Y-132338036D01*
X196394537Y-132338036D01*
X196146772Y-132387319D01*
X195936728Y-132527667D01*
X195796380Y-132737711D01*
X195747097Y-132985476D01*
X195747097Y-134885476D01*
X195796380Y-135133241D01*
X195892181Y-135276617D01*
X195801780Y-135411911D01*
X195752497Y-135659676D01*
X195752497Y-136759676D01*
X195801780Y-137007441D01*
X195836806Y-137059860D01*
X195764937Y-137233367D01*
X195764937Y-137623926D01*
X195923687Y-137782676D01*
X196772937Y-137782676D01*
X196772937Y-137762676D01*
X197026937Y-137762676D01*
X197026937Y-137782676D01*
X197876187Y-137782676D01*
X198034937Y-137623926D01*
X198034937Y-137233367D01*
X197963068Y-137059860D01*
X197998094Y-137007441D01*
X198047377Y-136759676D01*
X198047377Y-135659676D01*
X197998094Y-135411911D01*
X197952272Y-135343334D01*
X197952346Y-135343285D01*
X198092694Y-135133241D01*
X198141977Y-134885476D01*
X198141977Y-133883549D01*
X198144537Y-133880989D01*
X198147097Y-133883548D01*
X198147097Y-134885476D01*
X198196380Y-135133241D01*
X198302895Y-135292651D01*
X198240180Y-135386511D01*
X198190897Y-135634276D01*
X198190897Y-136734276D01*
X198240180Y-136982041D01*
X198275206Y-137034460D01*
X198203337Y-137207967D01*
X198203337Y-137598526D01*
X198362087Y-137757276D01*
X199211337Y-137757276D01*
X199211337Y-137737276D01*
X199465337Y-137737276D01*
X199465337Y-137757276D01*
X200314587Y-137757276D01*
X200473337Y-137598526D01*
X200473337Y-137207967D01*
X200401468Y-137034460D01*
X200436494Y-136982041D01*
X200485777Y-136734276D01*
X200485777Y-135634276D01*
X200436494Y-135386511D01*
X200379979Y-135301930D01*
X200492694Y-135133241D01*
X200541977Y-134885476D01*
X200541977Y-133618509D01*
X200793028Y-133618509D01*
X201173434Y-133460940D01*
X201232264Y-133402110D01*
X201232264Y-135190065D01*
X201138929Y-135283400D01*
X200981360Y-135663806D01*
X200981360Y-136075554D01*
X201138929Y-136455960D01*
X201430080Y-136747111D01*
X201810486Y-136904680D01*
X201923318Y-136904680D01*
X200473337Y-138354661D01*
X200473337Y-138170026D01*
X200314587Y-138011276D01*
X199465337Y-138011276D01*
X199465337Y-138910526D01*
X199624087Y-139069276D01*
X199758722Y-139069276D01*
X195675381Y-143152618D01*
X190925400Y-143152618D01*
X190925400Y-142981744D01*
X190767831Y-142601338D01*
X190476680Y-142310187D01*
X190096274Y-142152618D01*
X189690247Y-142152618D01*
X189615400Y-142137730D01*
X189540553Y-142152618D01*
X189513310Y-142152618D01*
X189496491Y-142068066D01*
X189340970Y-141835311D01*
X189108215Y-141679790D01*
X188833663Y-141625178D01*
X188541103Y-141625178D01*
X188541103Y-141332618D01*
X188486491Y-141058066D01*
X188330970Y-140825311D01*
X188098215Y-140669790D01*
X187823663Y-140615178D01*
X187706976Y-140615178D01*
X187853385Y-140468769D01*
X188010954Y-140088363D01*
X188010954Y-139877800D01*
X190643207Y-139877800D01*
X190752558Y-140568216D01*
X191069908Y-141191049D01*
X191564191Y-141685332D01*
X192187024Y-142002682D01*
X192877440Y-142112033D01*
X193567856Y-142002682D01*
X194190689Y-141685332D01*
X194684972Y-141191049D01*
X195002322Y-140568216D01*
X195111673Y-139877800D01*
X195002322Y-139187384D01*
X194684972Y-138564551D01*
X194315847Y-138195426D01*
X195764937Y-138195426D01*
X195764937Y-138585985D01*
X195861610Y-138819374D01*
X196040238Y-138998003D01*
X196273627Y-139094676D01*
X196614187Y-139094676D01*
X196772937Y-138935926D01*
X196772937Y-138036676D01*
X197026937Y-138036676D01*
X197026937Y-138935926D01*
X197185687Y-139094676D01*
X197526247Y-139094676D01*
X197759636Y-138998003D01*
X197938264Y-138819374D01*
X198034937Y-138585985D01*
X198034937Y-138195426D01*
X198009537Y-138170026D01*
X198203337Y-138170026D01*
X198203337Y-138560585D01*
X198300010Y-138793974D01*
X198478638Y-138972603D01*
X198712027Y-139069276D01*
X199052587Y-139069276D01*
X199211337Y-138910526D01*
X199211337Y-138011276D01*
X198362087Y-138011276D01*
X198203337Y-138170026D01*
X198009537Y-138170026D01*
X197876187Y-138036676D01*
X197026937Y-138036676D01*
X196772937Y-138036676D01*
X195923687Y-138036676D01*
X195764937Y-138195426D01*
X194315847Y-138195426D01*
X194190689Y-138070268D01*
X193567856Y-137752918D01*
X192877440Y-137643567D01*
X192187024Y-137752918D01*
X191564191Y-138070268D01*
X191069908Y-138564551D01*
X190752558Y-139187384D01*
X190643207Y-139877800D01*
X188010954Y-139877800D01*
X188010954Y-139676615D01*
X187853385Y-139296209D01*
X187576736Y-139019560D01*
X189240556Y-139019560D01*
X189332642Y-139037877D01*
X189424728Y-139019560D01*
X189697461Y-138965310D01*
X190006739Y-138758657D01*
X190058903Y-138680588D01*
X191971329Y-136768163D01*
X192138586Y-136935420D01*
X192518992Y-137092989D01*
X192930740Y-137092989D01*
X193311146Y-136935420D01*
X193602297Y-136644269D01*
X193759866Y-136263863D01*
X193759866Y-135852115D01*
X193602297Y-135471709D01*
X193311146Y-135180558D01*
X192938680Y-135026278D01*
X192938680Y-131258249D01*
X193160499Y-131036430D01*
X193738880Y-131036430D01*
X193738880Y-131426989D01*
X193835553Y-131660378D01*
X194014181Y-131839007D01*
X194247570Y-131935680D01*
X194588130Y-131935680D01*
X194746880Y-131776930D01*
X194746880Y-130877680D01*
X195000880Y-130877680D01*
X195000880Y-131776930D01*
X195159630Y-131935680D01*
X195500190Y-131935680D01*
X195733579Y-131839007D01*
X195912207Y-131660378D01*
X196008880Y-131426989D01*
X196008880Y-131036430D01*
X195850130Y-130877680D01*
X195000880Y-130877680D01*
X194746880Y-130877680D01*
X193897630Y-130877680D01*
X193738880Y-131036430D01*
X193160499Y-131036430D01*
X193738880Y-130458050D01*
X193738880Y-130464930D01*
X193897630Y-130623680D01*
X194746880Y-130623680D01*
X194746880Y-130603680D01*
X195000880Y-130603680D01*
X195000880Y-130623680D01*
X195850130Y-130623680D01*
X196008880Y-130464930D01*
X196008880Y-130074371D01*
X195937011Y-129900864D01*
X195960912Y-129865095D01*
X196130158Y-129831430D01*
X196217263Y-129773228D01*
X196217263Y-129888006D01*
X196217263Y-129888006D01*
G37*
X196217263Y-129888006D02*
X196376013Y-130046756D01*
X196904823Y-130046756D01*
X196904823Y-130300756D01*
X196376013Y-130300756D01*
X196217263Y-130459506D01*
X196217263Y-131100065D01*
X196313936Y-131333454D01*
X196492564Y-131512083D01*
X196725953Y-131608756D01*
X196813513Y-131608756D01*
X196965261Y-131457008D01*
X196965261Y-131608756D01*
X196982263Y-131608756D01*
X196982264Y-132338036D01*
X196394537Y-132338036D01*
X196146772Y-132387319D01*
X195936728Y-132527667D01*
X195796380Y-132737711D01*
X195747097Y-132985476D01*
X195747097Y-134885476D01*
X195796380Y-135133241D01*
X195892181Y-135276617D01*
X195801780Y-135411911D01*
X195752497Y-135659676D01*
X195752497Y-136759676D01*
X195801780Y-137007441D01*
X195836806Y-137059860D01*
X195764937Y-137233367D01*
X195764937Y-137623926D01*
X195923687Y-137782676D01*
X196772937Y-137782676D01*
X196772937Y-137762676D01*
X197026937Y-137762676D01*
X197026937Y-137782676D01*
X197876187Y-137782676D01*
X198034937Y-137623926D01*
X198034937Y-137233367D01*
X197963068Y-137059860D01*
X197998094Y-137007441D01*
X198047377Y-136759676D01*
X198047377Y-135659676D01*
X197998094Y-135411911D01*
X197952272Y-135343334D01*
X197952346Y-135343285D01*
X198092694Y-135133241D01*
X198141977Y-134885476D01*
X198141977Y-133883549D01*
X198144537Y-133880989D01*
X198147097Y-133883548D01*
X198147097Y-134885476D01*
X198196380Y-135133241D01*
X198302895Y-135292651D01*
X198240180Y-135386511D01*
X198190897Y-135634276D01*
X198190897Y-136734276D01*
X198240180Y-136982041D01*
X198275206Y-137034460D01*
X198203337Y-137207967D01*
X198203337Y-137598526D01*
X198362087Y-137757276D01*
X199211337Y-137757276D01*
X199211337Y-137737276D01*
X199465337Y-137737276D01*
X199465337Y-137757276D01*
X200314587Y-137757276D01*
X200473337Y-137598526D01*
X200473337Y-137207967D01*
X200401468Y-137034460D01*
X200436494Y-136982041D01*
X200485777Y-136734276D01*
X200485777Y-135634276D01*
X200436494Y-135386511D01*
X200379979Y-135301930D01*
X200492694Y-135133241D01*
X200541977Y-134885476D01*
X200541977Y-133618509D01*
X200793028Y-133618509D01*
X201173434Y-133460940D01*
X201232264Y-133402110D01*
X201232264Y-135190065D01*
X201138929Y-135283400D01*
X200981360Y-135663806D01*
X200981360Y-136075554D01*
X201138929Y-136455960D01*
X201430080Y-136747111D01*
X201810486Y-136904680D01*
X201923318Y-136904680D01*
X200473337Y-138354661D01*
X200473337Y-138170026D01*
X200314587Y-138011276D01*
X199465337Y-138011276D01*
X199465337Y-138910526D01*
X199624087Y-139069276D01*
X199758722Y-139069276D01*
X195675381Y-143152618D01*
X190925400Y-143152618D01*
X190925400Y-142981744D01*
X190767831Y-142601338D01*
X190476680Y-142310187D01*
X190096274Y-142152618D01*
X189690247Y-142152618D01*
X189615400Y-142137730D01*
X189540553Y-142152618D01*
X189513310Y-142152618D01*
X189496491Y-142068066D01*
X189340970Y-141835311D01*
X189108215Y-141679790D01*
X188833663Y-141625178D01*
X188541103Y-141625178D01*
X188541103Y-141332618D01*
X188486491Y-141058066D01*
X188330970Y-140825311D01*
X188098215Y-140669790D01*
X187823663Y-140615178D01*
X187706976Y-140615178D01*
X187853385Y-140468769D01*
X188010954Y-140088363D01*
X188010954Y-139877800D01*
X190643207Y-139877800D01*
X190752558Y-140568216D01*
X191069908Y-141191049D01*
X191564191Y-141685332D01*
X192187024Y-142002682D01*
X192877440Y-142112033D01*
X193567856Y-142002682D01*
X194190689Y-141685332D01*
X194684972Y-141191049D01*
X195002322Y-140568216D01*
X195111673Y-139877800D01*
X195002322Y-139187384D01*
X194684972Y-138564551D01*
X194315847Y-138195426D01*
X195764937Y-138195426D01*
X195764937Y-138585985D01*
X195861610Y-138819374D01*
X196040238Y-138998003D01*
X196273627Y-139094676D01*
X196614187Y-139094676D01*
X196772937Y-138935926D01*
X196772937Y-138036676D01*
X197026937Y-138036676D01*
X197026937Y-138935926D01*
X197185687Y-139094676D01*
X197526247Y-139094676D01*
X197759636Y-138998003D01*
X197938264Y-138819374D01*
X198034937Y-138585985D01*
X198034937Y-138195426D01*
X198009537Y-138170026D01*
X198203337Y-138170026D01*
X198203337Y-138560585D01*
X198300010Y-138793974D01*
X198478638Y-138972603D01*
X198712027Y-139069276D01*
X199052587Y-139069276D01*
X199211337Y-138910526D01*
X199211337Y-138011276D01*
X198362087Y-138011276D01*
X198203337Y-138170026D01*
X198009537Y-138170026D01*
X197876187Y-138036676D01*
X197026937Y-138036676D01*
X196772937Y-138036676D01*
X195923687Y-138036676D01*
X195764937Y-138195426D01*
X194315847Y-138195426D01*
X194190689Y-138070268D01*
X193567856Y-137752918D01*
X192877440Y-137643567D01*
X192187024Y-137752918D01*
X191564191Y-138070268D01*
X191069908Y-138564551D01*
X190752558Y-139187384D01*
X190643207Y-139877800D01*
X188010954Y-139877800D01*
X188010954Y-139676615D01*
X187853385Y-139296209D01*
X187576736Y-139019560D01*
X189240556Y-139019560D01*
X189332642Y-139037877D01*
X189424728Y-139019560D01*
X189697461Y-138965310D01*
X190006739Y-138758657D01*
X190058903Y-138680588D01*
X191971329Y-136768163D01*
X192138586Y-136935420D01*
X192518992Y-137092989D01*
X192930740Y-137092989D01*
X193311146Y-136935420D01*
X193602297Y-136644269D01*
X193759866Y-136263863D01*
X193759866Y-135852115D01*
X193602297Y-135471709D01*
X193311146Y-135180558D01*
X192938680Y-135026278D01*
X192938680Y-131258249D01*
X193160499Y-131036430D01*
X193738880Y-131036430D01*
X193738880Y-131426989D01*
X193835553Y-131660378D01*
X194014181Y-131839007D01*
X194247570Y-131935680D01*
X194588130Y-131935680D01*
X194746880Y-131776930D01*
X194746880Y-130877680D01*
X195000880Y-130877680D01*
X195000880Y-131776930D01*
X195159630Y-131935680D01*
X195500190Y-131935680D01*
X195733579Y-131839007D01*
X195912207Y-131660378D01*
X196008880Y-131426989D01*
X196008880Y-131036430D01*
X195850130Y-130877680D01*
X195000880Y-130877680D01*
X194746880Y-130877680D01*
X193897630Y-130877680D01*
X193738880Y-131036430D01*
X193160499Y-131036430D01*
X193738880Y-130458050D01*
X193738880Y-130464930D01*
X193897630Y-130623680D01*
X194746880Y-130623680D01*
X194746880Y-130603680D01*
X195000880Y-130603680D01*
X195000880Y-130623680D01*
X195850130Y-130623680D01*
X196008880Y-130464930D01*
X196008880Y-130074371D01*
X195937011Y-129900864D01*
X195960912Y-129865095D01*
X196130158Y-129831430D01*
X196217263Y-129773228D01*
X196217263Y-129888006D01*
G36*
X183510835Y-142068066D02*
X183477649Y-142234905D01*
X183283413Y-142364689D01*
X183241013Y-142428145D01*
X183205838Y-142463320D01*
X183144863Y-142463320D01*
X183144863Y-142341016D01*
X183057751Y-142341016D01*
X183108020Y-142265783D01*
X183112905Y-142241226D01*
X183144863Y-142209268D01*
X183144863Y-142141709D01*
X183136646Y-142121871D01*
X183157303Y-142018018D01*
X183157303Y-141998019D01*
X183557639Y-141998019D01*
X183510835Y-142068066D01*
X183510835Y-142068066D01*
G37*
X183510835Y-142068066D02*
X183477649Y-142234905D01*
X183283413Y-142364689D01*
X183241013Y-142428145D01*
X183205838Y-142463320D01*
X183144863Y-142463320D01*
X183144863Y-142341016D01*
X183057751Y-142341016D01*
X183108020Y-142265783D01*
X183112905Y-142241226D01*
X183144863Y-142209268D01*
X183144863Y-142141709D01*
X183136646Y-142121871D01*
X183157303Y-142018018D01*
X183157303Y-141998019D01*
X183557639Y-141998019D01*
X183510835Y-142068066D01*
G36*
X191068680Y-131258250D02*
X191068681Y-135026231D01*
X188945353Y-137149560D01*
X187089109Y-137149560D01*
X186997023Y-137131243D01*
X186904937Y-137149560D01*
X186632204Y-137203810D01*
X186322926Y-137410463D01*
X186270764Y-137488529D01*
X185987663Y-137771630D01*
X185987663Y-137615109D01*
X185890990Y-137381720D01*
X185712362Y-137203091D01*
X185478973Y-137106418D01*
X185138413Y-137106418D01*
X184979663Y-137265168D01*
X184979663Y-138164418D01*
X184999663Y-138164418D01*
X184999663Y-138418418D01*
X184979663Y-138418418D01*
X184979663Y-138438418D01*
X184725663Y-138438418D01*
X184725663Y-138418418D01*
X183876413Y-138418418D01*
X183717663Y-138577168D01*
X183717663Y-138967727D01*
X183769513Y-139092903D01*
X183410994Y-138944400D01*
X182999246Y-138944400D01*
X182744863Y-139049769D01*
X182744863Y-138547105D01*
X183746515Y-137545453D01*
X183717663Y-137615109D01*
X183717663Y-138005668D01*
X183876413Y-138164418D01*
X184725663Y-138164418D01*
X184725663Y-137265168D01*
X184566913Y-137106418D01*
X184226353Y-137106418D01*
X184156699Y-137135270D01*
X184913208Y-136378761D01*
X184991274Y-136326599D01*
X185197927Y-136017321D01*
X185252177Y-135744588D01*
X185252177Y-135744584D01*
X185267259Y-135668760D01*
X186435960Y-135668760D01*
X186515733Y-135684628D01*
X186595506Y-135668760D01*
X186595507Y-135668760D01*
X186831779Y-135621763D01*
X187099710Y-135442737D01*
X187144901Y-135375104D01*
X187851424Y-134668582D01*
X187919054Y-134623393D01*
X188098080Y-134355462D01*
X188108648Y-134302331D01*
X188182842Y-134287573D01*
X188392886Y-134147225D01*
X188515659Y-133963483D01*
X188562277Y-133972756D01*
X189562277Y-133972756D01*
X189810042Y-133923473D01*
X190020086Y-133783125D01*
X190160434Y-133573081D01*
X190162248Y-133563962D01*
X190228323Y-133550819D01*
X190496254Y-133371793D01*
X190506268Y-133356806D01*
X190521255Y-133346792D01*
X190700281Y-133078861D01*
X190714049Y-133009642D01*
X190763146Y-132762815D01*
X190747278Y-132683041D01*
X190747278Y-130936848D01*
X191068680Y-131258250D01*
X191068680Y-131258250D01*
G37*
X191068680Y-131258250D02*
X191068681Y-135026231D01*
X188945353Y-137149560D01*
X187089109Y-137149560D01*
X186997023Y-137131243D01*
X186904937Y-137149560D01*
X186632204Y-137203810D01*
X186322926Y-137410463D01*
X186270764Y-137488529D01*
X185987663Y-137771630D01*
X185987663Y-137615109D01*
X185890990Y-137381720D01*
X185712362Y-137203091D01*
X185478973Y-137106418D01*
X185138413Y-137106418D01*
X184979663Y-137265168D01*
X184979663Y-138164418D01*
X184999663Y-138164418D01*
X184999663Y-138418418D01*
X184979663Y-138418418D01*
X184979663Y-138438418D01*
X184725663Y-138438418D01*
X184725663Y-138418418D01*
X183876413Y-138418418D01*
X183717663Y-138577168D01*
X183717663Y-138967727D01*
X183769513Y-139092903D01*
X183410994Y-138944400D01*
X182999246Y-138944400D01*
X182744863Y-139049769D01*
X182744863Y-138547105D01*
X183746515Y-137545453D01*
X183717663Y-137615109D01*
X183717663Y-138005668D01*
X183876413Y-138164418D01*
X184725663Y-138164418D01*
X184725663Y-137265168D01*
X184566913Y-137106418D01*
X184226353Y-137106418D01*
X184156699Y-137135270D01*
X184913208Y-136378761D01*
X184991274Y-136326599D01*
X185197927Y-136017321D01*
X185252177Y-135744588D01*
X185252177Y-135744584D01*
X185267259Y-135668760D01*
X186435960Y-135668760D01*
X186515733Y-135684628D01*
X186595506Y-135668760D01*
X186595507Y-135668760D01*
X186831779Y-135621763D01*
X187099710Y-135442737D01*
X187144901Y-135375104D01*
X187851424Y-134668582D01*
X187919054Y-134623393D01*
X188098080Y-134355462D01*
X188108648Y-134302331D01*
X188182842Y-134287573D01*
X188392886Y-134147225D01*
X188515659Y-133963483D01*
X188562277Y-133972756D01*
X189562277Y-133972756D01*
X189810042Y-133923473D01*
X190020086Y-133783125D01*
X190160434Y-133573081D01*
X190162248Y-133563962D01*
X190228323Y-133550819D01*
X190496254Y-133371793D01*
X190506268Y-133356806D01*
X190521255Y-133346792D01*
X190700281Y-133078861D01*
X190714049Y-133009642D01*
X190763146Y-132762815D01*
X190747278Y-132683041D01*
X190747278Y-130936848D01*
X191068680Y-131258250D01*
G36*
X180014880Y-131285880D02*
X180034880Y-131285880D01*
X180034880Y-131539880D01*
X180014880Y-131539880D01*
X180014880Y-131559880D01*
X179760880Y-131559880D01*
X179760880Y-131539880D01*
X179740880Y-131539880D01*
X179740880Y-131285880D01*
X179760880Y-131285880D01*
X179760880Y-131265880D01*
X180014880Y-131265880D01*
X180014880Y-131285880D01*
X180014880Y-131285880D01*
G37*
X180014880Y-131285880D02*
X180034880Y-131285880D01*
X180034880Y-131539880D01*
X180014880Y-131539880D01*
X180014880Y-131559880D01*
X179760880Y-131559880D01*
X179760880Y-131539880D01*
X179740880Y-131539880D01*
X179740880Y-131285880D01*
X179760880Y-131285880D01*
X179760880Y-131265880D01*
X180014880Y-131265880D01*
X180014880Y-131285880D01*
G36*
X185877200Y-131240160D02*
X185897200Y-131240160D01*
X185897200Y-131494160D01*
X185877200Y-131494160D01*
X185877200Y-131514160D01*
X185623200Y-131514160D01*
X185623200Y-131494160D01*
X185603200Y-131494160D01*
X185603200Y-131240160D01*
X185623200Y-131240160D01*
X185623200Y-131220160D01*
X185877200Y-131220160D01*
X185877200Y-131240160D01*
X185877200Y-131240160D01*
G37*
X185877200Y-131240160D02*
X185897200Y-131240160D01*
X185897200Y-131494160D01*
X185877200Y-131494160D01*
X185877200Y-131514160D01*
X185623200Y-131514160D01*
X185623200Y-131494160D01*
X185603200Y-131494160D01*
X185603200Y-131240160D01*
X185623200Y-131240160D01*
X185623200Y-131220160D01*
X185877200Y-131220160D01*
X185877200Y-131240160D01*
G36*
X183739795Y-125370817D02*
X183758078Y-125462733D01*
X183898426Y-125672777D01*
X184108470Y-125813125D01*
X184356235Y-125862408D01*
X184476006Y-125862408D01*
X184603453Y-125887759D01*
X184648006Y-125917528D01*
X184356235Y-125917528D01*
X184108470Y-125966811D01*
X183898426Y-126107159D01*
X183758078Y-126317203D01*
X183708795Y-126564968D01*
X183708795Y-127114968D01*
X183758078Y-127362733D01*
X183898426Y-127572777D01*
X184108470Y-127713125D01*
X184356235Y-127762408D01*
X185556235Y-127762408D01*
X185726437Y-127728553D01*
X185767408Y-127827466D01*
X185946036Y-128006095D01*
X186179425Y-128102768D01*
X186519985Y-128102768D01*
X186678735Y-127944018D01*
X186678735Y-127044768D01*
X186932735Y-127044768D01*
X186932735Y-127944018D01*
X187091485Y-128102768D01*
X187432045Y-128102768D01*
X187665434Y-128006095D01*
X187844062Y-127827466D01*
X187940735Y-127594077D01*
X187940735Y-127203518D01*
X187781985Y-127044768D01*
X186932735Y-127044768D01*
X186678735Y-127044768D01*
X186658735Y-127044768D01*
X186658735Y-126790768D01*
X186678735Y-126790768D01*
X186678735Y-126770768D01*
X186932735Y-126770768D01*
X186932735Y-126790768D01*
X187781985Y-126790768D01*
X187940735Y-126632018D01*
X187940735Y-126241459D01*
X187929137Y-126213460D01*
X188315320Y-126599643D01*
X188315321Y-128040750D01*
X188297003Y-128132840D01*
X188369570Y-128497658D01*
X188524061Y-128728870D01*
X188576224Y-128806937D01*
X188654290Y-128859099D01*
X188999606Y-129204415D01*
X183961452Y-129204415D01*
X183881678Y-129188547D01*
X183565631Y-129251412D01*
X183469719Y-129315499D01*
X183297701Y-129430438D01*
X183252512Y-129498068D01*
X182422846Y-130327734D01*
X182316977Y-130306676D01*
X181116977Y-130306676D01*
X180869212Y-130355959D01*
X180815125Y-130392099D01*
X180747579Y-130324553D01*
X180684575Y-130298456D01*
X180841511Y-130141520D01*
X180941511Y-129900098D01*
X181015668Y-129825941D01*
X181093737Y-129773777D01*
X181300390Y-129464499D01*
X181341199Y-129259337D01*
X181372957Y-129099681D01*
X181369128Y-129080430D01*
X181582140Y-129122800D01*
X182657140Y-129122800D01*
X182904905Y-129073517D01*
X183114949Y-128933169D01*
X183255297Y-128723125D01*
X183304580Y-128475360D01*
X183304580Y-127645785D01*
X183413844Y-127572777D01*
X183554192Y-127362733D01*
X183603475Y-127114968D01*
X183603475Y-126564968D01*
X183562661Y-126359779D01*
X183591035Y-126291277D01*
X183591035Y-126175718D01*
X183432285Y-126016968D01*
X183278865Y-126016968D01*
X183203800Y-125966811D01*
X182956035Y-125917528D01*
X182209035Y-125917528D01*
X182209035Y-125874968D01*
X182448121Y-125874968D01*
X182511264Y-125862408D01*
X182956035Y-125862408D01*
X183203800Y-125813125D01*
X183278865Y-125762968D01*
X183432285Y-125762968D01*
X183591035Y-125604218D01*
X183591035Y-125488659D01*
X183562661Y-125420157D01*
X183600235Y-125231257D01*
X183739795Y-125370817D01*
X183739795Y-125370817D01*
G37*
X183739795Y-125370817D02*
X183758078Y-125462733D01*
X183898426Y-125672777D01*
X184108470Y-125813125D01*
X184356235Y-125862408D01*
X184476006Y-125862408D01*
X184603453Y-125887759D01*
X184648006Y-125917528D01*
X184356235Y-125917528D01*
X184108470Y-125966811D01*
X183898426Y-126107159D01*
X183758078Y-126317203D01*
X183708795Y-126564968D01*
X183708795Y-127114968D01*
X183758078Y-127362733D01*
X183898426Y-127572777D01*
X184108470Y-127713125D01*
X184356235Y-127762408D01*
X185556235Y-127762408D01*
X185726437Y-127728553D01*
X185767408Y-127827466D01*
X185946036Y-128006095D01*
X186179425Y-128102768D01*
X186519985Y-128102768D01*
X186678735Y-127944018D01*
X186678735Y-127044768D01*
X186932735Y-127044768D01*
X186932735Y-127944018D01*
X187091485Y-128102768D01*
X187432045Y-128102768D01*
X187665434Y-128006095D01*
X187844062Y-127827466D01*
X187940735Y-127594077D01*
X187940735Y-127203518D01*
X187781985Y-127044768D01*
X186932735Y-127044768D01*
X186678735Y-127044768D01*
X186658735Y-127044768D01*
X186658735Y-126790768D01*
X186678735Y-126790768D01*
X186678735Y-126770768D01*
X186932735Y-126770768D01*
X186932735Y-126790768D01*
X187781985Y-126790768D01*
X187940735Y-126632018D01*
X187940735Y-126241459D01*
X187929137Y-126213460D01*
X188315320Y-126599643D01*
X188315321Y-128040750D01*
X188297003Y-128132840D01*
X188369570Y-128497658D01*
X188524061Y-128728870D01*
X188576224Y-128806937D01*
X188654290Y-128859099D01*
X188999606Y-129204415D01*
X183961452Y-129204415D01*
X183881678Y-129188547D01*
X183565631Y-129251412D01*
X183469719Y-129315499D01*
X183297701Y-129430438D01*
X183252512Y-129498068D01*
X182422846Y-130327734D01*
X182316977Y-130306676D01*
X181116977Y-130306676D01*
X180869212Y-130355959D01*
X180815125Y-130392099D01*
X180747579Y-130324553D01*
X180684575Y-130298456D01*
X180841511Y-130141520D01*
X180941511Y-129900098D01*
X181015668Y-129825941D01*
X181093737Y-129773777D01*
X181300390Y-129464499D01*
X181341199Y-129259337D01*
X181372957Y-129099681D01*
X181369128Y-129080430D01*
X181582140Y-129122800D01*
X182657140Y-129122800D01*
X182904905Y-129073517D01*
X183114949Y-128933169D01*
X183255297Y-128723125D01*
X183304580Y-128475360D01*
X183304580Y-127645785D01*
X183413844Y-127572777D01*
X183554192Y-127362733D01*
X183603475Y-127114968D01*
X183603475Y-126564968D01*
X183562661Y-126359779D01*
X183591035Y-126291277D01*
X183591035Y-126175718D01*
X183432285Y-126016968D01*
X183278865Y-126016968D01*
X183203800Y-125966811D01*
X182956035Y-125917528D01*
X182209035Y-125917528D01*
X182209035Y-125874968D01*
X182448121Y-125874968D01*
X182511264Y-125862408D01*
X182956035Y-125862408D01*
X183203800Y-125813125D01*
X183278865Y-125762968D01*
X183432285Y-125762968D01*
X183591035Y-125604218D01*
X183591035Y-125488659D01*
X183562661Y-125420157D01*
X183600235Y-125231257D01*
X183739795Y-125370817D01*
G36*
X193913760Y-114589560D02*
X193921928Y-114634371D01*
X193948122Y-114676435D01*
X195541900Y-116375943D01*
X195541900Y-117731562D01*
X195532565Y-117735429D01*
X195353936Y-117914057D01*
X195257263Y-118147446D01*
X195257263Y-118438006D01*
X195416013Y-118596756D01*
X195555813Y-118596756D01*
X195579097Y-118631603D01*
X195620299Y-118659133D01*
X195668900Y-118668800D01*
X196839263Y-118668800D01*
X196839263Y-118850756D01*
X196819263Y-118850756D01*
X196819263Y-119650006D01*
X196978013Y-119808756D01*
X197618572Y-119808756D01*
X197794843Y-119735742D01*
X197963787Y-120163274D01*
X197992097Y-120206403D01*
X199160497Y-121374803D01*
X199184197Y-121393441D01*
X199230727Y-121410483D01*
X204444823Y-122223793D01*
X204444823Y-122663756D01*
X204466703Y-122773756D01*
X204444823Y-122883756D01*
X204444823Y-123363756D01*
X204466703Y-123473756D01*
X204444823Y-123583756D01*
X204444823Y-124063756D01*
X204466703Y-124173756D01*
X204444823Y-124283756D01*
X204444823Y-124763756D01*
X204466703Y-124873756D01*
X204444823Y-124983756D01*
X204444823Y-125463756D01*
X204466703Y-125573756D01*
X204444823Y-125683756D01*
X204444823Y-126163756D01*
X204466703Y-126273756D01*
X204444823Y-126383756D01*
X204444823Y-126863756D01*
X204466703Y-126973756D01*
X204444823Y-127083756D01*
X204444823Y-127563756D01*
X204466703Y-127673756D01*
X204444823Y-127783756D01*
X204444823Y-128263756D01*
X204466703Y-128373756D01*
X204444823Y-128483756D01*
X204444823Y-128747687D01*
X204442263Y-128748196D01*
X204332263Y-128726316D01*
X203852263Y-128726316D01*
X203742263Y-128748196D01*
X203632263Y-128726316D01*
X203152263Y-128726316D01*
X203070896Y-128742501D01*
X203183440Y-128470794D01*
X203183440Y-128059046D01*
X203025871Y-127678640D01*
X202734720Y-127387489D01*
X202354314Y-127229920D01*
X201942566Y-127229920D01*
X201562160Y-127387489D01*
X201271009Y-127678640D01*
X201113440Y-128059046D01*
X201113440Y-128470794D01*
X201219280Y-128726316D01*
X201052263Y-128726316D01*
X200942263Y-128748196D01*
X200832263Y-128726316D01*
X200352263Y-128726316D01*
X200242263Y-128748196D01*
X200132263Y-128726316D01*
X199652263Y-128726316D01*
X199542263Y-128748196D01*
X199432263Y-128726316D01*
X198952263Y-128726316D01*
X198842263Y-128748196D01*
X198732263Y-128726316D01*
X198252263Y-128726316D01*
X198142263Y-128748196D01*
X198032263Y-128726316D01*
X197942962Y-128726316D01*
X197950072Y-128721565D01*
X198090420Y-128511521D01*
X198139703Y-128263756D01*
X198139703Y-127783756D01*
X198117823Y-127673756D01*
X198139703Y-127563756D01*
X198139703Y-127083756D01*
X198117823Y-126973756D01*
X198139703Y-126863756D01*
X198139703Y-126383756D01*
X198117823Y-126273756D01*
X198139703Y-126163756D01*
X198139703Y-125683756D01*
X198117823Y-125573756D01*
X198139703Y-125463756D01*
X198139703Y-124983756D01*
X198117823Y-124873756D01*
X198139703Y-124763756D01*
X198139703Y-124283756D01*
X198117823Y-124173756D01*
X198139703Y-124063756D01*
X198139703Y-123583756D01*
X198117823Y-123473756D01*
X198139703Y-123363756D01*
X198139703Y-122883756D01*
X198117823Y-122773756D01*
X198139703Y-122663756D01*
X198139703Y-122183756D01*
X198117823Y-122073756D01*
X198139703Y-121963756D01*
X198139703Y-121483756D01*
X198090420Y-121235991D01*
X197950072Y-121025947D01*
X197740028Y-120885599D01*
X197492263Y-120836316D01*
X196319625Y-120836316D01*
X194492815Y-119009506D01*
X195257263Y-119009506D01*
X195257263Y-119300066D01*
X195353936Y-119533455D01*
X195532565Y-119712083D01*
X195765954Y-119808756D01*
X196406513Y-119808756D01*
X196565263Y-119650006D01*
X196565263Y-118850756D01*
X195416013Y-118850756D01*
X195257263Y-119009506D01*
X194492815Y-119009506D01*
X194074038Y-118590730D01*
X194031636Y-118527271D01*
X193780244Y-118359296D01*
X193558559Y-118315200D01*
X193558554Y-118315200D01*
X193483707Y-118300312D01*
X193408860Y-118315200D01*
X191667046Y-118315200D01*
X191592199Y-118300312D01*
X191517352Y-118315200D01*
X191517348Y-118315200D01*
X191295663Y-118359296D01*
X191295661Y-118359297D01*
X191295662Y-118359297D01*
X191107726Y-118484871D01*
X191107724Y-118484873D01*
X191062349Y-118515191D01*
X191032558Y-118464688D01*
X191023727Y-118458042D01*
X191022713Y-118456428D01*
X191015332Y-118448621D01*
X191009358Y-118439680D01*
X191008008Y-118438330D01*
X191003496Y-118428247D01*
X190933555Y-118362124D01*
X190867432Y-118292183D01*
X190857348Y-118287671D01*
X190855998Y-118286321D01*
X190847060Y-118280349D01*
X190839251Y-118272966D01*
X190837637Y-118271952D01*
X190830991Y-118263121D01*
X190748083Y-118214214D01*
X190668063Y-118160747D01*
X190657227Y-118158591D01*
X190655612Y-118157577D01*
X190645572Y-118153744D01*
X190636310Y-118148281D01*
X190634503Y-118147649D01*
X190626057Y-118140517D01*
X190534349Y-118111288D01*
X190444446Y-118076970D01*
X190433401Y-118077280D01*
X190431598Y-118076649D01*
X190420949Y-118075146D01*
X190410703Y-118071880D01*
X190408814Y-118071667D01*
X190399004Y-118066599D01*
X190303109Y-118058509D01*
X190207791Y-118045052D01*
X190197089Y-118047813D01*
X190195184Y-118047598D01*
X190184480Y-118048501D01*
X190173776Y-118047598D01*
X190171870Y-118047813D01*
X190161168Y-118045052D01*
X190065858Y-118058508D01*
X189969957Y-118066598D01*
X189960147Y-118071666D01*
X189958257Y-118071879D01*
X189948006Y-118075146D01*
X189937361Y-118076649D01*
X189935561Y-118077279D01*
X189924513Y-118076969D01*
X189834605Y-118111289D01*
X189742902Y-118140517D01*
X189734456Y-118147649D01*
X189732649Y-118148281D01*
X189723387Y-118153744D01*
X189713347Y-118157577D01*
X189711732Y-118158591D01*
X189700896Y-118160747D01*
X189620873Y-118214216D01*
X189584480Y-118235684D01*
X189548083Y-118214214D01*
X189468063Y-118160747D01*
X189457227Y-118158591D01*
X189455612Y-118157577D01*
X189445572Y-118153744D01*
X189436310Y-118148281D01*
X189434503Y-118147649D01*
X189426057Y-118140517D01*
X189334349Y-118111288D01*
X189244446Y-118076970D01*
X189233401Y-118077280D01*
X189231598Y-118076649D01*
X189220949Y-118075146D01*
X189210703Y-118071880D01*
X189208814Y-118071667D01*
X189199004Y-118066599D01*
X189103109Y-118058509D01*
X189007791Y-118045052D01*
X188997089Y-118047813D01*
X188995184Y-118047598D01*
X188984480Y-118048501D01*
X188973776Y-118047598D01*
X188971870Y-118047813D01*
X188961168Y-118045052D01*
X188865858Y-118058508D01*
X188769957Y-118066598D01*
X188760147Y-118071666D01*
X188758257Y-118071879D01*
X188748006Y-118075146D01*
X188737361Y-118076649D01*
X188735561Y-118077279D01*
X188724513Y-118076969D01*
X188634605Y-118111289D01*
X188542902Y-118140517D01*
X188534456Y-118147649D01*
X188532649Y-118148281D01*
X188523387Y-118153744D01*
X188513347Y-118157577D01*
X188511732Y-118158591D01*
X188500896Y-118160747D01*
X188420873Y-118214216D01*
X188337968Y-118263121D01*
X188331322Y-118271952D01*
X188329708Y-118272966D01*
X188321901Y-118280347D01*
X188312960Y-118286321D01*
X188311610Y-118287671D01*
X188301527Y-118292183D01*
X188235404Y-118362124D01*
X188193936Y-118401328D01*
X187940425Y-118296320D01*
X187349655Y-118296320D01*
X186803855Y-118522398D01*
X186386118Y-118940135D01*
X186375040Y-118966880D01*
X186363962Y-118940135D01*
X185946225Y-118522398D01*
X185400425Y-118296320D01*
X184809655Y-118296320D01*
X184500041Y-118424566D01*
X184500041Y-117526687D01*
X184514929Y-117451839D01*
X184500041Y-117376991D01*
X184500041Y-117376987D01*
X184455945Y-117155302D01*
X184455945Y-117155301D01*
X184335798Y-116975490D01*
X184287970Y-116903910D01*
X184224511Y-116861508D01*
X184019134Y-116656131D01*
X184019130Y-116656125D01*
X183883947Y-116520942D01*
X184512049Y-115892840D01*
X184837200Y-115892840D01*
X185084965Y-115843557D01*
X185295009Y-115703209D01*
X185435357Y-115493165D01*
X185484640Y-115245400D01*
X185484640Y-110645400D01*
X185435357Y-110397635D01*
X185295009Y-110187591D01*
X185084965Y-110047243D01*
X184837200Y-109997960D01*
X183837200Y-109997960D01*
X183589435Y-110047243D01*
X183379391Y-110187591D01*
X183338546Y-110248720D01*
X183196898Y-110107073D01*
X182963509Y-110010400D01*
X182622950Y-110010400D01*
X182464200Y-110169150D01*
X182464200Y-112818400D01*
X182484200Y-112818400D01*
X182484200Y-113072400D01*
X182464200Y-113072400D01*
X182464200Y-113092400D01*
X182210200Y-113092400D01*
X182210200Y-113072400D01*
X181360950Y-113072400D01*
X181202200Y-113231150D01*
X181202200Y-115371710D01*
X181239682Y-115462199D01*
X179523607Y-115462199D01*
X179431521Y-115443882D01*
X179339435Y-115462199D01*
X179066702Y-115516449D01*
X178757424Y-115723102D01*
X178705260Y-115801171D01*
X178115875Y-116390556D01*
X178113491Y-110519090D01*
X181202200Y-110519090D01*
X181202200Y-112659650D01*
X181360950Y-112818400D01*
X182210200Y-112818400D01*
X182210200Y-110169150D01*
X182051450Y-110010400D01*
X181710891Y-110010400D01*
X181477502Y-110107073D01*
X181298873Y-110285701D01*
X181202200Y-110519090D01*
X178113491Y-110519090D01*
X178111673Y-106045400D01*
X178489760Y-106045400D01*
X178489760Y-109445400D01*
X178539043Y-109693165D01*
X178679391Y-109903209D01*
X178889435Y-110043557D01*
X179137200Y-110092840D01*
X180737200Y-110092840D01*
X180984965Y-110043557D01*
X181195009Y-109903209D01*
X181335357Y-109693165D01*
X181384640Y-109445400D01*
X181384640Y-106045400D01*
X185289760Y-106045400D01*
X185289760Y-109445400D01*
X185339043Y-109693165D01*
X185479391Y-109903209D01*
X185689435Y-110043557D01*
X185937200Y-110092840D01*
X187537200Y-110092840D01*
X187784965Y-110043557D01*
X187995009Y-109903209D01*
X188135357Y-109693165D01*
X188184640Y-109445400D01*
X188184640Y-106045400D01*
X188135357Y-105797635D01*
X187995009Y-105587591D01*
X187784965Y-105447243D01*
X187537200Y-105397960D01*
X185937200Y-105397960D01*
X185689435Y-105447243D01*
X185479391Y-105587591D01*
X185339043Y-105797635D01*
X185289760Y-106045400D01*
X181384640Y-106045400D01*
X181335357Y-105797635D01*
X181195009Y-105587591D01*
X180984965Y-105447243D01*
X180737200Y-105397960D01*
X179137200Y-105397960D01*
X178889435Y-105447243D01*
X178679391Y-105587591D01*
X178539043Y-105797635D01*
X178489760Y-106045400D01*
X178111673Y-106045400D01*
X178111389Y-105346500D01*
X193913760Y-105346500D01*
X193913760Y-114589560D01*
X193913760Y-114589560D01*
G37*
X193913760Y-114589560D02*
X193921928Y-114634371D01*
X193948122Y-114676435D01*
X195541900Y-116375943D01*
X195541900Y-117731562D01*
X195532565Y-117735429D01*
X195353936Y-117914057D01*
X195257263Y-118147446D01*
X195257263Y-118438006D01*
X195416013Y-118596756D01*
X195555813Y-118596756D01*
X195579097Y-118631603D01*
X195620299Y-118659133D01*
X195668900Y-118668800D01*
X196839263Y-118668800D01*
X196839263Y-118850756D01*
X196819263Y-118850756D01*
X196819263Y-119650006D01*
X196978013Y-119808756D01*
X197618572Y-119808756D01*
X197794843Y-119735742D01*
X197963787Y-120163274D01*
X197992097Y-120206403D01*
X199160497Y-121374803D01*
X199184197Y-121393441D01*
X199230727Y-121410483D01*
X204444823Y-122223793D01*
X204444823Y-122663756D01*
X204466703Y-122773756D01*
X204444823Y-122883756D01*
X204444823Y-123363756D01*
X204466703Y-123473756D01*
X204444823Y-123583756D01*
X204444823Y-124063756D01*
X204466703Y-124173756D01*
X204444823Y-124283756D01*
X204444823Y-124763756D01*
X204466703Y-124873756D01*
X204444823Y-124983756D01*
X204444823Y-125463756D01*
X204466703Y-125573756D01*
X204444823Y-125683756D01*
X204444823Y-126163756D01*
X204466703Y-126273756D01*
X204444823Y-126383756D01*
X204444823Y-126863756D01*
X204466703Y-126973756D01*
X204444823Y-127083756D01*
X204444823Y-127563756D01*
X204466703Y-127673756D01*
X204444823Y-127783756D01*
X204444823Y-128263756D01*
X204466703Y-128373756D01*
X204444823Y-128483756D01*
X204444823Y-128747687D01*
X204442263Y-128748196D01*
X204332263Y-128726316D01*
X203852263Y-128726316D01*
X203742263Y-128748196D01*
X203632263Y-128726316D01*
X203152263Y-128726316D01*
X203070896Y-128742501D01*
X203183440Y-128470794D01*
X203183440Y-128059046D01*
X203025871Y-127678640D01*
X202734720Y-127387489D01*
X202354314Y-127229920D01*
X201942566Y-127229920D01*
X201562160Y-127387489D01*
X201271009Y-127678640D01*
X201113440Y-128059046D01*
X201113440Y-128470794D01*
X201219280Y-128726316D01*
X201052263Y-128726316D01*
X200942263Y-128748196D01*
X200832263Y-128726316D01*
X200352263Y-128726316D01*
X200242263Y-128748196D01*
X200132263Y-128726316D01*
X199652263Y-128726316D01*
X199542263Y-128748196D01*
X199432263Y-128726316D01*
X198952263Y-128726316D01*
X198842263Y-128748196D01*
X198732263Y-128726316D01*
X198252263Y-128726316D01*
X198142263Y-128748196D01*
X198032263Y-128726316D01*
X197942962Y-128726316D01*
X197950072Y-128721565D01*
X198090420Y-128511521D01*
X198139703Y-128263756D01*
X198139703Y-127783756D01*
X198117823Y-127673756D01*
X198139703Y-127563756D01*
X198139703Y-127083756D01*
X198117823Y-126973756D01*
X198139703Y-126863756D01*
X198139703Y-126383756D01*
X198117823Y-126273756D01*
X198139703Y-126163756D01*
X198139703Y-125683756D01*
X198117823Y-125573756D01*
X198139703Y-125463756D01*
X198139703Y-124983756D01*
X198117823Y-124873756D01*
X198139703Y-124763756D01*
X198139703Y-124283756D01*
X198117823Y-124173756D01*
X198139703Y-124063756D01*
X198139703Y-123583756D01*
X198117823Y-123473756D01*
X198139703Y-123363756D01*
X198139703Y-122883756D01*
X198117823Y-122773756D01*
X198139703Y-122663756D01*
X198139703Y-122183756D01*
X198117823Y-122073756D01*
X198139703Y-121963756D01*
X198139703Y-121483756D01*
X198090420Y-121235991D01*
X197950072Y-121025947D01*
X197740028Y-120885599D01*
X197492263Y-120836316D01*
X196319625Y-120836316D01*
X194492815Y-119009506D01*
X195257263Y-119009506D01*
X195257263Y-119300066D01*
X195353936Y-119533455D01*
X195532565Y-119712083D01*
X195765954Y-119808756D01*
X196406513Y-119808756D01*
X196565263Y-119650006D01*
X196565263Y-118850756D01*
X195416013Y-118850756D01*
X195257263Y-119009506D01*
X194492815Y-119009506D01*
X194074038Y-118590730D01*
X194031636Y-118527271D01*
X193780244Y-118359296D01*
X193558559Y-118315200D01*
X193558554Y-118315200D01*
X193483707Y-118300312D01*
X193408860Y-118315200D01*
X191667046Y-118315200D01*
X191592199Y-118300312D01*
X191517352Y-118315200D01*
X191517348Y-118315200D01*
X191295663Y-118359296D01*
X191295661Y-118359297D01*
X191295662Y-118359297D01*
X191107726Y-118484871D01*
X191107724Y-118484873D01*
X191062349Y-118515191D01*
X191032558Y-118464688D01*
X191023727Y-118458042D01*
X191022713Y-118456428D01*
X191015332Y-118448621D01*
X191009358Y-118439680D01*
X191008008Y-118438330D01*
X191003496Y-118428247D01*
X190933555Y-118362124D01*
X190867432Y-118292183D01*
X190857348Y-118287671D01*
X190855998Y-118286321D01*
X190847060Y-118280349D01*
X190839251Y-118272966D01*
X190837637Y-118271952D01*
X190830991Y-118263121D01*
X190748083Y-118214214D01*
X190668063Y-118160747D01*
X190657227Y-118158591D01*
X190655612Y-118157577D01*
X190645572Y-118153744D01*
X190636310Y-118148281D01*
X190634503Y-118147649D01*
X190626057Y-118140517D01*
X190534349Y-118111288D01*
X190444446Y-118076970D01*
X190433401Y-118077280D01*
X190431598Y-118076649D01*
X190420949Y-118075146D01*
X190410703Y-118071880D01*
X190408814Y-118071667D01*
X190399004Y-118066599D01*
X190303109Y-118058509D01*
X190207791Y-118045052D01*
X190197089Y-118047813D01*
X190195184Y-118047598D01*
X190184480Y-118048501D01*
X190173776Y-118047598D01*
X190171870Y-118047813D01*
X190161168Y-118045052D01*
X190065858Y-118058508D01*
X189969957Y-118066598D01*
X189960147Y-118071666D01*
X189958257Y-118071879D01*
X189948006Y-118075146D01*
X189937361Y-118076649D01*
X189935561Y-118077279D01*
X189924513Y-118076969D01*
X189834605Y-118111289D01*
X189742902Y-118140517D01*
X189734456Y-118147649D01*
X189732649Y-118148281D01*
X189723387Y-118153744D01*
X189713347Y-118157577D01*
X189711732Y-118158591D01*
X189700896Y-118160747D01*
X189620873Y-118214216D01*
X189584480Y-118235684D01*
X189548083Y-118214214D01*
X189468063Y-118160747D01*
X189457227Y-118158591D01*
X189455612Y-118157577D01*
X189445572Y-118153744D01*
X189436310Y-118148281D01*
X189434503Y-118147649D01*
X189426057Y-118140517D01*
X189334349Y-118111288D01*
X189244446Y-118076970D01*
X189233401Y-118077280D01*
X189231598Y-118076649D01*
X189220949Y-118075146D01*
X189210703Y-118071880D01*
X189208814Y-118071667D01*
X189199004Y-118066599D01*
X189103109Y-118058509D01*
X189007791Y-118045052D01*
X188997089Y-118047813D01*
X188995184Y-118047598D01*
X188984480Y-118048501D01*
X188973776Y-118047598D01*
X188971870Y-118047813D01*
X188961168Y-118045052D01*
X188865858Y-118058508D01*
X188769957Y-118066598D01*
X188760147Y-118071666D01*
X188758257Y-118071879D01*
X188748006Y-118075146D01*
X188737361Y-118076649D01*
X188735561Y-118077279D01*
X188724513Y-118076969D01*
X188634605Y-118111289D01*
X188542902Y-118140517D01*
X188534456Y-118147649D01*
X188532649Y-118148281D01*
X188523387Y-118153744D01*
X188513347Y-118157577D01*
X188511732Y-118158591D01*
X188500896Y-118160747D01*
X188420873Y-118214216D01*
X188337968Y-118263121D01*
X188331322Y-118271952D01*
X188329708Y-118272966D01*
X188321901Y-118280347D01*
X188312960Y-118286321D01*
X188311610Y-118287671D01*
X188301527Y-118292183D01*
X188235404Y-118362124D01*
X188193936Y-118401328D01*
X187940425Y-118296320D01*
X187349655Y-118296320D01*
X186803855Y-118522398D01*
X186386118Y-118940135D01*
X186375040Y-118966880D01*
X186363962Y-118940135D01*
X185946225Y-118522398D01*
X185400425Y-118296320D01*
X184809655Y-118296320D01*
X184500041Y-118424566D01*
X184500041Y-117526687D01*
X184514929Y-117451839D01*
X184500041Y-117376991D01*
X184500041Y-117376987D01*
X184455945Y-117155302D01*
X184455945Y-117155301D01*
X184335798Y-116975490D01*
X184287970Y-116903910D01*
X184224511Y-116861508D01*
X184019134Y-116656131D01*
X184019130Y-116656125D01*
X183883947Y-116520942D01*
X184512049Y-115892840D01*
X184837200Y-115892840D01*
X185084965Y-115843557D01*
X185295009Y-115703209D01*
X185435357Y-115493165D01*
X185484640Y-115245400D01*
X185484640Y-110645400D01*
X185435357Y-110397635D01*
X185295009Y-110187591D01*
X185084965Y-110047243D01*
X184837200Y-109997960D01*
X183837200Y-109997960D01*
X183589435Y-110047243D01*
X183379391Y-110187591D01*
X183338546Y-110248720D01*
X183196898Y-110107073D01*
X182963509Y-110010400D01*
X182622950Y-110010400D01*
X182464200Y-110169150D01*
X182464200Y-112818400D01*
X182484200Y-112818400D01*
X182484200Y-113072400D01*
X182464200Y-113072400D01*
X182464200Y-113092400D01*
X182210200Y-113092400D01*
X182210200Y-113072400D01*
X181360950Y-113072400D01*
X181202200Y-113231150D01*
X181202200Y-115371710D01*
X181239682Y-115462199D01*
X179523607Y-115462199D01*
X179431521Y-115443882D01*
X179339435Y-115462199D01*
X179066702Y-115516449D01*
X178757424Y-115723102D01*
X178705260Y-115801171D01*
X178115875Y-116390556D01*
X178113491Y-110519090D01*
X181202200Y-110519090D01*
X181202200Y-112659650D01*
X181360950Y-112818400D01*
X182210200Y-112818400D01*
X182210200Y-110169150D01*
X182051450Y-110010400D01*
X181710891Y-110010400D01*
X181477502Y-110107073D01*
X181298873Y-110285701D01*
X181202200Y-110519090D01*
X178113491Y-110519090D01*
X178111673Y-106045400D01*
X178489760Y-106045400D01*
X178489760Y-109445400D01*
X178539043Y-109693165D01*
X178679391Y-109903209D01*
X178889435Y-110043557D01*
X179137200Y-110092840D01*
X180737200Y-110092840D01*
X180984965Y-110043557D01*
X181195009Y-109903209D01*
X181335357Y-109693165D01*
X181384640Y-109445400D01*
X181384640Y-106045400D01*
X185289760Y-106045400D01*
X185289760Y-109445400D01*
X185339043Y-109693165D01*
X185479391Y-109903209D01*
X185689435Y-110043557D01*
X185937200Y-110092840D01*
X187537200Y-110092840D01*
X187784965Y-110043557D01*
X187995009Y-109903209D01*
X188135357Y-109693165D01*
X188184640Y-109445400D01*
X188184640Y-106045400D01*
X188135357Y-105797635D01*
X187995009Y-105587591D01*
X187784965Y-105447243D01*
X187537200Y-105397960D01*
X185937200Y-105397960D01*
X185689435Y-105447243D01*
X185479391Y-105587591D01*
X185339043Y-105797635D01*
X185289760Y-106045400D01*
X181384640Y-106045400D01*
X181335357Y-105797635D01*
X181195009Y-105587591D01*
X180984965Y-105447243D01*
X180737200Y-105397960D01*
X179137200Y-105397960D01*
X178889435Y-105447243D01*
X178679391Y-105587591D01*
X178539043Y-105797635D01*
X178489760Y-106045400D01*
X178111673Y-106045400D01*
X178111389Y-105346500D01*
X193913760Y-105346500D01*
X193913760Y-114589560D01*
G36*
X184321673Y-122404476D02*
X184364071Y-122467929D01*
X184427524Y-122510327D01*
X184427526Y-122510329D01*
X184512462Y-122567081D01*
X184615463Y-122635904D01*
X184837148Y-122680000D01*
X184837152Y-122680000D01*
X184911999Y-122694888D01*
X184986846Y-122680000D01*
X189856507Y-122680000D01*
X189931354Y-122694888D01*
X190006201Y-122680000D01*
X190006206Y-122680000D01*
X190227891Y-122635904D01*
X190365824Y-122543740D01*
X190505094Y-122683010D01*
X191391844Y-122683010D01*
X191391844Y-122663010D01*
X191645844Y-122663010D01*
X191645844Y-122683010D01*
X191665844Y-122683010D01*
X191665844Y-122937010D01*
X191645844Y-122937010D01*
X191645844Y-123420360D01*
X191632244Y-123433960D01*
X191632244Y-124283210D01*
X191652244Y-124283210D01*
X191652244Y-124537210D01*
X191632244Y-124537210D01*
X191632244Y-124557210D01*
X191378244Y-124557210D01*
X191378244Y-124537210D01*
X190478994Y-124537210D01*
X190320244Y-124695960D01*
X190320244Y-125036520D01*
X190392947Y-125212040D01*
X190316243Y-125326835D01*
X190266960Y-125574600D01*
X190266960Y-126674600D01*
X190316243Y-126922365D01*
X190351269Y-126974784D01*
X190279400Y-127148291D01*
X190279400Y-127538850D01*
X190438150Y-127697600D01*
X191287400Y-127697600D01*
X191287400Y-127677600D01*
X191541400Y-127677600D01*
X191541400Y-127697600D01*
X191561400Y-127697600D01*
X191561400Y-127951600D01*
X191541400Y-127951600D01*
X191541400Y-127971600D01*
X191287400Y-127971600D01*
X191287400Y-127951600D01*
X190438150Y-127951600D01*
X190414760Y-127974990D01*
X190185320Y-127745551D01*
X190185320Y-126304439D01*
X190203637Y-126212353D01*
X190146232Y-125923756D01*
X190131070Y-125847534D01*
X189924417Y-125538256D01*
X189846351Y-125486094D01*
X188881996Y-124521740D01*
X188829832Y-124443671D01*
X188520554Y-124237018D01*
X188247821Y-124182768D01*
X188155735Y-124164451D01*
X188063649Y-124182768D01*
X187722850Y-124182768D01*
X187553500Y-124069611D01*
X187305735Y-124020328D01*
X186305735Y-124020328D01*
X186057970Y-124069611D01*
X185933080Y-124153060D01*
X185804000Y-124066811D01*
X185556235Y-124017528D01*
X185111464Y-124017528D01*
X185048321Y-124004968D01*
X185011125Y-123997569D01*
X184797456Y-123783900D01*
X190320244Y-123783900D01*
X190320244Y-124124460D01*
X190478994Y-124283210D01*
X191378244Y-124283210D01*
X191378244Y-123799860D01*
X191391844Y-123786260D01*
X191391844Y-122937010D01*
X190505094Y-122937010D01*
X190346344Y-123095760D01*
X190346344Y-123436320D01*
X190405280Y-123578605D01*
X190320244Y-123783900D01*
X184797456Y-123783900D01*
X183484800Y-122471244D01*
X183484800Y-121567602D01*
X184321673Y-122404476D01*
X184321673Y-122404476D01*
G37*
X184321673Y-122404476D02*
X184364071Y-122467929D01*
X184427524Y-122510327D01*
X184427526Y-122510329D01*
X184512462Y-122567081D01*
X184615463Y-122635904D01*
X184837148Y-122680000D01*
X184837152Y-122680000D01*
X184911999Y-122694888D01*
X184986846Y-122680000D01*
X189856507Y-122680000D01*
X189931354Y-122694888D01*
X190006201Y-122680000D01*
X190006206Y-122680000D01*
X190227891Y-122635904D01*
X190365824Y-122543740D01*
X190505094Y-122683010D01*
X191391844Y-122683010D01*
X191391844Y-122663010D01*
X191645844Y-122663010D01*
X191645844Y-122683010D01*
X191665844Y-122683010D01*
X191665844Y-122937010D01*
X191645844Y-122937010D01*
X191645844Y-123420360D01*
X191632244Y-123433960D01*
X191632244Y-124283210D01*
X191652244Y-124283210D01*
X191652244Y-124537210D01*
X191632244Y-124537210D01*
X191632244Y-124557210D01*
X191378244Y-124557210D01*
X191378244Y-124537210D01*
X190478994Y-124537210D01*
X190320244Y-124695960D01*
X190320244Y-125036520D01*
X190392947Y-125212040D01*
X190316243Y-125326835D01*
X190266960Y-125574600D01*
X190266960Y-126674600D01*
X190316243Y-126922365D01*
X190351269Y-126974784D01*
X190279400Y-127148291D01*
X190279400Y-127538850D01*
X190438150Y-127697600D01*
X191287400Y-127697600D01*
X191287400Y-127677600D01*
X191541400Y-127677600D01*
X191541400Y-127697600D01*
X191561400Y-127697600D01*
X191561400Y-127951600D01*
X191541400Y-127951600D01*
X191541400Y-127971600D01*
X191287400Y-127971600D01*
X191287400Y-127951600D01*
X190438150Y-127951600D01*
X190414760Y-127974990D01*
X190185320Y-127745551D01*
X190185320Y-126304439D01*
X190203637Y-126212353D01*
X190146232Y-125923756D01*
X190131070Y-125847534D01*
X189924417Y-125538256D01*
X189846351Y-125486094D01*
X188881996Y-124521740D01*
X188829832Y-124443671D01*
X188520554Y-124237018D01*
X188247821Y-124182768D01*
X188155735Y-124164451D01*
X188063649Y-124182768D01*
X187722850Y-124182768D01*
X187553500Y-124069611D01*
X187305735Y-124020328D01*
X186305735Y-124020328D01*
X186057970Y-124069611D01*
X185933080Y-124153060D01*
X185804000Y-124066811D01*
X185556235Y-124017528D01*
X185111464Y-124017528D01*
X185048321Y-124004968D01*
X185011125Y-123997569D01*
X184797456Y-123783900D01*
X190320244Y-123783900D01*
X190320244Y-124124460D01*
X190478994Y-124283210D01*
X191378244Y-124283210D01*
X191378244Y-123799860D01*
X191391844Y-123786260D01*
X191391844Y-122937010D01*
X190505094Y-122937010D01*
X190346344Y-123095760D01*
X190346344Y-123436320D01*
X190405280Y-123578605D01*
X190320244Y-123783900D01*
X184797456Y-123783900D01*
X183484800Y-122471244D01*
X183484800Y-121567602D01*
X184321673Y-122404476D01*
G36*
X180680360Y-125929760D02*
X180700360Y-125929760D01*
X180700360Y-126183760D01*
X180680360Y-126183760D01*
X180680360Y-126203760D01*
X180426360Y-126203760D01*
X180426360Y-126183760D01*
X180406360Y-126183760D01*
X180406360Y-125929760D01*
X180426360Y-125929760D01*
X180426360Y-125909760D01*
X180680360Y-125909760D01*
X180680360Y-125929760D01*
X180680360Y-125929760D01*
G37*
X180680360Y-125929760D02*
X180700360Y-125929760D01*
X180700360Y-126183760D01*
X180680360Y-126183760D01*
X180680360Y-126203760D01*
X180426360Y-126203760D01*
X180426360Y-126183760D01*
X180406360Y-126183760D01*
X180406360Y-125929760D01*
X180426360Y-125929760D01*
X180426360Y-125909760D01*
X180680360Y-125909760D01*
X180680360Y-125929760D01*
G36*
X182944327Y-117730928D02*
X182944333Y-117730932D01*
X182980042Y-117766641D01*
X182980042Y-118345867D01*
X182860425Y-118296320D01*
X182269655Y-118296320D01*
X181723855Y-118522398D01*
X181489890Y-118756363D01*
X181413367Y-118571622D01*
X181234739Y-118392993D01*
X181001350Y-118296320D01*
X180310790Y-118296320D01*
X180152040Y-118455070D01*
X180152040Y-119654320D01*
X180172040Y-119654320D01*
X180172040Y-119908320D01*
X180152040Y-119908320D01*
X180152040Y-121107570D01*
X180310790Y-121266320D01*
X181001350Y-121266320D01*
X181234739Y-121169647D01*
X181413367Y-120991018D01*
X181489890Y-120806277D01*
X181614800Y-120931187D01*
X181614801Y-122766443D01*
X181596483Y-122858533D01*
X181669050Y-123223351D01*
X181823541Y-123454563D01*
X181875704Y-123532630D01*
X181953770Y-123584792D01*
X182373946Y-124004968D01*
X181700800Y-124004968D01*
X181700800Y-123806760D01*
X181651517Y-123558995D01*
X181511169Y-123348951D01*
X181301125Y-123208603D01*
X181053360Y-123159320D01*
X180053360Y-123159320D01*
X179805595Y-123208603D01*
X179595551Y-123348951D01*
X179455203Y-123558995D01*
X179429471Y-123688358D01*
X179192200Y-123925629D01*
X179192200Y-121266320D01*
X179739290Y-121266320D01*
X179898040Y-121107570D01*
X179898040Y-119908320D01*
X179878040Y-119908320D01*
X179878040Y-119654320D01*
X179898040Y-119654320D01*
X179898040Y-118455070D01*
X179739290Y-118296320D01*
X179192200Y-118296320D01*
X179192200Y-117958809D01*
X179818810Y-117332199D01*
X182545599Y-117332199D01*
X182944327Y-117730928D01*
X182944327Y-117730928D01*
G37*
X182944327Y-117730928D02*
X182944333Y-117730932D01*
X182980042Y-117766641D01*
X182980042Y-118345867D01*
X182860425Y-118296320D01*
X182269655Y-118296320D01*
X181723855Y-118522398D01*
X181489890Y-118756363D01*
X181413367Y-118571622D01*
X181234739Y-118392993D01*
X181001350Y-118296320D01*
X180310790Y-118296320D01*
X180152040Y-118455070D01*
X180152040Y-119654320D01*
X180172040Y-119654320D01*
X180172040Y-119908320D01*
X180152040Y-119908320D01*
X180152040Y-121107570D01*
X180310790Y-121266320D01*
X181001350Y-121266320D01*
X181234739Y-121169647D01*
X181413367Y-120991018D01*
X181489890Y-120806277D01*
X181614800Y-120931187D01*
X181614801Y-122766443D01*
X181596483Y-122858533D01*
X181669050Y-123223351D01*
X181823541Y-123454563D01*
X181875704Y-123532630D01*
X181953770Y-123584792D01*
X182373946Y-124004968D01*
X181700800Y-124004968D01*
X181700800Y-123806760D01*
X181651517Y-123558995D01*
X181511169Y-123348951D01*
X181301125Y-123208603D01*
X181053360Y-123159320D01*
X180053360Y-123159320D01*
X179805595Y-123208603D01*
X179595551Y-123348951D01*
X179455203Y-123558995D01*
X179429471Y-123688358D01*
X179192200Y-123925629D01*
X179192200Y-121266320D01*
X179739290Y-121266320D01*
X179898040Y-121107570D01*
X179898040Y-119908320D01*
X179878040Y-119908320D01*
X179878040Y-119654320D01*
X179898040Y-119654320D01*
X179898040Y-118455070D01*
X179739290Y-118296320D01*
X179192200Y-118296320D01*
X179192200Y-117958809D01*
X179818810Y-117332199D01*
X182545599Y-117332199D01*
X182944327Y-117730928D01*
G36*
X192764803Y-92604625D02*
X192808058Y-92669360D01*
X192764803Y-92734095D01*
X192715520Y-92981860D01*
X192715520Y-94056860D01*
X192764803Y-94304625D01*
X192905151Y-94514669D01*
X193021681Y-94592532D01*
X193021680Y-94973009D01*
X192904249Y-95090440D01*
X192746680Y-95470846D01*
X192746680Y-95882594D01*
X192904249Y-96263000D01*
X193195400Y-96554151D01*
X193575806Y-96711720D01*
X193987554Y-96711720D01*
X194367960Y-96554151D01*
X194659111Y-96263000D01*
X194816680Y-95882594D01*
X194816680Y-95470846D01*
X194659111Y-95090440D01*
X194541680Y-94973009D01*
X194541680Y-94668751D01*
X194610725Y-94655017D01*
X194820769Y-94514669D01*
X194856897Y-94460600D01*
X194889343Y-94460600D01*
X195022843Y-94660397D01*
X195449217Y-94945291D01*
X195825205Y-95020080D01*
X196275960Y-95020080D01*
X196275960Y-97522080D01*
X195825160Y-97522080D01*
X195341548Y-97668800D01*
X194950896Y-97989422D01*
X194712678Y-98435134D01*
X194705092Y-98484981D01*
X194829068Y-98684080D01*
X196275960Y-98684080D01*
X196275960Y-98938080D01*
X194829068Y-98938080D01*
X194705092Y-99137179D01*
X194712678Y-99187026D01*
X194950896Y-99632738D01*
X195341548Y-99953360D01*
X195825160Y-100100080D01*
X196275960Y-100100080D01*
X196275960Y-100898960D01*
X194040760Y-100898960D01*
X193992159Y-100908627D01*
X193950957Y-100936157D01*
X193923427Y-100977359D01*
X193913760Y-101025960D01*
X193913760Y-106700320D01*
X188184640Y-106700320D01*
X188184640Y-106045400D01*
X188135357Y-105797635D01*
X187995009Y-105587591D01*
X187784965Y-105447243D01*
X187537200Y-105397960D01*
X185937200Y-105397960D01*
X185689435Y-105447243D01*
X185479391Y-105587591D01*
X185339043Y-105797635D01*
X185289760Y-106045400D01*
X185289760Y-106700320D01*
X182326280Y-106700320D01*
X182326280Y-102998806D01*
X186236243Y-99088843D01*
X186263773Y-99047641D01*
X186273440Y-98999040D01*
X186273440Y-92565760D01*
X192757072Y-92565760D01*
X192764803Y-92604625D01*
X192764803Y-92604625D01*
G37*
X192764803Y-92604625D02*
X192808058Y-92669360D01*
X192764803Y-92734095D01*
X192715520Y-92981860D01*
X192715520Y-94056860D01*
X192764803Y-94304625D01*
X192905151Y-94514669D01*
X193021681Y-94592532D01*
X193021680Y-94973009D01*
X192904249Y-95090440D01*
X192746680Y-95470846D01*
X192746680Y-95882594D01*
X192904249Y-96263000D01*
X193195400Y-96554151D01*
X193575806Y-96711720D01*
X193987554Y-96711720D01*
X194367960Y-96554151D01*
X194659111Y-96263000D01*
X194816680Y-95882594D01*
X194816680Y-95470846D01*
X194659111Y-95090440D01*
X194541680Y-94973009D01*
X194541680Y-94668751D01*
X194610725Y-94655017D01*
X194820769Y-94514669D01*
X194856897Y-94460600D01*
X194889343Y-94460600D01*
X195022843Y-94660397D01*
X195449217Y-94945291D01*
X195825205Y-95020080D01*
X196275960Y-95020080D01*
X196275960Y-97522080D01*
X195825160Y-97522080D01*
X195341548Y-97668800D01*
X194950896Y-97989422D01*
X194712678Y-98435134D01*
X194705092Y-98484981D01*
X194829068Y-98684080D01*
X196275960Y-98684080D01*
X196275960Y-98938080D01*
X194829068Y-98938080D01*
X194705092Y-99137179D01*
X194712678Y-99187026D01*
X194950896Y-99632738D01*
X195341548Y-99953360D01*
X195825160Y-100100080D01*
X196275960Y-100100080D01*
X196275960Y-100898960D01*
X194040760Y-100898960D01*
X193992159Y-100908627D01*
X193950957Y-100936157D01*
X193923427Y-100977359D01*
X193913760Y-101025960D01*
X193913760Y-106700320D01*
X188184640Y-106700320D01*
X188184640Y-106045400D01*
X188135357Y-105797635D01*
X187995009Y-105587591D01*
X187784965Y-105447243D01*
X187537200Y-105397960D01*
X185937200Y-105397960D01*
X185689435Y-105447243D01*
X185479391Y-105587591D01*
X185339043Y-105797635D01*
X185289760Y-106045400D01*
X185289760Y-106700320D01*
X182326280Y-106700320D01*
X182326280Y-102998806D01*
X186236243Y-99088843D01*
X186263773Y-99047641D01*
X186273440Y-98999040D01*
X186273440Y-92565760D01*
X192757072Y-92565760D01*
X192764803Y-92604625D01*
G36*
X198304729Y-58537366D02*
X198265313Y-58576781D01*
X198168640Y-58810170D01*
X198168640Y-59350730D01*
X198327390Y-59509480D01*
X199176640Y-59509480D01*
X199176640Y-59489480D01*
X199430640Y-59489480D01*
X199430640Y-59509480D01*
X200279890Y-59509480D01*
X200438640Y-59350730D01*
X200438640Y-58810170D01*
X200341967Y-58576781D01*
X200323132Y-58557947D01*
X203428831Y-58589614D01*
X203433649Y-66790065D01*
X202104357Y-68119357D01*
X202076827Y-68160559D01*
X202067160Y-68209160D01*
X202067160Y-75654634D01*
X200230356Y-77491438D01*
X199751418Y-77012500D01*
X199124653Y-76693147D01*
X198429880Y-76583106D01*
X197735107Y-76693147D01*
X197108342Y-77012500D01*
X196610940Y-77509902D01*
X196291587Y-78136667D01*
X196181546Y-78831440D01*
X196291587Y-79526213D01*
X196610940Y-80152978D01*
X197089878Y-80631916D01*
X196313157Y-81408637D01*
X196285627Y-81449839D01*
X196275960Y-81498440D01*
X196275960Y-87362080D01*
X195825205Y-87362080D01*
X195449217Y-87436869D01*
X195022843Y-87721763D01*
X194737949Y-88148137D01*
X194637907Y-88651080D01*
X194737949Y-89154023D01*
X195022843Y-89580397D01*
X195449217Y-89865291D01*
X195825205Y-89940080D01*
X196275960Y-89940080D01*
X196275960Y-92442080D01*
X195825205Y-92442080D01*
X195449217Y-92516869D01*
X195022843Y-92801763D01*
X194985649Y-92857428D01*
X194961117Y-92734095D01*
X194917862Y-92669360D01*
X194961117Y-92604625D01*
X195010400Y-92356860D01*
X195010400Y-91281860D01*
X194961117Y-91034095D01*
X194820769Y-90824051D01*
X194622960Y-90691878D01*
X194622960Y-78577281D01*
X195774913Y-77425329D01*
X195838369Y-77382929D01*
X196006344Y-77131537D01*
X196050440Y-76909852D01*
X196050440Y-76909848D01*
X196065328Y-76835000D01*
X196050440Y-76760152D01*
X196050440Y-72109836D01*
X196065328Y-72034989D01*
X196050440Y-71960142D01*
X196050440Y-71960138D01*
X196006344Y-71738453D01*
X195838369Y-71487061D01*
X195774913Y-71444661D01*
X195192585Y-70862334D01*
X195192585Y-70667057D01*
X195210993Y-70648649D01*
X195274449Y-70606249D01*
X195350972Y-70491724D01*
X195442424Y-70354858D01*
X195452000Y-70306715D01*
X195486520Y-70133172D01*
X195486520Y-70133168D01*
X195501408Y-70058320D01*
X195486520Y-69983472D01*
X195486520Y-69147591D01*
X195765880Y-69426951D01*
X196146286Y-69584520D01*
X196558034Y-69584520D01*
X196938440Y-69426951D01*
X197229591Y-69135800D01*
X197387160Y-68755394D01*
X197387160Y-68343646D01*
X197383174Y-68334023D01*
X197493690Y-68379800D01*
X197834250Y-68379800D01*
X197993000Y-68221050D01*
X197993000Y-67321800D01*
X198247000Y-67321800D01*
X198247000Y-68221050D01*
X198405750Y-68379800D01*
X198746310Y-68379800D01*
X198979699Y-68283127D01*
X199025344Y-68237481D01*
X199246290Y-68329000D01*
X199586850Y-68329000D01*
X199745600Y-68170250D01*
X199745600Y-67271000D01*
X199999600Y-67271000D01*
X199999600Y-68170250D01*
X200158350Y-68329000D01*
X200498910Y-68329000D01*
X200732299Y-68232327D01*
X200910927Y-68053698D01*
X201007600Y-67820309D01*
X201007600Y-67429750D01*
X200848850Y-67271000D01*
X199999600Y-67271000D01*
X199745600Y-67271000D01*
X198896350Y-67271000D01*
X198845550Y-67321800D01*
X198247000Y-67321800D01*
X197993000Y-67321800D01*
X197973000Y-67321800D01*
X197973000Y-67067800D01*
X197993000Y-67067800D01*
X197993000Y-67047800D01*
X198247000Y-67047800D01*
X198247000Y-67067800D01*
X199096250Y-67067800D01*
X199147050Y-67017000D01*
X199745600Y-67017000D01*
X199745600Y-66997000D01*
X199999600Y-66997000D01*
X199999600Y-67017000D01*
X200848850Y-67017000D01*
X201007600Y-66858250D01*
X201007600Y-66467691D01*
X200935731Y-66294184D01*
X200970757Y-66241765D01*
X201020040Y-65994000D01*
X201020040Y-64894000D01*
X200970757Y-64646235D01*
X200830409Y-64436191D01*
X200620365Y-64295843D01*
X200372600Y-64246560D01*
X199372600Y-64246560D01*
X199124835Y-64295843D01*
X199113640Y-64303323D01*
X199113640Y-63126462D01*
X199303640Y-62999507D01*
X199505875Y-63134637D01*
X199753640Y-63183920D01*
X200753640Y-63183920D01*
X201001405Y-63134637D01*
X201211449Y-62994289D01*
X201238500Y-62953805D01*
X201388846Y-63016080D01*
X201800594Y-63016080D01*
X202181000Y-62858511D01*
X202472151Y-62567360D01*
X202629720Y-62186954D01*
X202629720Y-61775206D01*
X202472151Y-61394800D01*
X202181000Y-61103649D01*
X201800594Y-60946080D01*
X201388846Y-60946080D01*
X201365159Y-60955891D01*
X201351797Y-60888715D01*
X201211449Y-60678671D01*
X201001405Y-60538323D01*
X200753640Y-60489040D01*
X200427767Y-60489040D01*
X200438640Y-60462790D01*
X200438640Y-59922230D01*
X200279890Y-59763480D01*
X199430640Y-59763480D01*
X199430640Y-59783480D01*
X199176640Y-59783480D01*
X199176640Y-59763480D01*
X198327390Y-59763480D01*
X198168640Y-59922230D01*
X198168640Y-60462790D01*
X198179513Y-60489040D01*
X197853640Y-60489040D01*
X197605875Y-60538323D01*
X197395831Y-60678671D01*
X197255483Y-60888715D01*
X197206200Y-61136480D01*
X197206200Y-62536480D01*
X197255483Y-62784245D01*
X197395831Y-62994289D01*
X197593640Y-63126462D01*
X197593641Y-64302603D01*
X197372235Y-64346643D01*
X197162191Y-64486991D01*
X197021843Y-64697035D01*
X196995152Y-64831222D01*
X196979718Y-64841534D01*
X196822071Y-64946871D01*
X196779669Y-65010330D01*
X196721840Y-65068159D01*
X196552440Y-65068159D01*
X196552440Y-64938910D01*
X196393690Y-64780160D01*
X195544440Y-64780160D01*
X195544440Y-64800160D01*
X195290440Y-64800160D01*
X195290440Y-64780160D01*
X194441190Y-64780160D01*
X194282440Y-64938910D01*
X194282440Y-65479470D01*
X194293313Y-65505720D01*
X193967440Y-65505720D01*
X193719675Y-65555003D01*
X193509631Y-65695351D01*
X193369283Y-65905395D01*
X193320000Y-66153160D01*
X193320000Y-67553160D01*
X193369283Y-67800925D01*
X193509631Y-68010969D01*
X193719675Y-68151317D01*
X193966520Y-68200417D01*
X193966521Y-69542255D01*
X193545145Y-69542255D01*
X193297380Y-69591538D01*
X193266216Y-69612361D01*
X193254365Y-69604443D01*
X193006600Y-69555160D01*
X192114840Y-69555160D01*
X192114840Y-68345000D01*
X192065557Y-68097235D01*
X191925209Y-67887191D01*
X191715165Y-67746843D01*
X191467400Y-67697560D01*
X191141527Y-67697560D01*
X191152400Y-67671310D01*
X191152400Y-67130750D01*
X190993650Y-66972000D01*
X190144400Y-66972000D01*
X190144400Y-66992000D01*
X189890400Y-66992000D01*
X189890400Y-66972000D01*
X189870400Y-66972000D01*
X189870400Y-66718000D01*
X189890400Y-66718000D01*
X189890400Y-66698000D01*
X190144400Y-66698000D01*
X190144400Y-66718000D01*
X190993650Y-66718000D01*
X191152400Y-66559250D01*
X191152400Y-66018690D01*
X191055727Y-65785301D01*
X190877098Y-65606673D01*
X190643709Y-65510000D01*
X190303150Y-65510000D01*
X190144402Y-65668748D01*
X190144402Y-65596509D01*
X191914852Y-63826850D01*
X194282440Y-63826850D01*
X194282440Y-64367410D01*
X194441190Y-64526160D01*
X195290440Y-64526160D01*
X195290440Y-63476910D01*
X195544440Y-63476910D01*
X195544440Y-64526160D01*
X196393690Y-64526160D01*
X196552440Y-64367410D01*
X196552440Y-63826850D01*
X196455767Y-63593461D01*
X196277138Y-63414833D01*
X196043749Y-63318160D01*
X195703190Y-63318160D01*
X195544440Y-63476910D01*
X195290440Y-63476910D01*
X195131690Y-63318160D01*
X194791131Y-63318160D01*
X194557742Y-63414833D01*
X194379113Y-63593461D01*
X194282440Y-63826850D01*
X191914852Y-63826850D01*
X193151632Y-62590623D01*
X197479208Y-58528948D01*
X198304729Y-58537366D01*
X198304729Y-58537366D01*
G37*
X198304729Y-58537366D02*
X198265313Y-58576781D01*
X198168640Y-58810170D01*
X198168640Y-59350730D01*
X198327390Y-59509480D01*
X199176640Y-59509480D01*
X199176640Y-59489480D01*
X199430640Y-59489480D01*
X199430640Y-59509480D01*
X200279890Y-59509480D01*
X200438640Y-59350730D01*
X200438640Y-58810170D01*
X200341967Y-58576781D01*
X200323132Y-58557947D01*
X203428831Y-58589614D01*
X203433649Y-66790065D01*
X202104357Y-68119357D01*
X202076827Y-68160559D01*
X202067160Y-68209160D01*
X202067160Y-75654634D01*
X200230356Y-77491438D01*
X199751418Y-77012500D01*
X199124653Y-76693147D01*
X198429880Y-76583106D01*
X197735107Y-76693147D01*
X197108342Y-77012500D01*
X196610940Y-77509902D01*
X196291587Y-78136667D01*
X196181546Y-78831440D01*
X196291587Y-79526213D01*
X196610940Y-80152978D01*
X197089878Y-80631916D01*
X196313157Y-81408637D01*
X196285627Y-81449839D01*
X196275960Y-81498440D01*
X196275960Y-87362080D01*
X195825205Y-87362080D01*
X195449217Y-87436869D01*
X195022843Y-87721763D01*
X194737949Y-88148137D01*
X194637907Y-88651080D01*
X194737949Y-89154023D01*
X195022843Y-89580397D01*
X195449217Y-89865291D01*
X195825205Y-89940080D01*
X196275960Y-89940080D01*
X196275960Y-92442080D01*
X195825205Y-92442080D01*
X195449217Y-92516869D01*
X195022843Y-92801763D01*
X194985649Y-92857428D01*
X194961117Y-92734095D01*
X194917862Y-92669360D01*
X194961117Y-92604625D01*
X195010400Y-92356860D01*
X195010400Y-91281860D01*
X194961117Y-91034095D01*
X194820769Y-90824051D01*
X194622960Y-90691878D01*
X194622960Y-78577281D01*
X195774913Y-77425329D01*
X195838369Y-77382929D01*
X196006344Y-77131537D01*
X196050440Y-76909852D01*
X196050440Y-76909848D01*
X196065328Y-76835000D01*
X196050440Y-76760152D01*
X196050440Y-72109836D01*
X196065328Y-72034989D01*
X196050440Y-71960142D01*
X196050440Y-71960138D01*
X196006344Y-71738453D01*
X195838369Y-71487061D01*
X195774913Y-71444661D01*
X195192585Y-70862334D01*
X195192585Y-70667057D01*
X195210993Y-70648649D01*
X195274449Y-70606249D01*
X195350972Y-70491724D01*
X195442424Y-70354858D01*
X195452000Y-70306715D01*
X195486520Y-70133172D01*
X195486520Y-70133168D01*
X195501408Y-70058320D01*
X195486520Y-69983472D01*
X195486520Y-69147591D01*
X195765880Y-69426951D01*
X196146286Y-69584520D01*
X196558034Y-69584520D01*
X196938440Y-69426951D01*
X197229591Y-69135800D01*
X197387160Y-68755394D01*
X197387160Y-68343646D01*
X197383174Y-68334023D01*
X197493690Y-68379800D01*
X197834250Y-68379800D01*
X197993000Y-68221050D01*
X197993000Y-67321800D01*
X198247000Y-67321800D01*
X198247000Y-68221050D01*
X198405750Y-68379800D01*
X198746310Y-68379800D01*
X198979699Y-68283127D01*
X199025344Y-68237481D01*
X199246290Y-68329000D01*
X199586850Y-68329000D01*
X199745600Y-68170250D01*
X199745600Y-67271000D01*
X199999600Y-67271000D01*
X199999600Y-68170250D01*
X200158350Y-68329000D01*
X200498910Y-68329000D01*
X200732299Y-68232327D01*
X200910927Y-68053698D01*
X201007600Y-67820309D01*
X201007600Y-67429750D01*
X200848850Y-67271000D01*
X199999600Y-67271000D01*
X199745600Y-67271000D01*
X198896350Y-67271000D01*
X198845550Y-67321800D01*
X198247000Y-67321800D01*
X197993000Y-67321800D01*
X197973000Y-67321800D01*
X197973000Y-67067800D01*
X197993000Y-67067800D01*
X197993000Y-67047800D01*
X198247000Y-67047800D01*
X198247000Y-67067800D01*
X199096250Y-67067800D01*
X199147050Y-67017000D01*
X199745600Y-67017000D01*
X199745600Y-66997000D01*
X199999600Y-66997000D01*
X199999600Y-67017000D01*
X200848850Y-67017000D01*
X201007600Y-66858250D01*
X201007600Y-66467691D01*
X200935731Y-66294184D01*
X200970757Y-66241765D01*
X201020040Y-65994000D01*
X201020040Y-64894000D01*
X200970757Y-64646235D01*
X200830409Y-64436191D01*
X200620365Y-64295843D01*
X200372600Y-64246560D01*
X199372600Y-64246560D01*
X199124835Y-64295843D01*
X199113640Y-64303323D01*
X199113640Y-63126462D01*
X199303640Y-62999507D01*
X199505875Y-63134637D01*
X199753640Y-63183920D01*
X200753640Y-63183920D01*
X201001405Y-63134637D01*
X201211449Y-62994289D01*
X201238500Y-62953805D01*
X201388846Y-63016080D01*
X201800594Y-63016080D01*
X202181000Y-62858511D01*
X202472151Y-62567360D01*
X202629720Y-62186954D01*
X202629720Y-61775206D01*
X202472151Y-61394800D01*
X202181000Y-61103649D01*
X201800594Y-60946080D01*
X201388846Y-60946080D01*
X201365159Y-60955891D01*
X201351797Y-60888715D01*
X201211449Y-60678671D01*
X201001405Y-60538323D01*
X200753640Y-60489040D01*
X200427767Y-60489040D01*
X200438640Y-60462790D01*
X200438640Y-59922230D01*
X200279890Y-59763480D01*
X199430640Y-59763480D01*
X199430640Y-59783480D01*
X199176640Y-59783480D01*
X199176640Y-59763480D01*
X198327390Y-59763480D01*
X198168640Y-59922230D01*
X198168640Y-60462790D01*
X198179513Y-60489040D01*
X197853640Y-60489040D01*
X197605875Y-60538323D01*
X197395831Y-60678671D01*
X197255483Y-60888715D01*
X197206200Y-61136480D01*
X197206200Y-62536480D01*
X197255483Y-62784245D01*
X197395831Y-62994289D01*
X197593640Y-63126462D01*
X197593641Y-64302603D01*
X197372235Y-64346643D01*
X197162191Y-64486991D01*
X197021843Y-64697035D01*
X196995152Y-64831222D01*
X196979718Y-64841534D01*
X196822071Y-64946871D01*
X196779669Y-65010330D01*
X196721840Y-65068159D01*
X196552440Y-65068159D01*
X196552440Y-64938910D01*
X196393690Y-64780160D01*
X195544440Y-64780160D01*
X195544440Y-64800160D01*
X195290440Y-64800160D01*
X195290440Y-64780160D01*
X194441190Y-64780160D01*
X194282440Y-64938910D01*
X194282440Y-65479470D01*
X194293313Y-65505720D01*
X193967440Y-65505720D01*
X193719675Y-65555003D01*
X193509631Y-65695351D01*
X193369283Y-65905395D01*
X193320000Y-66153160D01*
X193320000Y-67553160D01*
X193369283Y-67800925D01*
X193509631Y-68010969D01*
X193719675Y-68151317D01*
X193966520Y-68200417D01*
X193966521Y-69542255D01*
X193545145Y-69542255D01*
X193297380Y-69591538D01*
X193266216Y-69612361D01*
X193254365Y-69604443D01*
X193006600Y-69555160D01*
X192114840Y-69555160D01*
X192114840Y-68345000D01*
X192065557Y-68097235D01*
X191925209Y-67887191D01*
X191715165Y-67746843D01*
X191467400Y-67697560D01*
X191141527Y-67697560D01*
X191152400Y-67671310D01*
X191152400Y-67130750D01*
X190993650Y-66972000D01*
X190144400Y-66972000D01*
X190144400Y-66992000D01*
X189890400Y-66992000D01*
X189890400Y-66972000D01*
X189870400Y-66972000D01*
X189870400Y-66718000D01*
X189890400Y-66718000D01*
X189890400Y-66698000D01*
X190144400Y-66698000D01*
X190144400Y-66718000D01*
X190993650Y-66718000D01*
X191152400Y-66559250D01*
X191152400Y-66018690D01*
X191055727Y-65785301D01*
X190877098Y-65606673D01*
X190643709Y-65510000D01*
X190303150Y-65510000D01*
X190144402Y-65668748D01*
X190144402Y-65596509D01*
X191914852Y-63826850D01*
X194282440Y-63826850D01*
X194282440Y-64367410D01*
X194441190Y-64526160D01*
X195290440Y-64526160D01*
X195290440Y-63476910D01*
X195544440Y-63476910D01*
X195544440Y-64526160D01*
X196393690Y-64526160D01*
X196552440Y-64367410D01*
X196552440Y-63826850D01*
X196455767Y-63593461D01*
X196277138Y-63414833D01*
X196043749Y-63318160D01*
X195703190Y-63318160D01*
X195544440Y-63476910D01*
X195290440Y-63476910D01*
X195131690Y-63318160D01*
X194791131Y-63318160D01*
X194557742Y-63414833D01*
X194379113Y-63593461D01*
X194282440Y-63826850D01*
X191914852Y-63826850D01*
X193151632Y-62590623D01*
X197479208Y-58528948D01*
X198304729Y-58537366D01*
G36*
X188882400Y-66972002D02*
X189041148Y-66972002D01*
X188882400Y-67130750D01*
X188882400Y-67671310D01*
X188893273Y-67697560D01*
X188567400Y-67697560D01*
X188319635Y-67746843D01*
X188109591Y-67887191D01*
X187969243Y-68097235D01*
X187919960Y-68345000D01*
X187919960Y-69745000D01*
X187969243Y-69992765D01*
X188109591Y-70202809D01*
X188307401Y-70334982D01*
X188307401Y-71041150D01*
X188292512Y-71116002D01*
X188307401Y-71190854D01*
X188314028Y-71224168D01*
X188351497Y-71412539D01*
X188443590Y-71550365D01*
X188519472Y-71663931D01*
X188582928Y-71706331D01*
X189180670Y-72304074D01*
X189223070Y-72367530D01*
X189474462Y-72535505D01*
X189696147Y-72579601D01*
X189696151Y-72579601D01*
X189770998Y-72594489D01*
X189845845Y-72579601D01*
X190614752Y-72579601D01*
X190689599Y-72594489D01*
X190764446Y-72579601D01*
X190764451Y-72579601D01*
X190986136Y-72535505D01*
X191237528Y-72367530D01*
X191279930Y-72304071D01*
X191394376Y-72189626D01*
X191530350Y-72325600D01*
X192379600Y-72325600D01*
X192379600Y-72305600D01*
X192633600Y-72305600D01*
X192633600Y-72325600D01*
X193482850Y-72325600D01*
X193495755Y-72312695D01*
X193918145Y-72312695D01*
X193918145Y-72292695D01*
X194172145Y-72292695D01*
X194172145Y-72312695D01*
X194192145Y-72312695D01*
X194192145Y-72566695D01*
X194172145Y-72566695D01*
X194172145Y-73465945D01*
X194330895Y-73624695D01*
X194530441Y-73624695D01*
X194530440Y-76520198D01*
X193378488Y-77672151D01*
X193315032Y-77714551D01*
X193272632Y-77778007D01*
X193272631Y-77778008D01*
X193147057Y-77965943D01*
X193088072Y-78262480D01*
X193102961Y-78337332D01*
X193102960Y-90691878D01*
X192905151Y-90824051D01*
X192764803Y-91034095D01*
X192762483Y-91045760D01*
X186273440Y-91045760D01*
X186273440Y-72738350D01*
X191371600Y-72738350D01*
X191371600Y-73128909D01*
X191468273Y-73362298D01*
X191646901Y-73540927D01*
X191880290Y-73637600D01*
X192220850Y-73637600D01*
X192379600Y-73478850D01*
X192379600Y-72579600D01*
X192633600Y-72579600D01*
X192633600Y-73478850D01*
X192792350Y-73637600D01*
X193132910Y-73637600D01*
X193291450Y-73571930D01*
X193418835Y-73624695D01*
X193759395Y-73624695D01*
X193918145Y-73465945D01*
X193918145Y-72566695D01*
X193068895Y-72566695D01*
X193055990Y-72579600D01*
X192633600Y-72579600D01*
X192379600Y-72579600D01*
X191530350Y-72579600D01*
X191371600Y-72738350D01*
X186273440Y-72738350D01*
X186273440Y-69465743D01*
X188882400Y-66857947D01*
X188882400Y-66972002D01*
X188882400Y-66972002D01*
G37*
X188882400Y-66972002D02*
X189041148Y-66972002D01*
X188882400Y-67130750D01*
X188882400Y-67671310D01*
X188893273Y-67697560D01*
X188567400Y-67697560D01*
X188319635Y-67746843D01*
X188109591Y-67887191D01*
X187969243Y-68097235D01*
X187919960Y-68345000D01*
X187919960Y-69745000D01*
X187969243Y-69992765D01*
X188109591Y-70202809D01*
X188307401Y-70334982D01*
X188307401Y-71041150D01*
X188292512Y-71116002D01*
X188307401Y-71190854D01*
X188314028Y-71224168D01*
X188351497Y-71412539D01*
X188443590Y-71550365D01*
X188519472Y-71663931D01*
X188582928Y-71706331D01*
X189180670Y-72304074D01*
X189223070Y-72367530D01*
X189474462Y-72535505D01*
X189696147Y-72579601D01*
X189696151Y-72579601D01*
X189770998Y-72594489D01*
X189845845Y-72579601D01*
X190614752Y-72579601D01*
X190689599Y-72594489D01*
X190764446Y-72579601D01*
X190764451Y-72579601D01*
X190986136Y-72535505D01*
X191237528Y-72367530D01*
X191279930Y-72304071D01*
X191394376Y-72189626D01*
X191530350Y-72325600D01*
X192379600Y-72325600D01*
X192379600Y-72305600D01*
X192633600Y-72305600D01*
X192633600Y-72325600D01*
X193482850Y-72325600D01*
X193495755Y-72312695D01*
X193918145Y-72312695D01*
X193918145Y-72292695D01*
X194172145Y-72292695D01*
X194172145Y-72312695D01*
X194192145Y-72312695D01*
X194192145Y-72566695D01*
X194172145Y-72566695D01*
X194172145Y-73465945D01*
X194330895Y-73624695D01*
X194530441Y-73624695D01*
X194530440Y-76520198D01*
X193378488Y-77672151D01*
X193315032Y-77714551D01*
X193272632Y-77778007D01*
X193272631Y-77778008D01*
X193147057Y-77965943D01*
X193088072Y-78262480D01*
X193102961Y-78337332D01*
X193102960Y-90691878D01*
X192905151Y-90824051D01*
X192764803Y-91034095D01*
X192762483Y-91045760D01*
X186273440Y-91045760D01*
X186273440Y-72738350D01*
X191371600Y-72738350D01*
X191371600Y-73128909D01*
X191468273Y-73362298D01*
X191646901Y-73540927D01*
X191880290Y-73637600D01*
X192220850Y-73637600D01*
X192379600Y-73478850D01*
X192379600Y-72579600D01*
X192633600Y-72579600D01*
X192633600Y-73478850D01*
X192792350Y-73637600D01*
X193132910Y-73637600D01*
X193291450Y-73571930D01*
X193418835Y-73624695D01*
X193759395Y-73624695D01*
X193918145Y-73465945D01*
X193918145Y-72566695D01*
X193068895Y-72566695D01*
X193055990Y-72579600D01*
X192633600Y-72579600D01*
X192379600Y-72579600D01*
X191530350Y-72579600D01*
X191371600Y-72738350D01*
X186273440Y-72738350D01*
X186273440Y-69465743D01*
X188882400Y-66857947D01*
X188882400Y-66972002D01*
G04 #@! TD*
M02*
