G04 #@! TF.GenerationSoftware,KiCad,Pcbnew,(6.0.0-rc1-dev-1027-g90233e5ec)*
G04 #@! TF.CreationDate,2019-01-09T23:19:54+01:00*
G04 #@! TF.ProjectId,eBoard_remote_control,65426F6172645F72656D6F74655F636F,rev?*
G04 #@! TF.SameCoordinates,Original*
G04 #@! TF.FileFunction,Legend,Bot*
G04 #@! TF.FilePolarity,Positive*
%FSLAX46Y46*%
G04 Gerber Fmt 4.6, Leading zero omitted, Abs format (unit mm)*
G04 Created by KiCad (PCBNEW (6.0.0-rc1-dev-1027-g90233e5ec)) date 09.01.2019 23.19.54*
%MOMM*%
%LPD*%
G01*
G04 APERTURE LIST*
%ADD10C,0.150000*%
%ADD11C,0.200000*%
%ADD12C,0.152400*%
%ADD13C,0.060800*%
G04 APERTURE END LIST*
D10*
X202685518Y-83398620D02*
X202685518Y-82398620D01*
X202352184Y-83112906D01*
X202018851Y-82398620D01*
X202018851Y-83398620D01*
X201399803Y-83398620D02*
X201495041Y-83351001D01*
X201542660Y-83303382D01*
X201590280Y-83208144D01*
X201590280Y-82922430D01*
X201542660Y-82827192D01*
X201495041Y-82779573D01*
X201399803Y-82731954D01*
X201256946Y-82731954D01*
X201161708Y-82779573D01*
X201114089Y-82827192D01*
X201066470Y-82922430D01*
X201066470Y-83208144D01*
X201114089Y-83303382D01*
X201161708Y-83351001D01*
X201256946Y-83398620D01*
X201399803Y-83398620D01*
X200209327Y-82731954D02*
X200209327Y-83398620D01*
X200637899Y-82731954D02*
X200637899Y-83255763D01*
X200590280Y-83351001D01*
X200495041Y-83398620D01*
X200352184Y-83398620D01*
X200256946Y-83351001D01*
X200209327Y-83303382D01*
X199733137Y-82731954D02*
X199733137Y-83398620D01*
X199733137Y-82827192D02*
X199685518Y-82779573D01*
X199590280Y-82731954D01*
X199447422Y-82731954D01*
X199352184Y-82779573D01*
X199304565Y-82874811D01*
X199304565Y-83398620D01*
X198971232Y-82731954D02*
X198590280Y-82731954D01*
X198828375Y-82398620D02*
X198828375Y-83255763D01*
X198780756Y-83351001D01*
X198685518Y-83398620D01*
X198590280Y-83398620D01*
X197828375Y-83398620D02*
X197828375Y-82874811D01*
X197875994Y-82779573D01*
X197971232Y-82731954D01*
X198161708Y-82731954D01*
X198256946Y-82779573D01*
X197828375Y-83351001D02*
X197923613Y-83398620D01*
X198161708Y-83398620D01*
X198256946Y-83351001D01*
X198304565Y-83255763D01*
X198304565Y-83160525D01*
X198256946Y-83065287D01*
X198161708Y-83017668D01*
X197923613Y-83017668D01*
X197828375Y-82970049D01*
X197352184Y-83398620D02*
X197352184Y-82731954D01*
X197352184Y-82398620D02*
X197399803Y-82446240D01*
X197352184Y-82493859D01*
X197304565Y-82446240D01*
X197352184Y-82398620D01*
X197352184Y-82493859D01*
X196875994Y-82731954D02*
X196875994Y-83398620D01*
X196875994Y-82827192D02*
X196828375Y-82779573D01*
X196733137Y-82731954D01*
X196590280Y-82731954D01*
X196495041Y-82779573D01*
X196447422Y-82874811D01*
X196447422Y-83398620D01*
X196066470Y-82398620D02*
X195399803Y-83398620D01*
X195399803Y-82398620D02*
X196066470Y-83398620D01*
D11*
X204912120Y-80794882D02*
X207316265Y-80794882D01*
X204912120Y-84958984D02*
X203710047Y-82876933D01*
X208518338Y-82876933D02*
X207316265Y-84958984D01*
X207316265Y-84958984D02*
X204912120Y-84958984D01*
X207316265Y-80794882D02*
X208518338Y-82876933D01*
X203710047Y-82876933D02*
X204912120Y-80794882D01*
D12*
G04 #@! TO.C,DIS1*
X189835040Y-87281320D02*
X177835040Y-87281320D01*
X189835040Y-117281320D02*
X177835040Y-117281320D01*
X189835040Y-117281320D02*
X189835040Y-121281320D01*
X189835040Y-87281320D02*
X189835040Y-117281320D01*
X189835040Y-83281320D02*
X189835040Y-87281320D01*
X177835040Y-83281320D02*
X189835040Y-83281320D01*
X177835040Y-87281320D02*
X177835040Y-83281320D01*
X177835040Y-117281320D02*
X177835040Y-87281320D01*
X177835040Y-121281320D02*
X177835040Y-117281320D01*
X189835040Y-121281320D02*
X177835040Y-121281320D01*
D13*
X184558849Y-99853228D02*
X183798849Y-99853228D01*
X183798849Y-100034180D01*
X183835040Y-100142752D01*
X183907420Y-100215133D01*
X183979801Y-100251323D01*
X184124563Y-100287514D01*
X184233135Y-100287514D01*
X184377897Y-100251323D01*
X184450278Y-100215133D01*
X184522659Y-100142752D01*
X184558849Y-100034180D01*
X184558849Y-99853228D01*
X184558849Y-100613228D02*
X183798849Y-100613228D01*
X184522659Y-100938942D02*
X184558849Y-101047514D01*
X184558849Y-101228466D01*
X184522659Y-101300847D01*
X184486468Y-101337038D01*
X184414087Y-101373228D01*
X184341706Y-101373228D01*
X184269325Y-101337038D01*
X184233135Y-101300847D01*
X184196944Y-101228466D01*
X184160754Y-101083704D01*
X184124563Y-101011323D01*
X184088373Y-100975133D01*
X184015992Y-100938942D01*
X183943611Y-100938942D01*
X183871230Y-100975133D01*
X183835040Y-101011323D01*
X183798849Y-101083704D01*
X183798849Y-101264657D01*
X183835040Y-101373228D01*
X184558849Y-102097038D02*
X184558849Y-101662752D01*
X184558849Y-101879895D02*
X183798849Y-101879895D01*
X183907420Y-101807514D01*
X183979801Y-101735133D01*
X184015992Y-101662752D01*
G04 #@! TD*
M02*
