G04 #@! TF.GenerationSoftware,KiCad,Pcbnew,(6.0.0-rc1-dev-1027-g90233e5ec)*
G04 #@! TF.CreationDate,2018-11-05T19:06:39+01:00*
G04 #@! TF.ProjectId,eBoard_remote_control,65426F6172645F72656D6F74655F636F,rev?*
G04 #@! TF.SameCoordinates,Original*
G04 #@! TF.FileFunction,Legend,Top*
G04 #@! TF.FilePolarity,Positive*
%FSLAX46Y46*%
G04 Gerber Fmt 4.6, Leading zero omitted, Abs format (unit mm)*
G04 Created by KiCad (PCBNEW (6.0.0-rc1-dev-1027-g90233e5ec)) date 11/05/18 19:06:39*
%MOMM*%
%LPD*%
G01*
G04 APERTURE LIST*
%ADD10C,0.150000*%
%ADD11C,0.127000*%
%ADD12C,0.203200*%
%ADD13C,0.304800*%
%ADD14C,0.152400*%
%ADD15C,0.120000*%
%ADD16C,0.100000*%
%ADD17C,0.077216*%
%ADD18C,0.217170*%
%ADD19C,0.060800*%
%ADD20C,0.138988*%
%ADD21C,0.076000*%
G04 APERTURE END LIST*
D10*
X203243228Y-142768580D02*
X203243228Y-141768580D01*
X203576561Y-142482866D01*
X203909895Y-141768580D01*
X203909895Y-142768580D01*
X204814657Y-142768580D02*
X204814657Y-142244771D01*
X204767038Y-142149533D01*
X204671800Y-142101914D01*
X204481323Y-142101914D01*
X204386085Y-142149533D01*
X204814657Y-142720961D02*
X204719419Y-142768580D01*
X204481323Y-142768580D01*
X204386085Y-142720961D01*
X204338466Y-142625723D01*
X204338466Y-142530485D01*
X204386085Y-142435247D01*
X204481323Y-142387628D01*
X204719419Y-142387628D01*
X204814657Y-142340009D01*
X205719419Y-142768580D02*
X205719419Y-141768580D01*
X205719419Y-142720961D02*
X205624180Y-142768580D01*
X205433704Y-142768580D01*
X205338466Y-142720961D01*
X205290847Y-142673342D01*
X205243228Y-142578104D01*
X205243228Y-142292390D01*
X205290847Y-142197152D01*
X205338466Y-142149533D01*
X205433704Y-142101914D01*
X205624180Y-142101914D01*
X205719419Y-142149533D01*
X206576561Y-142720961D02*
X206481323Y-142768580D01*
X206290847Y-142768580D01*
X206195609Y-142720961D01*
X206147990Y-142625723D01*
X206147990Y-142244771D01*
X206195609Y-142149533D01*
X206290847Y-142101914D01*
X206481323Y-142101914D01*
X206576561Y-142149533D01*
X206624180Y-142244771D01*
X206624180Y-142340009D01*
X206147990Y-142435247D01*
X208147990Y-142244771D02*
X208290847Y-142292390D01*
X208338466Y-142340009D01*
X208386085Y-142435247D01*
X208386085Y-142578104D01*
X208338466Y-142673342D01*
X208290847Y-142720961D01*
X208195609Y-142768580D01*
X207814657Y-142768580D01*
X207814657Y-141768580D01*
X208147990Y-141768580D01*
X208243228Y-141816200D01*
X208290847Y-141863819D01*
X208338466Y-141959057D01*
X208338466Y-142054295D01*
X208290847Y-142149533D01*
X208243228Y-142197152D01*
X208147990Y-142244771D01*
X207814657Y-142244771D01*
X208719419Y-142101914D02*
X208957514Y-142768580D01*
X209195609Y-142101914D02*
X208957514Y-142768580D01*
X208862276Y-143006676D01*
X208814657Y-143054295D01*
X208719419Y-143101914D01*
X199928790Y-145257780D02*
X199928790Y-144257780D01*
X200262123Y-144972066D01*
X200595457Y-144257780D01*
X200595457Y-145257780D01*
X201214504Y-145257780D02*
X201119266Y-145210161D01*
X201071647Y-145162542D01*
X201024028Y-145067304D01*
X201024028Y-144781590D01*
X201071647Y-144686352D01*
X201119266Y-144638733D01*
X201214504Y-144591114D01*
X201357361Y-144591114D01*
X201452600Y-144638733D01*
X201500219Y-144686352D01*
X201547838Y-144781590D01*
X201547838Y-145067304D01*
X201500219Y-145162542D01*
X201452600Y-145210161D01*
X201357361Y-145257780D01*
X201214504Y-145257780D01*
X202404980Y-144591114D02*
X202404980Y-145257780D01*
X201976409Y-144591114D02*
X201976409Y-145114923D01*
X202024028Y-145210161D01*
X202119266Y-145257780D01*
X202262123Y-145257780D01*
X202357361Y-145210161D01*
X202404980Y-145162542D01*
X202881171Y-144591114D02*
X202881171Y-145257780D01*
X202881171Y-144686352D02*
X202928790Y-144638733D01*
X203024028Y-144591114D01*
X203166885Y-144591114D01*
X203262123Y-144638733D01*
X203309742Y-144733971D01*
X203309742Y-145257780D01*
X203643076Y-144591114D02*
X204024028Y-144591114D01*
X203785933Y-144257780D02*
X203785933Y-145114923D01*
X203833552Y-145210161D01*
X203928790Y-145257780D01*
X204024028Y-145257780D01*
X204785933Y-145257780D02*
X204785933Y-144733971D01*
X204738314Y-144638733D01*
X204643076Y-144591114D01*
X204452599Y-144591114D01*
X204357361Y-144638733D01*
X204785933Y-145210161D02*
X204690695Y-145257780D01*
X204452599Y-145257780D01*
X204357361Y-145210161D01*
X204309742Y-145114923D01*
X204309742Y-145019685D01*
X204357361Y-144924447D01*
X204452599Y-144876828D01*
X204690695Y-144876828D01*
X204785933Y-144829209D01*
X205262123Y-145257780D02*
X205262123Y-144591114D01*
X205262123Y-144257780D02*
X205214504Y-144305400D01*
X205262123Y-144353019D01*
X205309742Y-144305400D01*
X205262123Y-144257780D01*
X205262123Y-144353019D01*
X205738314Y-144591114D02*
X205738314Y-145257780D01*
X205738314Y-144686352D02*
X205785933Y-144638733D01*
X205881171Y-144591114D01*
X206024028Y-144591114D01*
X206119266Y-144638733D01*
X206166885Y-144733971D01*
X206166885Y-145257780D01*
X206547838Y-144257780D02*
X207214504Y-145257780D01*
X207214504Y-144257780D02*
X206547838Y-145257780D01*
X207595457Y-145162542D02*
X207643076Y-145210161D01*
X207595457Y-145257780D01*
X207547838Y-145210161D01*
X207595457Y-145162542D01*
X207595457Y-145257780D01*
X207976409Y-145257780D02*
X208500219Y-144591114D01*
X207976409Y-144591114D02*
X208500219Y-145257780D01*
X208785933Y-144591114D02*
X209024028Y-145257780D01*
X209262123Y-144591114D02*
X209024028Y-145257780D01*
X208928790Y-145495876D01*
X208881171Y-145543495D01*
X208785933Y-145591114D01*
X209547838Y-144591114D02*
X210071647Y-144591114D01*
X209547838Y-145257780D01*
X210071647Y-145257780D01*
G04 #@! TO.C,P1*
X177509863Y-144918018D02*
X177509863Y-137418018D01*
X180109863Y-137418018D02*
X182109863Y-137418018D01*
X177509863Y-137418018D02*
X177809863Y-137418018D01*
X176909863Y-137418018D02*
X177509863Y-137418018D01*
X176909863Y-144918018D02*
X176909863Y-137418018D01*
X177509863Y-144918018D02*
X176909863Y-144918018D01*
X177809863Y-144918018D02*
X177509863Y-144918018D01*
X182109863Y-144918018D02*
X180109863Y-144918018D01*
X182109863Y-142868018D02*
X182109863Y-144918018D01*
X182109863Y-137418018D02*
X182109863Y-139468018D01*
D11*
G04 #@! TO.C,U1*
X206392263Y-130623756D02*
X206392263Y-129223756D01*
X205992263Y-130623756D02*
X206392263Y-130623756D01*
X196192263Y-130623756D02*
X196192263Y-128523756D01*
X196592263Y-130623756D02*
X196192263Y-130623756D01*
X196192263Y-119523756D02*
X196192263Y-121023756D01*
X206392263Y-114423756D02*
X206392263Y-117923756D01*
X196192263Y-114423756D02*
X206392263Y-114423756D01*
X196192263Y-117923756D02*
X196192263Y-114423756D01*
D12*
G04 #@! TO.C,X2*
X179337200Y-113745400D02*
X179337200Y-109745400D01*
X180187200Y-113745400D02*
X179337200Y-113745400D01*
X180187200Y-111245400D02*
X180187200Y-113745400D01*
X181587200Y-111245400D02*
X180187200Y-111245400D01*
X186487200Y-111245400D02*
X185087200Y-111245400D01*
X186487200Y-113745400D02*
X186487200Y-111245400D01*
X187337200Y-113745400D02*
X186487200Y-113745400D01*
X187337200Y-109745400D02*
X187337200Y-113745400D01*
X181087200Y-106245400D02*
X185587200Y-106245400D01*
D13*
G04 #@! TO.C,R8*
X185350200Y-132217160D02*
X186150200Y-132217160D01*
D11*
G04 #@! TO.C,X4*
X199244536Y-134335475D02*
G75*
G03X199444537Y-134035476I-49899J249933D01*
G01*
X199444537Y-133735476D02*
X199444537Y-134035476D01*
X199444538Y-133735477D02*
G75*
G03X199144537Y-133535476I-250001J-50000D01*
G01*
X197144537Y-133535476D02*
X199144537Y-133535476D01*
X197144538Y-133535477D02*
G75*
G03X196844537Y-133835476I-1J-300000D01*
G01*
X196844537Y-134035476D02*
X196844537Y-133835476D01*
X196844537Y-134035476D02*
G75*
G03X197144537Y-134335476I300100J100D01*
G01*
X199244537Y-134335476D02*
X197144537Y-134335476D01*
X196544537Y-134319276D02*
X196544537Y-133518276D01*
X196544537Y-134319276D02*
G75*
G03X196860737Y-134635476I316200J0D01*
G01*
X199520937Y-134635476D02*
X196860737Y-134635476D01*
X199520937Y-134635476D02*
G75*
G03X199744537Y-134411876I0J223600D01*
G01*
X199744537Y-133518276D02*
X199744537Y-134411876D01*
X199744537Y-133518276D02*
G75*
G03X199461737Y-133235476I-282800J0D01*
G01*
X196827337Y-133235476D02*
X199461737Y-133235476D01*
X196827337Y-133235476D02*
G75*
G03X196544537Y-133518276I0J-282800D01*
G01*
D13*
G04 #@! TO.C,C10*
X184452663Y-139141418D02*
X185252663Y-139141418D01*
G04 #@! TO.C,R9*
X203701700Y-134137400D02*
X204501700Y-134137400D01*
D14*
G04 #@! TO.C,U5*
X190881000Y-67284600D02*
X191439800Y-67284600D01*
X191439800Y-67284600D02*
X191439800Y-68097400D01*
X188595000Y-67284600D02*
X189153800Y-67284600D01*
X188595000Y-68097400D02*
X188595000Y-67284600D01*
D15*
G04 #@! TO.C,J1*
X207890844Y-117924010D02*
X209220844Y-117924010D01*
X207890844Y-119254010D02*
X207890844Y-117924010D01*
X207890844Y-120524010D02*
X210550844Y-120524010D01*
X210550844Y-120524010D02*
X210550844Y-130744010D01*
X207890844Y-120524010D02*
X207890844Y-130744010D01*
X207890844Y-130744010D02*
X210550844Y-130744010D01*
D14*
G04 #@! TO.C,U7*
X200167240Y-60076080D02*
X200726040Y-60076080D01*
X200726040Y-60076080D02*
X200726040Y-60888880D01*
X197881240Y-60076080D02*
X198440040Y-60076080D01*
X197881240Y-60888880D02*
X197881240Y-60076080D01*
G04 #@! TO.C,U6*
X196281040Y-65092760D02*
X196839840Y-65092760D01*
X196839840Y-65092760D02*
X196839840Y-65905560D01*
X193995040Y-65092760D02*
X194553840Y-65092760D01*
X193995040Y-65905560D02*
X193995040Y-65092760D01*
D13*
G04 #@! TO.C,C1*
X197299937Y-137059676D02*
X196499937Y-137059676D01*
G04 #@! TO.C,C2*
X199738337Y-137034276D02*
X198938337Y-137034276D01*
G04 #@! TO.C,C3*
X195381880Y-129900680D02*
X194365880Y-129900680D01*
G04 #@! TO.C,L2*
X193498244Y-126975610D02*
X192482244Y-126975610D01*
G04 #@! TO.C,C4*
X191814400Y-126974600D02*
X191014400Y-126974600D01*
D12*
G04 #@! TO.C,U3*
X184067077Y-131779116D02*
X184067077Y-132579116D01*
X183817077Y-133829116D02*
X182217077Y-133829116D01*
X183817077Y-130529116D02*
X182217077Y-130529116D01*
D16*
G04 #@! TO.C,CHG1*
G36*
X187335077Y-131785416D02*
X186954077Y-132293416D01*
X187716077Y-132293416D01*
X187335077Y-131785416D01*
G37*
G36*
X186890577Y-131898916D02*
X187779577Y-131898916D01*
X187779577Y-131708416D01*
X186890577Y-131708416D01*
X186890577Y-131898916D01*
G37*
D13*
G04 #@! TO.C,R3*
X189462277Y-131937816D02*
X188662277Y-131937816D01*
G04 #@! TO.C,C5*
X179379880Y-132262880D02*
X180395880Y-132262880D01*
G04 #@! TO.C,R4*
X192304444Y-120784410D02*
X192304444Y-121584410D01*
G04 #@! TO.C,R6*
X192368844Y-123210010D02*
X192368844Y-122410010D01*
G04 #@! TO.C,C6*
X181061360Y-125206760D02*
X180045360Y-125206760D01*
G04 #@! TO.C,C8*
X187313735Y-126067768D02*
X186297735Y-126067768D01*
D12*
G04 #@! TO.C,U2*
X184706135Y-125489968D02*
X184706135Y-126289968D01*
X184456135Y-127539968D02*
X182856135Y-127539968D01*
X184456135Y-124239968D02*
X182856135Y-124239968D01*
D13*
G04 #@! TO.C,R5*
X181269640Y-128375360D02*
X181269640Y-127575360D01*
D12*
G04 #@! TO.C,U4*
X188713463Y-141579818D02*
G75*
G03X188713463Y-141579818I-127000J0D01*
G01*
X188503663Y-142012618D02*
X188153663Y-141662618D01*
X188503663Y-145662618D02*
X188503663Y-145312618D01*
X188153663Y-145662618D02*
X188503663Y-145662618D01*
X184503663Y-141662618D02*
X184853663Y-141662618D01*
X184503663Y-142012618D02*
X184503663Y-141662618D01*
X184853663Y-145662618D02*
X184503663Y-145662618D01*
X184503663Y-145312618D02*
X184503663Y-145662618D01*
D13*
G04 #@! TO.C,C12*
X192355244Y-124810210D02*
X192355244Y-124010210D01*
G04 #@! TO.C,C7*
X186198863Y-148056818D02*
X186198863Y-147040818D01*
G04 #@! TO.C,R10*
X193462960Y-92669360D02*
X194262960Y-92669360D01*
G04 #@! TO.C,P1*
D17*
X182483518Y-147527680D02*
X181518318Y-147527680D01*
X181518318Y-147159984D01*
X181564280Y-147068061D01*
X181610241Y-147022099D01*
X181702165Y-146976137D01*
X181840051Y-146976137D01*
X181931975Y-147022099D01*
X181977937Y-147068061D01*
X182023899Y-147159984D01*
X182023899Y-147527680D01*
X182483518Y-146056899D02*
X182483518Y-146608441D01*
X182483518Y-146332670D02*
X181518318Y-146332670D01*
X181656203Y-146424594D01*
X181748127Y-146516518D01*
X181794089Y-146608441D01*
G04 #@! TO.C,U1*
D18*
X196854685Y-112931803D02*
X196854685Y-113908494D01*
X196912137Y-114023398D01*
X196969590Y-114080851D01*
X197084494Y-114138303D01*
X197314304Y-114138303D01*
X197429209Y-114080851D01*
X197486661Y-114023398D01*
X197544113Y-113908494D01*
X197544113Y-112931803D01*
X198750613Y-114138303D02*
X198061185Y-114138303D01*
X198405899Y-114138303D02*
X198405899Y-112931803D01*
X198290994Y-113104160D01*
X198176090Y-113219065D01*
X198061185Y-113276517D01*
G04 #@! TO.C,S2*
D19*
X194900681Y-149087019D02*
X195009253Y-149123209D01*
X195190205Y-149123209D01*
X195262586Y-149087019D01*
X195298777Y-149050828D01*
X195334967Y-148978447D01*
X195334967Y-148906066D01*
X195298777Y-148833685D01*
X195262586Y-148797495D01*
X195190205Y-148761304D01*
X195045443Y-148725114D01*
X194973062Y-148688923D01*
X194936872Y-148652733D01*
X194900681Y-148580352D01*
X194900681Y-148507971D01*
X194936872Y-148435590D01*
X194973062Y-148399400D01*
X195045443Y-148363209D01*
X195226396Y-148363209D01*
X195334967Y-148399400D01*
X195624491Y-148435590D02*
X195660681Y-148399400D01*
X195733062Y-148363209D01*
X195914015Y-148363209D01*
X195986396Y-148399400D01*
X196022586Y-148435590D01*
X196058777Y-148507971D01*
X196058777Y-148580352D01*
X196022586Y-148688923D01*
X195588300Y-149123209D01*
X196058777Y-149123209D01*
G04 #@! TO.C,R8*
D20*
X185840430Y-129723735D02*
X185472735Y-129981122D01*
X185840430Y-130164970D02*
X185068270Y-130164970D01*
X185068270Y-129870813D01*
X185105040Y-129797274D01*
X185141809Y-129760505D01*
X185215348Y-129723735D01*
X185325657Y-129723735D01*
X185399196Y-129760505D01*
X185435965Y-129797274D01*
X185472735Y-129870813D01*
X185472735Y-130164970D01*
X185399196Y-129282501D02*
X185362426Y-129356040D01*
X185325657Y-129392810D01*
X185252118Y-129429579D01*
X185215348Y-129429579D01*
X185141809Y-129392810D01*
X185105040Y-129356040D01*
X185068270Y-129282501D01*
X185068270Y-129135423D01*
X185105040Y-129061884D01*
X185141809Y-129025114D01*
X185215348Y-128988345D01*
X185252118Y-128988345D01*
X185325657Y-129025114D01*
X185362426Y-129061884D01*
X185399196Y-129135423D01*
X185399196Y-129282501D01*
X185435965Y-129356040D01*
X185472735Y-129392810D01*
X185546274Y-129429579D01*
X185693352Y-129429579D01*
X185766891Y-129392810D01*
X185803660Y-129356040D01*
X185840430Y-129282501D01*
X185840430Y-129135423D01*
X185803660Y-129061884D01*
X185766891Y-129025114D01*
X185693352Y-128988345D01*
X185546274Y-128988345D01*
X185472735Y-129025114D01*
X185435965Y-129061884D01*
X185399196Y-129135423D01*
G04 #@! TO.C,X4*
D17*
X194324519Y-133761238D02*
X194967985Y-134726438D01*
X194967985Y-133761238D02*
X194324519Y-134726438D01*
X195749338Y-134082971D02*
X195749338Y-134726438D01*
X195519528Y-133715276D02*
X195289719Y-134404704D01*
X195887223Y-134404704D01*
G04 #@! TO.C,C10*
D20*
X184869354Y-136647993D02*
X184906123Y-136684763D01*
X184942893Y-136795071D01*
X184942893Y-136868611D01*
X184906123Y-136978919D01*
X184832584Y-137052458D01*
X184759045Y-137089228D01*
X184611967Y-137125997D01*
X184501659Y-137125997D01*
X184354581Y-137089228D01*
X184281042Y-137052458D01*
X184207503Y-136978919D01*
X184170733Y-136868611D01*
X184170733Y-136795071D01*
X184207503Y-136684763D01*
X184244272Y-136647993D01*
X184942893Y-135912603D02*
X184942893Y-136353837D01*
X184942893Y-136133220D02*
X184170733Y-136133220D01*
X184281042Y-136206759D01*
X184354581Y-136280298D01*
X184391350Y-136353837D01*
X184170733Y-135434599D02*
X184170733Y-135361060D01*
X184207503Y-135287521D01*
X184244272Y-135250751D01*
X184317811Y-135213982D01*
X184464889Y-135177212D01*
X184648737Y-135177212D01*
X184795815Y-135213982D01*
X184869354Y-135250751D01*
X184906123Y-135287521D01*
X184942893Y-135361060D01*
X184942893Y-135434599D01*
X184906123Y-135508138D01*
X184869354Y-135544908D01*
X184795815Y-135581677D01*
X184648737Y-135618447D01*
X184464889Y-135618447D01*
X184317811Y-135581677D01*
X184244272Y-135544908D01*
X184207503Y-135508138D01*
X184170733Y-135434599D01*
G04 #@! TO.C,R9*
X205245909Y-133431289D02*
X205613604Y-133173902D01*
X205245909Y-132990054D02*
X206018069Y-132990054D01*
X206018069Y-133284211D01*
X205981300Y-133357750D01*
X205944530Y-133394519D01*
X205870991Y-133431289D01*
X205760682Y-133431289D01*
X205687143Y-133394519D01*
X205650374Y-133357750D01*
X205613604Y-133284211D01*
X205613604Y-132990054D01*
X205245909Y-133798984D02*
X205245909Y-133946062D01*
X205282679Y-134019601D01*
X205319448Y-134056371D01*
X205429757Y-134129910D01*
X205576835Y-134166679D01*
X205870991Y-134166679D01*
X205944530Y-134129910D01*
X205981300Y-134093140D01*
X206018069Y-134019601D01*
X206018069Y-133872523D01*
X205981300Y-133798984D01*
X205944530Y-133762214D01*
X205870991Y-133725445D01*
X205687143Y-133725445D01*
X205613604Y-133762214D01*
X205576835Y-133798984D01*
X205540065Y-133872523D01*
X205540065Y-134019601D01*
X205576835Y-134093140D01*
X205613604Y-134129910D01*
X205687143Y-134166679D01*
G04 #@! TO.C,U5*
D21*
X188387990Y-65044761D02*
X188387990Y-65813809D01*
X188433228Y-65904285D01*
X188478466Y-65949523D01*
X188568942Y-65994761D01*
X188749895Y-65994761D01*
X188840371Y-65949523D01*
X188885609Y-65904285D01*
X188930847Y-65813809D01*
X188930847Y-65044761D01*
X189835609Y-65044761D02*
X189383228Y-65044761D01*
X189337990Y-65497142D01*
X189383228Y-65451904D01*
X189473704Y-65406666D01*
X189699895Y-65406666D01*
X189790371Y-65451904D01*
X189835609Y-65497142D01*
X189880847Y-65587619D01*
X189880847Y-65813809D01*
X189835609Y-65904285D01*
X189790371Y-65949523D01*
X189699895Y-65994761D01*
X189473704Y-65994761D01*
X189383228Y-65949523D01*
X189337990Y-65904285D01*
G04 #@! TO.C,J1*
D10*
X208887510Y-116376390D02*
X208887510Y-117090676D01*
X208839891Y-117233533D01*
X208744653Y-117328771D01*
X208601796Y-117376390D01*
X208506558Y-117376390D01*
X209887510Y-117376390D02*
X209316082Y-117376390D01*
X209601796Y-117376390D02*
X209601796Y-116376390D01*
X209506558Y-116519248D01*
X209411320Y-116614486D01*
X209316082Y-116662105D01*
G04 #@! TO.C,U7*
D21*
X201143870Y-59228161D02*
X201143870Y-59997209D01*
X201189108Y-60087685D01*
X201234346Y-60132923D01*
X201324822Y-60178161D01*
X201505775Y-60178161D01*
X201596251Y-60132923D01*
X201641489Y-60087685D01*
X201686727Y-59997209D01*
X201686727Y-59228161D01*
X202048632Y-59228161D02*
X202681965Y-59228161D01*
X202274822Y-60178161D01*
G04 #@! TO.C,U6*
X193788030Y-62852921D02*
X193788030Y-63621969D01*
X193833268Y-63712445D01*
X193878506Y-63757683D01*
X193968982Y-63802921D01*
X194149935Y-63802921D01*
X194240411Y-63757683D01*
X194285649Y-63712445D01*
X194330887Y-63621969D01*
X194330887Y-62852921D01*
X195190411Y-62852921D02*
X195009459Y-62852921D01*
X194918982Y-62898160D01*
X194873744Y-62943398D01*
X194783268Y-63079112D01*
X194738030Y-63260064D01*
X194738030Y-63621969D01*
X194783268Y-63712445D01*
X194828506Y-63757683D01*
X194918982Y-63802921D01*
X195099935Y-63802921D01*
X195190411Y-63757683D01*
X195235649Y-63712445D01*
X195280887Y-63621969D01*
X195280887Y-63395779D01*
X195235649Y-63305302D01*
X195190411Y-63260064D01*
X195099935Y-63214826D01*
X194918982Y-63214826D01*
X194828506Y-63260064D01*
X194783268Y-63305302D01*
X194738030Y-63395779D01*
G04 #@! TO.C,C21*
X199063785Y-69653852D02*
X199109023Y-69699090D01*
X199154261Y-69834804D01*
X199154261Y-69925280D01*
X199109023Y-70060995D01*
X199018547Y-70151471D01*
X198928071Y-70196709D01*
X198747119Y-70241947D01*
X198611404Y-70241947D01*
X198430452Y-70196709D01*
X198339976Y-70151471D01*
X198249500Y-70060995D01*
X198204261Y-69925280D01*
X198204261Y-69834804D01*
X198249500Y-69699090D01*
X198294738Y-69653852D01*
X198294738Y-69291947D02*
X198249500Y-69246709D01*
X198204261Y-69156233D01*
X198204261Y-68930042D01*
X198249500Y-68839566D01*
X198294738Y-68794328D01*
X198385214Y-68749090D01*
X198475690Y-68749090D01*
X198611404Y-68794328D01*
X199154261Y-69337185D01*
X199154261Y-68749090D01*
X199154261Y-67844328D02*
X199154261Y-68387185D01*
X199154261Y-68115757D02*
X198204261Y-68115757D01*
X198339976Y-68206233D01*
X198430452Y-68296709D01*
X198475690Y-68387185D01*
G04 #@! TO.C,C20*
X194631485Y-75203752D02*
X194676723Y-75248990D01*
X194721961Y-75384704D01*
X194721961Y-75475180D01*
X194676723Y-75610895D01*
X194586247Y-75701371D01*
X194495771Y-75746609D01*
X194314819Y-75791847D01*
X194179104Y-75791847D01*
X193998152Y-75746609D01*
X193907676Y-75701371D01*
X193817200Y-75610895D01*
X193771961Y-75475180D01*
X193771961Y-75384704D01*
X193817200Y-75248990D01*
X193862438Y-75203752D01*
X193862438Y-74841847D02*
X193817200Y-74796609D01*
X193771961Y-74706133D01*
X193771961Y-74479942D01*
X193817200Y-74389466D01*
X193862438Y-74344228D01*
X193952914Y-74298990D01*
X194043390Y-74298990D01*
X194179104Y-74344228D01*
X194721961Y-74887085D01*
X194721961Y-74298990D01*
X193771961Y-73710895D02*
X193771961Y-73620419D01*
X193817200Y-73529942D01*
X193862438Y-73484704D01*
X193952914Y-73439466D01*
X194133866Y-73394228D01*
X194360057Y-73394228D01*
X194541009Y-73439466D01*
X194631485Y-73484704D01*
X194676723Y-73529942D01*
X194721961Y-73620419D01*
X194721961Y-73710895D01*
X194676723Y-73801371D01*
X194631485Y-73846609D01*
X194541009Y-73891847D01*
X194360057Y-73937085D01*
X194133866Y-73937085D01*
X193952914Y-73891847D01*
X193862438Y-73846609D01*
X193817200Y-73801371D01*
X193771961Y-73710895D01*
G04 #@! TO.C,C1*
D20*
X197434788Y-139810486D02*
X197471557Y-139847256D01*
X197508327Y-139957564D01*
X197508327Y-140031103D01*
X197471557Y-140141412D01*
X197398018Y-140214951D01*
X197324479Y-140251721D01*
X197177401Y-140288490D01*
X197067093Y-140288490D01*
X196920015Y-140251721D01*
X196846476Y-140214951D01*
X196772937Y-140141412D01*
X196736167Y-140031103D01*
X196736167Y-139957564D01*
X196772937Y-139847256D01*
X196809706Y-139810486D01*
X197508327Y-139075096D02*
X197508327Y-139516330D01*
X197508327Y-139295713D02*
X196736167Y-139295713D01*
X196846476Y-139369252D01*
X196920015Y-139442791D01*
X196956784Y-139516330D01*
G04 #@! TO.C,C2*
X199493051Y-140469610D02*
X199529820Y-140506380D01*
X199566590Y-140616688D01*
X199566590Y-140690227D01*
X199529820Y-140800536D01*
X199456281Y-140874075D01*
X199382742Y-140910845D01*
X199235664Y-140947614D01*
X199125356Y-140947614D01*
X198978278Y-140910845D01*
X198904739Y-140874075D01*
X198831200Y-140800536D01*
X198794430Y-140690227D01*
X198794430Y-140616688D01*
X198831200Y-140506380D01*
X198867969Y-140469610D01*
X198867969Y-140175454D02*
X198831200Y-140138685D01*
X198794430Y-140065146D01*
X198794430Y-139881298D01*
X198831200Y-139807759D01*
X198867969Y-139770989D01*
X198941508Y-139734220D01*
X199015047Y-139734220D01*
X199125356Y-139770989D01*
X199566590Y-140212224D01*
X199566590Y-139734220D01*
G04 #@! TO.C,C3*
X195408731Y-132905490D02*
X195445500Y-132942260D01*
X195482270Y-133052568D01*
X195482270Y-133126107D01*
X195445500Y-133236416D01*
X195371961Y-133309955D01*
X195298422Y-133346725D01*
X195151344Y-133383494D01*
X195041036Y-133383494D01*
X194893958Y-133346725D01*
X194820419Y-133309955D01*
X194746880Y-133236416D01*
X194710110Y-133126107D01*
X194710110Y-133052568D01*
X194746880Y-132942260D01*
X194783649Y-132905490D01*
X194710110Y-132648104D02*
X194710110Y-132170100D01*
X195004266Y-132427486D01*
X195004266Y-132317178D01*
X195041036Y-132243639D01*
X195077805Y-132206869D01*
X195151344Y-132170100D01*
X195335192Y-132170100D01*
X195408731Y-132206869D01*
X195445500Y-132243639D01*
X195482270Y-132317178D01*
X195482270Y-132537795D01*
X195445500Y-132611334D01*
X195408731Y-132648104D01*
G04 #@! TO.C,L2*
X190587690Y-125816471D02*
X190587690Y-126184166D01*
X189815530Y-126184166D01*
X189889069Y-125595854D02*
X189852300Y-125559085D01*
X189815530Y-125485546D01*
X189815530Y-125301698D01*
X189852300Y-125228159D01*
X189889069Y-125191389D01*
X189962608Y-125154620D01*
X190036147Y-125154620D01*
X190146456Y-125191389D01*
X190587690Y-125632624D01*
X190587690Y-125154620D01*
G04 #@! TO.C,C4*
X189208591Y-126081375D02*
X189245360Y-126118145D01*
X189282130Y-126228453D01*
X189282130Y-126301993D01*
X189245360Y-126412301D01*
X189171821Y-126485840D01*
X189098282Y-126522610D01*
X188951204Y-126559379D01*
X188840896Y-126559379D01*
X188693818Y-126522610D01*
X188620279Y-126485840D01*
X188546740Y-126412301D01*
X188509970Y-126301993D01*
X188509970Y-126228453D01*
X188546740Y-126118145D01*
X188583509Y-126081375D01*
X188767357Y-125419524D02*
X189282130Y-125419524D01*
X188473200Y-125603372D02*
X189024743Y-125787219D01*
X189024743Y-125309215D01*
G04 #@! TO.C,U3*
X179975431Y-133743803D02*
X180600513Y-133743803D01*
X180674052Y-133707033D01*
X180710821Y-133670264D01*
X180747591Y-133596725D01*
X180747591Y-133449646D01*
X180710821Y-133376107D01*
X180674052Y-133339338D01*
X180600513Y-133302568D01*
X179975431Y-133302568D01*
X179975431Y-133008412D02*
X179975431Y-132530408D01*
X180269587Y-132787795D01*
X180269587Y-132677486D01*
X180306357Y-132603947D01*
X180343126Y-132567178D01*
X180416665Y-132530408D01*
X180600513Y-132530408D01*
X180674052Y-132567178D01*
X180710821Y-132603947D01*
X180747591Y-132677486D01*
X180747591Y-132898104D01*
X180710821Y-132971643D01*
X180674052Y-133008412D01*
G04 #@! TO.C,CHG1*
X187448008Y-135195724D02*
X187411239Y-135158954D01*
X187374469Y-135048646D01*
X187374469Y-134975106D01*
X187411239Y-134864798D01*
X187484778Y-134791259D01*
X187558317Y-134754489D01*
X187705395Y-134717720D01*
X187815703Y-134717720D01*
X187962781Y-134754489D01*
X188036320Y-134791259D01*
X188109860Y-134864798D01*
X188146629Y-134975106D01*
X188146629Y-135048646D01*
X188109860Y-135158954D01*
X188073090Y-135195724D01*
X187374469Y-135526649D02*
X188146629Y-135526649D01*
X187778934Y-135526649D02*
X187778934Y-135967884D01*
X187374469Y-135967884D02*
X188146629Y-135967884D01*
X188109860Y-136740044D02*
X188146629Y-136666505D01*
X188146629Y-136556196D01*
X188109860Y-136445887D01*
X188036320Y-136372348D01*
X187962781Y-136335579D01*
X187815703Y-136298809D01*
X187705395Y-136298809D01*
X187558317Y-136335579D01*
X187484778Y-136372348D01*
X187411239Y-136445887D01*
X187374469Y-136556196D01*
X187374469Y-136629735D01*
X187411239Y-136740044D01*
X187448008Y-136776813D01*
X187705395Y-136776813D01*
X187705395Y-136629735D01*
X187374469Y-137512204D02*
X187374469Y-137070969D01*
X187374469Y-137291586D02*
X188146629Y-137291586D01*
X188036320Y-137218047D01*
X187962781Y-137144508D01*
X187926012Y-137070969D01*
G04 #@! TO.C,R3*
X191197290Y-131681210D02*
X190829595Y-131938597D01*
X191197290Y-132122445D02*
X190425130Y-132122445D01*
X190425130Y-131828288D01*
X190461900Y-131754749D01*
X190498669Y-131717980D01*
X190572208Y-131681210D01*
X190682517Y-131681210D01*
X190756056Y-131717980D01*
X190792825Y-131754749D01*
X190829595Y-131828288D01*
X190829595Y-132122445D01*
X190425130Y-131423824D02*
X190425130Y-130945820D01*
X190719286Y-131203206D01*
X190719286Y-131092898D01*
X190756056Y-131019359D01*
X190792825Y-130982589D01*
X190866364Y-130945820D01*
X191050212Y-130945820D01*
X191123751Y-130982589D01*
X191160520Y-131019359D01*
X191197290Y-131092898D01*
X191197290Y-131313515D01*
X191160520Y-131387054D01*
X191123751Y-131423824D01*
G04 #@! TO.C,C5*
X180976005Y-131630485D02*
X180939236Y-131593715D01*
X180902466Y-131483407D01*
X180902466Y-131409868D01*
X180939236Y-131299559D01*
X181012775Y-131226020D01*
X181086314Y-131189250D01*
X181233392Y-131152481D01*
X181343700Y-131152481D01*
X181490778Y-131189250D01*
X181564317Y-131226020D01*
X181637857Y-131299559D01*
X181674626Y-131409868D01*
X181674626Y-131483407D01*
X181637857Y-131593715D01*
X181601087Y-131630485D01*
X181674626Y-132329106D02*
X181674626Y-131961410D01*
X181306931Y-131924641D01*
X181343700Y-131961410D01*
X181380470Y-132034949D01*
X181380470Y-132218797D01*
X181343700Y-132292336D01*
X181306931Y-132329106D01*
X181233392Y-132365875D01*
X181049544Y-132365875D01*
X180976005Y-132329106D01*
X180939236Y-132292336D01*
X180902466Y-132218797D01*
X180902466Y-132034949D01*
X180939236Y-131961410D01*
X180976005Y-131924641D01*
G04 #@! TO.C,R4*
X194298984Y-121730830D02*
X194041597Y-121363135D01*
X193857749Y-121730830D02*
X193857749Y-120958670D01*
X194151906Y-120958670D01*
X194225445Y-120995440D01*
X194262214Y-121032209D01*
X194298984Y-121105748D01*
X194298984Y-121216057D01*
X194262214Y-121289596D01*
X194225445Y-121326365D01*
X194151906Y-121363135D01*
X193857749Y-121363135D01*
X194960835Y-121216057D02*
X194960835Y-121730830D01*
X194776987Y-120921900D02*
X194593140Y-121473443D01*
X195071144Y-121473443D01*
G04 #@! TO.C,R6*
X189285024Y-123610430D02*
X189027637Y-123242735D01*
X188843789Y-123610430D02*
X188843789Y-122838270D01*
X189137946Y-122838270D01*
X189211485Y-122875040D01*
X189248254Y-122911809D01*
X189285024Y-122985348D01*
X189285024Y-123095657D01*
X189248254Y-123169196D01*
X189211485Y-123205965D01*
X189137946Y-123242735D01*
X188843789Y-123242735D01*
X189946875Y-122838270D02*
X189799797Y-122838270D01*
X189726258Y-122875040D01*
X189689488Y-122911809D01*
X189615949Y-123022118D01*
X189579180Y-123169196D01*
X189579180Y-123463352D01*
X189615949Y-123536891D01*
X189652719Y-123573660D01*
X189726258Y-123610430D01*
X189873336Y-123610430D01*
X189946875Y-123573660D01*
X189983645Y-123536891D01*
X190020414Y-123463352D01*
X190020414Y-123279504D01*
X189983645Y-123205965D01*
X189946875Y-123169196D01*
X189873336Y-123132426D01*
X189726258Y-123132426D01*
X189652719Y-123169196D01*
X189615949Y-123205965D01*
X189579180Y-123279504D01*
G04 #@! TO.C,C6*
X180316051Y-126523335D02*
X180352820Y-126560105D01*
X180389590Y-126670413D01*
X180389590Y-126743953D01*
X180352820Y-126854261D01*
X180279281Y-126927800D01*
X180205742Y-126964570D01*
X180058664Y-127001339D01*
X179948356Y-127001339D01*
X179801278Y-126964570D01*
X179727739Y-126927800D01*
X179654200Y-126854261D01*
X179617430Y-126743953D01*
X179617430Y-126670413D01*
X179654200Y-126560105D01*
X179690969Y-126523335D01*
X179617430Y-125861484D02*
X179617430Y-126008562D01*
X179654200Y-126082101D01*
X179690969Y-126118871D01*
X179801278Y-126192410D01*
X179948356Y-126229179D01*
X180242512Y-126229179D01*
X180316051Y-126192410D01*
X180352820Y-126155640D01*
X180389590Y-126082101D01*
X180389590Y-125935023D01*
X180352820Y-125861484D01*
X180316051Y-125824714D01*
X180242512Y-125787945D01*
X180058664Y-125787945D01*
X179985125Y-125824714D01*
X179948356Y-125861484D01*
X179911586Y-125935023D01*
X179911586Y-126082101D01*
X179948356Y-126155640D01*
X179985125Y-126192410D01*
X180058664Y-126229179D01*
G04 #@! TO.C,C8*
X188586291Y-127237075D02*
X188623060Y-127273845D01*
X188659830Y-127384153D01*
X188659830Y-127457693D01*
X188623060Y-127568001D01*
X188549521Y-127641540D01*
X188475982Y-127678310D01*
X188328904Y-127715079D01*
X188218596Y-127715079D01*
X188071518Y-127678310D01*
X187997979Y-127641540D01*
X187924440Y-127568001D01*
X187887670Y-127457693D01*
X187887670Y-127384153D01*
X187924440Y-127273845D01*
X187961209Y-127237075D01*
X188218596Y-126795841D02*
X188181826Y-126869380D01*
X188145057Y-126906150D01*
X188071518Y-126942919D01*
X188034748Y-126942919D01*
X187961209Y-126906150D01*
X187924440Y-126869380D01*
X187887670Y-126795841D01*
X187887670Y-126648763D01*
X187924440Y-126575224D01*
X187961209Y-126538454D01*
X188034748Y-126501685D01*
X188071518Y-126501685D01*
X188145057Y-126538454D01*
X188181826Y-126575224D01*
X188218596Y-126648763D01*
X188218596Y-126795841D01*
X188255365Y-126869380D01*
X188292135Y-126906150D01*
X188365674Y-126942919D01*
X188512752Y-126942919D01*
X188586291Y-126906150D01*
X188623060Y-126869380D01*
X188659830Y-126795841D01*
X188659830Y-126648763D01*
X188623060Y-126575224D01*
X188586291Y-126538454D01*
X188512752Y-126501685D01*
X188365674Y-126501685D01*
X188292135Y-126538454D01*
X188255365Y-126575224D01*
X188218596Y-126648763D01*
G04 #@! TO.C,U2*
X183619365Y-129318782D02*
X184244447Y-129318782D01*
X184317986Y-129282013D01*
X184354755Y-129245243D01*
X184391525Y-129171704D01*
X184391525Y-129024626D01*
X184354755Y-128951087D01*
X184317986Y-128914317D01*
X184244447Y-128877548D01*
X183619365Y-128877548D01*
X183692904Y-128546622D02*
X183656135Y-128509853D01*
X183619365Y-128436314D01*
X183619365Y-128252466D01*
X183656135Y-128178927D01*
X183692904Y-128142157D01*
X183766443Y-128105388D01*
X183839982Y-128105388D01*
X183950291Y-128142157D01*
X184391525Y-128583392D01*
X184391525Y-128105388D01*
G04 #@! TO.C,R5*
X180207064Y-127811590D02*
X179949677Y-127443895D01*
X179765829Y-127811590D02*
X179765829Y-127039430D01*
X180059986Y-127039430D01*
X180133525Y-127076200D01*
X180170294Y-127112969D01*
X180207064Y-127186508D01*
X180207064Y-127296817D01*
X180170294Y-127370356D01*
X180133525Y-127407125D01*
X180059986Y-127443895D01*
X179765829Y-127443895D01*
X180905685Y-127039430D02*
X180537989Y-127039430D01*
X180501220Y-127407125D01*
X180537989Y-127370356D01*
X180611528Y-127333586D01*
X180795376Y-127333586D01*
X180868915Y-127370356D01*
X180905685Y-127407125D01*
X180942454Y-127480664D01*
X180942454Y-127664512D01*
X180905685Y-127738051D01*
X180868915Y-127774820D01*
X180795376Y-127811590D01*
X180611528Y-127811590D01*
X180537989Y-127774820D01*
X180501220Y-127738051D01*
G04 #@! TO.C,U4*
X189266893Y-142128714D02*
X189891975Y-142128714D01*
X189965514Y-142091945D01*
X190002283Y-142055175D01*
X190039053Y-141981636D01*
X190039053Y-141834558D01*
X190002283Y-141761019D01*
X189965514Y-141724249D01*
X189891975Y-141687480D01*
X189266893Y-141687480D01*
X189524280Y-140988859D02*
X190039053Y-140988859D01*
X189230123Y-141172706D02*
X189781666Y-141356554D01*
X189781666Y-140878550D01*
G04 #@! TO.C,C12*
X188869042Y-124945061D02*
X188832273Y-124981830D01*
X188721964Y-125018600D01*
X188648425Y-125018600D01*
X188538117Y-124981830D01*
X188464577Y-124908291D01*
X188427808Y-124834752D01*
X188391038Y-124687674D01*
X188391038Y-124577366D01*
X188427808Y-124430288D01*
X188464577Y-124356749D01*
X188538117Y-124283210D01*
X188648425Y-124246440D01*
X188721964Y-124246440D01*
X188832273Y-124283210D01*
X188869042Y-124319979D01*
X189604433Y-125018600D02*
X189163198Y-125018600D01*
X189383816Y-125018600D02*
X189383816Y-124246440D01*
X189310277Y-124356749D01*
X189236737Y-124430288D01*
X189163198Y-124467057D01*
X189898589Y-124319979D02*
X189935358Y-124283210D01*
X190008897Y-124246440D01*
X190192745Y-124246440D01*
X190266284Y-124283210D01*
X190303054Y-124319979D01*
X190339823Y-124393518D01*
X190339823Y-124467057D01*
X190303054Y-124577366D01*
X189861819Y-125018600D01*
X190339823Y-125018600D01*
G04 #@! TO.C,C7*
X189018324Y-147781191D02*
X188981554Y-147817960D01*
X188871246Y-147854730D01*
X188797706Y-147854730D01*
X188687398Y-147817960D01*
X188613859Y-147744421D01*
X188577089Y-147670882D01*
X188540320Y-147523804D01*
X188540320Y-147413496D01*
X188577089Y-147266418D01*
X188613859Y-147192879D01*
X188687398Y-147119340D01*
X188797706Y-147082570D01*
X188871246Y-147082570D01*
X188981554Y-147119340D01*
X189018324Y-147156109D01*
X189275710Y-147082570D02*
X189790484Y-147082570D01*
X189459558Y-147854730D01*
G04 #@! TO.C,C14*
X200562391Y-69147275D02*
X200599160Y-69184045D01*
X200635930Y-69294353D01*
X200635930Y-69367893D01*
X200599160Y-69478201D01*
X200525621Y-69551740D01*
X200452082Y-69588510D01*
X200305004Y-69625279D01*
X200194696Y-69625279D01*
X200047618Y-69588510D01*
X199974079Y-69551740D01*
X199900540Y-69478201D01*
X199863770Y-69367893D01*
X199863770Y-69294353D01*
X199900540Y-69184045D01*
X199937309Y-69147275D01*
X200635930Y-68411885D02*
X200635930Y-68853119D01*
X200635930Y-68632502D02*
X199863770Y-68632502D01*
X199974079Y-68706041D01*
X200047618Y-68779580D01*
X200084387Y-68853119D01*
X200121157Y-67750033D02*
X200635930Y-67750033D01*
X199827000Y-67933881D02*
X200378543Y-68117729D01*
X200378543Y-67639725D01*
G04 #@! TO.C,R10*
X193953190Y-90175935D02*
X193585495Y-90433322D01*
X193953190Y-90617170D02*
X193181030Y-90617170D01*
X193181030Y-90323013D01*
X193217800Y-90249474D01*
X193254569Y-90212705D01*
X193328108Y-90175935D01*
X193438417Y-90175935D01*
X193511956Y-90212705D01*
X193548725Y-90249474D01*
X193585495Y-90323013D01*
X193585495Y-90617170D01*
X193953190Y-89440545D02*
X193953190Y-89881779D01*
X193953190Y-89661162D02*
X193181030Y-89661162D01*
X193291339Y-89734701D01*
X193364878Y-89808240D01*
X193401647Y-89881779D01*
X193181030Y-88962541D02*
X193181030Y-88889002D01*
X193217800Y-88815463D01*
X193254569Y-88778693D01*
X193328108Y-88741924D01*
X193475186Y-88705154D01*
X193659034Y-88705154D01*
X193806112Y-88741924D01*
X193879651Y-88778693D01*
X193916420Y-88815463D01*
X193953190Y-88889002D01*
X193953190Y-88962541D01*
X193916420Y-89036080D01*
X193879651Y-89072850D01*
X193806112Y-89109619D01*
X193659034Y-89146389D01*
X193475186Y-89146389D01*
X193328108Y-89109619D01*
X193254569Y-89072850D01*
X193217800Y-89036080D01*
X193181030Y-88962541D01*
G04 #@! TO.C,C16*
X192904291Y-75344875D02*
X192941060Y-75381645D01*
X192977830Y-75491953D01*
X192977830Y-75565493D01*
X192941060Y-75675801D01*
X192867521Y-75749340D01*
X192793982Y-75786110D01*
X192646904Y-75822879D01*
X192536596Y-75822879D01*
X192389518Y-75786110D01*
X192315979Y-75749340D01*
X192242440Y-75675801D01*
X192205670Y-75565493D01*
X192205670Y-75491953D01*
X192242440Y-75381645D01*
X192279209Y-75344875D01*
X192977830Y-74609485D02*
X192977830Y-75050719D01*
X192977830Y-74830102D02*
X192205670Y-74830102D01*
X192315979Y-74903641D01*
X192389518Y-74977180D01*
X192426287Y-75050719D01*
X192205670Y-73947633D02*
X192205670Y-74094712D01*
X192242440Y-74168251D01*
X192279209Y-74205020D01*
X192389518Y-74278559D01*
X192536596Y-74315329D01*
X192830752Y-74315329D01*
X192904291Y-74278559D01*
X192941060Y-74241790D01*
X192977830Y-74168251D01*
X192977830Y-74021173D01*
X192941060Y-73947633D01*
X192904291Y-73910864D01*
X192830752Y-73874094D01*
X192646904Y-73874094D01*
X192573365Y-73910864D01*
X192536596Y-73947633D01*
X192499826Y-74021173D01*
X192499826Y-74168251D01*
X192536596Y-74241790D01*
X192573365Y-74278559D01*
X192646904Y-74315329D01*
G04 #@! TO.C,C17*
D21*
X181952722Y-145254194D02*
X181997960Y-145299432D01*
X182043198Y-145435146D01*
X182043198Y-145525622D01*
X181997960Y-145661337D01*
X181907484Y-145751813D01*
X181817008Y-145797051D01*
X181636056Y-145842289D01*
X181500341Y-145842289D01*
X181319389Y-145797051D01*
X181228913Y-145751813D01*
X181138437Y-145661337D01*
X181093198Y-145525622D01*
X181093198Y-145435146D01*
X181138437Y-145299432D01*
X181183675Y-145254194D01*
X182043198Y-144349432D02*
X182043198Y-144892289D01*
X182043198Y-144620861D02*
X181093198Y-144620861D01*
X181228913Y-144711337D01*
X181319389Y-144801813D01*
X181364627Y-144892289D01*
X181093198Y-144032765D02*
X181093198Y-143399432D01*
X182043198Y-143806575D01*
G04 #@! TD*
M02*
