G04 #@! TF.GenerationSoftware,KiCad,Pcbnew,(6.0.0-rc1-dev-1027-g90233e5ec)*
G04 #@! TF.CreationDate,2018-11-05T19:06:39+01:00*
G04 #@! TF.ProjectId,eBoard_remote_control,65426F6172645F72656D6F74655F636F,rev?*
G04 #@! TF.SameCoordinates,Original*
G04 #@! TF.FileFunction,Soldermask,Top*
G04 #@! TF.FilePolarity,Negative*
%FSLAX46Y46*%
G04 Gerber Fmt 4.6, Leading zero omitted, Abs format (unit mm)*
G04 Created by KiCad (PCBNEW (6.0.0-rc1-dev-1027-g90233e5ec)) date 11/05/18 19:06:39*
%MOMM*%
%LPD*%
G01*
G04 APERTURE LIST*
%ADD10C,0.100000*%
G04 APERTURE END LIST*
D10*
G36*
X199574168Y-149862245D02*
X199725874Y-149908264D01*
X199865686Y-149982996D01*
X199988233Y-150083567D01*
X200088804Y-150206114D01*
X200163536Y-150345926D01*
X200209555Y-150497632D01*
X200221200Y-150615864D01*
X200221200Y-152202936D01*
X200209555Y-152321168D01*
X200163536Y-152472874D01*
X200088804Y-152612686D01*
X199988233Y-152735233D01*
X199865685Y-152835804D01*
X199725873Y-152910536D01*
X199574167Y-152956555D01*
X199416400Y-152972094D01*
X199258632Y-152956555D01*
X199106926Y-152910536D01*
X198967114Y-152835804D01*
X198844567Y-152735233D01*
X198743996Y-152612685D01*
X198669264Y-152472873D01*
X198623245Y-152321167D01*
X198611600Y-152202935D01*
X198611601Y-150615864D01*
X198623246Y-150497632D01*
X198669265Y-150345926D01*
X198743997Y-150206114D01*
X198844568Y-150083567D01*
X198967115Y-149982996D01*
X199106927Y-149908264D01*
X199258633Y-149862245D01*
X199416400Y-149846706D01*
X199574168Y-149862245D01*
X199574168Y-149862245D01*
G37*
G36*
X194874168Y-149862245D02*
X195025874Y-149908264D01*
X195165686Y-149982996D01*
X195288233Y-150083567D01*
X195388804Y-150206114D01*
X195463536Y-150345926D01*
X195509555Y-150497632D01*
X195521200Y-150615864D01*
X195521200Y-152202936D01*
X195509555Y-152321168D01*
X195463536Y-152472874D01*
X195388804Y-152612686D01*
X195288233Y-152735233D01*
X195165685Y-152835804D01*
X195025873Y-152910536D01*
X194874167Y-152956555D01*
X194716400Y-152972094D01*
X194558632Y-152956555D01*
X194406926Y-152910536D01*
X194267114Y-152835804D01*
X194144567Y-152735233D01*
X194043996Y-152612685D01*
X193969264Y-152472873D01*
X193923245Y-152321167D01*
X193911600Y-152202935D01*
X193911601Y-150615864D01*
X193923246Y-150497632D01*
X193969265Y-150345926D01*
X194043997Y-150206114D01*
X194144568Y-150083567D01*
X194267115Y-149982996D01*
X194406927Y-149908264D01*
X194558633Y-149862245D01*
X194716400Y-149846706D01*
X194874168Y-149862245D01*
X194874168Y-149862245D01*
G37*
G36*
X190174168Y-149862245D02*
X190325874Y-149908264D01*
X190465686Y-149982996D01*
X190588233Y-150083567D01*
X190688804Y-150206114D01*
X190763536Y-150345926D01*
X190809555Y-150497632D01*
X190821200Y-150615864D01*
X190821200Y-152202936D01*
X190809555Y-152321168D01*
X190763536Y-152472874D01*
X190688804Y-152612686D01*
X190588233Y-152735233D01*
X190465685Y-152835804D01*
X190325873Y-152910536D01*
X190174167Y-152956555D01*
X190016400Y-152972094D01*
X189858632Y-152956555D01*
X189706926Y-152910536D01*
X189567114Y-152835804D01*
X189444567Y-152735233D01*
X189343996Y-152612685D01*
X189269264Y-152472873D01*
X189223245Y-152321167D01*
X189211600Y-152202935D01*
X189211601Y-150615864D01*
X189223246Y-150497632D01*
X189269265Y-150345926D01*
X189343997Y-150206114D01*
X189444568Y-150083567D01*
X189567115Y-149982996D01*
X189706927Y-149908264D01*
X189858633Y-149862245D01*
X190016400Y-149846706D01*
X190174168Y-149862245D01*
X190174168Y-149862245D01*
G37*
G36*
X185919663Y-148349618D02*
X184578063Y-148349618D01*
X184578063Y-146748018D01*
X185919663Y-146748018D01*
X185919663Y-148349618D01*
X185919663Y-148349618D01*
G37*
G36*
X187819663Y-148349618D02*
X186478063Y-148349618D01*
X186478063Y-146748018D01*
X187819663Y-146748018D01*
X187819663Y-148349618D01*
X187819663Y-148349618D01*
G37*
G36*
X179960663Y-146368818D02*
X177959063Y-146368818D01*
X177959063Y-143967218D01*
X179960663Y-143967218D01*
X179960663Y-146368818D01*
X179960663Y-146368818D01*
G37*
G36*
X185417864Y-141213043D02*
X185423920Y-141214880D01*
X185435369Y-141221000D01*
X185444730Y-141227256D01*
X185467369Y-141236635D01*
X185491402Y-141241417D01*
X185515906Y-141241419D01*
X185539940Y-141236640D01*
X185562580Y-141227264D01*
X185571947Y-141221006D01*
X185583406Y-141214880D01*
X185589462Y-141213043D01*
X185601903Y-141211818D01*
X185905423Y-141211818D01*
X185917864Y-141213043D01*
X185923920Y-141214880D01*
X185935369Y-141221000D01*
X185944730Y-141227256D01*
X185967369Y-141236635D01*
X185991402Y-141241417D01*
X186015906Y-141241419D01*
X186039940Y-141236640D01*
X186062580Y-141227264D01*
X186071947Y-141221006D01*
X186083406Y-141214880D01*
X186089462Y-141213043D01*
X186101903Y-141211818D01*
X186405423Y-141211818D01*
X186417864Y-141213043D01*
X186423920Y-141214880D01*
X186435369Y-141221000D01*
X186444730Y-141227256D01*
X186467369Y-141236635D01*
X186491402Y-141241417D01*
X186515906Y-141241419D01*
X186539940Y-141236640D01*
X186562580Y-141227264D01*
X186571947Y-141221006D01*
X186583406Y-141214880D01*
X186589462Y-141213043D01*
X186601903Y-141211818D01*
X186905423Y-141211818D01*
X186917864Y-141213043D01*
X186923920Y-141214880D01*
X186935369Y-141221000D01*
X186944730Y-141227256D01*
X186967369Y-141236635D01*
X186991402Y-141241417D01*
X187015906Y-141241419D01*
X187039940Y-141236640D01*
X187062580Y-141227264D01*
X187071947Y-141221006D01*
X187083406Y-141214880D01*
X187089462Y-141213043D01*
X187101903Y-141211818D01*
X187405423Y-141211818D01*
X187417864Y-141213043D01*
X187423920Y-141214880D01*
X187435369Y-141221000D01*
X187444730Y-141227256D01*
X187467369Y-141236635D01*
X187491402Y-141241417D01*
X187515906Y-141241419D01*
X187539940Y-141236640D01*
X187562580Y-141227264D01*
X187571947Y-141221006D01*
X187583406Y-141214880D01*
X187589462Y-141213043D01*
X187601903Y-141211818D01*
X187905423Y-141211818D01*
X187917864Y-141213043D01*
X187923920Y-141214880D01*
X187929506Y-141217866D01*
X187934399Y-141221882D01*
X187938415Y-141226775D01*
X187941401Y-141232361D01*
X187943238Y-141238417D01*
X187944463Y-141250858D01*
X187944463Y-142074377D01*
X187943284Y-142086346D01*
X187943284Y-142110850D01*
X187943629Y-142112582D01*
X187941908Y-142112240D01*
X187917380Y-142112240D01*
X187915544Y-142112421D01*
X187891511Y-142117204D01*
X187868873Y-142126583D01*
X187848500Y-142140199D01*
X187831174Y-142157528D01*
X187817562Y-142177904D01*
X187808187Y-142200543D01*
X187803409Y-142224577D01*
X187803411Y-142249082D01*
X187808194Y-142273115D01*
X187817573Y-142295753D01*
X187824830Y-142306612D01*
X187825529Y-142307919D01*
X187826471Y-142309067D01*
X187831189Y-142316126D01*
X187837184Y-142322120D01*
X187841075Y-142326861D01*
X187845825Y-142330759D01*
X187848518Y-142333452D01*
X187851678Y-142335563D01*
X187860017Y-142342407D01*
X187881628Y-142353958D01*
X187905077Y-142361071D01*
X187929463Y-142363473D01*
X187953849Y-142361071D01*
X187977298Y-142353958D01*
X187998909Y-142342407D01*
X188017851Y-142326861D01*
X188033397Y-142307919D01*
X188044948Y-142286308D01*
X188053860Y-142250737D01*
X188054041Y-142248901D01*
X188054043Y-142224396D01*
X188053696Y-142222652D01*
X188055429Y-142222997D01*
X188079935Y-142222997D01*
X188091904Y-142221818D01*
X188915423Y-142221818D01*
X188927864Y-142223043D01*
X188933920Y-142224880D01*
X188939506Y-142227866D01*
X188944399Y-142231882D01*
X188948415Y-142236775D01*
X188951401Y-142242361D01*
X188953238Y-142248417D01*
X188954463Y-142260858D01*
X188954463Y-142564378D01*
X188953238Y-142576819D01*
X188951401Y-142582875D01*
X188945281Y-142594324D01*
X188939025Y-142603685D01*
X188929646Y-142626324D01*
X188924864Y-142650357D01*
X188924862Y-142674861D01*
X188929641Y-142698895D01*
X188939017Y-142721535D01*
X188945275Y-142730902D01*
X188951401Y-142742361D01*
X188953238Y-142748417D01*
X188954463Y-142760858D01*
X188954463Y-143064378D01*
X188953238Y-143076819D01*
X188951401Y-143082875D01*
X188945281Y-143094324D01*
X188939025Y-143103685D01*
X188929646Y-143126324D01*
X188924864Y-143150357D01*
X188924862Y-143174861D01*
X188929641Y-143198895D01*
X188939017Y-143221535D01*
X188945275Y-143230902D01*
X188951401Y-143242361D01*
X188953238Y-143248417D01*
X188954463Y-143260858D01*
X188954463Y-143564378D01*
X188953238Y-143576819D01*
X188951401Y-143582875D01*
X188945281Y-143594324D01*
X188939025Y-143603685D01*
X188929646Y-143626324D01*
X188924864Y-143650357D01*
X188924862Y-143674861D01*
X188929641Y-143698895D01*
X188939017Y-143721535D01*
X188945275Y-143730902D01*
X188951401Y-143742361D01*
X188953238Y-143748417D01*
X188954463Y-143760858D01*
X188954463Y-144064378D01*
X188953238Y-144076819D01*
X188951401Y-144082875D01*
X188945281Y-144094324D01*
X188939025Y-144103685D01*
X188929646Y-144126324D01*
X188924864Y-144150357D01*
X188924862Y-144174861D01*
X188929641Y-144198895D01*
X188939017Y-144221535D01*
X188945275Y-144230902D01*
X188951401Y-144242361D01*
X188953238Y-144248417D01*
X188954463Y-144260858D01*
X188954463Y-144564378D01*
X188953238Y-144576819D01*
X188951401Y-144582875D01*
X188945281Y-144594324D01*
X188939025Y-144603685D01*
X188929646Y-144626324D01*
X188924864Y-144650357D01*
X188924862Y-144674861D01*
X188929641Y-144698895D01*
X188939017Y-144721535D01*
X188945275Y-144730902D01*
X188951401Y-144742361D01*
X188953238Y-144748417D01*
X188954463Y-144760858D01*
X188954463Y-145064378D01*
X188953238Y-145076819D01*
X188951401Y-145082875D01*
X188948415Y-145088461D01*
X188944399Y-145093354D01*
X188939506Y-145097370D01*
X188933920Y-145100356D01*
X188927864Y-145102193D01*
X188915423Y-145103418D01*
X188091904Y-145103418D01*
X188079935Y-145102239D01*
X188055431Y-145102239D01*
X188053699Y-145102584D01*
X188054041Y-145100863D01*
X188054041Y-145076335D01*
X188053860Y-145074499D01*
X188049077Y-145050466D01*
X188039698Y-145027828D01*
X188026082Y-145007455D01*
X188008753Y-144990129D01*
X187988377Y-144976517D01*
X187965738Y-144967142D01*
X187941704Y-144962364D01*
X187917199Y-144962366D01*
X187893166Y-144967149D01*
X187870528Y-144976528D01*
X187859669Y-144983785D01*
X187858362Y-144984484D01*
X187857214Y-144985426D01*
X187850155Y-144990144D01*
X187844161Y-144996139D01*
X187839420Y-145000030D01*
X187835522Y-145004780D01*
X187832829Y-145007473D01*
X187830718Y-145010633D01*
X187823874Y-145018972D01*
X187812323Y-145040583D01*
X187805210Y-145064032D01*
X187802808Y-145088418D01*
X187805210Y-145112804D01*
X187812323Y-145136253D01*
X187823874Y-145157864D01*
X187839420Y-145176806D01*
X187858362Y-145192352D01*
X187879973Y-145203903D01*
X187915544Y-145212815D01*
X187917380Y-145212996D01*
X187941885Y-145212998D01*
X187943629Y-145212651D01*
X187943284Y-145214384D01*
X187943284Y-145238890D01*
X187944463Y-145250859D01*
X187944463Y-146074378D01*
X187943238Y-146086819D01*
X187941401Y-146092875D01*
X187938415Y-146098461D01*
X187934399Y-146103354D01*
X187929506Y-146107370D01*
X187923920Y-146110356D01*
X187917864Y-146112193D01*
X187905423Y-146113418D01*
X187601903Y-146113418D01*
X187589462Y-146112193D01*
X187583406Y-146110356D01*
X187571957Y-146104236D01*
X187562596Y-146097980D01*
X187539957Y-146088601D01*
X187515924Y-146083819D01*
X187491420Y-146083817D01*
X187467386Y-146088596D01*
X187444746Y-146097972D01*
X187435379Y-146104230D01*
X187423920Y-146110356D01*
X187417864Y-146112193D01*
X187405423Y-146113418D01*
X187101903Y-146113418D01*
X187089462Y-146112193D01*
X187083406Y-146110356D01*
X187071957Y-146104236D01*
X187062596Y-146097980D01*
X187039957Y-146088601D01*
X187015924Y-146083819D01*
X186991420Y-146083817D01*
X186967386Y-146088596D01*
X186944746Y-146097972D01*
X186935379Y-146104230D01*
X186923920Y-146110356D01*
X186917864Y-146112193D01*
X186905423Y-146113418D01*
X186601903Y-146113418D01*
X186589462Y-146112193D01*
X186583406Y-146110356D01*
X186571957Y-146104236D01*
X186562596Y-146097980D01*
X186539957Y-146088601D01*
X186515924Y-146083819D01*
X186491420Y-146083817D01*
X186467386Y-146088596D01*
X186444746Y-146097972D01*
X186435379Y-146104230D01*
X186423920Y-146110356D01*
X186417864Y-146112193D01*
X186405423Y-146113418D01*
X186101903Y-146113418D01*
X186089462Y-146112193D01*
X186083406Y-146110356D01*
X186071957Y-146104236D01*
X186062596Y-146097980D01*
X186039957Y-146088601D01*
X186015924Y-146083819D01*
X185991420Y-146083817D01*
X185967386Y-146088596D01*
X185944746Y-146097972D01*
X185935379Y-146104230D01*
X185923920Y-146110356D01*
X185917864Y-146112193D01*
X185905423Y-146113418D01*
X185601903Y-146113418D01*
X185589462Y-146112193D01*
X185583406Y-146110356D01*
X185571957Y-146104236D01*
X185562596Y-146097980D01*
X185539957Y-146088601D01*
X185515924Y-146083819D01*
X185491420Y-146083817D01*
X185467386Y-146088596D01*
X185444746Y-146097972D01*
X185435379Y-146104230D01*
X185423920Y-146110356D01*
X185417864Y-146112193D01*
X185405423Y-146113418D01*
X185101903Y-146113418D01*
X185089462Y-146112193D01*
X185083406Y-146110356D01*
X185077820Y-146107370D01*
X185072927Y-146103354D01*
X185068911Y-146098461D01*
X185065925Y-146092875D01*
X185064088Y-146086819D01*
X185062863Y-146074378D01*
X185062863Y-145250859D01*
X185064042Y-145238890D01*
X185064042Y-145214386D01*
X185063697Y-145212654D01*
X185065418Y-145212996D01*
X185089946Y-145212996D01*
X185091782Y-145212815D01*
X185115815Y-145208032D01*
X185138453Y-145198653D01*
X185158826Y-145185037D01*
X185176152Y-145167708D01*
X185189764Y-145147332D01*
X185199139Y-145124693D01*
X185203917Y-145100659D01*
X185203917Y-145088418D01*
X185302808Y-145088418D01*
X185305210Y-145112804D01*
X185312323Y-145136253D01*
X185323874Y-145157864D01*
X185339420Y-145176806D01*
X185358362Y-145192352D01*
X185379973Y-145203903D01*
X185403422Y-145211016D01*
X185415556Y-145212816D01*
X185417864Y-145213043D01*
X185423920Y-145214880D01*
X185435369Y-145221000D01*
X185444730Y-145227256D01*
X185467369Y-145236635D01*
X185491402Y-145241417D01*
X185515906Y-145241419D01*
X185539940Y-145236640D01*
X185562580Y-145227264D01*
X185571947Y-145221006D01*
X185583406Y-145214880D01*
X185589462Y-145213043D01*
X185591770Y-145212816D01*
X185615803Y-145208036D01*
X185638442Y-145198658D01*
X185658817Y-145185044D01*
X185676144Y-145167717D01*
X185689758Y-145147343D01*
X185699135Y-145124704D01*
X185703916Y-145100670D01*
X185703916Y-145088418D01*
X185802808Y-145088418D01*
X185805210Y-145112804D01*
X185812323Y-145136253D01*
X185823874Y-145157864D01*
X185839420Y-145176806D01*
X185858362Y-145192352D01*
X185879973Y-145203903D01*
X185903422Y-145211016D01*
X185915556Y-145212816D01*
X185917864Y-145213043D01*
X185923920Y-145214880D01*
X185935369Y-145221000D01*
X185944730Y-145227256D01*
X185967369Y-145236635D01*
X185991402Y-145241417D01*
X186015906Y-145241419D01*
X186039940Y-145236640D01*
X186062580Y-145227264D01*
X186071947Y-145221006D01*
X186083406Y-145214880D01*
X186089462Y-145213043D01*
X186091770Y-145212816D01*
X186115803Y-145208036D01*
X186138442Y-145198658D01*
X186158817Y-145185044D01*
X186176144Y-145167717D01*
X186189758Y-145147343D01*
X186199135Y-145124704D01*
X186203916Y-145100670D01*
X186203916Y-145088418D01*
X186302808Y-145088418D01*
X186305210Y-145112804D01*
X186312323Y-145136253D01*
X186323874Y-145157864D01*
X186339420Y-145176806D01*
X186358362Y-145192352D01*
X186379973Y-145203903D01*
X186403422Y-145211016D01*
X186415556Y-145212816D01*
X186417864Y-145213043D01*
X186423920Y-145214880D01*
X186435369Y-145221000D01*
X186444730Y-145227256D01*
X186467369Y-145236635D01*
X186491402Y-145241417D01*
X186515906Y-145241419D01*
X186539940Y-145236640D01*
X186562580Y-145227264D01*
X186571947Y-145221006D01*
X186583406Y-145214880D01*
X186589462Y-145213043D01*
X186591770Y-145212816D01*
X186615803Y-145208036D01*
X186638442Y-145198658D01*
X186658817Y-145185044D01*
X186676144Y-145167717D01*
X186689758Y-145147343D01*
X186699135Y-145124704D01*
X186703916Y-145100670D01*
X186703916Y-145088418D01*
X186802808Y-145088418D01*
X186805210Y-145112804D01*
X186812323Y-145136253D01*
X186823874Y-145157864D01*
X186839420Y-145176806D01*
X186858362Y-145192352D01*
X186879973Y-145203903D01*
X186903422Y-145211016D01*
X186915556Y-145212816D01*
X186917864Y-145213043D01*
X186923920Y-145214880D01*
X186935369Y-145221000D01*
X186944730Y-145227256D01*
X186967369Y-145236635D01*
X186991402Y-145241417D01*
X187015906Y-145241419D01*
X187039940Y-145236640D01*
X187062580Y-145227264D01*
X187071947Y-145221006D01*
X187083406Y-145214880D01*
X187089462Y-145213043D01*
X187091770Y-145212816D01*
X187115803Y-145208036D01*
X187138442Y-145198658D01*
X187158817Y-145185044D01*
X187176144Y-145167717D01*
X187189758Y-145147343D01*
X187199135Y-145124704D01*
X187203916Y-145100670D01*
X187203916Y-145088418D01*
X187302808Y-145088418D01*
X187305210Y-145112804D01*
X187312323Y-145136253D01*
X187323874Y-145157864D01*
X187339420Y-145176806D01*
X187358362Y-145192352D01*
X187379973Y-145203903D01*
X187403422Y-145211016D01*
X187415556Y-145212816D01*
X187417864Y-145213043D01*
X187423920Y-145214880D01*
X187435369Y-145221000D01*
X187444730Y-145227256D01*
X187467369Y-145236635D01*
X187491402Y-145241417D01*
X187515906Y-145241419D01*
X187539940Y-145236640D01*
X187562580Y-145227264D01*
X187571947Y-145221006D01*
X187583406Y-145214880D01*
X187589462Y-145213043D01*
X187591770Y-145212816D01*
X187615803Y-145208036D01*
X187638442Y-145198658D01*
X187658817Y-145185044D01*
X187676144Y-145167717D01*
X187689758Y-145147343D01*
X187699135Y-145124704D01*
X187703916Y-145100670D01*
X187703916Y-145076166D01*
X187699136Y-145052133D01*
X187689758Y-145029494D01*
X187676144Y-145009119D01*
X187658817Y-144991792D01*
X187638443Y-144978178D01*
X187615804Y-144968801D01*
X187591770Y-144964020D01*
X187579518Y-144963418D01*
X187427808Y-144963418D01*
X187403422Y-144965820D01*
X187379973Y-144972933D01*
X187358362Y-144984484D01*
X187339420Y-145000030D01*
X187323874Y-145018972D01*
X187312323Y-145040583D01*
X187305210Y-145064032D01*
X187302808Y-145088418D01*
X187203916Y-145088418D01*
X187203916Y-145076166D01*
X187199136Y-145052133D01*
X187189758Y-145029494D01*
X187176144Y-145009119D01*
X187158817Y-144991792D01*
X187138443Y-144978178D01*
X187115804Y-144968801D01*
X187091770Y-144964020D01*
X187079518Y-144963418D01*
X186927808Y-144963418D01*
X186903422Y-144965820D01*
X186879973Y-144972933D01*
X186858362Y-144984484D01*
X186839420Y-145000030D01*
X186823874Y-145018972D01*
X186812323Y-145040583D01*
X186805210Y-145064032D01*
X186802808Y-145088418D01*
X186703916Y-145088418D01*
X186703916Y-145076166D01*
X186699136Y-145052133D01*
X186689758Y-145029494D01*
X186676144Y-145009119D01*
X186658817Y-144991792D01*
X186638443Y-144978178D01*
X186615804Y-144968801D01*
X186591770Y-144964020D01*
X186579518Y-144963418D01*
X186427808Y-144963418D01*
X186403422Y-144965820D01*
X186379973Y-144972933D01*
X186358362Y-144984484D01*
X186339420Y-145000030D01*
X186323874Y-145018972D01*
X186312323Y-145040583D01*
X186305210Y-145064032D01*
X186302808Y-145088418D01*
X186203916Y-145088418D01*
X186203916Y-145076166D01*
X186199136Y-145052133D01*
X186189758Y-145029494D01*
X186176144Y-145009119D01*
X186158817Y-144991792D01*
X186138443Y-144978178D01*
X186115804Y-144968801D01*
X186091770Y-144964020D01*
X186079518Y-144963418D01*
X185927808Y-144963418D01*
X185903422Y-144965820D01*
X185879973Y-144972933D01*
X185858362Y-144984484D01*
X185839420Y-145000030D01*
X185823874Y-145018972D01*
X185812323Y-145040583D01*
X185805210Y-145064032D01*
X185802808Y-145088418D01*
X185703916Y-145088418D01*
X185703916Y-145076166D01*
X185699136Y-145052133D01*
X185689758Y-145029494D01*
X185676144Y-145009119D01*
X185658817Y-144991792D01*
X185638443Y-144978178D01*
X185615804Y-144968801D01*
X185591770Y-144964020D01*
X185579518Y-144963418D01*
X185427808Y-144963418D01*
X185403422Y-144965820D01*
X185379973Y-144972933D01*
X185358362Y-144984484D01*
X185339420Y-145000030D01*
X185323874Y-145018972D01*
X185312323Y-145040583D01*
X185305210Y-145064032D01*
X185302808Y-145088418D01*
X185203917Y-145088418D01*
X185203915Y-145076154D01*
X185199132Y-145052121D01*
X185189753Y-145029483D01*
X185182496Y-145018624D01*
X185181797Y-145017317D01*
X185180855Y-145016169D01*
X185176137Y-145009110D01*
X185170142Y-145003116D01*
X185166251Y-144998375D01*
X185161501Y-144994477D01*
X185158808Y-144991784D01*
X185155648Y-144989673D01*
X185147309Y-144982829D01*
X185125698Y-144971278D01*
X185102249Y-144964165D01*
X185077863Y-144961763D01*
X185053477Y-144964165D01*
X185030028Y-144971278D01*
X185008417Y-144982829D01*
X184989475Y-144998375D01*
X184973929Y-145017317D01*
X184962378Y-145038928D01*
X184953466Y-145074499D01*
X184953285Y-145076335D01*
X184953283Y-145100840D01*
X184953630Y-145102584D01*
X184951897Y-145102239D01*
X184927391Y-145102239D01*
X184915422Y-145103418D01*
X184091903Y-145103418D01*
X184079462Y-145102193D01*
X184073406Y-145100356D01*
X184067820Y-145097370D01*
X184062927Y-145093354D01*
X184058911Y-145088461D01*
X184055925Y-145082875D01*
X184054088Y-145076819D01*
X184052863Y-145064378D01*
X184052863Y-144760858D01*
X184054088Y-144748417D01*
X184055925Y-144742361D01*
X184062045Y-144730912D01*
X184068301Y-144721551D01*
X184077680Y-144698912D01*
X184082462Y-144674879D01*
X184082462Y-144674861D01*
X184924862Y-144674861D01*
X184929641Y-144698895D01*
X184939017Y-144721535D01*
X184945275Y-144730902D01*
X184951401Y-144742361D01*
X184953238Y-144748417D01*
X184953465Y-144750725D01*
X184958245Y-144774758D01*
X184967623Y-144797397D01*
X184981237Y-144817772D01*
X184998564Y-144835099D01*
X185018938Y-144848713D01*
X185041577Y-144858090D01*
X185065611Y-144862871D01*
X185090115Y-144862871D01*
X185114148Y-144858091D01*
X185136787Y-144848713D01*
X185157162Y-144835099D01*
X185174489Y-144817772D01*
X185188103Y-144797398D01*
X185197480Y-144774759D01*
X185202261Y-144750725D01*
X185202863Y-144738473D01*
X185202863Y-144586763D01*
X187804463Y-144586763D01*
X187804463Y-144738473D01*
X187806865Y-144762859D01*
X187813978Y-144786308D01*
X187825529Y-144807919D01*
X187841075Y-144826861D01*
X187860017Y-144842407D01*
X187881628Y-144853958D01*
X187905077Y-144861071D01*
X187929463Y-144863473D01*
X187953849Y-144861071D01*
X187977298Y-144853958D01*
X187998909Y-144842407D01*
X188017851Y-144826861D01*
X188033397Y-144807919D01*
X188044948Y-144786308D01*
X188052061Y-144762859D01*
X188053861Y-144750725D01*
X188054088Y-144748417D01*
X188055925Y-144742361D01*
X188062045Y-144730912D01*
X188068301Y-144721551D01*
X188077680Y-144698912D01*
X188082462Y-144674879D01*
X188082464Y-144650375D01*
X188077685Y-144626341D01*
X188068309Y-144603701D01*
X188062051Y-144594334D01*
X188055925Y-144582875D01*
X188054088Y-144576819D01*
X188053861Y-144574511D01*
X188049081Y-144550478D01*
X188039703Y-144527839D01*
X188026089Y-144507464D01*
X188008762Y-144490137D01*
X187988388Y-144476523D01*
X187965749Y-144467146D01*
X187941715Y-144462365D01*
X187917211Y-144462365D01*
X187893178Y-144467145D01*
X187870539Y-144476523D01*
X187850164Y-144490137D01*
X187832837Y-144507464D01*
X187819223Y-144527838D01*
X187809846Y-144550477D01*
X187805065Y-144574511D01*
X187804463Y-144586763D01*
X185202863Y-144586763D01*
X185200461Y-144562377D01*
X185193348Y-144538928D01*
X185181797Y-144517317D01*
X185166251Y-144498375D01*
X185147309Y-144482829D01*
X185125698Y-144471278D01*
X185102249Y-144464165D01*
X185077863Y-144461763D01*
X185053477Y-144464165D01*
X185030028Y-144471278D01*
X185008417Y-144482829D01*
X184989475Y-144498375D01*
X184973929Y-144517317D01*
X184962378Y-144538928D01*
X184955265Y-144562377D01*
X184953465Y-144574511D01*
X184953238Y-144576819D01*
X184951401Y-144582875D01*
X184945281Y-144594324D01*
X184939025Y-144603685D01*
X184929646Y-144626324D01*
X184924864Y-144650357D01*
X184924862Y-144674861D01*
X184082462Y-144674861D01*
X184082464Y-144650375D01*
X184077685Y-144626341D01*
X184068309Y-144603701D01*
X184062051Y-144594334D01*
X184055925Y-144582875D01*
X184054088Y-144576819D01*
X184052863Y-144564378D01*
X184052863Y-144260858D01*
X184054088Y-144248417D01*
X184055925Y-144242361D01*
X184062045Y-144230912D01*
X184068301Y-144221551D01*
X184077680Y-144198912D01*
X184082462Y-144174879D01*
X184082462Y-144174861D01*
X184924862Y-144174861D01*
X184929641Y-144198895D01*
X184939017Y-144221535D01*
X184945275Y-144230902D01*
X184951401Y-144242361D01*
X184953238Y-144248417D01*
X184953465Y-144250725D01*
X184958245Y-144274758D01*
X184967623Y-144297397D01*
X184981237Y-144317772D01*
X184998564Y-144335099D01*
X185018938Y-144348713D01*
X185041577Y-144358090D01*
X185065611Y-144362871D01*
X185090115Y-144362871D01*
X185114148Y-144358091D01*
X185136787Y-144348713D01*
X185157162Y-144335099D01*
X185174489Y-144317772D01*
X185188103Y-144297398D01*
X185197480Y-144274759D01*
X185202261Y-144250725D01*
X185202863Y-144238473D01*
X185202863Y-144086763D01*
X187804463Y-144086763D01*
X187804463Y-144238473D01*
X187806865Y-144262859D01*
X187813978Y-144286308D01*
X187825529Y-144307919D01*
X187841075Y-144326861D01*
X187860017Y-144342407D01*
X187881628Y-144353958D01*
X187905077Y-144361071D01*
X187929463Y-144363473D01*
X187953849Y-144361071D01*
X187977298Y-144353958D01*
X187998909Y-144342407D01*
X188017851Y-144326861D01*
X188033397Y-144307919D01*
X188044948Y-144286308D01*
X188052061Y-144262859D01*
X188053861Y-144250725D01*
X188054088Y-144248417D01*
X188055925Y-144242361D01*
X188062045Y-144230912D01*
X188068301Y-144221551D01*
X188077680Y-144198912D01*
X188082462Y-144174879D01*
X188082464Y-144150375D01*
X188077685Y-144126341D01*
X188068309Y-144103701D01*
X188062051Y-144094334D01*
X188055925Y-144082875D01*
X188054088Y-144076819D01*
X188053861Y-144074511D01*
X188049081Y-144050478D01*
X188039703Y-144027839D01*
X188026089Y-144007464D01*
X188008762Y-143990137D01*
X187988388Y-143976523D01*
X187965749Y-143967146D01*
X187941715Y-143962365D01*
X187917211Y-143962365D01*
X187893178Y-143967145D01*
X187870539Y-143976523D01*
X187850164Y-143990137D01*
X187832837Y-144007464D01*
X187819223Y-144027838D01*
X187809846Y-144050477D01*
X187805065Y-144074511D01*
X187804463Y-144086763D01*
X185202863Y-144086763D01*
X185200461Y-144062377D01*
X185193348Y-144038928D01*
X185181797Y-144017317D01*
X185166251Y-143998375D01*
X185147309Y-143982829D01*
X185125698Y-143971278D01*
X185102249Y-143964165D01*
X185077863Y-143961763D01*
X185053477Y-143964165D01*
X185030028Y-143971278D01*
X185008417Y-143982829D01*
X184989475Y-143998375D01*
X184973929Y-144017317D01*
X184962378Y-144038928D01*
X184955265Y-144062377D01*
X184953465Y-144074511D01*
X184953238Y-144076819D01*
X184951401Y-144082875D01*
X184945281Y-144094324D01*
X184939025Y-144103685D01*
X184929646Y-144126324D01*
X184924864Y-144150357D01*
X184924862Y-144174861D01*
X184082462Y-144174861D01*
X184082464Y-144150375D01*
X184077685Y-144126341D01*
X184068309Y-144103701D01*
X184062051Y-144094334D01*
X184055925Y-144082875D01*
X184054088Y-144076819D01*
X184052863Y-144064378D01*
X184052863Y-143760858D01*
X184054088Y-143748417D01*
X184055925Y-143742361D01*
X184062045Y-143730912D01*
X184068301Y-143721551D01*
X184077680Y-143698912D01*
X184082462Y-143674879D01*
X184082462Y-143674861D01*
X184924862Y-143674861D01*
X184929641Y-143698895D01*
X184939017Y-143721535D01*
X184945275Y-143730902D01*
X184951401Y-143742361D01*
X184953238Y-143748417D01*
X184953465Y-143750725D01*
X184958245Y-143774758D01*
X184967623Y-143797397D01*
X184981237Y-143817772D01*
X184998564Y-143835099D01*
X185018938Y-143848713D01*
X185041577Y-143858090D01*
X185065611Y-143862871D01*
X185090115Y-143862871D01*
X185114148Y-143858091D01*
X185136787Y-143848713D01*
X185157162Y-143835099D01*
X185174489Y-143817772D01*
X185188103Y-143797398D01*
X185197480Y-143774759D01*
X185202261Y-143750725D01*
X185202863Y-143738473D01*
X185202863Y-143586763D01*
X187804463Y-143586763D01*
X187804463Y-143738473D01*
X187806865Y-143762859D01*
X187813978Y-143786308D01*
X187825529Y-143807919D01*
X187841075Y-143826861D01*
X187860017Y-143842407D01*
X187881628Y-143853958D01*
X187905077Y-143861071D01*
X187929463Y-143863473D01*
X187953849Y-143861071D01*
X187977298Y-143853958D01*
X187998909Y-143842407D01*
X188017851Y-143826861D01*
X188033397Y-143807919D01*
X188044948Y-143786308D01*
X188052061Y-143762859D01*
X188053861Y-143750725D01*
X188054088Y-143748417D01*
X188055925Y-143742361D01*
X188062045Y-143730912D01*
X188068301Y-143721551D01*
X188077680Y-143698912D01*
X188082462Y-143674879D01*
X188082464Y-143650375D01*
X188077685Y-143626341D01*
X188068309Y-143603701D01*
X188062051Y-143594334D01*
X188055925Y-143582875D01*
X188054088Y-143576819D01*
X188053861Y-143574511D01*
X188049081Y-143550478D01*
X188039703Y-143527839D01*
X188026089Y-143507464D01*
X188008762Y-143490137D01*
X187988388Y-143476523D01*
X187965749Y-143467146D01*
X187941715Y-143462365D01*
X187917211Y-143462365D01*
X187893178Y-143467145D01*
X187870539Y-143476523D01*
X187850164Y-143490137D01*
X187832837Y-143507464D01*
X187819223Y-143527838D01*
X187809846Y-143550477D01*
X187805065Y-143574511D01*
X187804463Y-143586763D01*
X185202863Y-143586763D01*
X185200461Y-143562377D01*
X185193348Y-143538928D01*
X185181797Y-143517317D01*
X185166251Y-143498375D01*
X185147309Y-143482829D01*
X185125698Y-143471278D01*
X185102249Y-143464165D01*
X185077863Y-143461763D01*
X185053477Y-143464165D01*
X185030028Y-143471278D01*
X185008417Y-143482829D01*
X184989475Y-143498375D01*
X184973929Y-143517317D01*
X184962378Y-143538928D01*
X184955265Y-143562377D01*
X184953465Y-143574511D01*
X184953238Y-143576819D01*
X184951401Y-143582875D01*
X184945281Y-143594324D01*
X184939025Y-143603685D01*
X184929646Y-143626324D01*
X184924864Y-143650357D01*
X184924862Y-143674861D01*
X184082462Y-143674861D01*
X184082464Y-143650375D01*
X184077685Y-143626341D01*
X184068309Y-143603701D01*
X184062051Y-143594334D01*
X184055925Y-143582875D01*
X184054088Y-143576819D01*
X184052863Y-143564378D01*
X184052863Y-143260858D01*
X184054088Y-143248417D01*
X184055925Y-143242361D01*
X184062045Y-143230912D01*
X184068301Y-143221551D01*
X184077680Y-143198912D01*
X184082462Y-143174879D01*
X184082462Y-143174861D01*
X184924862Y-143174861D01*
X184929641Y-143198895D01*
X184939017Y-143221535D01*
X184945275Y-143230902D01*
X184951401Y-143242361D01*
X184953238Y-143248417D01*
X184953465Y-143250725D01*
X184958245Y-143274758D01*
X184967623Y-143297397D01*
X184981237Y-143317772D01*
X184998564Y-143335099D01*
X185018938Y-143348713D01*
X185041577Y-143358090D01*
X185065611Y-143362871D01*
X185090115Y-143362871D01*
X185114148Y-143358091D01*
X185136787Y-143348713D01*
X185157162Y-143335099D01*
X185174489Y-143317772D01*
X185188103Y-143297398D01*
X185197480Y-143274759D01*
X185202261Y-143250725D01*
X185202863Y-143238473D01*
X185202863Y-143086763D01*
X187804463Y-143086763D01*
X187804463Y-143238473D01*
X187806865Y-143262859D01*
X187813978Y-143286308D01*
X187825529Y-143307919D01*
X187841075Y-143326861D01*
X187860017Y-143342407D01*
X187881628Y-143353958D01*
X187905077Y-143361071D01*
X187929463Y-143363473D01*
X187953849Y-143361071D01*
X187977298Y-143353958D01*
X187998909Y-143342407D01*
X188017851Y-143326861D01*
X188033397Y-143307919D01*
X188044948Y-143286308D01*
X188052061Y-143262859D01*
X188053861Y-143250725D01*
X188054088Y-143248417D01*
X188055925Y-143242361D01*
X188062045Y-143230912D01*
X188068301Y-143221551D01*
X188077680Y-143198912D01*
X188082462Y-143174879D01*
X188082464Y-143150375D01*
X188077685Y-143126341D01*
X188068309Y-143103701D01*
X188062051Y-143094334D01*
X188055925Y-143082875D01*
X188054088Y-143076819D01*
X188053861Y-143074511D01*
X188049081Y-143050478D01*
X188039703Y-143027839D01*
X188026089Y-143007464D01*
X188008762Y-142990137D01*
X187988388Y-142976523D01*
X187965749Y-142967146D01*
X187941715Y-142962365D01*
X187917211Y-142962365D01*
X187893178Y-142967145D01*
X187870539Y-142976523D01*
X187850164Y-142990137D01*
X187832837Y-143007464D01*
X187819223Y-143027838D01*
X187809846Y-143050477D01*
X187805065Y-143074511D01*
X187804463Y-143086763D01*
X185202863Y-143086763D01*
X185200461Y-143062377D01*
X185193348Y-143038928D01*
X185181797Y-143017317D01*
X185166251Y-142998375D01*
X185147309Y-142982829D01*
X185125698Y-142971278D01*
X185102249Y-142964165D01*
X185077863Y-142961763D01*
X185053477Y-142964165D01*
X185030028Y-142971278D01*
X185008417Y-142982829D01*
X184989475Y-142998375D01*
X184973929Y-143017317D01*
X184962378Y-143038928D01*
X184955265Y-143062377D01*
X184953465Y-143074511D01*
X184953238Y-143076819D01*
X184951401Y-143082875D01*
X184945281Y-143094324D01*
X184939025Y-143103685D01*
X184929646Y-143126324D01*
X184924864Y-143150357D01*
X184924862Y-143174861D01*
X184082462Y-143174861D01*
X184082464Y-143150375D01*
X184077685Y-143126341D01*
X184068309Y-143103701D01*
X184062051Y-143094334D01*
X184055925Y-143082875D01*
X184054088Y-143076819D01*
X184052863Y-143064378D01*
X184052863Y-142760858D01*
X184054088Y-142748417D01*
X184055925Y-142742361D01*
X184062045Y-142730912D01*
X184068301Y-142721551D01*
X184077680Y-142698912D01*
X184082462Y-142674879D01*
X184082462Y-142674861D01*
X184924862Y-142674861D01*
X184929641Y-142698895D01*
X184939017Y-142721535D01*
X184945275Y-142730902D01*
X184951401Y-142742361D01*
X184953238Y-142748417D01*
X184953465Y-142750725D01*
X184958245Y-142774758D01*
X184967623Y-142797397D01*
X184981237Y-142817772D01*
X184998564Y-142835099D01*
X185018938Y-142848713D01*
X185041577Y-142858090D01*
X185065611Y-142862871D01*
X185090115Y-142862871D01*
X185114148Y-142858091D01*
X185136787Y-142848713D01*
X185157162Y-142835099D01*
X185174489Y-142817772D01*
X185188103Y-142797398D01*
X185197480Y-142774759D01*
X185202261Y-142750725D01*
X185202863Y-142738473D01*
X185202863Y-142586763D01*
X187804463Y-142586763D01*
X187804463Y-142738473D01*
X187806865Y-142762859D01*
X187813978Y-142786308D01*
X187825529Y-142807919D01*
X187841075Y-142826861D01*
X187860017Y-142842407D01*
X187881628Y-142853958D01*
X187905077Y-142861071D01*
X187929463Y-142863473D01*
X187953849Y-142861071D01*
X187977298Y-142853958D01*
X187998909Y-142842407D01*
X188017851Y-142826861D01*
X188033397Y-142807919D01*
X188044948Y-142786308D01*
X188052061Y-142762859D01*
X188053861Y-142750725D01*
X188054088Y-142748417D01*
X188055925Y-142742361D01*
X188062045Y-142730912D01*
X188068301Y-142721551D01*
X188077680Y-142698912D01*
X188082462Y-142674879D01*
X188082464Y-142650375D01*
X188077685Y-142626341D01*
X188068309Y-142603701D01*
X188062051Y-142594334D01*
X188055925Y-142582875D01*
X188054088Y-142576819D01*
X188053861Y-142574511D01*
X188049081Y-142550478D01*
X188039703Y-142527839D01*
X188026089Y-142507464D01*
X188008762Y-142490137D01*
X187988388Y-142476523D01*
X187965749Y-142467146D01*
X187941715Y-142462365D01*
X187917211Y-142462365D01*
X187893178Y-142467145D01*
X187870539Y-142476523D01*
X187850164Y-142490137D01*
X187832837Y-142507464D01*
X187819223Y-142527838D01*
X187809846Y-142550477D01*
X187805065Y-142574511D01*
X187804463Y-142586763D01*
X185202863Y-142586763D01*
X185200461Y-142562377D01*
X185193348Y-142538928D01*
X185181797Y-142517317D01*
X185166251Y-142498375D01*
X185147309Y-142482829D01*
X185125698Y-142471278D01*
X185102249Y-142464165D01*
X185077863Y-142461763D01*
X185053477Y-142464165D01*
X185030028Y-142471278D01*
X185008417Y-142482829D01*
X184989475Y-142498375D01*
X184973929Y-142517317D01*
X184962378Y-142538928D01*
X184955265Y-142562377D01*
X184953465Y-142574511D01*
X184953238Y-142576819D01*
X184951401Y-142582875D01*
X184945281Y-142594324D01*
X184939025Y-142603685D01*
X184929646Y-142626324D01*
X184924864Y-142650357D01*
X184924862Y-142674861D01*
X184082462Y-142674861D01*
X184082464Y-142650375D01*
X184077685Y-142626341D01*
X184068309Y-142603701D01*
X184062051Y-142594334D01*
X184055925Y-142582875D01*
X184054088Y-142576819D01*
X184052863Y-142564378D01*
X184052863Y-142260858D01*
X184054088Y-142248417D01*
X184055925Y-142242361D01*
X184058911Y-142236775D01*
X184062927Y-142231882D01*
X184067820Y-142227866D01*
X184073406Y-142224880D01*
X184079462Y-142223043D01*
X184091903Y-142221818D01*
X184915422Y-142221818D01*
X184927391Y-142222997D01*
X184951895Y-142222997D01*
X184953627Y-142222652D01*
X184953285Y-142224373D01*
X184953285Y-142248901D01*
X184953466Y-142250737D01*
X184958249Y-142274770D01*
X184967628Y-142297408D01*
X184981244Y-142317781D01*
X184998573Y-142335107D01*
X185018949Y-142348719D01*
X185041588Y-142358094D01*
X185065622Y-142362872D01*
X185090127Y-142362870D01*
X185114160Y-142358087D01*
X185136798Y-142348708D01*
X185147657Y-142341451D01*
X185148964Y-142340752D01*
X185150112Y-142339810D01*
X185157171Y-142335092D01*
X185163165Y-142329097D01*
X185167906Y-142325206D01*
X185171804Y-142320456D01*
X185174497Y-142317763D01*
X185176608Y-142314603D01*
X185183452Y-142306264D01*
X185195003Y-142284653D01*
X185202116Y-142261204D01*
X185204518Y-142236818D01*
X185203312Y-142224566D01*
X185303410Y-142224566D01*
X185303410Y-142249070D01*
X185308190Y-142273103D01*
X185317568Y-142295742D01*
X185331182Y-142316117D01*
X185348509Y-142333444D01*
X185368883Y-142347058D01*
X185391522Y-142356435D01*
X185415556Y-142361216D01*
X185427808Y-142361818D01*
X185579518Y-142361818D01*
X185603904Y-142359416D01*
X185627353Y-142352303D01*
X185648964Y-142340752D01*
X185667906Y-142325206D01*
X185683452Y-142306264D01*
X185695003Y-142284653D01*
X185702116Y-142261204D01*
X185704518Y-142236818D01*
X185703312Y-142224566D01*
X185803410Y-142224566D01*
X185803410Y-142249070D01*
X185808190Y-142273103D01*
X185817568Y-142295742D01*
X185831182Y-142316117D01*
X185848509Y-142333444D01*
X185868883Y-142347058D01*
X185891522Y-142356435D01*
X185915556Y-142361216D01*
X185927808Y-142361818D01*
X186079518Y-142361818D01*
X186103904Y-142359416D01*
X186127353Y-142352303D01*
X186148964Y-142340752D01*
X186167906Y-142325206D01*
X186183452Y-142306264D01*
X186195003Y-142284653D01*
X186202116Y-142261204D01*
X186204518Y-142236818D01*
X186203312Y-142224566D01*
X186303410Y-142224566D01*
X186303410Y-142249070D01*
X186308190Y-142273103D01*
X186317568Y-142295742D01*
X186331182Y-142316117D01*
X186348509Y-142333444D01*
X186368883Y-142347058D01*
X186391522Y-142356435D01*
X186415556Y-142361216D01*
X186427808Y-142361818D01*
X186579518Y-142361818D01*
X186603904Y-142359416D01*
X186627353Y-142352303D01*
X186648964Y-142340752D01*
X186667906Y-142325206D01*
X186683452Y-142306264D01*
X186695003Y-142284653D01*
X186702116Y-142261204D01*
X186704518Y-142236818D01*
X186703312Y-142224566D01*
X186803410Y-142224566D01*
X186803410Y-142249070D01*
X186808190Y-142273103D01*
X186817568Y-142295742D01*
X186831182Y-142316117D01*
X186848509Y-142333444D01*
X186868883Y-142347058D01*
X186891522Y-142356435D01*
X186915556Y-142361216D01*
X186927808Y-142361818D01*
X187079518Y-142361818D01*
X187103904Y-142359416D01*
X187127353Y-142352303D01*
X187148964Y-142340752D01*
X187167906Y-142325206D01*
X187183452Y-142306264D01*
X187195003Y-142284653D01*
X187202116Y-142261204D01*
X187204518Y-142236818D01*
X187203312Y-142224566D01*
X187303410Y-142224566D01*
X187303410Y-142249070D01*
X187308190Y-142273103D01*
X187317568Y-142295742D01*
X187331182Y-142316117D01*
X187348509Y-142333444D01*
X187368883Y-142347058D01*
X187391522Y-142356435D01*
X187415556Y-142361216D01*
X187427808Y-142361818D01*
X187579518Y-142361818D01*
X187603904Y-142359416D01*
X187627353Y-142352303D01*
X187648964Y-142340752D01*
X187667906Y-142325206D01*
X187683452Y-142306264D01*
X187695003Y-142284653D01*
X187702116Y-142261204D01*
X187704518Y-142236818D01*
X187702116Y-142212432D01*
X187695003Y-142188983D01*
X187683452Y-142167372D01*
X187667906Y-142148430D01*
X187648964Y-142132884D01*
X187627353Y-142121333D01*
X187603904Y-142114220D01*
X187591770Y-142112420D01*
X187589462Y-142112193D01*
X187583406Y-142110356D01*
X187571957Y-142104236D01*
X187562596Y-142097980D01*
X187539957Y-142088601D01*
X187515924Y-142083819D01*
X187491420Y-142083817D01*
X187467386Y-142088596D01*
X187444746Y-142097972D01*
X187435379Y-142104230D01*
X187423920Y-142110356D01*
X187417864Y-142112193D01*
X187415556Y-142112420D01*
X187391523Y-142117200D01*
X187368884Y-142126578D01*
X187348509Y-142140192D01*
X187331182Y-142157519D01*
X187317568Y-142177893D01*
X187308191Y-142200532D01*
X187303410Y-142224566D01*
X187203312Y-142224566D01*
X187202116Y-142212432D01*
X187195003Y-142188983D01*
X187183452Y-142167372D01*
X187167906Y-142148430D01*
X187148964Y-142132884D01*
X187127353Y-142121333D01*
X187103904Y-142114220D01*
X187091770Y-142112420D01*
X187089462Y-142112193D01*
X187083406Y-142110356D01*
X187071957Y-142104236D01*
X187062596Y-142097980D01*
X187039957Y-142088601D01*
X187015924Y-142083819D01*
X186991420Y-142083817D01*
X186967386Y-142088596D01*
X186944746Y-142097972D01*
X186935379Y-142104230D01*
X186923920Y-142110356D01*
X186917864Y-142112193D01*
X186915556Y-142112420D01*
X186891523Y-142117200D01*
X186868884Y-142126578D01*
X186848509Y-142140192D01*
X186831182Y-142157519D01*
X186817568Y-142177893D01*
X186808191Y-142200532D01*
X186803410Y-142224566D01*
X186703312Y-142224566D01*
X186702116Y-142212432D01*
X186695003Y-142188983D01*
X186683452Y-142167372D01*
X186667906Y-142148430D01*
X186648964Y-142132884D01*
X186627353Y-142121333D01*
X186603904Y-142114220D01*
X186591770Y-142112420D01*
X186589462Y-142112193D01*
X186583406Y-142110356D01*
X186571957Y-142104236D01*
X186562596Y-142097980D01*
X186539957Y-142088601D01*
X186515924Y-142083819D01*
X186491420Y-142083817D01*
X186467386Y-142088596D01*
X186444746Y-142097972D01*
X186435379Y-142104230D01*
X186423920Y-142110356D01*
X186417864Y-142112193D01*
X186415556Y-142112420D01*
X186391523Y-142117200D01*
X186368884Y-142126578D01*
X186348509Y-142140192D01*
X186331182Y-142157519D01*
X186317568Y-142177893D01*
X186308191Y-142200532D01*
X186303410Y-142224566D01*
X186203312Y-142224566D01*
X186202116Y-142212432D01*
X186195003Y-142188983D01*
X186183452Y-142167372D01*
X186167906Y-142148430D01*
X186148964Y-142132884D01*
X186127353Y-142121333D01*
X186103904Y-142114220D01*
X186091770Y-142112420D01*
X186089462Y-142112193D01*
X186083406Y-142110356D01*
X186071957Y-142104236D01*
X186062596Y-142097980D01*
X186039957Y-142088601D01*
X186015924Y-142083819D01*
X185991420Y-142083817D01*
X185967386Y-142088596D01*
X185944746Y-142097972D01*
X185935379Y-142104230D01*
X185923920Y-142110356D01*
X185917864Y-142112193D01*
X185915556Y-142112420D01*
X185891523Y-142117200D01*
X185868884Y-142126578D01*
X185848509Y-142140192D01*
X185831182Y-142157519D01*
X185817568Y-142177893D01*
X185808191Y-142200532D01*
X185803410Y-142224566D01*
X185703312Y-142224566D01*
X185702116Y-142212432D01*
X185695003Y-142188983D01*
X185683452Y-142167372D01*
X185667906Y-142148430D01*
X185648964Y-142132884D01*
X185627353Y-142121333D01*
X185603904Y-142114220D01*
X185591770Y-142112420D01*
X185589462Y-142112193D01*
X185583406Y-142110356D01*
X185571957Y-142104236D01*
X185562596Y-142097980D01*
X185539957Y-142088601D01*
X185515924Y-142083819D01*
X185491420Y-142083817D01*
X185467386Y-142088596D01*
X185444746Y-142097972D01*
X185435379Y-142104230D01*
X185423920Y-142110356D01*
X185417864Y-142112193D01*
X185415556Y-142112420D01*
X185391523Y-142117200D01*
X185368884Y-142126578D01*
X185348509Y-142140192D01*
X185331182Y-142157519D01*
X185317568Y-142177893D01*
X185308191Y-142200532D01*
X185303410Y-142224566D01*
X185203312Y-142224566D01*
X185202116Y-142212432D01*
X185195003Y-142188983D01*
X185183452Y-142167372D01*
X185167906Y-142148430D01*
X185148964Y-142132884D01*
X185127353Y-142121333D01*
X185091782Y-142112421D01*
X185089946Y-142112240D01*
X185065441Y-142112238D01*
X185063697Y-142112585D01*
X185064042Y-142110852D01*
X185064042Y-142086346D01*
X185062863Y-142074377D01*
X185062863Y-141250858D01*
X185064088Y-141238417D01*
X185065925Y-141232361D01*
X185068911Y-141226775D01*
X185072927Y-141221882D01*
X185077820Y-141217866D01*
X185083406Y-141214880D01*
X185089462Y-141213043D01*
X185101903Y-141211818D01*
X185405423Y-141211818D01*
X185417864Y-141213043D01*
X185417864Y-141213043D01*
G37*
G36*
X183634000Y-145961560D02*
X182532400Y-145961560D01*
X182532400Y-144759960D01*
X183634000Y-144759960D01*
X183634000Y-145961560D01*
X183634000Y-145961560D01*
G37*
G36*
X183634000Y-144261560D02*
X182532400Y-144261560D01*
X182532400Y-143059960D01*
X183634000Y-143059960D01*
X183634000Y-144261560D01*
X183634000Y-144261560D01*
G37*
G36*
X179960663Y-143468818D02*
X177959063Y-143468818D01*
X177959063Y-141367218D01*
X179960663Y-141367218D01*
X179960663Y-143468818D01*
X179960663Y-143468818D01*
G37*
G36*
X182560663Y-142718818D02*
X181059063Y-142718818D01*
X181059063Y-139617218D01*
X182560663Y-139617218D01*
X182560663Y-142718818D01*
X182560663Y-142718818D01*
G37*
G36*
X179960663Y-140968818D02*
X177959063Y-140968818D01*
X177959063Y-138867218D01*
X179960663Y-138867218D01*
X179960663Y-140968818D01*
X179960663Y-140968818D01*
G37*
G36*
X185403463Y-140579718D02*
X184301863Y-140579718D01*
X184301863Y-139403118D01*
X185403463Y-139403118D01*
X185403463Y-140579718D01*
X185403463Y-140579718D01*
G37*
G36*
X185403463Y-138879718D02*
X184301863Y-138879718D01*
X184301863Y-137703118D01*
X185403463Y-137703118D01*
X185403463Y-138879718D01*
X185403463Y-138879718D01*
G37*
G36*
X197450737Y-138497976D02*
X196349137Y-138497976D01*
X196349137Y-137321376D01*
X197450737Y-137321376D01*
X197450737Y-138497976D01*
X197450737Y-138497976D01*
G37*
G36*
X199889137Y-138472576D02*
X198787537Y-138472576D01*
X198787537Y-137295976D01*
X199889137Y-137295976D01*
X199889137Y-138472576D01*
X199889137Y-138472576D01*
G37*
G36*
X179960663Y-138368818D02*
X177959063Y-138368818D01*
X177959063Y-135967218D01*
X179960663Y-135967218D01*
X179960663Y-138368818D01*
X179960663Y-138368818D01*
G37*
G36*
X197450737Y-136797976D02*
X196349137Y-136797976D01*
X196349137Y-135621376D01*
X197450737Y-135621376D01*
X197450737Y-136797976D01*
X197450737Y-136797976D01*
G37*
G36*
X199889137Y-136772576D02*
X198787537Y-136772576D01*
X198787537Y-135595976D01*
X199889137Y-135595976D01*
X199889137Y-136772576D01*
X199889137Y-136772576D01*
G37*
G36*
X204652500Y-135575700D02*
X203550900Y-135575700D01*
X203550900Y-134399100D01*
X204652500Y-134399100D01*
X204652500Y-135575700D01*
X204652500Y-135575700D01*
G37*
G36*
X199945337Y-134936276D02*
X198743737Y-134936276D01*
X198743737Y-132934676D01*
X199945337Y-132934676D01*
X199945337Y-134936276D01*
X199945337Y-134936276D01*
G37*
G36*
X197545337Y-134936276D02*
X196343737Y-134936276D01*
X196343737Y-132934676D01*
X197545337Y-132934676D01*
X197545337Y-134936276D01*
X197545337Y-134936276D01*
G37*
G36*
X180688680Y-133883680D02*
X179087080Y-133883680D01*
X179087080Y-132542080D01*
X180688680Y-132542080D01*
X180688680Y-133883680D01*
X180688680Y-133883680D01*
G37*
G36*
X204652500Y-133875700D02*
X203550900Y-133875700D01*
X203550900Y-132699100D01*
X204652500Y-132699100D01*
X204652500Y-133875700D01*
X204652500Y-133875700D01*
G37*
G36*
X187985877Y-133740216D02*
X186684277Y-133740216D01*
X186684277Y-132438616D01*
X187985877Y-132438616D01*
X187985877Y-133740216D01*
X187985877Y-133740216D01*
G37*
G36*
X186301000Y-133655460D02*
X185199400Y-133655460D01*
X185199400Y-133579916D01*
X185196998Y-133555530D01*
X185189885Y-133532081D01*
X185178334Y-133510470D01*
X185162788Y-133491528D01*
X185143846Y-133475982D01*
X185122235Y-133464431D01*
X185098786Y-133457318D01*
X185074400Y-133454916D01*
X183666377Y-133454916D01*
X183666377Y-132803316D01*
X185074400Y-132803316D01*
X185098786Y-132800914D01*
X185122235Y-132793801D01*
X185143846Y-132782250D01*
X185162788Y-132766704D01*
X185178334Y-132747762D01*
X185189885Y-132726151D01*
X185196998Y-132702702D01*
X185199400Y-132678316D01*
X185199400Y-132478860D01*
X186301000Y-132478860D01*
X186301000Y-133655460D01*
X186301000Y-133655460D01*
G37*
G36*
X182367777Y-133454916D02*
X181066177Y-133454916D01*
X181066177Y-132803316D01*
X182367777Y-132803316D01*
X182367777Y-133454916D01*
X182367777Y-133454916D01*
G37*
G36*
X189613077Y-133376116D02*
X188511477Y-133376116D01*
X188511477Y-132199516D01*
X189613077Y-132199516D01*
X189613077Y-133376116D01*
X189613077Y-133376116D01*
G37*
G36*
X182367777Y-132504916D02*
X181066177Y-132504916D01*
X181066177Y-131853316D01*
X182367777Y-131853316D01*
X182367777Y-132504916D01*
X182367777Y-132504916D01*
G37*
G36*
X180688680Y-131983680D02*
X179087080Y-131983680D01*
X179087080Y-130642080D01*
X180688680Y-130642080D01*
X180688680Y-131983680D01*
X180688680Y-131983680D01*
G37*
G36*
X186301000Y-131955460D02*
X185199400Y-131955460D01*
X185199400Y-131679916D01*
X185196998Y-131655530D01*
X185189885Y-131632081D01*
X185178334Y-131610470D01*
X185162788Y-131591528D01*
X185143846Y-131575982D01*
X185122235Y-131564431D01*
X185098786Y-131557318D01*
X185074400Y-131554916D01*
X183666377Y-131554916D01*
X183666377Y-130903316D01*
X185074400Y-130903316D01*
X185098786Y-130900914D01*
X185122235Y-130893801D01*
X185143846Y-130882250D01*
X185162788Y-130866704D01*
X185178334Y-130847762D01*
X185189885Y-130826151D01*
X185196998Y-130802702D01*
X185199346Y-130778860D01*
X186301000Y-130778860D01*
X186301000Y-131955460D01*
X186301000Y-131955460D01*
G37*
G36*
X189613077Y-131676116D02*
X188511477Y-131676116D01*
X188511477Y-130499516D01*
X189613077Y-130499516D01*
X189613077Y-131676116D01*
X189613077Y-131676116D01*
G37*
G36*
X187985877Y-131640216D02*
X186684277Y-131640216D01*
X186684277Y-130338616D01*
X187985877Y-130338616D01*
X187985877Y-131640216D01*
X187985877Y-131640216D01*
G37*
G36*
X182367777Y-131554916D02*
X181066177Y-131554916D01*
X181066177Y-130903316D01*
X182367777Y-130903316D01*
X182367777Y-131554916D01*
X182367777Y-131554916D01*
G37*
G36*
X195674680Y-131521480D02*
X194073080Y-131521480D01*
X194073080Y-130179880D01*
X195674680Y-130179880D01*
X195674680Y-131521480D01*
X195674680Y-131521480D01*
G37*
G36*
X205783063Y-131024556D02*
X196801463Y-131024556D01*
X196801463Y-129322956D01*
X205783063Y-129322956D01*
X205783063Y-131024556D01*
X205783063Y-131024556D01*
G37*
G36*
X209331286Y-128519528D02*
X209397471Y-128526047D01*
X209510697Y-128560394D01*
X209567311Y-128577567D01*
X209602563Y-128596410D01*
X209723835Y-128661232D01*
X209759573Y-128690562D01*
X209861030Y-128773824D01*
X209944292Y-128875281D01*
X209973622Y-128911019D01*
X209973623Y-128911021D01*
X210057287Y-129067543D01*
X210057287Y-129067544D01*
X210108807Y-129237383D01*
X210126203Y-129414010D01*
X210108807Y-129590637D01*
X210074460Y-129703863D01*
X210057287Y-129760477D01*
X209983192Y-129899097D01*
X209973622Y-129917001D01*
X209944292Y-129952739D01*
X209861030Y-130054196D01*
X209759573Y-130137458D01*
X209723835Y-130166788D01*
X209723833Y-130166789D01*
X209567311Y-130250453D01*
X209510697Y-130267626D01*
X209397471Y-130301973D01*
X209331286Y-130308492D01*
X209265104Y-130315010D01*
X209176584Y-130315010D01*
X209110402Y-130308492D01*
X209044217Y-130301973D01*
X208930991Y-130267626D01*
X208874377Y-130250453D01*
X208717855Y-130166789D01*
X208717853Y-130166788D01*
X208682115Y-130137458D01*
X208580658Y-130054196D01*
X208497396Y-129952739D01*
X208468066Y-129917001D01*
X208458496Y-129899097D01*
X208384401Y-129760477D01*
X208367228Y-129703863D01*
X208332881Y-129590637D01*
X208315485Y-129414010D01*
X208332881Y-129237383D01*
X208384401Y-129067544D01*
X208384401Y-129067543D01*
X208468065Y-128911021D01*
X208468066Y-128911019D01*
X208497396Y-128875281D01*
X208580658Y-128773824D01*
X208682115Y-128690562D01*
X208717853Y-128661232D01*
X208839125Y-128596410D01*
X208874377Y-128577567D01*
X208930991Y-128560394D01*
X209044217Y-128526047D01*
X209110402Y-128519528D01*
X209176584Y-128513010D01*
X209265104Y-128513010D01*
X209331286Y-128519528D01*
X209331286Y-128519528D01*
G37*
G36*
X197543063Y-128314556D02*
X195799680Y-128314556D01*
X195775294Y-128316958D01*
X195751845Y-128324071D01*
X195730234Y-128335622D01*
X195711292Y-128351168D01*
X195695746Y-128370110D01*
X195684195Y-128391721D01*
X195677082Y-128415170D01*
X195674680Y-128439556D01*
X195674680Y-129621480D01*
X194073080Y-129621480D01*
X194073080Y-128279880D01*
X195716463Y-128279880D01*
X195740849Y-128277478D01*
X195764298Y-128270365D01*
X195785909Y-128258814D01*
X195804851Y-128243268D01*
X195820397Y-128224326D01*
X195831948Y-128202715D01*
X195839061Y-128179266D01*
X195841463Y-128154880D01*
X195841463Y-121432956D01*
X197543063Y-121432956D01*
X197543063Y-128314556D01*
X197543063Y-128314556D01*
G37*
G36*
X206743063Y-129014556D02*
X205041463Y-129014556D01*
X205041463Y-121099556D01*
X205039061Y-121075170D01*
X205031948Y-121051721D01*
X205020397Y-121030110D01*
X205004851Y-121011168D01*
X204985909Y-120995622D01*
X204964298Y-120984071D01*
X204940849Y-120976958D01*
X204916463Y-120974556D01*
X203541463Y-120974556D01*
X203541463Y-120372956D01*
X204916463Y-120372956D01*
X204940849Y-120370554D01*
X204964298Y-120363441D01*
X204985909Y-120351890D01*
X205004851Y-120336344D01*
X205020397Y-120317402D01*
X205031948Y-120295791D01*
X205039061Y-120272342D01*
X205041463Y-120247956D01*
X205041463Y-119699556D01*
X205039061Y-119675170D01*
X205031948Y-119651721D01*
X205020397Y-119630110D01*
X205004851Y-119611168D01*
X204985909Y-119595622D01*
X204964298Y-119584071D01*
X204940849Y-119576958D01*
X204916463Y-119574556D01*
X203541463Y-119574556D01*
X203541463Y-118972956D01*
X204916463Y-118972956D01*
X204940849Y-118970554D01*
X204964298Y-118963441D01*
X204985909Y-118951890D01*
X205004851Y-118936344D01*
X205020397Y-118917402D01*
X205031948Y-118895791D01*
X205039061Y-118872342D01*
X205041463Y-118847956D01*
X205041463Y-118222956D01*
X206743063Y-118222956D01*
X206743063Y-129014556D01*
X206743063Y-129014556D01*
G37*
G36*
X192042365Y-127245295D02*
X192065814Y-127252408D01*
X192090200Y-127254810D01*
X193791044Y-127254810D01*
X193791044Y-128596410D01*
X192189444Y-128596410D01*
X192189444Y-128537900D01*
X192187042Y-128513514D01*
X192179929Y-128490065D01*
X192168378Y-128468454D01*
X192152832Y-128449512D01*
X192133890Y-128433966D01*
X192112279Y-128422415D01*
X192088830Y-128415302D01*
X192064444Y-128412900D01*
X190863600Y-128412900D01*
X190863600Y-127236300D01*
X192025536Y-127236300D01*
X192042365Y-127245295D01*
X192042365Y-127245295D01*
G37*
G36*
X181007940Y-128526160D02*
X179831340Y-128526160D01*
X179831340Y-127424560D01*
X181007940Y-127424560D01*
X181007940Y-128526160D01*
X181007940Y-128526160D01*
G37*
G36*
X182707940Y-128526160D02*
X181531340Y-128526160D01*
X181531340Y-127424560D01*
X182707940Y-127424560D01*
X182707940Y-128526160D01*
X182707940Y-128526160D01*
G37*
G36*
X209331286Y-125979528D02*
X209397471Y-125986047D01*
X209510697Y-126020394D01*
X209567311Y-126037567D01*
X209705931Y-126111662D01*
X209723835Y-126121232D01*
X209759573Y-126150562D01*
X209861030Y-126233824D01*
X209942384Y-126332956D01*
X209973622Y-126371019D01*
X209973623Y-126371021D01*
X210057287Y-126527543D01*
X210057287Y-126527544D01*
X210108807Y-126697383D01*
X210126203Y-126874010D01*
X210108807Y-127050637D01*
X210074460Y-127163863D01*
X210057287Y-127220477D01*
X210048829Y-127236300D01*
X209973622Y-127377001D01*
X209944292Y-127412739D01*
X209861030Y-127514196D01*
X209759573Y-127597458D01*
X209723835Y-127626788D01*
X209723833Y-127626789D01*
X209567311Y-127710453D01*
X209510697Y-127727626D01*
X209397471Y-127761973D01*
X209331286Y-127768492D01*
X209265104Y-127775010D01*
X209176584Y-127775010D01*
X209110402Y-127768492D01*
X209044217Y-127761973D01*
X208930991Y-127727626D01*
X208874377Y-127710453D01*
X208717855Y-127626789D01*
X208717853Y-127626788D01*
X208682115Y-127597458D01*
X208580658Y-127514196D01*
X208497396Y-127412739D01*
X208468066Y-127377001D01*
X208392859Y-127236300D01*
X208384401Y-127220477D01*
X208367228Y-127163863D01*
X208332881Y-127050637D01*
X208315485Y-126874010D01*
X208332881Y-126697383D01*
X208384401Y-126527544D01*
X208384401Y-126527543D01*
X208468065Y-126371021D01*
X208468066Y-126371019D01*
X208499304Y-126332956D01*
X208580658Y-126233824D01*
X208682115Y-126150562D01*
X208717853Y-126121232D01*
X208735757Y-126111662D01*
X208874377Y-126037567D01*
X208930991Y-126020394D01*
X209044217Y-125986047D01*
X209110402Y-125979528D01*
X209176584Y-125973010D01*
X209265104Y-125973010D01*
X209331286Y-125979528D01*
X209331286Y-125979528D01*
G37*
G36*
X187606535Y-127688568D02*
X186004935Y-127688568D01*
X186004935Y-126346968D01*
X187606535Y-126346968D01*
X187606535Y-127688568D01*
X187606535Y-127688568D01*
G37*
G36*
X185607035Y-127165768D02*
X184305435Y-127165768D01*
X184305435Y-126514168D01*
X185607035Y-126514168D01*
X185607035Y-127165768D01*
X185607035Y-127165768D01*
G37*
G36*
X183006835Y-127165768D02*
X181705235Y-127165768D01*
X181705235Y-126514168D01*
X183006835Y-126514168D01*
X183006835Y-127165768D01*
X183006835Y-127165768D01*
G37*
G36*
X181354160Y-126827560D02*
X179752560Y-126827560D01*
X179752560Y-125485960D01*
X181354160Y-125485960D01*
X181354160Y-126827560D01*
X181354160Y-126827560D01*
G37*
G36*
X193791044Y-126696410D02*
X192090200Y-126696410D01*
X192065814Y-126698812D01*
X192042365Y-126705925D01*
X192029315Y-126712900D01*
X190863600Y-126712900D01*
X190863600Y-125536300D01*
X192064444Y-125536300D01*
X192088830Y-125533898D01*
X192112279Y-125526785D01*
X192133890Y-125515234D01*
X192152832Y-125499688D01*
X192168378Y-125480746D01*
X192179929Y-125459135D01*
X192187042Y-125435686D01*
X192189444Y-125411300D01*
X192189444Y-125354810D01*
X193791044Y-125354810D01*
X193791044Y-126696410D01*
X193791044Y-126696410D01*
G37*
G36*
X183006835Y-126215768D02*
X181705235Y-126215768D01*
X181705235Y-125564168D01*
X183006835Y-125564168D01*
X183006835Y-126215768D01*
X183006835Y-126215768D01*
G37*
G36*
X187606535Y-125788568D02*
X186004935Y-125788568D01*
X186004935Y-124446968D01*
X187606535Y-124446968D01*
X187606535Y-125788568D01*
X187606535Y-125788568D01*
G37*
G36*
X185607035Y-125265768D02*
X184305435Y-125265768D01*
X184305435Y-124614168D01*
X185607035Y-124614168D01*
X185607035Y-125265768D01*
X185607035Y-125265768D01*
G37*
G36*
X183006835Y-125265768D02*
X181705235Y-125265768D01*
X181705235Y-124614168D01*
X183006835Y-124614168D01*
X183006835Y-125265768D01*
X183006835Y-125265768D01*
G37*
G36*
X209331287Y-123439529D02*
X209397471Y-123446047D01*
X209510697Y-123480394D01*
X209567311Y-123497567D01*
X209633518Y-123532956D01*
X209723835Y-123581232D01*
X209759573Y-123610562D01*
X209861030Y-123693824D01*
X209944292Y-123795281D01*
X209973622Y-123831019D01*
X209973623Y-123831021D01*
X210057287Y-123987543D01*
X210057287Y-123987544D01*
X210108807Y-124157383D01*
X210126203Y-124334010D01*
X210108807Y-124510637D01*
X210077401Y-124614168D01*
X210057287Y-124680477D01*
X209985619Y-124814556D01*
X209973622Y-124837001D01*
X209944292Y-124872739D01*
X209861030Y-124974196D01*
X209759573Y-125057458D01*
X209723835Y-125086788D01*
X209723833Y-125086789D01*
X209567311Y-125170453D01*
X209510697Y-125187626D01*
X209397471Y-125221973D01*
X209331286Y-125228492D01*
X209265104Y-125235010D01*
X209176584Y-125235010D01*
X209110402Y-125228492D01*
X209044217Y-125221973D01*
X208930991Y-125187626D01*
X208874377Y-125170453D01*
X208717855Y-125086789D01*
X208717853Y-125086788D01*
X208682115Y-125057458D01*
X208580658Y-124974196D01*
X208497396Y-124872739D01*
X208468066Y-124837001D01*
X208456069Y-124814556D01*
X208384401Y-124680477D01*
X208364287Y-124614168D01*
X208332881Y-124510637D01*
X208315485Y-124334010D01*
X208332881Y-124157383D01*
X208384401Y-123987544D01*
X208384401Y-123987543D01*
X208468065Y-123831021D01*
X208468066Y-123831019D01*
X208497396Y-123795281D01*
X208580658Y-123693824D01*
X208682115Y-123610562D01*
X208717853Y-123581232D01*
X208808170Y-123532956D01*
X208874377Y-123497567D01*
X208930991Y-123480394D01*
X209044217Y-123446047D01*
X209110401Y-123439529D01*
X209176584Y-123433010D01*
X209265104Y-123433010D01*
X209331287Y-123439529D01*
X209331287Y-123439529D01*
G37*
G36*
X193793544Y-124961010D02*
X192616944Y-124961010D01*
X192616944Y-123859410D01*
X193793544Y-123859410D01*
X193793544Y-124961010D01*
X193793544Y-124961010D01*
G37*
G36*
X192093544Y-124961010D02*
X190916944Y-124961010D01*
X190916944Y-123859410D01*
X192093544Y-123859410D01*
X192093544Y-124961010D01*
X192093544Y-124961010D01*
G37*
G36*
X181354160Y-124927560D02*
X179752560Y-124927560D01*
X179752560Y-123585960D01*
X181354160Y-123585960D01*
X181354160Y-124927560D01*
X181354160Y-124927560D01*
G37*
G36*
X192107144Y-123360810D02*
X190930544Y-123360810D01*
X190930544Y-122259210D01*
X192107144Y-122259210D01*
X192107144Y-123360810D01*
X192107144Y-123360810D01*
G37*
G36*
X193807144Y-123360810D02*
X192630544Y-123360810D01*
X192630544Y-122259210D01*
X193807144Y-122259210D01*
X193807144Y-123360810D01*
X193807144Y-123360810D01*
G37*
G36*
X209331287Y-120899529D02*
X209397471Y-120906047D01*
X209510697Y-120940394D01*
X209567311Y-120957567D01*
X209667590Y-121011168D01*
X209723835Y-121041232D01*
X209759573Y-121070562D01*
X209861030Y-121153824D01*
X209944292Y-121255281D01*
X209973622Y-121291019D01*
X209973623Y-121291021D01*
X210057287Y-121447543D01*
X210057287Y-121447544D01*
X210108807Y-121617383D01*
X210126203Y-121794010D01*
X210108807Y-121970637D01*
X210095484Y-122014556D01*
X210057287Y-122140477D01*
X209993822Y-122259210D01*
X209973622Y-122297001D01*
X209944292Y-122332739D01*
X209861030Y-122434196D01*
X209759573Y-122517458D01*
X209723835Y-122546788D01*
X209723833Y-122546789D01*
X209567311Y-122630453D01*
X209510697Y-122647626D01*
X209397471Y-122681973D01*
X209331286Y-122688492D01*
X209265104Y-122695010D01*
X209176584Y-122695010D01*
X209110402Y-122688492D01*
X209044217Y-122681973D01*
X208930991Y-122647626D01*
X208874377Y-122630453D01*
X208717855Y-122546789D01*
X208717853Y-122546788D01*
X208682115Y-122517458D01*
X208580658Y-122434196D01*
X208497396Y-122332739D01*
X208468066Y-122297001D01*
X208447866Y-122259210D01*
X208384401Y-122140477D01*
X208346204Y-122014556D01*
X208332881Y-121970637D01*
X208315485Y-121794010D01*
X208332881Y-121617383D01*
X208384401Y-121447544D01*
X208384401Y-121447543D01*
X208468065Y-121291021D01*
X208468066Y-121291019D01*
X208497396Y-121255281D01*
X208580658Y-121153824D01*
X208682115Y-121070562D01*
X208717853Y-121041232D01*
X208774098Y-121011168D01*
X208874377Y-120957567D01*
X208930991Y-120940394D01*
X209044217Y-120906047D01*
X209110401Y-120899529D01*
X209176584Y-120893010D01*
X209265104Y-120893010D01*
X209331287Y-120899529D01*
X209331287Y-120899529D01*
G37*
G36*
X192042744Y-121735210D02*
X190866144Y-121735210D01*
X190866144Y-120633610D01*
X192042744Y-120633610D01*
X192042744Y-121735210D01*
X192042744Y-121735210D01*
G37*
G36*
X193742744Y-121735210D02*
X192566144Y-121735210D01*
X192566144Y-120633610D01*
X193742744Y-120633610D01*
X193742744Y-121735210D01*
X193742744Y-121735210D01*
G37*
G36*
X187718579Y-119212210D02*
X187806214Y-119229642D01*
X187888763Y-119263836D01*
X187916281Y-119275234D01*
X188015340Y-119341423D01*
X188099577Y-119425660D01*
X188165766Y-119524719D01*
X188165766Y-119524720D01*
X188211358Y-119634786D01*
X188234600Y-119751632D01*
X188234600Y-119870768D01*
X188211358Y-119987614D01*
X188192576Y-120032956D01*
X188165766Y-120097681D01*
X188099577Y-120196740D01*
X188015340Y-120280977D01*
X187916281Y-120347166D01*
X187904876Y-120351890D01*
X187806214Y-120392758D01*
X187718580Y-120410189D01*
X187689369Y-120416000D01*
X187570231Y-120416000D01*
X187541020Y-120410189D01*
X187453386Y-120392758D01*
X187354724Y-120351890D01*
X187343319Y-120347166D01*
X187244260Y-120280977D01*
X187160023Y-120196740D01*
X187093834Y-120097681D01*
X187067024Y-120032956D01*
X187048242Y-119987614D01*
X187025000Y-119870768D01*
X187025000Y-119751632D01*
X187048242Y-119634786D01*
X187093834Y-119524720D01*
X187093834Y-119524719D01*
X187160023Y-119425660D01*
X187244260Y-119341423D01*
X187343319Y-119275234D01*
X187370837Y-119263836D01*
X187453386Y-119229642D01*
X187541021Y-119212210D01*
X187570231Y-119206400D01*
X187689369Y-119206400D01*
X187718579Y-119212210D01*
X187718579Y-119212210D01*
G37*
G36*
X180614600Y-120416000D02*
X179405000Y-120416000D01*
X179405000Y-119206400D01*
X180614600Y-119206400D01*
X180614600Y-120416000D01*
X180614600Y-120416000D01*
G37*
G36*
X182638579Y-119212210D02*
X182726214Y-119229642D01*
X182808763Y-119263836D01*
X182836281Y-119275234D01*
X182935340Y-119341423D01*
X183019577Y-119425660D01*
X183085766Y-119524719D01*
X183085766Y-119524720D01*
X183131358Y-119634786D01*
X183154600Y-119751632D01*
X183154600Y-119870768D01*
X183131358Y-119987614D01*
X183112576Y-120032956D01*
X183085766Y-120097681D01*
X183019577Y-120196740D01*
X182935340Y-120280977D01*
X182836281Y-120347166D01*
X182824876Y-120351890D01*
X182726214Y-120392758D01*
X182638580Y-120410189D01*
X182609369Y-120416000D01*
X182490231Y-120416000D01*
X182461020Y-120410189D01*
X182373386Y-120392758D01*
X182274724Y-120351890D01*
X182263319Y-120347166D01*
X182164260Y-120280977D01*
X182080023Y-120196740D01*
X182013834Y-120097681D01*
X181987024Y-120032956D01*
X181968242Y-119987614D01*
X181945000Y-119870768D01*
X181945000Y-119751632D01*
X181968242Y-119634786D01*
X182013834Y-119524720D01*
X182013834Y-119524719D01*
X182080023Y-119425660D01*
X182164260Y-119341423D01*
X182263319Y-119275234D01*
X182290837Y-119263836D01*
X182373386Y-119229642D01*
X182461021Y-119212210D01*
X182490231Y-119206400D01*
X182609369Y-119206400D01*
X182638579Y-119212210D01*
X182638579Y-119212210D01*
G37*
G36*
X185178579Y-119212210D02*
X185266214Y-119229642D01*
X185348763Y-119263836D01*
X185376281Y-119275234D01*
X185475340Y-119341423D01*
X185559577Y-119425660D01*
X185625766Y-119524719D01*
X185625766Y-119524720D01*
X185671358Y-119634786D01*
X185694600Y-119751632D01*
X185694600Y-119870768D01*
X185671358Y-119987614D01*
X185652576Y-120032956D01*
X185625766Y-120097681D01*
X185559577Y-120196740D01*
X185475340Y-120280977D01*
X185376281Y-120347166D01*
X185364876Y-120351890D01*
X185266214Y-120392758D01*
X185178580Y-120410189D01*
X185149369Y-120416000D01*
X185030231Y-120416000D01*
X185001020Y-120410189D01*
X184913386Y-120392758D01*
X184814724Y-120351890D01*
X184803319Y-120347166D01*
X184704260Y-120280977D01*
X184620023Y-120196740D01*
X184553834Y-120097681D01*
X184527024Y-120032956D01*
X184508242Y-119987614D01*
X184485000Y-119870768D01*
X184485000Y-119751632D01*
X184508242Y-119634786D01*
X184553834Y-119524720D01*
X184553834Y-119524719D01*
X184620023Y-119425660D01*
X184704260Y-119341423D01*
X184803319Y-119275234D01*
X184830837Y-119263836D01*
X184913386Y-119229642D01*
X185001021Y-119212210D01*
X185030231Y-119206400D01*
X185149369Y-119206400D01*
X185178579Y-119212210D01*
X185178579Y-119212210D01*
G37*
G36*
X210121844Y-120155010D02*
X208319844Y-120155010D01*
X208319844Y-118353010D01*
X210121844Y-118353010D01*
X210121844Y-120155010D01*
X210121844Y-120155010D01*
G37*
G36*
X197543063Y-119224556D02*
X195841463Y-119224556D01*
X195841463Y-118222956D01*
X197543063Y-118222956D01*
X197543063Y-119224556D01*
X197543063Y-119224556D01*
G37*
G36*
X184888000Y-115296200D02*
X183786400Y-115296200D01*
X183786400Y-110594600D01*
X184888000Y-110594600D01*
X184888000Y-115296200D01*
X184888000Y-115296200D01*
G37*
G36*
X182888000Y-115296200D02*
X181786400Y-115296200D01*
X181786400Y-110594600D01*
X182888000Y-110594600D01*
X182888000Y-115296200D01*
X182888000Y-115296200D01*
G37*
G36*
X180788000Y-109496200D02*
X179086400Y-109496200D01*
X179086400Y-105994600D01*
X180788000Y-105994600D01*
X180788000Y-109496200D01*
X180788000Y-109496200D01*
G37*
G36*
X187588000Y-109496200D02*
X185886400Y-109496200D01*
X185886400Y-105994600D01*
X187588000Y-105994600D01*
X187588000Y-109496200D01*
X187588000Y-109496200D01*
G37*
G36*
X196684136Y-98079199D02*
X196753165Y-98085998D01*
X196841735Y-98112865D01*
X196886021Y-98126299D01*
X197008459Y-98191744D01*
X197115780Y-98279820D01*
X197203856Y-98387141D01*
X197269301Y-98509579D01*
X197269301Y-98509580D01*
X197309602Y-98642435D01*
X197323210Y-98780600D01*
X197309602Y-98918765D01*
X197282735Y-99007335D01*
X197269301Y-99051621D01*
X197203856Y-99174059D01*
X197115780Y-99281380D01*
X197008459Y-99369456D01*
X196886021Y-99434901D01*
X196841735Y-99448335D01*
X196753165Y-99475202D01*
X196684136Y-99482001D01*
X196649623Y-99485400D01*
X195272377Y-99485400D01*
X195237864Y-99482001D01*
X195168835Y-99475202D01*
X195080265Y-99448335D01*
X195035979Y-99434901D01*
X194913541Y-99369456D01*
X194806220Y-99281380D01*
X194718144Y-99174059D01*
X194652699Y-99051621D01*
X194639265Y-99007335D01*
X194612398Y-98918765D01*
X194598790Y-98780600D01*
X194612398Y-98642435D01*
X194652699Y-98509580D01*
X194652699Y-98509579D01*
X194718144Y-98387141D01*
X194806220Y-98279820D01*
X194913541Y-98191744D01*
X195035979Y-98126299D01*
X195080265Y-98112865D01*
X195168835Y-98085998D01*
X195237864Y-98079199D01*
X195272377Y-98075800D01*
X196649623Y-98075800D01*
X196684136Y-98079199D01*
X196684136Y-98079199D01*
G37*
G36*
X194413760Y-93377575D02*
X194416162Y-93401961D01*
X194423275Y-93425410D01*
X194434826Y-93447021D01*
X194450372Y-93465963D01*
X194469314Y-93481509D01*
X194490925Y-93493060D01*
X194514374Y-93500173D01*
X194538760Y-93502575D01*
X194563146Y-93500173D01*
X194586595Y-93493060D01*
X194608206Y-93481509D01*
X194627148Y-93465963D01*
X194642694Y-93447021D01*
X194649000Y-93436500D01*
X194718144Y-93307141D01*
X194806220Y-93199820D01*
X194913541Y-93111744D01*
X195035979Y-93046299D01*
X195080265Y-93032865D01*
X195168835Y-93005998D01*
X195237864Y-92999199D01*
X195272377Y-92995800D01*
X196649623Y-92995800D01*
X196684136Y-92999199D01*
X196753165Y-93005998D01*
X196841735Y-93032865D01*
X196886021Y-93046299D01*
X197008459Y-93111744D01*
X197115780Y-93199820D01*
X197203856Y-93307141D01*
X197269301Y-93429579D01*
X197269301Y-93429580D01*
X197309602Y-93562435D01*
X197323210Y-93700600D01*
X197309602Y-93838765D01*
X197291261Y-93899227D01*
X197269301Y-93971621D01*
X197203856Y-94094059D01*
X197115780Y-94201380D01*
X197008459Y-94289456D01*
X196886021Y-94354901D01*
X196841735Y-94368335D01*
X196753165Y-94395202D01*
X196684136Y-94402001D01*
X196649623Y-94405400D01*
X195272377Y-94405400D01*
X195237864Y-94402001D01*
X195168835Y-94395202D01*
X195080265Y-94368335D01*
X195035979Y-94354901D01*
X194913541Y-94289456D01*
X194806220Y-94201380D01*
X194718144Y-94094059D01*
X194649000Y-93964700D01*
X194635386Y-93944326D01*
X194618059Y-93926999D01*
X194597685Y-93913385D01*
X194575046Y-93904007D01*
X194551012Y-93899227D01*
X194526508Y-93899227D01*
X194502474Y-93904007D01*
X194479835Y-93913385D01*
X194459461Y-93926999D01*
X194442134Y-93944326D01*
X194428520Y-93964700D01*
X194419142Y-93987339D01*
X194414362Y-94011373D01*
X194413760Y-94023625D01*
X194413760Y-94107660D01*
X193312160Y-94107660D01*
X193312160Y-92931060D01*
X194413760Y-92931060D01*
X194413760Y-93377575D01*
X194413760Y-93377575D01*
G37*
G36*
X194413760Y-92407660D02*
X193312160Y-92407660D01*
X193312160Y-91231060D01*
X194413760Y-91231060D01*
X194413760Y-92407660D01*
X194413760Y-92407660D01*
G37*
G36*
X196684136Y-87919199D02*
X196753165Y-87925998D01*
X196841735Y-87952865D01*
X196886021Y-87966299D01*
X197008459Y-88031744D01*
X197115780Y-88119820D01*
X197203856Y-88227141D01*
X197269301Y-88349579D01*
X197269301Y-88349580D01*
X197309602Y-88482435D01*
X197323210Y-88620600D01*
X197309602Y-88758765D01*
X197282735Y-88847335D01*
X197269301Y-88891621D01*
X197203856Y-89014059D01*
X197115780Y-89121380D01*
X197008459Y-89209456D01*
X196886021Y-89274901D01*
X196841735Y-89288335D01*
X196753165Y-89315202D01*
X196684136Y-89322001D01*
X196649623Y-89325400D01*
X195272377Y-89325400D01*
X195237864Y-89322001D01*
X195168835Y-89315202D01*
X195080265Y-89288335D01*
X195035979Y-89274901D01*
X194913541Y-89209456D01*
X194806220Y-89121380D01*
X194718144Y-89014059D01*
X194652699Y-88891621D01*
X194639265Y-88847335D01*
X194612398Y-88758765D01*
X194598790Y-88620600D01*
X194612398Y-88482435D01*
X194652699Y-88349580D01*
X194652699Y-88349579D01*
X194718144Y-88227141D01*
X194806220Y-88119820D01*
X194913541Y-88031744D01*
X195035979Y-87966299D01*
X195080265Y-87952865D01*
X195168835Y-87925998D01*
X195237864Y-87919199D01*
X195272377Y-87915800D01*
X196649623Y-87915800D01*
X196684136Y-87919199D01*
X196684136Y-87919199D01*
G37*
G36*
X193057400Y-73053400D02*
X191955800Y-73053400D01*
X191955800Y-71851800D01*
X193057400Y-71851800D01*
X193057400Y-73053400D01*
X193057400Y-73053400D01*
G37*
G36*
X194595945Y-73040495D02*
X193494345Y-73040495D01*
X193494345Y-71838895D01*
X194595945Y-71838895D01*
X194595945Y-73040495D01*
X194595945Y-73040495D01*
G37*
G36*
X193057400Y-71353400D02*
X191955800Y-71353400D01*
X191955800Y-70151800D01*
X193057400Y-70151800D01*
X193057400Y-71353400D01*
X193057400Y-71353400D01*
G37*
G36*
X194595945Y-71340495D02*
X193494345Y-71340495D01*
X193494345Y-70138895D01*
X194595945Y-70138895D01*
X194595945Y-71340495D01*
X194595945Y-71340495D01*
G37*
G36*
X191518200Y-69795800D02*
X190416600Y-69795800D01*
X190416600Y-68294200D01*
X191518200Y-68294200D01*
X191518200Y-69795800D01*
X191518200Y-69795800D01*
G37*
G36*
X189618200Y-69795800D02*
X188516600Y-69795800D01*
X188516600Y-68294200D01*
X189618200Y-68294200D01*
X189618200Y-69795800D01*
X189618200Y-69795800D01*
G37*
G36*
X196918240Y-67603960D02*
X195816640Y-67603960D01*
X195816640Y-66102360D01*
X196918240Y-66102360D01*
X196918240Y-67603960D01*
X196918240Y-67603960D01*
G37*
G36*
X195018240Y-67603960D02*
X193916640Y-67603960D01*
X193916640Y-66102360D01*
X195018240Y-66102360D01*
X195018240Y-67603960D01*
X195018240Y-67603960D01*
G37*
G36*
X190568200Y-67595800D02*
X189466600Y-67595800D01*
X189466600Y-66094200D01*
X190568200Y-66094200D01*
X190568200Y-67595800D01*
X190568200Y-67595800D01*
G37*
G36*
X199365090Y-66721996D02*
X198263490Y-66721996D01*
X198263490Y-65520396D01*
X199365090Y-65520396D01*
X199365090Y-66721996D01*
X199365090Y-66721996D01*
G37*
G36*
X201033000Y-66689800D02*
X199931400Y-66689800D01*
X199931400Y-65488200D01*
X201033000Y-65488200D01*
X201033000Y-66689800D01*
X201033000Y-66689800D01*
G37*
G36*
X195968240Y-65403960D02*
X194866640Y-65403960D01*
X194866640Y-63902360D01*
X195968240Y-63902360D01*
X195968240Y-65403960D01*
X195968240Y-65403960D01*
G37*
G36*
X199365090Y-65021996D02*
X198263490Y-65021996D01*
X198263490Y-63820396D01*
X199365090Y-63820396D01*
X199365090Y-65021996D01*
X199365090Y-65021996D01*
G37*
G36*
X201033000Y-64989800D02*
X199931400Y-64989800D01*
X199931400Y-63788200D01*
X201033000Y-63788200D01*
X201033000Y-64989800D01*
X201033000Y-64989800D01*
G37*
G36*
X200804440Y-62587280D02*
X199702840Y-62587280D01*
X199702840Y-61085680D01*
X200804440Y-61085680D01*
X200804440Y-62587280D01*
X200804440Y-62587280D01*
G37*
G36*
X198904440Y-62587280D02*
X197802840Y-62587280D01*
X197802840Y-61085680D01*
X198904440Y-61085680D01*
X198904440Y-62587280D01*
X198904440Y-62587280D01*
G37*
G36*
X199854440Y-60387280D02*
X198752840Y-60387280D01*
X198752840Y-58885680D01*
X199854440Y-58885680D01*
X199854440Y-60387280D01*
X199854440Y-60387280D01*
G37*
M02*
