G04 #@! TF.GenerationSoftware,KiCad,Pcbnew,(6.0.0-rc1-dev-1027-g90233e5ec)*
G04 #@! TF.CreationDate,2018-11-05T19:06:39+01:00*
G04 #@! TF.ProjectId,eBoard_remote_control,65426F6172645F72656D6F74655F636F,rev?*
G04 #@! TF.SameCoordinates,Original*
G04 #@! TF.FileFunction,Soldermask,Bot*
G04 #@! TF.FilePolarity,Negative*
%FSLAX46Y46*%
G04 Gerber Fmt 4.6, Leading zero omitted, Abs format (unit mm)*
G04 Created by KiCad (PCBNEW (6.0.0-rc1-dev-1027-g90233e5ec)) date 11/05/18 19:06:39*
%MOMM*%
%LPD*%
G01*
G04 APERTURE LIST*
%ADD10C,0.100000*%
G04 APERTURE END LIST*
D10*
G36*
X190174168Y-149862245D02*
X190325874Y-149908264D01*
X190465686Y-149982996D01*
X190588233Y-150083567D01*
X190688804Y-150206114D01*
X190763536Y-150345926D01*
X190809555Y-150497632D01*
X190821200Y-150615864D01*
X190821200Y-152202936D01*
X190809555Y-152321168D01*
X190763536Y-152472874D01*
X190688804Y-152612686D01*
X190588233Y-152735233D01*
X190465685Y-152835804D01*
X190325873Y-152910536D01*
X190174167Y-152956555D01*
X190016400Y-152972094D01*
X189858632Y-152956555D01*
X189706926Y-152910536D01*
X189567114Y-152835804D01*
X189444567Y-152735233D01*
X189343996Y-152612685D01*
X189269264Y-152472873D01*
X189223245Y-152321167D01*
X189211600Y-152202935D01*
X189211601Y-150615864D01*
X189223246Y-150497632D01*
X189269265Y-150345926D01*
X189343997Y-150206114D01*
X189444568Y-150083567D01*
X189567115Y-149982996D01*
X189706927Y-149908264D01*
X189858633Y-149862245D01*
X190016400Y-149846706D01*
X190174168Y-149862245D01*
X190174168Y-149862245D01*
G37*
G36*
X199574168Y-149862245D02*
X199725874Y-149908264D01*
X199865686Y-149982996D01*
X199988233Y-150083567D01*
X200088804Y-150206114D01*
X200163536Y-150345926D01*
X200209555Y-150497632D01*
X200221200Y-150615864D01*
X200221200Y-152202936D01*
X200209555Y-152321168D01*
X200163536Y-152472874D01*
X200088804Y-152612686D01*
X199988233Y-152735233D01*
X199865685Y-152835804D01*
X199725873Y-152910536D01*
X199574167Y-152956555D01*
X199416400Y-152972094D01*
X199258632Y-152956555D01*
X199106926Y-152910536D01*
X198967114Y-152835804D01*
X198844567Y-152735233D01*
X198743996Y-152612685D01*
X198669264Y-152472873D01*
X198623245Y-152321167D01*
X198611600Y-152202935D01*
X198611601Y-150615864D01*
X198623246Y-150497632D01*
X198669265Y-150345926D01*
X198743997Y-150206114D01*
X198844568Y-150083567D01*
X198967115Y-149982996D01*
X199106927Y-149908264D01*
X199258633Y-149862245D01*
X199416400Y-149846706D01*
X199574168Y-149862245D01*
X199574168Y-149862245D01*
G37*
G36*
X194874168Y-149862245D02*
X195025874Y-149908264D01*
X195165686Y-149982996D01*
X195288233Y-150083567D01*
X195388804Y-150206114D01*
X195463536Y-150345926D01*
X195509555Y-150497632D01*
X195521200Y-150615864D01*
X195521200Y-152202936D01*
X195509555Y-152321168D01*
X195463536Y-152472874D01*
X195388804Y-152612686D01*
X195288233Y-152735233D01*
X195165685Y-152835804D01*
X195025873Y-152910536D01*
X194874167Y-152956555D01*
X194716400Y-152972094D01*
X194558632Y-152956555D01*
X194406926Y-152910536D01*
X194267114Y-152835804D01*
X194144567Y-152735233D01*
X194043996Y-152612685D01*
X193969264Y-152472873D01*
X193923245Y-152321167D01*
X193911600Y-152202935D01*
X193911601Y-150615864D01*
X193923246Y-150497632D01*
X193969265Y-150345926D01*
X194043997Y-150206114D01*
X194144568Y-150083567D01*
X194267115Y-149982996D01*
X194406927Y-149908264D01*
X194558633Y-149862245D01*
X194716400Y-149846706D01*
X194874168Y-149862245D01*
X194874168Y-149862245D01*
G37*
G36*
X209331286Y-128519528D02*
X209397471Y-128526047D01*
X209510697Y-128560394D01*
X209567311Y-128577567D01*
X209705931Y-128651662D01*
X209723835Y-128661232D01*
X209759573Y-128690562D01*
X209861030Y-128773824D01*
X209944292Y-128875281D01*
X209973622Y-128911019D01*
X209973623Y-128911021D01*
X210057287Y-129067543D01*
X210057287Y-129067544D01*
X210108807Y-129237383D01*
X210126203Y-129414010D01*
X210108807Y-129590637D01*
X210074460Y-129703863D01*
X210057287Y-129760477D01*
X209983192Y-129899097D01*
X209973622Y-129917001D01*
X209944292Y-129952739D01*
X209861030Y-130054196D01*
X209759573Y-130137458D01*
X209723835Y-130166788D01*
X209723833Y-130166789D01*
X209567311Y-130250453D01*
X209510697Y-130267626D01*
X209397471Y-130301973D01*
X209331286Y-130308492D01*
X209265104Y-130315010D01*
X209176584Y-130315010D01*
X209110402Y-130308492D01*
X209044217Y-130301973D01*
X208930991Y-130267626D01*
X208874377Y-130250453D01*
X208717855Y-130166789D01*
X208717853Y-130166788D01*
X208682115Y-130137458D01*
X208580658Y-130054196D01*
X208497396Y-129952739D01*
X208468066Y-129917001D01*
X208458496Y-129899097D01*
X208384401Y-129760477D01*
X208367228Y-129703863D01*
X208332881Y-129590637D01*
X208315485Y-129414010D01*
X208332881Y-129237383D01*
X208384401Y-129067544D01*
X208384401Y-129067543D01*
X208468065Y-128911021D01*
X208468066Y-128911019D01*
X208497396Y-128875281D01*
X208580658Y-128773824D01*
X208682115Y-128690562D01*
X208717853Y-128661232D01*
X208735757Y-128651662D01*
X208874377Y-128577567D01*
X208930991Y-128560394D01*
X209044217Y-128526047D01*
X209110402Y-128519528D01*
X209176584Y-128513010D01*
X209265104Y-128513010D01*
X209331286Y-128519528D01*
X209331286Y-128519528D01*
G37*
G36*
X209331286Y-125979528D02*
X209397471Y-125986047D01*
X209510697Y-126020394D01*
X209567311Y-126037567D01*
X209705931Y-126111662D01*
X209723835Y-126121232D01*
X209759573Y-126150562D01*
X209861030Y-126233824D01*
X209944292Y-126335281D01*
X209973622Y-126371019D01*
X209973623Y-126371021D01*
X210057287Y-126527543D01*
X210057287Y-126527544D01*
X210108807Y-126697383D01*
X210126203Y-126874010D01*
X210108807Y-127050637D01*
X210074460Y-127163863D01*
X210057287Y-127220477D01*
X209983192Y-127359097D01*
X209973622Y-127377001D01*
X209944292Y-127412739D01*
X209861030Y-127514196D01*
X209759573Y-127597458D01*
X209723835Y-127626788D01*
X209723833Y-127626789D01*
X209567311Y-127710453D01*
X209510697Y-127727626D01*
X209397471Y-127761973D01*
X209331286Y-127768492D01*
X209265104Y-127775010D01*
X209176584Y-127775010D01*
X209110402Y-127768492D01*
X209044217Y-127761973D01*
X208930991Y-127727626D01*
X208874377Y-127710453D01*
X208717855Y-127626789D01*
X208717853Y-127626788D01*
X208682115Y-127597458D01*
X208580658Y-127514196D01*
X208497396Y-127412739D01*
X208468066Y-127377001D01*
X208458496Y-127359097D01*
X208384401Y-127220477D01*
X208367228Y-127163863D01*
X208332881Y-127050637D01*
X208315485Y-126874010D01*
X208332881Y-126697383D01*
X208384401Y-126527544D01*
X208384401Y-126527543D01*
X208468065Y-126371021D01*
X208468066Y-126371019D01*
X208497396Y-126335281D01*
X208580658Y-126233824D01*
X208682115Y-126150562D01*
X208717853Y-126121232D01*
X208735757Y-126111662D01*
X208874377Y-126037567D01*
X208930991Y-126020394D01*
X209044217Y-125986047D01*
X209110402Y-125979528D01*
X209176584Y-125973010D01*
X209265104Y-125973010D01*
X209331286Y-125979528D01*
X209331286Y-125979528D01*
G37*
G36*
X209331287Y-123439529D02*
X209397471Y-123446047D01*
X209510697Y-123480394D01*
X209567311Y-123497567D01*
X209705931Y-123571662D01*
X209723835Y-123581232D01*
X209759573Y-123610562D01*
X209861030Y-123693824D01*
X209944292Y-123795281D01*
X209973622Y-123831019D01*
X209973623Y-123831021D01*
X210057287Y-123987543D01*
X210057287Y-123987544D01*
X210108807Y-124157383D01*
X210126203Y-124334010D01*
X210108807Y-124510637D01*
X210074460Y-124623863D01*
X210057287Y-124680477D01*
X209983192Y-124819097D01*
X209973622Y-124837001D01*
X209944292Y-124872739D01*
X209861030Y-124974196D01*
X209759573Y-125057458D01*
X209723835Y-125086788D01*
X209723833Y-125086789D01*
X209567311Y-125170453D01*
X209510697Y-125187626D01*
X209397471Y-125221973D01*
X209331286Y-125228492D01*
X209265104Y-125235010D01*
X209176584Y-125235010D01*
X209110402Y-125228492D01*
X209044217Y-125221973D01*
X208930991Y-125187626D01*
X208874377Y-125170453D01*
X208717855Y-125086789D01*
X208717853Y-125086788D01*
X208682115Y-125057458D01*
X208580658Y-124974196D01*
X208497396Y-124872739D01*
X208468066Y-124837001D01*
X208458496Y-124819097D01*
X208384401Y-124680477D01*
X208367228Y-124623863D01*
X208332881Y-124510637D01*
X208315485Y-124334010D01*
X208332881Y-124157383D01*
X208384401Y-123987544D01*
X208384401Y-123987543D01*
X208468065Y-123831021D01*
X208468066Y-123831019D01*
X208497396Y-123795281D01*
X208580658Y-123693824D01*
X208682115Y-123610562D01*
X208717853Y-123581232D01*
X208735757Y-123571662D01*
X208874377Y-123497567D01*
X208930991Y-123480394D01*
X209044217Y-123446047D01*
X209110401Y-123439529D01*
X209176584Y-123433010D01*
X209265104Y-123433010D01*
X209331287Y-123439529D01*
X209331287Y-123439529D01*
G37*
G36*
X209331287Y-120899529D02*
X209397471Y-120906047D01*
X209510697Y-120940394D01*
X209567311Y-120957567D01*
X209705931Y-121031662D01*
X209723835Y-121041232D01*
X209759573Y-121070562D01*
X209861030Y-121153824D01*
X209944292Y-121255281D01*
X209973622Y-121291019D01*
X209973623Y-121291021D01*
X210057287Y-121447543D01*
X210057287Y-121447544D01*
X210108807Y-121617383D01*
X210126203Y-121794010D01*
X210108807Y-121970637D01*
X210074460Y-122083863D01*
X210057287Y-122140477D01*
X209983192Y-122279097D01*
X209973622Y-122297001D01*
X209944292Y-122332739D01*
X209861030Y-122434196D01*
X209759573Y-122517458D01*
X209723835Y-122546788D01*
X209723833Y-122546789D01*
X209567311Y-122630453D01*
X209510697Y-122647626D01*
X209397471Y-122681973D01*
X209331286Y-122688492D01*
X209265104Y-122695010D01*
X209176584Y-122695010D01*
X209110402Y-122688492D01*
X209044217Y-122681973D01*
X208930991Y-122647626D01*
X208874377Y-122630453D01*
X208717855Y-122546789D01*
X208717853Y-122546788D01*
X208682115Y-122517458D01*
X208580658Y-122434196D01*
X208497396Y-122332739D01*
X208468066Y-122297001D01*
X208458496Y-122279097D01*
X208384401Y-122140477D01*
X208367228Y-122083863D01*
X208332881Y-121970637D01*
X208315485Y-121794010D01*
X208332881Y-121617383D01*
X208384401Y-121447544D01*
X208384401Y-121447543D01*
X208468065Y-121291021D01*
X208468066Y-121291019D01*
X208497396Y-121255281D01*
X208580658Y-121153824D01*
X208682115Y-121070562D01*
X208717853Y-121041232D01*
X208735757Y-121031662D01*
X208874377Y-120957567D01*
X208930991Y-120940394D01*
X209044217Y-120906047D01*
X209110401Y-120899529D01*
X209176584Y-120893010D01*
X209265104Y-120893010D01*
X209331287Y-120899529D01*
X209331287Y-120899529D01*
G37*
G36*
X187718579Y-119212210D02*
X187806214Y-119229642D01*
X187888763Y-119263836D01*
X187916281Y-119275234D01*
X188015340Y-119341423D01*
X188099577Y-119425660D01*
X188165766Y-119524719D01*
X188165766Y-119524720D01*
X188211358Y-119634786D01*
X188234600Y-119751632D01*
X188234600Y-119870768D01*
X188211358Y-119987614D01*
X188177164Y-120070163D01*
X188165766Y-120097681D01*
X188099577Y-120196740D01*
X188015340Y-120280977D01*
X187916281Y-120347166D01*
X187888763Y-120358564D01*
X187806214Y-120392758D01*
X187718580Y-120410189D01*
X187689369Y-120416000D01*
X187570231Y-120416000D01*
X187541020Y-120410189D01*
X187453386Y-120392758D01*
X187370837Y-120358564D01*
X187343319Y-120347166D01*
X187244260Y-120280977D01*
X187160023Y-120196740D01*
X187093834Y-120097681D01*
X187082436Y-120070163D01*
X187048242Y-119987614D01*
X187025000Y-119870768D01*
X187025000Y-119751632D01*
X187048242Y-119634786D01*
X187093834Y-119524720D01*
X187093834Y-119524719D01*
X187160023Y-119425660D01*
X187244260Y-119341423D01*
X187343319Y-119275234D01*
X187370837Y-119263836D01*
X187453386Y-119229642D01*
X187541021Y-119212210D01*
X187570231Y-119206400D01*
X187689369Y-119206400D01*
X187718579Y-119212210D01*
X187718579Y-119212210D01*
G37*
G36*
X180614600Y-120416000D02*
X179405000Y-120416000D01*
X179405000Y-119206400D01*
X180614600Y-119206400D01*
X180614600Y-120416000D01*
X180614600Y-120416000D01*
G37*
G36*
X182638579Y-119212210D02*
X182726214Y-119229642D01*
X182808763Y-119263836D01*
X182836281Y-119275234D01*
X182935340Y-119341423D01*
X183019577Y-119425660D01*
X183085766Y-119524719D01*
X183085766Y-119524720D01*
X183131358Y-119634786D01*
X183154600Y-119751632D01*
X183154600Y-119870768D01*
X183131358Y-119987614D01*
X183097164Y-120070163D01*
X183085766Y-120097681D01*
X183019577Y-120196740D01*
X182935340Y-120280977D01*
X182836281Y-120347166D01*
X182808763Y-120358564D01*
X182726214Y-120392758D01*
X182638580Y-120410189D01*
X182609369Y-120416000D01*
X182490231Y-120416000D01*
X182461020Y-120410189D01*
X182373386Y-120392758D01*
X182290837Y-120358564D01*
X182263319Y-120347166D01*
X182164260Y-120280977D01*
X182080023Y-120196740D01*
X182013834Y-120097681D01*
X182002436Y-120070163D01*
X181968242Y-119987614D01*
X181945000Y-119870768D01*
X181945000Y-119751632D01*
X181968242Y-119634786D01*
X182013834Y-119524720D01*
X182013834Y-119524719D01*
X182080023Y-119425660D01*
X182164260Y-119341423D01*
X182263319Y-119275234D01*
X182290837Y-119263836D01*
X182373386Y-119229642D01*
X182461021Y-119212210D01*
X182490231Y-119206400D01*
X182609369Y-119206400D01*
X182638579Y-119212210D01*
X182638579Y-119212210D01*
G37*
G36*
X185178579Y-119212210D02*
X185266214Y-119229642D01*
X185348763Y-119263836D01*
X185376281Y-119275234D01*
X185475340Y-119341423D01*
X185559577Y-119425660D01*
X185625766Y-119524719D01*
X185625766Y-119524720D01*
X185671358Y-119634786D01*
X185694600Y-119751632D01*
X185694600Y-119870768D01*
X185671358Y-119987614D01*
X185637164Y-120070163D01*
X185625766Y-120097681D01*
X185559577Y-120196740D01*
X185475340Y-120280977D01*
X185376281Y-120347166D01*
X185348763Y-120358564D01*
X185266214Y-120392758D01*
X185178580Y-120410189D01*
X185149369Y-120416000D01*
X185030231Y-120416000D01*
X185001020Y-120410189D01*
X184913386Y-120392758D01*
X184830837Y-120358564D01*
X184803319Y-120347166D01*
X184704260Y-120280977D01*
X184620023Y-120196740D01*
X184553834Y-120097681D01*
X184542436Y-120070163D01*
X184508242Y-119987614D01*
X184485000Y-119870768D01*
X184485000Y-119751632D01*
X184508242Y-119634786D01*
X184553834Y-119524720D01*
X184553834Y-119524719D01*
X184620023Y-119425660D01*
X184704260Y-119341423D01*
X184803319Y-119275234D01*
X184830837Y-119263836D01*
X184913386Y-119229642D01*
X185001021Y-119212210D01*
X185030231Y-119206400D01*
X185149369Y-119206400D01*
X185178579Y-119212210D01*
X185178579Y-119212210D01*
G37*
G36*
X210121844Y-120155010D02*
X208319844Y-120155010D01*
X208319844Y-118353010D01*
X210121844Y-118353010D01*
X210121844Y-120155010D01*
X210121844Y-120155010D01*
G37*
G36*
X196684136Y-98079199D02*
X196753165Y-98085998D01*
X196841735Y-98112865D01*
X196886021Y-98126299D01*
X197008459Y-98191744D01*
X197115780Y-98279820D01*
X197203856Y-98387141D01*
X197269301Y-98509579D01*
X197269301Y-98509580D01*
X197309602Y-98642435D01*
X197323210Y-98780600D01*
X197309602Y-98918765D01*
X197282735Y-99007335D01*
X197269301Y-99051621D01*
X197203856Y-99174059D01*
X197115780Y-99281380D01*
X197008459Y-99369456D01*
X196886021Y-99434901D01*
X196841735Y-99448335D01*
X196753165Y-99475202D01*
X196684136Y-99482001D01*
X196649623Y-99485400D01*
X195272377Y-99485400D01*
X195237864Y-99482001D01*
X195168835Y-99475202D01*
X195080265Y-99448335D01*
X195035979Y-99434901D01*
X194913541Y-99369456D01*
X194806220Y-99281380D01*
X194718144Y-99174059D01*
X194652699Y-99051621D01*
X194639265Y-99007335D01*
X194612398Y-98918765D01*
X194598790Y-98780600D01*
X194612398Y-98642435D01*
X194652699Y-98509580D01*
X194652699Y-98509579D01*
X194718144Y-98387141D01*
X194806220Y-98279820D01*
X194913541Y-98191744D01*
X195035979Y-98126299D01*
X195080265Y-98112865D01*
X195168835Y-98085998D01*
X195237864Y-98079199D01*
X195272377Y-98075800D01*
X196649623Y-98075800D01*
X196684136Y-98079199D01*
X196684136Y-98079199D01*
G37*
G36*
X196684136Y-92999199D02*
X196753165Y-93005998D01*
X196841735Y-93032865D01*
X196886021Y-93046299D01*
X197008459Y-93111744D01*
X197115780Y-93199820D01*
X197203856Y-93307141D01*
X197269301Y-93429579D01*
X197269301Y-93429580D01*
X197309602Y-93562435D01*
X197323210Y-93700600D01*
X197309602Y-93838765D01*
X197282735Y-93927335D01*
X197269301Y-93971621D01*
X197203856Y-94094059D01*
X197115780Y-94201380D01*
X197008459Y-94289456D01*
X196886021Y-94354901D01*
X196841735Y-94368335D01*
X196753165Y-94395202D01*
X196684136Y-94402001D01*
X196649623Y-94405400D01*
X195272377Y-94405400D01*
X195237864Y-94402001D01*
X195168835Y-94395202D01*
X195080265Y-94368335D01*
X195035979Y-94354901D01*
X194913541Y-94289456D01*
X194806220Y-94201380D01*
X194718144Y-94094059D01*
X194652699Y-93971621D01*
X194639265Y-93927335D01*
X194612398Y-93838765D01*
X194598790Y-93700600D01*
X194612398Y-93562435D01*
X194652699Y-93429580D01*
X194652699Y-93429579D01*
X194718144Y-93307141D01*
X194806220Y-93199820D01*
X194913541Y-93111744D01*
X195035979Y-93046299D01*
X195080265Y-93032865D01*
X195168835Y-93005998D01*
X195237864Y-92999199D01*
X195272377Y-92995800D01*
X196649623Y-92995800D01*
X196684136Y-92999199D01*
X196684136Y-92999199D01*
G37*
G36*
X196684136Y-87919199D02*
X196753165Y-87925998D01*
X196841735Y-87952865D01*
X196886021Y-87966299D01*
X197008459Y-88031744D01*
X197115780Y-88119820D01*
X197203856Y-88227141D01*
X197269301Y-88349579D01*
X197269301Y-88349580D01*
X197309602Y-88482435D01*
X197323210Y-88620600D01*
X197309602Y-88758765D01*
X197282735Y-88847335D01*
X197269301Y-88891621D01*
X197203856Y-89014059D01*
X197115780Y-89121380D01*
X197008459Y-89209456D01*
X196886021Y-89274901D01*
X196841735Y-89288335D01*
X196753165Y-89315202D01*
X196684136Y-89322001D01*
X196649623Y-89325400D01*
X195272377Y-89325400D01*
X195237864Y-89322001D01*
X195168835Y-89315202D01*
X195080265Y-89288335D01*
X195035979Y-89274901D01*
X194913541Y-89209456D01*
X194806220Y-89121380D01*
X194718144Y-89014059D01*
X194652699Y-88891621D01*
X194639265Y-88847335D01*
X194612398Y-88758765D01*
X194598790Y-88620600D01*
X194612398Y-88482435D01*
X194652699Y-88349580D01*
X194652699Y-88349579D01*
X194718144Y-88227141D01*
X194806220Y-88119820D01*
X194913541Y-88031744D01*
X195035979Y-87966299D01*
X195080265Y-87952865D01*
X195168835Y-87925998D01*
X195237864Y-87919199D01*
X195272377Y-87915800D01*
X196649623Y-87915800D01*
X196684136Y-87919199D01*
X196684136Y-87919199D01*
G37*
M02*
